# Torrent authored macroform LOD1 semantic component
# Imported production resource; exact geometry/authenticity false
o BlockyAftBody
usemtl torrent_hull_ivory
v -1.920000 0.160000 1.510000
v -1.920000 2.240000 1.510000
v 1.920000 2.240000 1.510000
v -1.920000 0.160000 1.510000
v 1.920000 2.240000 1.510000
v 1.920000 0.160000 1.510000
v -1.920000 0.160000 3.590000
v 1.920000 0.160000 3.590000
v 1.920000 2.240000 3.590000
v -1.920000 0.160000 3.590000
v 1.920000 2.240000 3.590000
v -1.920000 2.240000 3.590000
v -1.920000 0.160000 1.510000
v -1.920000 0.160000 3.590000
v -1.920000 2.240000 3.590000
v -1.920000 0.160000 1.510000
v -1.920000 2.240000 3.590000
v -1.920000 2.240000 1.510000
v 1.920000 0.160000 1.510000
v 1.920000 2.240000 1.510000
v 1.920000 2.240000 3.590000
v 1.920000 0.160000 1.510000
v 1.920000 2.240000 3.590000
v 1.920000 0.160000 3.590000
v -1.920000 0.160000 1.510000
v 1.920000 0.160000 1.510000
v 1.920000 0.160000 3.590000
v -1.920000 0.160000 1.510000
v 1.920000 0.160000 3.590000
v -1.920000 0.160000 3.590000
v -1.920000 2.240000 1.510000
v -1.920000 2.240000 3.590000
v 1.920000 2.240000 3.590000
v -1.920000 2.240000 1.510000
v 1.920000 2.240000 3.590000
v 1.920000 2.240000 1.510000
v -1.640000 2.150000 1.795000
v -1.640000 2.570000 1.795000
v 1.640000 2.570000 1.795000
v -1.640000 2.150000 1.795000
v 1.640000 2.570000 1.795000
v 1.640000 2.150000 1.795000
v -1.640000 2.150000 3.445000
v 1.640000 2.150000 3.445000
v 1.640000 2.570000 3.445000
v -1.640000 2.150000 3.445000
v 1.640000 2.570000 3.445000
v -1.640000 2.570000 3.445000
v -1.640000 2.150000 1.795000
v -1.640000 2.150000 3.445000
v -1.640000 2.570000 3.445000
v -1.640000 2.150000 1.795000
v -1.640000 2.570000 3.445000
v -1.640000 2.570000 1.795000
v 1.640000 2.150000 1.795000
v 1.640000 2.570000 1.795000
v 1.640000 2.570000 3.445000
v 1.640000 2.150000 1.795000
v 1.640000 2.570000 3.445000
v 1.640000 2.150000 3.445000
v -1.640000 2.150000 1.795000
v 1.640000 2.150000 1.795000
v 1.640000 2.150000 3.445000
v -1.640000 2.150000 1.795000
v 1.640000 2.150000 3.445000
v -1.640000 2.150000 3.445000
v -1.640000 2.570000 1.795000
v -1.640000 2.570000 3.445000
v 1.640000 2.570000 3.445000
v -1.640000 2.570000 1.795000
v 1.640000 2.570000 3.445000
v 1.640000 2.570000 1.795000
v -1.550000 0.475000 3.540000
v -1.550000 1.925000 3.540000
v 1.550000 1.925000 3.540000
v -1.550000 0.475000 3.540000
v 1.550000 1.925000 3.540000
v 1.550000 0.475000 3.540000
v -1.550000 0.475000 3.600000
v 1.550000 0.475000 3.600000
v 1.550000 1.925000 3.600000
v -1.550000 0.475000 3.600000
v 1.550000 1.925000 3.600000
v -1.550000 1.925000 3.600000
v -1.550000 0.475000 3.540000
v -1.550000 0.475000 3.600000
v -1.550000 1.925000 3.600000
v -1.550000 0.475000 3.540000
v -1.550000 1.925000 3.600000
v -1.550000 1.925000 3.540000
v 1.550000 0.475000 3.540000
v 1.550000 1.925000 3.540000
v 1.550000 1.925000 3.600000
v 1.550000 0.475000 3.540000
v 1.550000 1.925000 3.600000
v 1.550000 0.475000 3.600000
v -1.550000 0.475000 3.540000
v 1.550000 0.475000 3.540000
v 1.550000 0.475000 3.600000
v -1.550000 0.475000 3.540000
v 1.550000 0.475000 3.600000
v -1.550000 0.475000 3.600000
v -1.550000 1.925000 3.540000
v -1.550000 1.925000 3.600000
v 1.550000 1.925000 3.600000
v -1.550000 1.925000 3.540000
v 1.550000 1.925000 3.600000
v 1.550000 1.925000 3.540000
vt 0.081600 0.176000
vt 0.081600 0.044813
vt 0.131200 0.044813
vt 0.081600 0.176000
vt 0.131200 0.044813
vt 0.131200 0.176000
vt 0.131200 0.336000
vt 0.081600 0.336000
vt 0.081600 0.204813
vt 0.131200 0.336000
vt 0.081600 0.204813
vt 0.131200 0.204813
vt 0.131200 0.816000
vt 0.081837 0.816000
vt 0.081837 0.684813
vt 0.131200 0.816000
vt 0.081837 0.684813
vt 0.131200 0.684813
vt 0.081600 0.976000
vt 0.081600 0.844813
vt 0.130963 0.844813
vt 0.081600 0.976000
vt 0.130963 0.844813
vt 0.130963 0.976000
vt 0.081600 0.344000
vt 0.131200 0.344000
vt 0.131200 0.495273
vt 0.081600 0.344000
vt 0.131200 0.495273
vt 0.081600 0.495273
vt 0.081600 0.656000
vt 0.081600 0.504727
vt 0.131200 0.504727
vt 0.081600 0.656000
vt 0.131200 0.504727
vt 0.131200 0.656000
vt 0.085217 0.050490
vt 0.085217 0.024000
vt 0.127583 0.024000
vt 0.085217 0.050490
vt 0.127583 0.024000
vt 0.127583 0.050490
vt 0.127583 0.210490
vt 0.085217 0.210490
vt 0.085217 0.184000
vt 0.127583 0.210490
vt 0.085217 0.184000
vt 0.127583 0.184000
vt 0.124436 0.690490
vt 0.085278 0.690490
vt 0.085278 0.664000
vt 0.124436 0.690490
vt 0.085278 0.664000
vt 0.124436 0.664000
vt 0.088364 0.850490
vt 0.088364 0.824000
vt 0.127522 0.824000
vt 0.088364 0.850490
vt 0.127522 0.824000
vt 0.127522 0.850490
vt 0.085217 0.364727
vt 0.127583 0.364727
vt 0.127583 0.484727
vt 0.085217 0.364727
vt 0.127583 0.484727
vt 0.085217 0.484727
vt 0.085217 0.635273
vt 0.085217 0.515273
vt 0.127583 0.515273
vt 0.085217 0.635273
vt 0.127583 0.515273
vt 0.127583 0.635273
vt 0.086379 0.156133
vt 0.086379 0.064681
vt 0.126421 0.064681
vt 0.086379 0.156133
vt 0.126421 0.064681
vt 0.126421 0.156133
vt 0.126421 0.316133
vt 0.086379 0.316133
vt 0.086379 0.224681
vt 0.126421 0.316133
vt 0.086379 0.224681
vt 0.126421 0.224681
vt 0.083024 0.796133
vt 0.081600 0.796133
vt 0.081600 0.704681
vt 0.083024 0.796133
vt 0.081600 0.704681
vt 0.083024 0.704681
vt 0.129776 0.956133
vt 0.129776 0.864680
vt 0.131200 0.864680
vt 0.129776 0.956133
vt 0.131200 0.864680
vt 0.131200 0.956133
vt 0.086379 0.491636
vt 0.126421 0.491636
vt 0.126421 0.496000
vt 0.086379 0.491636
vt 0.126421 0.496000
vt 0.086379 0.496000
vt 0.086379 0.508364
vt 0.086379 0.504000
vt 0.126421 0.504000
vt 0.086379 0.508364
vt 0.126421 0.504000
vt 0.126421 0.508364
vn 0.000000 0.000000 -1.000000
vn 0.000000 0.000000 -1.000000
vn 0.000000 0.000000 -1.000000
vn 0.000000 0.000000 -1.000000
vn 0.000000 0.000000 -1.000000
vn 0.000000 0.000000 -1.000000
vn 0.000000 0.000000 1.000000
vn 0.000000 0.000000 1.000000
vn 0.000000 0.000000 1.000000
vn 0.000000 0.000000 1.000000
vn 0.000000 0.000000 1.000000
vn 0.000000 0.000000 1.000000
vn -1.000000 0.000000 0.000000
vn -1.000000 0.000000 0.000000
vn -1.000000 0.000000 0.000000
vn -1.000000 0.000000 0.000000
vn -1.000000 0.000000 0.000000
vn -1.000000 0.000000 0.000000
vn 1.000000 0.000000 0.000000
vn 1.000000 0.000000 0.000000
vn 1.000000 0.000000 0.000000
vn 1.000000 0.000000 0.000000
vn 1.000000 0.000000 0.000000
vn 1.000000 0.000000 0.000000
vn 0.000000 -1.000000 0.000000
vn 0.000000 -1.000000 0.000000
vn 0.000000 -1.000000 0.000000
vn 0.000000 -1.000000 0.000000
vn 0.000000 -1.000000 0.000000
vn 0.000000 -1.000000 0.000000
vn 0.000000 1.000000 0.000000
vn 0.000000 1.000000 0.000000
vn 0.000000 1.000000 0.000000
vn 0.000000 1.000000 0.000000
vn 0.000000 1.000000 0.000000
vn 0.000000 1.000000 0.000000
vn 0.000000 0.000000 -1.000000
vn 0.000000 0.000000 -1.000000
vn 0.000000 0.000000 -1.000000
vn 0.000000 0.000000 -1.000000
vn 0.000000 0.000000 -1.000000
vn 0.000000 0.000000 -1.000000
vn 0.000000 0.000000 1.000000
vn 0.000000 0.000000 1.000000
vn 0.000000 0.000000 1.000000
vn 0.000000 0.000000 1.000000
vn 0.000000 0.000000 1.000000
vn 0.000000 0.000000 1.000000
vn -1.000000 0.000000 0.000000
vn -1.000000 0.000000 0.000000
vn -1.000000 0.000000 0.000000
vn -1.000000 0.000000 0.000000
vn -1.000000 0.000000 0.000000
vn -1.000000 0.000000 0.000000
vn 1.000000 0.000000 0.000000
vn 1.000000 0.000000 0.000000
vn 1.000000 0.000000 0.000000
vn 1.000000 0.000000 0.000000
vn 1.000000 0.000000 0.000000
vn 1.000000 0.000000 0.000000
vn 0.000000 -1.000000 0.000000
vn 0.000000 -1.000000 0.000000
vn 0.000000 -1.000000 0.000000
vn 0.000000 -1.000000 0.000000
vn 0.000000 -1.000000 0.000000
vn 0.000000 -1.000000 0.000000
vn 0.000000 1.000000 0.000000
vn 0.000000 1.000000 0.000000
vn 0.000000 1.000000 0.000000
vn 0.000000 1.000000 0.000000
vn 0.000000 1.000000 0.000000
vn 0.000000 1.000000 0.000000
vn 0.000000 0.000000 -1.000000
vn 0.000000 0.000000 -1.000000
vn 0.000000 0.000000 -1.000000
vn 0.000000 0.000000 -1.000000
vn 0.000000 0.000000 -1.000000
vn 0.000000 0.000000 -1.000000
vn 0.000000 0.000000 1.000000
vn 0.000000 0.000000 1.000000
vn 0.000000 0.000000 1.000000
vn 0.000000 0.000000 1.000000
vn 0.000000 0.000000 1.000000
vn 0.000000 0.000000 1.000000
vn -1.000000 0.000000 0.000000
vn -1.000000 0.000000 0.000000
vn -1.000000 0.000000 0.000000
vn -1.000000 0.000000 0.000000
vn -1.000000 0.000000 0.000000
vn -1.000000 0.000000 0.000000
vn 1.000000 0.000000 0.000000
vn 1.000000 0.000000 0.000000
vn 1.000000 0.000000 0.000000
vn 1.000000 0.000000 0.000000
vn 1.000000 0.000000 0.000000
vn 1.000000 0.000000 0.000000
vn 0.000000 -1.000000 0.000000
vn 0.000000 -1.000000 0.000000
vn 0.000000 -1.000000 0.000000
vn 0.000000 -1.000000 0.000000
vn 0.000000 -1.000000 0.000000
vn 0.000000 -1.000000 0.000000
vn 0.000000 1.000000 0.000000
vn 0.000000 1.000000 0.000000
vn 0.000000 1.000000 0.000000
vn 0.000000 1.000000 0.000000
vn 0.000000 1.000000 0.000000
vn 0.000000 1.000000 0.000000
f 1/1/1 2/2/2 3/3/3
f 4/4/4 5/5/5 6/6/6
f 7/7/7 8/8/8 9/9/9
f 10/10/10 11/11/11 12/12/12
f 13/13/13 14/14/14 15/15/15
f 16/16/16 17/17/17 18/18/18
f 19/19/19 20/20/20 21/21/21
f 22/22/22 23/23/23 24/24/24
f 25/25/25 26/26/26 27/27/27
f 28/28/28 29/29/29 30/30/30
f 31/31/31 32/32/32 33/33/33
f 34/34/34 35/35/35 36/36/36
f 37/37/37 38/38/38 39/39/39
f 40/40/40 41/41/41 42/42/42
f 43/43/43 44/44/44 45/45/45
f 46/46/46 47/47/47 48/48/48
f 49/49/49 50/50/50 51/51/51
f 52/52/52 53/53/53 54/54/54
f 55/55/55 56/56/56 57/57/57
f 58/58/58 59/59/59 60/60/60
f 61/61/61 62/62/62 63/63/63
f 64/64/64 65/65/65 66/66/66
f 67/67/67 68/68/68 69/69/69
f 70/70/70 71/71/71 72/72/72
f 73/73/73 74/74/74 75/75/75
f 76/76/76 77/77/77 78/78/78
f 79/79/79 80/80/80 81/81/81
f 82/82/82 83/83/83 84/84/84
f 85/85/85 86/86/86 87/87/87
f 88/88/88 89/89/89 90/90/90
f 91/91/91 92/92/92 93/93/93
f 94/94/94 95/95/95 96/96/96
f 97/97/97 98/98/98 99/99/99
f 100/100/100 101/101/101 102/102/102
f 103/103/103 104/104/104 105/105/105
f 106/106/106 107/107/107 108/108/108
