# Torrent authored macroform LOD1 semantic component
# Imported production resource; exact geometry/authenticity false
o StarboardLowerSidePlane
usemtl torrent_hull_light
v 2.517143 0.710000 0.121429
v 1.100000 0.710000 -3.350000
v 1.650000 0.710000 2.700000
v 2.517143 0.710000 0.121429
v 1.650000 0.710000 2.700000
v 2.750000 0.710000 3.200000
v 2.517143 0.710000 0.121429
v 2.750000 0.710000 3.200000
v 3.520000 0.710000 2.650000
v 2.517143 0.710000 0.121429
v 3.520000 0.710000 2.650000
v 3.600000 0.710000 0.200000
v 2.517143 0.710000 0.121429
v 3.600000 0.710000 0.200000
v 3.150000 0.710000 -1.400000
v 2.517143 0.710000 0.121429
v 3.150000 0.710000 -1.400000
v 1.850000 0.710000 -3.150000
v 2.517143 0.710000 0.121429
v 1.850000 0.710000 -3.150000
v 1.100000 0.710000 -3.350000
v 2.517143 0.410000 0.121429
v 1.650000 0.410000 2.700000
v 1.100000 0.410000 -3.350000
v 2.517143 0.410000 0.121429
v 2.750000 0.410000 3.200000
v 1.650000 0.410000 2.700000
v 2.517143 0.410000 0.121429
v 3.520000 0.410000 2.650000
v 2.750000 0.410000 3.200000
v 2.517143 0.410000 0.121429
v 3.600000 0.410000 0.200000
v 3.520000 0.410000 2.650000
v 2.517143 0.410000 0.121429
v 3.150000 0.410000 -1.400000
v 3.600000 0.410000 0.200000
v 2.517143 0.410000 0.121429
v 1.850000 0.410000 -3.150000
v 3.150000 0.410000 -1.400000
v 2.517143 0.410000 0.121429
v 1.100000 0.410000 -3.350000
v 1.850000 0.410000 -3.150000
v 1.100000 0.710000 -3.350000
v 1.100000 0.410000 -3.350000
v 1.650000 0.410000 2.700000
v 1.100000 0.710000 -3.350000
v 1.650000 0.410000 2.700000
v 1.650000 0.710000 2.700000
v 1.650000 0.710000 2.700000
v 1.650000 0.410000 2.700000
v 2.750000 0.410000 3.200000
v 1.650000 0.710000 2.700000
v 2.750000 0.410000 3.200000
v 2.750000 0.710000 3.200000
v 2.750000 0.710000 3.200000
v 2.750000 0.410000 3.200000
v 3.520000 0.410000 2.650000
v 2.750000 0.710000 3.200000
v 3.520000 0.410000 2.650000
v 3.520000 0.710000 2.650000
v 3.520000 0.710000 2.650000
v 3.520000 0.410000 2.650000
v 3.600000 0.410000 0.200000
v 3.520000 0.710000 2.650000
v 3.600000 0.410000 0.200000
v 3.600000 0.710000 0.200000
v 3.600000 0.710000 0.200000
v 3.600000 0.410000 0.200000
v 3.150000 0.410000 -1.400000
v 3.600000 0.710000 0.200000
v 3.150000 0.410000 -1.400000
v 3.150000 0.710000 -1.400000
v 3.150000 0.710000 -1.400000
v 3.150000 0.410000 -1.400000
v 1.850000 0.410000 -3.150000
v 3.150000 0.710000 -1.400000
v 1.850000 0.410000 -3.150000
v 1.850000 0.710000 -3.150000
v 1.850000 0.710000 -3.150000
v 1.850000 0.410000 -3.150000
v 1.100000 0.410000 -3.350000
v 1.850000 0.710000 -3.150000
v 1.100000 0.410000 -3.350000
v 1.100000 0.710000 -3.350000
vt 0.341455 0.575442
vt 0.139200 0.656000
vt 0.217696 0.515603
vt 0.341455 0.575442
vt 0.217696 0.515603
vt 0.374688 0.504000
vt 0.341455 0.575442
vt 0.374688 0.504000
vt 0.484582 0.516763
vt 0.341455 0.575442
vt 0.484582 0.516763
vt 0.496000 0.573618
vt 0.341455 0.575442
vt 0.496000 0.573618
vt 0.431776 0.610748
vt 0.341455 0.575442
vt 0.431776 0.610748
vt 0.246240 0.651359
vt 0.341455 0.575442
vt 0.246240 0.651359
vt 0.139200 0.656000
vt 0.341455 0.424558
vt 0.217696 0.484397
vt 0.139200 0.344000
vt 0.341455 0.424558
vt 0.374688 0.496000
vt 0.217696 0.484397
vt 0.341455 0.424558
vt 0.484582 0.483237
vt 0.374688 0.496000
vt 0.341455 0.424558
vt 0.496000 0.426382
vt 0.484582 0.483237
vt 0.341455 0.424558
vt 0.431776 0.389252
vt 0.496000 0.426382
vt 0.341455 0.424558
vt 0.246240 0.348641
vt 0.431776 0.389252
vt 0.341455 0.424558
vt 0.139200 0.344000
vt 0.246240 0.348641
vt 0.496000 0.664000
vt 0.496000 0.816000
vt 0.139200 0.816000
vt 0.496000 0.664000
vt 0.139200 0.816000
vt 0.139200 0.664000
vt 0.496000 0.184000
vt 0.496000 0.336000
vt 0.286118 0.336000
vt 0.496000 0.184000
vt 0.286118 0.336000
vt 0.286118 0.184000
vt 0.286118 0.184000
vt 0.286118 0.336000
vt 0.139200 0.336000
vt 0.286118 0.184000
vt 0.139200 0.336000
vt 0.139200 0.184000
vt 0.496000 0.824000
vt 0.496000 0.976000
vt 0.345283 0.976000
vt 0.496000 0.824000
vt 0.345283 0.976000
vt 0.345283 0.824000
vt 0.345283 0.824000
vt 0.345283 0.976000
vt 0.246855 0.976000
vt 0.345283 0.824000
vt 0.246855 0.976000
vt 0.246855 0.824000
vt 0.246855 0.824000
vt 0.246855 0.976000
vt 0.139200 0.976000
vt 0.246855 0.824000
vt 0.139200 0.976000
vt 0.139200 0.824000
vt 0.496000 0.024000
vt 0.496000 0.176000
vt 0.139200 0.176000
vt 0.496000 0.024000
vt 0.139200 0.176000
vt 0.139200 0.024000
vn 0.000000 1.000000 0.000000
vn 0.000000 1.000000 0.000000
vn 0.000000 1.000000 0.000000
vn 0.000000 1.000000 0.000000
vn 0.000000 1.000000 0.000000
vn 0.000000 1.000000 0.000000
vn 0.000000 1.000000 0.000000
vn 0.000000 1.000000 0.000000
vn 0.000000 1.000000 0.000000
vn 0.000000 1.000000 0.000000
vn 0.000000 1.000000 0.000000
vn 0.000000 1.000000 0.000000
vn 0.000000 1.000000 0.000000
vn 0.000000 1.000000 0.000000
vn 0.000000 1.000000 0.000000
vn 0.000000 1.000000 0.000000
vn 0.000000 1.000000 0.000000
vn 0.000000 1.000000 0.000000
vn 0.000000 1.000000 0.000000
vn 0.000000 1.000000 0.000000
vn 0.000000 1.000000 0.000000
vn 0.000000 -1.000000 0.000000
vn 0.000000 -1.000000 0.000000
vn 0.000000 -1.000000 0.000000
vn 0.000000 -1.000000 0.000000
vn 0.000000 -1.000000 0.000000
vn 0.000000 -1.000000 0.000000
vn 0.000000 -1.000000 0.000000
vn 0.000000 -1.000000 0.000000
vn 0.000000 -1.000000 0.000000
vn 0.000000 -1.000000 0.000000
vn 0.000000 -1.000000 0.000000
vn 0.000000 -1.000000 0.000000
vn 0.000000 -1.000000 0.000000
vn 0.000000 -1.000000 0.000000
vn 0.000000 -1.000000 0.000000
vn 0.000000 -1.000000 0.000000
vn 0.000000 -1.000000 0.000000
vn 0.000000 -1.000000 0.000000
vn 0.000000 -1.000000 0.000000
vn 0.000000 -1.000000 0.000000
vn 0.000000 -1.000000 0.000000
vn -0.995893 0.000000 0.090536
vn -0.995893 0.000000 0.090536
vn -0.995893 0.000000 0.090536
vn -0.995893 0.000000 0.090536
vn -0.995893 0.000000 0.090536
vn -0.995893 0.000000 0.090536
vn -0.413803 0.000000 0.910366
vn -0.413803 0.000000 0.910366
vn -0.413803 0.000000 0.910366
vn -0.413803 0.000000 0.910366
vn -0.413803 0.000000 0.910366
vn -0.413803 0.000000 0.910366
vn 0.581238 0.000000 0.813734
vn 0.581238 0.000000 0.813734
vn 0.581238 0.000000 0.813734
vn 0.581238 0.000000 0.813734
vn 0.581238 0.000000 0.813734
vn 0.581238 0.000000 0.813734
vn 0.999467 0.000000 0.032636
vn 0.999467 0.000000 0.032636
vn 0.999467 0.000000 0.032636
vn 0.999467 0.000000 0.032636
vn 0.999467 0.000000 0.032636
vn 0.999467 0.000000 0.032636
vn 0.962651 0.000000 -0.270745
vn 0.962651 0.000000 -0.270745
vn 0.962651 0.000000 -0.270745
vn 0.962651 0.000000 -0.270745
vn 0.962651 0.000000 -0.270745
vn 0.962651 0.000000 -0.270745
vn 0.802744 0.000000 -0.596324
vn 0.802744 0.000000 -0.596324
vn 0.802744 0.000000 -0.596324
vn 0.802744 0.000000 -0.596324
vn 0.802744 0.000000 -0.596324
vn 0.802744 0.000000 -0.596324
vn 0.257662 0.000000 -0.966235
vn 0.257662 0.000000 -0.966235
vn 0.257662 0.000000 -0.966235
vn 0.257662 0.000000 -0.966235
vn 0.257662 0.000000 -0.966235
vn 0.257662 0.000000 -0.966235
f 1/1/1 2/2/2 3/3/3
f 4/4/4 5/5/5 6/6/6
f 7/7/7 8/8/8 9/9/9
f 10/10/10 11/11/11 12/12/12
f 13/13/13 14/14/14 15/15/15
f 16/16/16 17/17/17 18/18/18
f 19/19/19 20/20/20 21/21/21
f 22/22/22 23/23/23 24/24/24
f 25/25/25 26/26/26 27/27/27
f 28/28/28 29/29/29 30/30/30
f 31/31/31 32/32/32 33/33/33
f 34/34/34 35/35/35 36/36/36
f 37/37/37 38/38/38 39/39/39
f 40/40/40 41/41/41 42/42/42
f 43/43/43 44/44/44 45/45/45
f 46/46/46 47/47/47 48/48/48
f 49/49/49 50/50/50 51/51/51
f 52/52/52 53/53/53 54/54/54
f 55/55/55 56/56/56 57/57/57
f 58/58/58 59/59/59 60/60/60
f 61/61/61 62/62/62 63/63/63
f 64/64/64 65/65/65 66/66/66
f 67/67/67 68/68/68 69/69/69
f 70/70/70 71/71/71 72/72/72
f 73/73/73 74/74/74 75/75/75
f 76/76/76 77/77/77 78/78/78
f 79/79/79 80/80/80 81/81/81
f 82/82/82 83/83/83 84/84/84
