# Torrent authored macroform LOD0 semantic component
# Imported production resource; exact geometry/authenticity false
o StarboardAftRail
usemtl torrent_hull_ivory
v 1.647177 1.692823 2.432823
v 1.654184 1.724000 2.425816
v 1.670000 1.724000 2.464000
v 1.647177 1.692823 2.432823
v 1.670000 1.724000 2.464000
v 1.654184 1.685816 2.464000
v 1.452823 1.692823 2.432823
v 1.445816 1.685816 2.464000
v 1.430000 1.724000 2.464000
v 1.452823 1.692823 2.432823
v 1.430000 1.724000 2.464000
v 1.445816 1.724000 2.425816
v 1.654184 1.685816 2.464000
v 1.670000 1.724000 2.464000
v 1.670000 1.724000 2.696000
v 1.654184 1.685816 2.464000
v 1.670000 1.724000 2.696000
v 1.654184 1.685816 2.696000
v 1.445816 1.685816 2.464000
v 1.445816 1.685816 2.696000
v 1.430000 1.724000 2.696000
v 1.445816 1.685816 2.464000
v 1.430000 1.724000 2.696000
v 1.430000 1.724000 2.464000
v 1.654184 1.685816 2.696000
v 1.670000 1.724000 2.696000
v 1.654184 1.724000 2.734184
v 1.654184 1.685816 2.696000
v 1.654184 1.724000 2.734184
v 1.647177 1.692823 2.727177
v 1.445816 1.685816 2.696000
v 1.452823 1.692823 2.727177
v 1.445816 1.724000 2.734184
v 1.445816 1.685816 2.696000
v 1.445816 1.724000 2.734184
v 1.430000 1.724000 2.696000
v 1.654184 1.724000 2.425816
v 1.654184 4.096000 2.425816
v 1.670000 4.096000 2.464000
v 1.654184 1.724000 2.425816
v 1.670000 4.096000 2.464000
v 1.670000 1.724000 2.464000
v 1.445816 1.724000 2.425816
v 1.430000 1.724000 2.464000
v 1.430000 4.096000 2.464000
v 1.445816 1.724000 2.425816
v 1.430000 4.096000 2.464000
v 1.445816 4.096000 2.425816
v 1.670000 1.724000 2.464000
v 1.670000 4.096000 2.464000
v 1.670000 4.096000 2.696000
v 1.670000 1.724000 2.464000
v 1.670000 4.096000 2.696000
v 1.670000 1.724000 2.696000
v 1.430000 1.724000 2.464000
v 1.430000 1.724000 2.696000
v 1.430000 4.096000 2.696000
v 1.430000 1.724000 2.464000
v 1.430000 4.096000 2.696000
v 1.430000 4.096000 2.464000
v 1.670000 1.724000 2.696000
v 1.670000 4.096000 2.696000
v 1.654184 4.096000 2.734184
v 1.670000 1.724000 2.696000
v 1.654184 4.096000 2.734184
v 1.654184 1.724000 2.734184
v 1.430000 1.724000 2.696000
v 1.445816 1.724000 2.734184
v 1.445816 4.096000 2.734184
v 1.430000 1.724000 2.696000
v 1.445816 4.096000 2.734184
v 1.430000 4.096000 2.696000
v 1.654184 4.096000 2.425816
v 1.647177 4.127177 2.432823
v 1.654184 4.134184 2.464000
v 1.654184 4.096000 2.425816
v 1.654184 4.134184 2.464000
v 1.670000 4.096000 2.464000
v 1.445816 4.096000 2.425816
v 1.430000 4.096000 2.464000
v 1.445816 4.134184 2.464000
v 1.445816 4.096000 2.425816
v 1.445816 4.134184 2.464000
v 1.452823 4.127177 2.432823
v 1.670000 4.096000 2.464000
v 1.654184 4.134184 2.464000
v 1.654184 4.134184 2.696000
v 1.670000 4.096000 2.464000
v 1.654184 4.134184 2.696000
v 1.670000 4.096000 2.696000
v 1.430000 4.096000 2.464000
v 1.430000 4.096000 2.696000
v 1.445816 4.134184 2.696000
v 1.430000 4.096000 2.464000
v 1.445816 4.134184 2.696000
v 1.445816 4.134184 2.464000
v 1.670000 4.096000 2.696000
v 1.654184 4.134184 2.696000
v 1.647177 4.127177 2.727177
v 1.670000 4.096000 2.696000
v 1.647177 4.127177 2.727177
v 1.654184 4.096000 2.734184
v 1.430000 4.096000 2.696000
v 1.445816 4.096000 2.734184
v 1.452823 4.127177 2.727177
v 1.430000 4.096000 2.696000
v 1.452823 4.127177 2.727177
v 1.445816 4.134184 2.696000
v 1.452823 4.127177 2.432823
v 1.445816 4.134184 2.464000
v 1.484000 4.150000 2.464000
v 1.452823 4.127177 2.432823
v 1.484000 4.150000 2.464000
v 1.484000 4.134184 2.425816
v 1.452823 1.692823 2.432823
v 1.484000 1.685816 2.425816
v 1.484000 1.670000 2.464000
v 1.452823 1.692823 2.432823
v 1.484000 1.670000 2.464000
v 1.445816 1.685816 2.464000
v 1.445816 4.134184 2.464000
v 1.445816 4.134184 2.696000
v 1.484000 4.150000 2.696000
v 1.445816 4.134184 2.464000
v 1.484000 4.150000 2.696000
v 1.484000 4.150000 2.464000
v 1.445816 1.685816 2.464000
v 1.484000 1.670000 2.464000
v 1.484000 1.670000 2.696000
v 1.445816 1.685816 2.464000
v 1.484000 1.670000 2.696000
v 1.445816 1.685816 2.696000
v 1.445816 4.134184 2.696000
v 1.452823 4.127177 2.727177
v 1.484000 4.134184 2.734184
v 1.445816 4.134184 2.696000
v 1.484000 4.134184 2.734184
v 1.484000 4.150000 2.696000
v 1.445816 1.685816 2.696000
v 1.484000 1.670000 2.696000
v 1.484000 1.685816 2.734184
v 1.445816 1.685816 2.696000
v 1.484000 1.685816 2.734184
v 1.452823 1.692823 2.727177
v 1.484000 4.134184 2.425816
v 1.484000 4.150000 2.464000
v 1.616000 4.150000 2.464000
v 1.484000 4.134184 2.425816
v 1.616000 4.150000 2.464000
v 1.616000 4.134184 2.425816
v 1.484000 1.685816 2.425816
v 1.616000 1.685816 2.425816
v 1.616000 1.670000 2.464000
v 1.484000 1.685816 2.425816
v 1.616000 1.670000 2.464000
v 1.484000 1.670000 2.464000
v 1.484000 4.150000 2.464000
v 1.484000 4.150000 2.696000
v 1.616000 4.150000 2.696000
v 1.484000 4.150000 2.464000
v 1.616000 4.150000 2.696000
v 1.616000 4.150000 2.464000
v 1.484000 1.670000 2.464000
v 1.616000 1.670000 2.464000
v 1.616000 1.670000 2.696000
v 1.484000 1.670000 2.464000
v 1.616000 1.670000 2.696000
v 1.484000 1.670000 2.696000
v 1.484000 4.150000 2.696000
v 1.484000 4.134184 2.734184
v 1.616000 4.134184 2.734184
v 1.484000 4.150000 2.696000
v 1.616000 4.134184 2.734184
v 1.616000 4.150000 2.696000
v 1.484000 1.670000 2.696000
v 1.616000 1.670000 2.696000
v 1.616000 1.685816 2.734184
v 1.484000 1.670000 2.696000
v 1.616000 1.685816 2.734184
v 1.484000 1.685816 2.734184
v 1.616000 4.134184 2.425816
v 1.616000 4.150000 2.464000
v 1.654184 4.134184 2.464000
v 1.616000 4.134184 2.425816
v 1.654184 4.134184 2.464000
v 1.647177 4.127177 2.432823
v 1.616000 1.685816 2.425816
v 1.647177 1.692823 2.432823
v 1.654184 1.685816 2.464000
v 1.616000 1.685816 2.425816
v 1.654184 1.685816 2.464000
v 1.616000 1.670000 2.464000
v 1.616000 4.150000 2.464000
v 1.616000 4.150000 2.696000
v 1.654184 4.134184 2.696000
v 1.616000 4.150000 2.464000
v 1.654184 4.134184 2.696000
v 1.654184 4.134184 2.464000
v 1.616000 1.670000 2.464000
v 1.654184 1.685816 2.464000
v 1.654184 1.685816 2.696000
v 1.616000 1.670000 2.464000
v 1.654184 1.685816 2.696000
v 1.616000 1.670000 2.696000
v 1.616000 4.150000 2.696000
v 1.616000 4.134184 2.734184
v 1.647177 4.127177 2.727177
v 1.616000 4.150000 2.696000
v 1.647177 4.127177 2.727177
v 1.654184 4.134184 2.696000
v 1.616000 1.670000 2.696000
v 1.654184 1.685816 2.696000
v 1.647177 1.692823 2.727177
v 1.616000 1.670000 2.696000
v 1.647177 1.692823 2.727177
v 1.616000 1.685816 2.734184
v 1.452823 1.692823 2.727177
v 1.484000 1.685816 2.734184
v 1.484000 1.724000 2.750000
v 1.452823 1.692823 2.727177
v 1.484000 1.724000 2.750000
v 1.445816 1.724000 2.734184
v 1.452823 1.692823 2.432823
v 1.445816 1.724000 2.425816
v 1.484000 1.724000 2.410000
v 1.452823 1.692823 2.432823
v 1.484000 1.724000 2.410000
v 1.484000 1.685816 2.425816
v 1.445816 1.724000 2.734184
v 1.484000 1.724000 2.750000
v 1.484000 4.096000 2.750000
v 1.445816 1.724000 2.734184
v 1.484000 4.096000 2.750000
v 1.445816 4.096000 2.734184
v 1.445816 1.724000 2.425816
v 1.445816 4.096000 2.425816
v 1.484000 4.096000 2.410000
v 1.445816 1.724000 2.425816
v 1.484000 4.096000 2.410000
v 1.484000 1.724000 2.410000
v 1.445816 4.096000 2.734184
v 1.484000 4.096000 2.750000
v 1.484000 4.134184 2.734184
v 1.445816 4.096000 2.734184
v 1.484000 4.134184 2.734184
v 1.452823 4.127177 2.727177
v 1.445816 4.096000 2.425816
v 1.452823 4.127177 2.432823
v 1.484000 4.134184 2.425816
v 1.445816 4.096000 2.425816
v 1.484000 4.134184 2.425816
v 1.484000 4.096000 2.410000
v 1.484000 1.685816 2.734184
v 1.616000 1.685816 2.734184
v 1.616000 1.724000 2.750000
v 1.484000 1.685816 2.734184
v 1.616000 1.724000 2.750000
v 1.484000 1.724000 2.750000
v 1.484000 1.685816 2.425816
v 1.484000 1.724000 2.410000
v 1.616000 1.724000 2.410000
v 1.484000 1.685816 2.425816
v 1.616000 1.724000 2.410000
v 1.616000 1.685816 2.425816
v 1.484000 1.724000 2.750000
v 1.616000 1.724000 2.750000
v 1.616000 4.096000 2.750000
v 1.484000 1.724000 2.750000
v 1.616000 4.096000 2.750000
v 1.484000 4.096000 2.750000
v 1.484000 1.724000 2.410000
v 1.484000 4.096000 2.410000
v 1.616000 4.096000 2.410000
v 1.484000 1.724000 2.410000
v 1.616000 4.096000 2.410000
v 1.616000 1.724000 2.410000
v 1.484000 4.096000 2.750000
v 1.616000 4.096000 2.750000
v 1.616000 4.134184 2.734184
v 1.484000 4.096000 2.750000
v 1.616000 4.134184 2.734184
v 1.484000 4.134184 2.734184
v 1.484000 4.096000 2.410000
v 1.484000 4.134184 2.425816
v 1.616000 4.134184 2.425816
v 1.484000 4.096000 2.410000
v 1.616000 4.134184 2.425816
v 1.616000 4.096000 2.410000
v 1.616000 1.685816 2.734184
v 1.647177 1.692823 2.727177
v 1.654184 1.724000 2.734184
v 1.616000 1.685816 2.734184
v 1.654184 1.724000 2.734184
v 1.616000 1.724000 2.750000
v 1.616000 1.685816 2.425816
v 1.616000 1.724000 2.410000
v 1.654184 1.724000 2.425816
v 1.616000 1.685816 2.425816
v 1.654184 1.724000 2.425816
v 1.647177 1.692823 2.432823
v 1.616000 1.724000 2.750000
v 1.654184 1.724000 2.734184
v 1.654184 4.096000 2.734184
v 1.616000 1.724000 2.750000
v 1.654184 4.096000 2.734184
v 1.616000 4.096000 2.750000
v 1.616000 1.724000 2.410000
v 1.616000 4.096000 2.410000
v 1.654184 4.096000 2.425816
v 1.616000 1.724000 2.410000
v 1.654184 4.096000 2.425816
v 1.654184 1.724000 2.425816
v 1.616000 4.096000 2.750000
v 1.654184 4.096000 2.734184
v 1.647177 4.127177 2.727177
v 1.616000 4.096000 2.750000
v 1.647177 4.127177 2.727177
v 1.616000 4.134184 2.734184
v 1.616000 4.096000 2.410000
v 1.616000 4.134184 2.425816
v 1.647177 4.127177 2.432823
v 1.616000 4.096000 2.410000
v 1.647177 4.127177 2.432823
v 1.654184 4.096000 2.425816
v 1.752528 1.597472 2.047472
v 1.760962 1.635000 2.039038
v 1.780000 1.635000 2.085000
v 1.752528 1.597472 2.047472
v 1.780000 1.635000 2.085000
v 1.760962 1.589038 2.085000
v 1.347472 1.597472 2.047472
v 1.339038 1.589038 2.085000
v 1.320000 1.635000 2.085000
v 1.347472 1.597472 2.047472
v 1.320000 1.635000 2.085000
v 1.339038 1.635000 2.039038
v 1.760962 1.589038 2.085000
v 1.780000 1.635000 2.085000
v 1.780000 1.635000 2.675000
v 1.760962 1.589038 2.085000
v 1.780000 1.635000 2.675000
v 1.760962 1.589038 2.675000
v 1.339038 1.589038 2.085000
v 1.339038 1.589038 2.675000
v 1.320000 1.635000 2.675000
v 1.339038 1.589038 2.085000
v 1.320000 1.635000 2.675000
v 1.320000 1.635000 2.085000
v 1.760962 1.589038 2.675000
v 1.780000 1.635000 2.675000
v 1.760962 1.635000 2.720962
v 1.760962 1.589038 2.675000
v 1.760962 1.635000 2.720962
v 1.752528 1.597472 2.712528
v 1.339038 1.589038 2.675000
v 1.347472 1.597472 2.712528
v 1.339038 1.635000 2.720962
v 1.339038 1.589038 2.675000
v 1.339038 1.635000 2.720962
v 1.320000 1.635000 2.675000
v 1.760962 1.635000 2.039038
v 1.760962 1.805000 2.039038
v 1.780000 1.805000 2.085000
v 1.760962 1.635000 2.039038
v 1.780000 1.805000 2.085000
v 1.780000 1.635000 2.085000
v 1.339038 1.635000 2.039038
v 1.320000 1.635000 2.085000
v 1.320000 1.805000 2.085000
v 1.339038 1.635000 2.039038
v 1.320000 1.805000 2.085000
v 1.339038 1.805000 2.039038
v 1.780000 1.635000 2.085000
v 1.780000 1.805000 2.085000
v 1.780000 1.805000 2.675000
v 1.780000 1.635000 2.085000
v 1.780000 1.805000 2.675000
v 1.780000 1.635000 2.675000
v 1.320000 1.635000 2.085000
v 1.320000 1.635000 2.675000
v 1.320000 1.805000 2.675000
v 1.320000 1.635000 2.085000
v 1.320000 1.805000 2.675000
v 1.320000 1.805000 2.085000
v 1.780000 1.635000 2.675000
v 1.780000 1.805000 2.675000
v 1.760962 1.805000 2.720962
v 1.780000 1.635000 2.675000
v 1.760962 1.805000 2.720962
v 1.760962 1.635000 2.720962
v 1.320000 1.635000 2.675000
v 1.339038 1.635000 2.720962
v 1.339038 1.805000 2.720962
v 1.320000 1.635000 2.675000
v 1.339038 1.805000 2.720962
v 1.320000 1.805000 2.675000
v 1.760962 1.805000 2.039038
v 1.752528 1.842528 2.047472
v 1.760962 1.850962 2.085000
v 1.760962 1.805000 2.039038
v 1.760962 1.850962 2.085000
v 1.780000 1.805000 2.085000
v 1.339038 1.805000 2.039038
v 1.320000 1.805000 2.085000
v 1.339038 1.850962 2.085000
v 1.339038 1.805000 2.039038
v 1.339038 1.850962 2.085000
v 1.347472 1.842528 2.047472
v 1.780000 1.805000 2.085000
v 1.760962 1.850962 2.085000
v 1.760962 1.850962 2.675000
v 1.780000 1.805000 2.085000
v 1.760962 1.850962 2.675000
v 1.780000 1.805000 2.675000
v 1.320000 1.805000 2.085000
v 1.320000 1.805000 2.675000
v 1.339038 1.850962 2.675000
v 1.320000 1.805000 2.085000
v 1.339038 1.850962 2.675000
v 1.339038 1.850962 2.085000
v 1.780000 1.805000 2.675000
v 1.760962 1.850962 2.675000
v 1.752528 1.842528 2.712528
v 1.780000 1.805000 2.675000
v 1.752528 1.842528 2.712528
v 1.760962 1.805000 2.720962
v 1.320000 1.805000 2.675000
v 1.339038 1.805000 2.720962
v 1.347472 1.842528 2.712528
v 1.320000 1.805000 2.675000
v 1.347472 1.842528 2.712528
v 1.339038 1.850962 2.675000
v 1.347472 1.842528 2.047472
v 1.339038 1.850962 2.085000
v 1.385000 1.870000 2.085000
v 1.347472 1.842528 2.047472
v 1.385000 1.870000 2.085000
v 1.385000 1.850962 2.039038
v 1.347472 1.597472 2.047472
v 1.385000 1.589038 2.039038
v 1.385000 1.570000 2.085000
v 1.347472 1.597472 2.047472
v 1.385000 1.570000 2.085000
v 1.339038 1.589038 2.085000
v 1.339038 1.850962 2.085000
v 1.339038 1.850962 2.675000
v 1.385000 1.870000 2.675000
v 1.339038 1.850962 2.085000
v 1.385000 1.870000 2.675000
v 1.385000 1.870000 2.085000
v 1.339038 1.589038 2.085000
v 1.385000 1.570000 2.085000
v 1.385000 1.570000 2.675000
v 1.339038 1.589038 2.085000
v 1.385000 1.570000 2.675000
v 1.339038 1.589038 2.675000
v 1.339038 1.850962 2.675000
v 1.347472 1.842528 2.712528
v 1.385000 1.850962 2.720962
v 1.339038 1.850962 2.675000
v 1.385000 1.850962 2.720962
v 1.385000 1.870000 2.675000
v 1.339038 1.589038 2.675000
v 1.385000 1.570000 2.675000
v 1.385000 1.589038 2.720962
v 1.339038 1.589038 2.675000
v 1.385000 1.589038 2.720962
v 1.347472 1.597472 2.712528
v 1.385000 1.850962 2.039038
v 1.385000 1.870000 2.085000
v 1.715000 1.870000 2.085000
v 1.385000 1.850962 2.039038
v 1.715000 1.870000 2.085000
v 1.715000 1.850962 2.039038
v 1.385000 1.589038 2.039038
v 1.715000 1.589038 2.039038
v 1.715000 1.570000 2.085000
v 1.385000 1.589038 2.039038
v 1.715000 1.570000 2.085000
v 1.385000 1.570000 2.085000
v 1.385000 1.870000 2.085000
v 1.385000 1.870000 2.675000
v 1.715000 1.870000 2.675000
v 1.385000 1.870000 2.085000
v 1.715000 1.870000 2.675000
v 1.715000 1.870000 2.085000
v 1.385000 1.570000 2.085000
v 1.715000 1.570000 2.085000
v 1.715000 1.570000 2.675000
v 1.385000 1.570000 2.085000
v 1.715000 1.570000 2.675000
v 1.385000 1.570000 2.675000
v 1.385000 1.870000 2.675000
v 1.385000 1.850962 2.720962
v 1.715000 1.850962 2.720962
v 1.385000 1.870000 2.675000
v 1.715000 1.850962 2.720962
v 1.715000 1.870000 2.675000
v 1.385000 1.570000 2.675000
v 1.715000 1.570000 2.675000
v 1.715000 1.589038 2.720962
v 1.385000 1.570000 2.675000
v 1.715000 1.589038 2.720962
v 1.385000 1.589038 2.720962
v 1.715000 1.850962 2.039038
v 1.715000 1.870000 2.085000
v 1.760962 1.850962 2.085000
v 1.715000 1.850962 2.039038
v 1.760962 1.850962 2.085000
v 1.752528 1.842528 2.047472
v 1.715000 1.589038 2.039038
v 1.752528 1.597472 2.047472
v 1.760962 1.589038 2.085000
v 1.715000 1.589038 2.039038
v 1.760962 1.589038 2.085000
v 1.715000 1.570000 2.085000
v 1.715000 1.870000 2.085000
v 1.715000 1.870000 2.675000
v 1.760962 1.850962 2.675000
v 1.715000 1.870000 2.085000
v 1.760962 1.850962 2.675000
v 1.760962 1.850962 2.085000
v 1.715000 1.570000 2.085000
v 1.760962 1.589038 2.085000
v 1.760962 1.589038 2.675000
v 1.715000 1.570000 2.085000
v 1.760962 1.589038 2.675000
v 1.715000 1.570000 2.675000
v 1.715000 1.870000 2.675000
v 1.715000 1.850962 2.720962
v 1.752528 1.842528 2.712528
v 1.715000 1.870000 2.675000
v 1.752528 1.842528 2.712528
v 1.760962 1.850962 2.675000
v 1.715000 1.570000 2.675000
v 1.760962 1.589038 2.675000
v 1.752528 1.597472 2.712528
v 1.715000 1.570000 2.675000
v 1.752528 1.597472 2.712528
v 1.715000 1.589038 2.720962
v 1.347472 1.597472 2.712528
v 1.385000 1.589038 2.720962
v 1.385000 1.635000 2.740000
v 1.347472 1.597472 2.712528
v 1.385000 1.635000 2.740000
v 1.339038 1.635000 2.720962
v 1.347472 1.597472 2.047472
v 1.339038 1.635000 2.039038
v 1.385000 1.635000 2.020000
v 1.347472 1.597472 2.047472
v 1.385000 1.635000 2.020000
v 1.385000 1.589038 2.039038
v 1.339038 1.635000 2.720962
v 1.385000 1.635000 2.740000
v 1.385000 1.805000 2.740000
v 1.339038 1.635000 2.720962
v 1.385000 1.805000 2.740000
v 1.339038 1.805000 2.720962
v 1.339038 1.635000 2.039038
v 1.339038 1.805000 2.039038
v 1.385000 1.805000 2.020000
v 1.339038 1.635000 2.039038
v 1.385000 1.805000 2.020000
v 1.385000 1.635000 2.020000
v 1.339038 1.805000 2.720962
v 1.385000 1.805000 2.740000
v 1.385000 1.850962 2.720962
v 1.339038 1.805000 2.720962
v 1.385000 1.850962 2.720962
v 1.347472 1.842528 2.712528
v 1.339038 1.805000 2.039038
v 1.347472 1.842528 2.047472
v 1.385000 1.850962 2.039038
v 1.339038 1.805000 2.039038
v 1.385000 1.850962 2.039038
v 1.385000 1.805000 2.020000
v 1.385000 1.589038 2.720962
v 1.715000 1.589038 2.720962
v 1.715000 1.635000 2.740000
v 1.385000 1.589038 2.720962
v 1.715000 1.635000 2.740000
v 1.385000 1.635000 2.740000
v 1.385000 1.589038 2.039038
v 1.385000 1.635000 2.020000
v 1.715000 1.635000 2.020000
v 1.385000 1.589038 2.039038
v 1.715000 1.635000 2.020000
v 1.715000 1.589038 2.039038
v 1.385000 1.635000 2.740000
v 1.715000 1.635000 2.740000
v 1.715000 1.805000 2.740000
v 1.385000 1.635000 2.740000
v 1.715000 1.805000 2.740000
v 1.385000 1.805000 2.740000
v 1.385000 1.635000 2.020000
v 1.385000 1.805000 2.020000
v 1.715000 1.805000 2.020000
v 1.385000 1.635000 2.020000
v 1.715000 1.805000 2.020000
v 1.715000 1.635000 2.020000
v 1.385000 1.805000 2.740000
v 1.715000 1.805000 2.740000
v 1.715000 1.850962 2.720962
v 1.385000 1.805000 2.740000
v 1.715000 1.850962 2.720962
v 1.385000 1.850962 2.720962
v 1.385000 1.805000 2.020000
v 1.385000 1.850962 2.039038
v 1.715000 1.850962 2.039038
v 1.385000 1.805000 2.020000
v 1.715000 1.850962 2.039038
v 1.715000 1.805000 2.020000
v 1.715000 1.589038 2.720962
v 1.752528 1.597472 2.712528
v 1.760962 1.635000 2.720962
v 1.715000 1.589038 2.720962
v 1.760962 1.635000 2.720962
v 1.715000 1.635000 2.740000
v 1.715000 1.589038 2.039038
v 1.715000 1.635000 2.020000
v 1.760962 1.635000 2.039038
v 1.715000 1.589038 2.039038
v 1.760962 1.635000 2.039038
v 1.752528 1.597472 2.047472
v 1.715000 1.635000 2.740000
v 1.760962 1.635000 2.720962
v 1.760962 1.805000 2.720962
v 1.715000 1.635000 2.740000
v 1.760962 1.805000 2.720962
v 1.715000 1.805000 2.740000
v 1.715000 1.635000 2.020000
v 1.715000 1.805000 2.020000
v 1.760962 1.805000 2.039038
v 1.715000 1.635000 2.020000
v 1.760962 1.805000 2.039038
v 1.760962 1.635000 2.039038
v 1.715000 1.805000 2.740000
v 1.760962 1.805000 2.720962
v 1.752528 1.842528 2.712528
v 1.715000 1.805000 2.740000
v 1.752528 1.842528 2.712528
v 1.715000 1.850962 2.720962
v 1.715000 1.805000 2.020000
v 1.715000 1.850962 2.039038
v 1.752528 1.842528 2.047472
v 1.715000 1.805000 2.020000
v 1.752528 1.842528 2.047472
v 1.760962 1.805000 2.039038
v 1.614785 1.758276 2.161344
v 1.619456 1.779487 2.163324
v 1.630000 1.771620 2.187534
v 1.614785 1.758276 2.161344
v 1.630000 1.771620 2.187534
v 1.619456 1.747410 2.179667
v 1.485215 1.758276 2.161344
v 1.480544 1.747410 2.179667
v 1.470000 1.771620 2.187534
v 1.485215 1.758276 2.161344
v 1.470000 1.771620 2.187534
v 1.480544 1.779487 2.163324
v 1.619456 1.747410 2.179667
v 1.630000 1.771620 2.187534
v 1.630000 1.738246 2.290248
v 1.619456 1.747410 2.179667
v 1.630000 1.738246 2.290248
v 1.619456 1.714036 2.282382
v 1.480544 1.747410 2.179667
v 1.480544 1.714036 2.282382
v 1.470000 1.738246 2.290248
v 1.480544 1.747410 2.179667
v 1.470000 1.738246 2.290248
v 1.470000 1.771620 2.187534
v 1.619456 1.714036 2.282382
v 1.630000 1.738246 2.290248
v 1.619456 1.730380 2.314458
v 1.619456 1.714036 2.282382
v 1.619456 1.730380 2.314458
v 1.614785 1.712056 2.303592
v 1.480544 1.714036 2.282382
v 1.485215 1.712056 2.303592
v 1.480544 1.730380 2.314458
v 1.480544 1.714036 2.282382
v 1.480544 1.730380 2.314458
v 1.470000 1.738246 2.290248
v 1.619456 1.779487 2.163324
v 1.619456 2.709620 2.465542
v 1.630000 2.701754 2.489752
v 1.619456 1.779487 2.163324
v 1.630000 2.701754 2.489752
v 1.630000 1.771620 2.187534
v 1.480544 1.779487 2.163324
v 1.470000 1.771620 2.187534
v 1.470000 2.701754 2.489752
v 1.480544 1.779487 2.163324
v 1.470000 2.701754 2.489752
v 1.480544 2.709620 2.465542
v 1.630000 1.771620 2.187534
v 1.630000 2.701754 2.489752
v 1.630000 2.668380 2.592466
v 1.630000 1.771620 2.187534
v 1.630000 2.668380 2.592466
v 1.630000 1.738246 2.290248
v 1.470000 1.771620 2.187534
v 1.470000 1.738246 2.290248
v 1.470000 2.668380 2.592466
v 1.470000 1.771620 2.187534
v 1.470000 2.668380 2.592466
v 1.470000 2.701754 2.489752
v 1.630000 1.738246 2.290248
v 1.630000 2.668380 2.592466
v 1.619456 2.660513 2.616676
v 1.630000 1.738246 2.290248
v 1.619456 2.660513 2.616676
v 1.619456 1.730380 2.314458
v 1.470000 1.738246 2.290248
v 1.480544 1.730380 2.314458
v 1.480544 2.660513 2.616676
v 1.470000 1.738246 2.290248
v 1.480544 2.660513 2.616676
v 1.470000 2.668380 2.592466
v 1.619456 2.709620 2.465542
v 1.614785 2.727944 2.476408
v 1.619456 2.725964 2.497619
v 1.619456 2.709620 2.465542
v 1.619456 2.725964 2.497619
v 1.630000 2.701754 2.489752
v 1.480544 2.709620 2.465542
v 1.470000 2.701754 2.489752
v 1.480544 2.725964 2.497619
v 1.480544 2.709620 2.465542
v 1.480544 2.725964 2.497619
v 1.485215 2.727944 2.476408
v 1.630000 2.701754 2.489752
v 1.619456 2.725964 2.497619
v 1.619456 2.692590 2.600333
v 1.630000 2.701754 2.489752
v 1.619456 2.692590 2.600333
v 1.630000 2.668380 2.592466
v 1.470000 2.701754 2.489752
v 1.470000 2.668380 2.592466
v 1.480544 2.692590 2.600333
v 1.470000 2.701754 2.489752
v 1.480544 2.692590 2.600333
v 1.480544 2.725964 2.497619
v 1.630000 2.668380 2.592466
v 1.619456 2.692590 2.600333
v 1.614785 2.681724 2.618657
v 1.630000 2.668380 2.592466
v 1.614785 2.681724 2.618657
v 1.619456 2.660513 2.616676
v 1.470000 2.668380 2.592466
v 1.480544 2.660513 2.616676
v 1.485215 2.681724 2.618657
v 1.470000 2.668380 2.592466
v 1.485215 2.681724 2.618657
v 1.480544 2.692590 2.600333
v 1.485215 2.727944 2.476408
v 1.480544 2.725964 2.497619
v 1.506000 2.735991 2.500877
v 1.485215 2.727944 2.476408
v 1.506000 2.735991 2.500877
v 1.506000 2.733830 2.473409
v 1.485215 1.758276 2.161344
v 1.506000 1.755277 2.155457
v 1.506000 1.737382 2.176409
v 1.485215 1.758276 2.161344
v 1.506000 1.737382 2.176409
v 1.480544 1.747410 2.179667
v 1.480544 2.725964 2.497619
v 1.480544 2.692590 2.600333
v 1.506000 2.702618 2.603591
v 1.480544 2.725964 2.497619
v 1.506000 2.702618 2.603591
v 1.506000 2.735991 2.500877
v 1.480544 1.747410 2.179667
v 1.506000 1.737382 2.176409
v 1.506000 1.704008 2.279123
v 1.480544 1.747410 2.179667
v 1.506000 1.704008 2.279123
v 1.480544 1.714036 2.282382
v 1.480544 2.692590 2.600333
v 1.485215 2.681724 2.618657
v 1.506000 2.684723 2.624543
v 1.480544 2.692590 2.600333
v 1.506000 2.684723 2.624543
v 1.506000 2.702618 2.603591
v 1.480544 1.714036 2.282382
v 1.506000 1.704008 2.279123
v 1.506000 1.706170 2.306592
v 1.480544 1.714036 2.282382
v 1.506000 1.706170 2.306592
v 1.485215 1.712056 2.303592
v 1.506000 2.733830 2.473409
v 1.506000 2.735991 2.500877
v 1.594000 2.735991 2.500877
v 1.506000 2.733830 2.473409
v 1.594000 2.735991 2.500877
v 1.594000 2.733830 2.473409
v 1.506000 1.755277 2.155457
v 1.594000 1.755277 2.155457
v 1.594000 1.737382 2.176409
v 1.506000 1.755277 2.155457
v 1.594000 1.737382 2.176409
v 1.506000 1.737382 2.176409
v 1.506000 2.735991 2.500877
v 1.506000 2.702618 2.603591
v 1.594000 2.702618 2.603591
v 1.506000 2.735991 2.500877
v 1.594000 2.702618 2.603591
v 1.594000 2.735991 2.500877
v 1.506000 1.737382 2.176409
v 1.594000 1.737382 2.176409
v 1.594000 1.704008 2.279123
v 1.506000 1.737382 2.176409
v 1.594000 1.704008 2.279123
v 1.506000 1.704008 2.279123
v 1.506000 2.702618 2.603591
v 1.506000 2.684723 2.624543
v 1.594000 2.684723 2.624543
v 1.506000 2.702618 2.603591
v 1.594000 2.684723 2.624543
v 1.594000 2.702618 2.603591
v 1.506000 1.704008 2.279123
v 1.594000 1.704008 2.279123
v 1.594000 1.706170 2.306592
v 1.506000 1.704008 2.279123
v 1.594000 1.706170 2.306592
v 1.506000 1.706170 2.306592
v 1.594000 2.733830 2.473409
v 1.594000 2.735991 2.500877
v 1.619456 2.725964 2.497619
v 1.594000 2.733830 2.473409
v 1.619456 2.725964 2.497619
v 1.614785 2.727944 2.476408
v 1.594000 1.755277 2.155457
v 1.614785 1.758276 2.161344
v 1.619456 1.747410 2.179667
v 1.594000 1.755277 2.155457
v 1.619456 1.747410 2.179667
v 1.594000 1.737382 2.176409
v 1.594000 2.735991 2.500877
v 1.594000 2.702618 2.603591
v 1.619456 2.692590 2.600333
v 1.594000 2.735991 2.500877
v 1.619456 2.692590 2.600333
v 1.619456 2.725964 2.497619
v 1.594000 1.737382 2.176409
v 1.619456 1.747410 2.179667
v 1.619456 1.714036 2.282382
v 1.594000 1.737382 2.176409
v 1.619456 1.714036 2.282382
v 1.594000 1.704008 2.279123
v 1.594000 2.702618 2.603591
v 1.594000 2.684723 2.624543
v 1.614785 2.681724 2.618657
v 1.594000 2.702618 2.603591
v 1.614785 2.681724 2.618657
v 1.619456 2.692590 2.600333
v 1.594000 1.704008 2.279123
v 1.619456 1.714036 2.282382
v 1.614785 1.712056 2.303592
v 1.594000 1.704008 2.279123
v 1.614785 1.712056 2.303592
v 1.594000 1.706170 2.306592
v 1.485215 1.712056 2.303592
v 1.506000 1.706170 2.306592
v 1.506000 1.727122 2.324486
v 1.485215 1.712056 2.303592
v 1.506000 1.727122 2.324486
v 1.480544 1.730380 2.314458
v 1.485215 1.758276 2.161344
v 1.480544 1.779487 2.163324
v 1.506000 1.782745 2.153296
v 1.485215 1.758276 2.161344
v 1.506000 1.782745 2.153296
v 1.506000 1.755277 2.155457
v 1.480544 1.730380 2.314458
v 1.506000 1.727122 2.324486
v 1.506000 2.657255 2.626704
v 1.480544 1.730380 2.314458
v 1.506000 2.657255 2.626704
v 1.480544 2.660513 2.616676
v 1.480544 1.779487 2.163324
v 1.480544 2.709620 2.465542
v 1.506000 2.712878 2.455514
v 1.480544 1.779487 2.163324
v 1.506000 2.712878 2.455514
v 1.506000 1.782745 2.153296
v 1.480544 2.660513 2.616676
v 1.506000 2.657255 2.626704
v 1.506000 2.684723 2.624543
v 1.480544 2.660513 2.616676
v 1.506000 2.684723 2.624543
v 1.485215 2.681724 2.618657
v 1.480544 2.709620 2.465542
v 1.485215 2.727944 2.476408
v 1.506000 2.733830 2.473409
v 1.480544 2.709620 2.465542
v 1.506000 2.733830 2.473409
v 1.506000 2.712878 2.455514
v 1.506000 1.706170 2.306592
v 1.594000 1.706170 2.306592
v 1.594000 1.727122 2.324486
v 1.506000 1.706170 2.306592
v 1.594000 1.727122 2.324486
v 1.506000 1.727122 2.324486
v 1.506000 1.755277 2.155457
v 1.506000 1.782745 2.153296
v 1.594000 1.782745 2.153296
v 1.506000 1.755277 2.155457
v 1.594000 1.782745 2.153296
v 1.594000 1.755277 2.155457
v 1.506000 1.727122 2.324486
v 1.594000 1.727122 2.324486
v 1.594000 2.657255 2.626704
v 1.506000 1.727122 2.324486
v 1.594000 2.657255 2.626704
v 1.506000 2.657255 2.626704
v 1.506000 1.782745 2.153296
v 1.506000 2.712878 2.455514
v 1.594000 2.712878 2.455514
v 1.506000 1.782745 2.153296
v 1.594000 2.712878 2.455514
v 1.594000 1.782745 2.153296
v 1.506000 2.657255 2.626704
v 1.594000 2.657255 2.626704
v 1.594000 2.684723 2.624543
v 1.506000 2.657255 2.626704
v 1.594000 2.684723 2.624543
v 1.506000 2.684723 2.624543
v 1.506000 2.712878 2.455514
v 1.506000 2.733830 2.473409
v 1.594000 2.733830 2.473409
v 1.506000 2.712878 2.455514
v 1.594000 2.733830 2.473409
v 1.594000 2.712878 2.455514
v 1.594000 1.706170 2.306592
v 1.614785 1.712056 2.303592
v 1.619456 1.730380 2.314458
v 1.594000 1.706170 2.306592
v 1.619456 1.730380 2.314458
v 1.594000 1.727122 2.324486
v 1.594000 1.755277 2.155457
v 1.594000 1.782745 2.153296
v 1.619456 1.779487 2.163324
v 1.594000 1.755277 2.155457
v 1.619456 1.779487 2.163324
v 1.614785 1.758276 2.161344
v 1.594000 1.727122 2.324486
v 1.619456 1.730380 2.314458
v 1.619456 2.660513 2.616676
v 1.594000 1.727122 2.324486
v 1.619456 2.660513 2.616676
v 1.594000 2.657255 2.626704
v 1.594000 1.782745 2.153296
v 1.594000 2.712878 2.455514
v 1.619456 2.709620 2.465542
v 1.594000 1.782745 2.153296
v 1.619456 2.709620 2.465542
v 1.619456 1.779487 2.163324
v 1.594000 2.657255 2.626704
v 1.619456 2.660513 2.616676
v 1.614785 2.681724 2.618657
v 1.594000 2.657255 2.626704
v 1.614785 2.681724 2.618657
v 1.594000 2.684723 2.624543
v 1.594000 2.712878 2.455514
v 1.594000 2.733830 2.473409
v 1.614785 2.727944 2.476408
v 1.594000 2.712878 2.455514
v 1.614785 2.727944 2.476408
v 1.619456 2.709620 2.465542
vt 0.954497 0.969802
vt 0.953997 0.967940
vt 0.956722 0.967940
vt 0.954497 0.969802
vt 0.956722 0.967940
vt 0.956722 0.970220
vt 0.947903 0.809802
vt 0.945678 0.810220
vt 0.945678 0.807940
vt 0.947903 0.809802
vt 0.945678 0.807940
vt 0.948403 0.807940
vt 0.956722 0.970220
vt 0.956722 0.967940
vt 0.973276 0.967940
vt 0.956722 0.970220
vt 0.973276 0.967940
vt 0.973276 0.970220
vt 0.945678 0.810220
vt 0.929124 0.810220
vt 0.929124 0.807940
vt 0.945678 0.810220
vt 0.929124 0.807940
vt 0.945678 0.807940
vt 0.973276 0.970220
vt 0.973276 0.967940
vt 0.976000 0.967940
vt 0.973276 0.970220
vt 0.976000 0.967940
vt 0.975500 0.969802
vt 0.929124 0.810220
vt 0.926900 0.809802
vt 0.926400 0.807940
vt 0.929124 0.810220
vt 0.926400 0.807940
vt 0.929124 0.807940
vt 0.953997 0.967940
vt 0.953997 0.826280
vt 0.956722 0.826280
vt 0.953997 0.967940
vt 0.956722 0.826280
vt 0.956722 0.967940
vt 0.948403 0.807940
vt 0.945678 0.807940
vt 0.945678 0.666280
vt 0.948403 0.807940
vt 0.945678 0.666280
vt 0.948403 0.666280
vt 0.956722 0.967940
vt 0.956722 0.826280
vt 0.973276 0.826280
vt 0.956722 0.967940
vt 0.973276 0.826280
vt 0.973276 0.967940
vt 0.945678 0.807940
vt 0.929124 0.807940
vt 0.929124 0.666280
vt 0.945678 0.807940
vt 0.929124 0.666280
vt 0.945678 0.666280
vt 0.973276 0.967940
vt 0.973276 0.826280
vt 0.976000 0.826280
vt 0.973276 0.967940
vt 0.976000 0.826280
vt 0.976000 0.967940
vt 0.929124 0.807940
vt 0.926400 0.807940
vt 0.926400 0.666280
vt 0.929124 0.807940
vt 0.926400 0.666280
vt 0.929124 0.666280
vt 0.953997 0.826280
vt 0.954497 0.824418
vt 0.956722 0.824000
vt 0.953997 0.826280
vt 0.956722 0.824000
vt 0.956722 0.826280
vt 0.948403 0.666280
vt 0.945678 0.666280
vt 0.945678 0.664000
vt 0.948403 0.666280
vt 0.945678 0.664000
vt 0.947903 0.664418
vt 0.956722 0.826280
vt 0.956722 0.824000
vt 0.973276 0.824000
vt 0.956722 0.826280
vt 0.973276 0.824000
vt 0.973276 0.826280
vt 0.945678 0.666280
vt 0.929124 0.666280
vt 0.929124 0.664000
vt 0.945678 0.666280
vt 0.929124 0.664000
vt 0.945678 0.664000
vt 0.973276 0.826280
vt 0.973276 0.824000
vt 0.975500 0.824418
vt 0.973276 0.826280
vt 0.975500 0.824418
vt 0.976000 0.826280
vt 0.929124 0.666280
vt 0.926400 0.666280
vt 0.926900 0.664418
vt 0.929124 0.666280
vt 0.926900 0.664418
vt 0.929124 0.664000
vt 0.939776 0.569895
vt 0.938953 0.563078
vt 0.943441 0.563078
vt 0.939776 0.569895
vt 0.943441 0.563078
vt 0.943441 0.571427
vt 0.939776 0.430105
vt 0.943441 0.428573
vt 0.943441 0.436922
vt 0.939776 0.430105
vt 0.943441 0.436922
vt 0.938953 0.436922
vt 0.938953 0.563078
vt 0.938953 0.512349
vt 0.943441 0.512349
vt 0.938953 0.563078
vt 0.943441 0.512349
vt 0.943441 0.563078
vt 0.938953 0.436922
vt 0.943441 0.436922
vt 0.943441 0.487651
vt 0.938953 0.436922
vt 0.943441 0.487651
vt 0.938953 0.487651
vt 0.938953 0.512349
vt 0.939776 0.505532
vt 0.943441 0.504000
vt 0.938953 0.512349
vt 0.943441 0.504000
vt 0.943441 0.512349
vt 0.938953 0.487651
vt 0.943441 0.487651
vt 0.943441 0.496000
vt 0.938953 0.487651
vt 0.943441 0.496000
vt 0.939776 0.494468
vt 0.943441 0.571427
vt 0.943441 0.563078
vt 0.958959 0.563078
vt 0.943441 0.571427
vt 0.958959 0.563078
vt 0.958959 0.571427
vt 0.943441 0.428573
vt 0.958959 0.428573
vt 0.958959 0.436922
vt 0.943441 0.428573
vt 0.958959 0.436922
vt 0.943441 0.436922
vt 0.943441 0.563078
vt 0.943441 0.512349
vt 0.958959 0.512349
vt 0.943441 0.563078
vt 0.958959 0.512349
vt 0.958959 0.563078
vt 0.943441 0.436922
vt 0.958959 0.436922
vt 0.958959 0.487651
vt 0.943441 0.436922
vt 0.958959 0.487651
vt 0.943441 0.487651
vt 0.943441 0.512349
vt 0.943441 0.504000
vt 0.958959 0.504000
vt 0.943441 0.512349
vt 0.958959 0.504000
vt 0.958959 0.512349
vt 0.943441 0.487651
vt 0.958959 0.487651
vt 0.958959 0.496000
vt 0.943441 0.487651
vt 0.958959 0.496000
vt 0.943441 0.496000
vt 0.958959 0.571427
vt 0.958959 0.563078
vt 0.963447 0.563078
vt 0.958959 0.571427
vt 0.963447 0.563078
vt 0.962624 0.569895
vt 0.958959 0.428573
vt 0.962624 0.430105
vt 0.963447 0.436922
vt 0.958959 0.428573
vt 0.963447 0.436922
vt 0.958959 0.436922
vt 0.958959 0.563078
vt 0.958959 0.512349
vt 0.963447 0.512349
vt 0.958959 0.563078
vt 0.963447 0.512349
vt 0.963447 0.563078
vt 0.958959 0.436922
vt 0.963447 0.436922
vt 0.963447 0.487651
vt 0.958959 0.436922
vt 0.963447 0.487651
vt 0.958959 0.487651
vt 0.958959 0.512349
vt 0.958959 0.504000
vt 0.962624 0.505532
vt 0.958959 0.512349
vt 0.962624 0.505532
vt 0.963447 0.512349
vt 0.958959 0.487651
vt 0.963447 0.487651
vt 0.962624 0.494468
vt 0.958959 0.487651
vt 0.962624 0.494468
vt 0.958959 0.496000
vt 0.962624 0.329802
vt 0.958959 0.330220
vt 0.958959 0.327940
vt 0.962624 0.329802
vt 0.958959 0.327940
vt 0.963448 0.327940
vt 0.939776 0.169802
vt 0.938953 0.167940
vt 0.943441 0.167940
vt 0.939776 0.169802
vt 0.943441 0.167940
vt 0.943441 0.170220
vt 0.963448 0.327940
vt 0.958959 0.327940
vt 0.958959 0.186280
vt 0.963448 0.327940
vt 0.958959 0.186280
vt 0.963448 0.186280
vt 0.938953 0.167940
vt 0.938953 0.026280
vt 0.943441 0.026280
vt 0.938953 0.167940
vt 0.943441 0.026280
vt 0.943441 0.167940
vt 0.963448 0.186280
vt 0.958959 0.186280
vt 0.958959 0.184000
vt 0.963448 0.186280
vt 0.958959 0.184000
vt 0.962624 0.184418
vt 0.938953 0.026280
vt 0.939776 0.024418
vt 0.943441 0.024000
vt 0.938953 0.026280
vt 0.943441 0.024000
vt 0.943441 0.026280
vt 0.958959 0.330220
vt 0.943441 0.330220
vt 0.943441 0.327940
vt 0.958959 0.330220
vt 0.943441 0.327940
vt 0.958959 0.327940
vt 0.943441 0.170220
vt 0.943441 0.167940
vt 0.958959 0.167940
vt 0.943441 0.170220
vt 0.958959 0.167940
vt 0.958959 0.170220
vt 0.958959 0.327940
vt 0.943441 0.327940
vt 0.943441 0.186280
vt 0.958959 0.327940
vt 0.943441 0.186280
vt 0.958959 0.186280
vt 0.943441 0.167940
vt 0.943441 0.026280
vt 0.958959 0.026280
vt 0.943441 0.167940
vt 0.958959 0.026280
vt 0.958959 0.167940
vt 0.958959 0.186280
vt 0.943441 0.186280
vt 0.943441 0.184000
vt 0.958959 0.186280
vt 0.943441 0.184000
vt 0.958959 0.184000
vt 0.943441 0.026280
vt 0.943441 0.024000
vt 0.958959 0.024000
vt 0.943441 0.026280
vt 0.958959 0.024000
vt 0.958959 0.026280
vt 0.943441 0.330220
vt 0.939776 0.329802
vt 0.938953 0.327940
vt 0.943441 0.330220
vt 0.938953 0.327940
vt 0.943441 0.327940
vt 0.958959 0.170220
vt 0.958959 0.167940
vt 0.963447 0.167940
vt 0.958959 0.170220
vt 0.963447 0.167940
vt 0.962624 0.169802
vt 0.943441 0.327940
vt 0.938953 0.327940
vt 0.938953 0.186280
vt 0.943441 0.327940
vt 0.938953 0.186280
vt 0.943441 0.186280
vt 0.958959 0.167940
vt 0.958959 0.026280
vt 0.963447 0.026280
vt 0.958959 0.167940
vt 0.963447 0.026280
vt 0.963447 0.167940
vt 0.943441 0.186280
vt 0.938953 0.186280
vt 0.939776 0.184418
vt 0.943441 0.186280
vt 0.939776 0.184418
vt 0.943441 0.184000
vt 0.958959 0.026280
vt 0.958959 0.024000
vt 0.962624 0.024418
vt 0.958959 0.026280
vt 0.962624 0.024418
vt 0.963447 0.026280
vt 0.927002 0.975496
vt 0.926400 0.973255
vt 0.929679 0.973255
vt 0.927002 0.975496
vt 0.929679 0.973255
vt 0.929679 0.976000
vt 0.975398 0.815496
vt 0.972721 0.816000
vt 0.972721 0.813255
vt 0.975398 0.815496
vt 0.972721 0.813255
vt 0.976000 0.813255
vt 0.929679 0.976000
vt 0.929679 0.973255
vt 0.971777 0.973255
vt 0.929679 0.976000
vt 0.971777 0.973255
vt 0.971777 0.976000
vt 0.972721 0.816000
vt 0.930623 0.816000
vt 0.930623 0.813255
vt 0.972721 0.816000
vt 0.930623 0.813255
vt 0.972721 0.813255
vt 0.971777 0.976000
vt 0.971777 0.973255
vt 0.975057 0.973255
vt 0.971777 0.976000
vt 0.975057 0.973255
vt 0.974455 0.975496
vt 0.930623 0.816000
vt 0.927945 0.815496
vt 0.927343 0.813255
vt 0.930623 0.816000
vt 0.927343 0.813255
vt 0.930623 0.813255
vt 0.926400 0.973255
vt 0.926400 0.963102
vt 0.929679 0.963102
vt 0.926400 0.973255
vt 0.929679 0.963102
vt 0.929679 0.973255
vt 0.976000 0.813255
vt 0.972721 0.813255
vt 0.972721 0.803102
vt 0.976000 0.813255
vt 0.972721 0.803102
vt 0.976000 0.803102
vt 0.929679 0.973255
vt 0.929679 0.963102
vt 0.971777 0.963102
vt 0.929679 0.973255
vt 0.971777 0.963102
vt 0.971777 0.973255
vt 0.972721 0.813255
vt 0.930623 0.813255
vt 0.930623 0.803102
vt 0.972721 0.813255
vt 0.930623 0.803102
vt 0.972721 0.803102
vt 0.971777 0.973255
vt 0.971777 0.963102
vt 0.975057 0.963102
vt 0.971777 0.973255
vt 0.975057 0.963102
vt 0.975057 0.973255
vt 0.930623 0.813255
vt 0.927343 0.813255
vt 0.927343 0.803102
vt 0.930623 0.813255
vt 0.927343 0.803102
vt 0.930623 0.803102
vt 0.926400 0.963102
vt 0.927002 0.960861
vt 0.929679 0.960358
vt 0.926400 0.963102
vt 0.929679 0.960358
vt 0.929679 0.963102
vt 0.976000 0.803102
vt 0.972721 0.803102
vt 0.972721 0.800358
vt 0.976000 0.803102
vt 0.972721 0.800358
vt 0.975398 0.800861
vt 0.929679 0.963102
vt 0.929679 0.960358
vt 0.971777 0.960358
vt 0.929679 0.963102
vt 0.971777 0.960358
vt 0.971777 0.963102
vt 0.972721 0.803102
vt 0.930623 0.803102
vt 0.930623 0.800358
vt 0.972721 0.803102
vt 0.930623 0.800358
vt 0.972721 0.800358
vt 0.971777 0.963102
vt 0.971777 0.960358
vt 0.974455 0.960861
vt 0.971777 0.963102
vt 0.974455 0.960861
vt 0.975057 0.963102
vt 0.930623 0.803102
vt 0.927343 0.803102
vt 0.927945 0.800861
vt 0.930623 0.803102
vt 0.927945 0.800861
vt 0.930623 0.800358
vt 0.927391 0.654156
vt 0.926400 0.645950
vt 0.931803 0.645950
vt 0.927391 0.654156
vt 0.931803 0.645950
vt 0.931803 0.656000
vt 0.927391 0.345844
vt 0.931803 0.344000
vt 0.931803 0.354050
vt 0.927391 0.345844
vt 0.931803 0.354050
vt 0.926400 0.354050
vt 0.926400 0.645950
vt 0.926400 0.516941
vt 0.931803 0.516941
vt 0.926400 0.645950
vt 0.931803 0.516941
vt 0.931803 0.645950
vt 0.926400 0.354050
vt 0.931803 0.354050
vt 0.931803 0.483059
vt 0.926400 0.354050
vt 0.931803 0.483059
vt 0.926400 0.483059
vt 0.926400 0.516941
vt 0.927391 0.508735
vt 0.931803 0.506891
vt 0.926400 0.516941
vt 0.931803 0.506891
vt 0.931803 0.516941
vt 0.926400 0.483059
vt 0.931803 0.483059
vt 0.931803 0.493109
vt 0.926400 0.483059
vt 0.931803 0.493109
vt 0.927391 0.491265
vt 0.931803 0.656000
vt 0.931803 0.645950
vt 0.970597 0.645950
vt 0.931803 0.656000
vt 0.970597 0.645950
vt 0.970597 0.656000
vt 0.931803 0.344000
vt 0.970597 0.344000
vt 0.970597 0.354050
vt 0.931803 0.344000
vt 0.970597 0.354050
vt 0.931803 0.354050
vt 0.931803 0.645950
vt 0.931803 0.516941
vt 0.970597 0.516941
vt 0.931803 0.645950
vt 0.970597 0.516941
vt 0.970597 0.645950
vt 0.931803 0.354050
vt 0.970597 0.354050
vt 0.970597 0.483059
vt 0.931803 0.354050
vt 0.970597 0.483059
vt 0.931803 0.483059
vt 0.931803 0.516941
vt 0.931803 0.506891
vt 0.970597 0.506891
vt 0.931803 0.516941
vt 0.970597 0.506891
vt 0.970597 0.516941
vt 0.931803 0.483059
vt 0.970597 0.483059
vt 0.970597 0.493109
vt 0.931803 0.483059
vt 0.970597 0.493109
vt 0.931803 0.493109
vt 0.970597 0.656000
vt 0.970597 0.645950
vt 0.976000 0.645950
vt 0.970597 0.656000
vt 0.976000 0.645950
vt 0.975008 0.654156
vt 0.970597 0.344000
vt 0.975008 0.345844
vt 0.976000 0.354050
vt 0.970597 0.344000
vt 0.976000 0.354050
vt 0.970597 0.354050
vt 0.970597 0.645950
vt 0.970597 0.516941
vt 0.976000 0.516941
vt 0.970597 0.645950
vt 0.976000 0.516941
vt 0.976000 0.645950
vt 0.970597 0.354050
vt 0.976000 0.354050
vt 0.976000 0.483059
vt 0.970597 0.354050
vt 0.976000 0.483059
vt 0.970597 0.483059
vt 0.970597 0.516941
vt 0.970597 0.506891
vt 0.975008 0.508735
vt 0.970597 0.516941
vt 0.975008 0.508735
vt 0.976000 0.516941
vt 0.970597 0.483059
vt 0.976000 0.483059
vt 0.975008 0.491265
vt 0.970597 0.483059
vt 0.975008 0.491265
vt 0.970597 0.493109
vt 0.975008 0.335496
vt 0.970597 0.336000
vt 0.970597 0.333255
vt 0.975008 0.335496
vt 0.970597 0.333255
vt 0.976000 0.333255
vt 0.927391 0.175496
vt 0.926400 0.173255
vt 0.931803 0.173255
vt 0.927391 0.175496
vt 0.931803 0.173255
vt 0.931803 0.176000
vt 0.976000 0.333255
vt 0.970597 0.333255
vt 0.970597 0.323102
vt 0.976000 0.333255
vt 0.970597 0.323102
vt 0.976000 0.323102
vt 0.926400 0.173255
vt 0.926400 0.163102
vt 0.931803 0.163102
vt 0.926400 0.173255
vt 0.931803 0.163102
vt 0.931803 0.173255
vt 0.976000 0.323102
vt 0.970597 0.323102
vt 0.970597 0.320358
vt 0.976000 0.323102
vt 0.970597 0.320358
vt 0.975008 0.320861
vt 0.926400 0.163102
vt 0.927391 0.160861
vt 0.931803 0.160358
vt 0.926400 0.163102
vt 0.931803 0.160358
vt 0.931803 0.163102
vt 0.970597 0.336000
vt 0.931803 0.336000
vt 0.931803 0.333255
vt 0.970597 0.336000
vt 0.931803 0.333255
vt 0.970597 0.333255
vt 0.931803 0.176000
vt 0.931803 0.173255
vt 0.970597 0.173255
vt 0.931803 0.176000
vt 0.970597 0.173255
vt 0.970597 0.176000
vt 0.970597 0.333255
vt 0.931803 0.333255
vt 0.931803 0.323102
vt 0.970597 0.333255
vt 0.931803 0.323102
vt 0.970597 0.323102
vt 0.931803 0.173255
vt 0.931803 0.163102
vt 0.970597 0.163102
vt 0.931803 0.173255
vt 0.970597 0.163102
vt 0.970597 0.173255
vt 0.970597 0.323102
vt 0.931803 0.323102
vt 0.931803 0.320358
vt 0.970597 0.323102
vt 0.931803 0.320358
vt 0.970597 0.320358
vt 0.931803 0.163102
vt 0.931803 0.160358
vt 0.970597 0.160358
vt 0.931803 0.163102
vt 0.970597 0.160358
vt 0.970597 0.163102
vt 0.931803 0.336000
vt 0.927391 0.335496
vt 0.926400 0.333255
vt 0.931803 0.336000
vt 0.926400 0.333255
vt 0.931803 0.333255
vt 0.970597 0.176000
vt 0.970597 0.173255
vt 0.976000 0.173255
vt 0.970597 0.176000
vt 0.976000 0.173255
vt 0.975008 0.175496
vt 0.931803 0.333255
vt 0.926400 0.333255
vt 0.926400 0.323102
vt 0.931803 0.333255
vt 0.926400 0.323102
vt 0.931803 0.323102
vt 0.970597 0.173255
vt 0.970597 0.163102
vt 0.976000 0.163102
vt 0.970597 0.173255
vt 0.976000 0.163102
vt 0.976000 0.173255
vt 0.931803 0.323102
vt 0.926400 0.323102
vt 0.927391 0.320861
vt 0.931803 0.323102
vt 0.927391 0.320861
vt 0.931803 0.320358
vt 0.970597 0.163102
vt 0.970597 0.160358
vt 0.975008 0.160861
vt 0.970597 0.163102
vt 0.975008 0.160861
vt 0.976000 0.163102
vt 0.935127 0.965893
vt 0.935268 0.964626
vt 0.936995 0.965096
vt 0.935127 0.965893
vt 0.936995 0.965096
vt 0.936434 0.966542
vt 0.967273 0.805893
vt 0.965966 0.806542
vt 0.965405 0.805096
vt 0.967273 0.805893
vt 0.965405 0.805096
vt 0.967132 0.804626
vt 0.936434 0.966542
vt 0.936995 0.965096
vt 0.944324 0.967089
vt 0.936434 0.966542
vt 0.944324 0.967089
vt 0.943763 0.968535
vt 0.965966 0.806542
vt 0.958637 0.808535
vt 0.958076 0.807089
vt 0.965966 0.806542
vt 0.958076 0.807089
vt 0.965405 0.805096
vt 0.943763 0.968535
vt 0.944324 0.967089
vt 0.946052 0.967559
vt 0.943763 0.968535
vt 0.946052 0.967559
vt 0.945276 0.968653
vt 0.958637 0.808535
vt 0.957124 0.808653
vt 0.956348 0.807559
vt 0.958637 0.808535
vt 0.956348 0.807559
vt 0.958076 0.807089
vt 0.935268 0.964626
vt 0.956832 0.909077
vt 0.958559 0.909547
vt 0.935268 0.964626
vt 0.958559 0.909547
vt 0.936995 0.965096
vt 0.967132 0.804626
vt 0.965405 0.805096
vt 0.943841 0.749547
vt 0.967132 0.804626
vt 0.943841 0.749547
vt 0.945568 0.749077
vt 0.936995 0.965096
vt 0.958559 0.909547
vt 0.965888 0.911540
vt 0.936995 0.965096
vt 0.965888 0.911540
vt 0.944324 0.967089
vt 0.965405 0.805096
vt 0.958076 0.807089
vt 0.936512 0.751540
vt 0.965405 0.805096
vt 0.936512 0.751540
vt 0.943841 0.749547
vt 0.944324 0.967089
vt 0.965888 0.911540
vt 0.967616 0.912010
vt 0.944324 0.967089
vt 0.967616 0.912010
vt 0.946052 0.967559
vt 0.958076 0.807089
vt 0.956348 0.807559
vt 0.934784 0.752010
vt 0.958076 0.807089
vt 0.934784 0.752010
vt 0.936512 0.751540
vt 0.956832 0.909077
vt 0.957607 0.907983
vt 0.959121 0.908101
vt 0.956832 0.909077
vt 0.959121 0.908101
vt 0.958559 0.909547
vt 0.945568 0.749077
vt 0.943841 0.749547
vt 0.943279 0.748101
vt 0.945568 0.749077
vt 0.943279 0.748101
vt 0.944793 0.747983
vt 0.958559 0.909547
vt 0.959121 0.908101
vt 0.966449 0.910094
vt 0.958559 0.909547
vt 0.966449 0.910094
vt 0.965888 0.911540
vt 0.943841 0.749547
vt 0.936512 0.751540
vt 0.935951 0.750094
vt 0.943841 0.749547
vt 0.935951 0.750094
vt 0.943279 0.748101
vt 0.965888 0.911540
vt 0.966449 0.910094
vt 0.967757 0.910743
vt 0.965888 0.911540
vt 0.967757 0.910743
vt 0.967616 0.912010
vt 0.936512 0.751540
vt 0.934784 0.752010
vt 0.934643 0.750743
vt 0.936512 0.751540
vt 0.934643 0.750743
vt 0.935951 0.750094
vt 0.943584 0.560365
vt 0.943035 0.555727
vt 0.946027 0.555015
vt 0.943584 0.560365
vt 0.946027 0.555015
vt 0.946027 0.561021
vt 0.943584 0.370743
vt 0.946027 0.369456
vt 0.946027 0.374037
vt 0.943584 0.370743
vt 0.946027 0.374037
vt 0.943035 0.374750
vt 0.943035 0.555727
vt 0.943035 0.533268
vt 0.946027 0.532555
vt 0.943035 0.555727
vt 0.946027 0.532555
vt 0.946027 0.555015
vt 0.943035 0.374750
vt 0.946027 0.374037
vt 0.946027 0.396497
vt 0.943035 0.374750
vt 0.946027 0.396497
vt 0.943035 0.397209
vt 0.943035 0.533268
vt 0.943584 0.529261
vt 0.946027 0.527974
vt 0.943035 0.533268
vt 0.946027 0.527974
vt 0.946027 0.532555
vt 0.943035 0.397209
vt 0.946027 0.396497
vt 0.946027 0.402503
vt 0.943035 0.397209
vt 0.946027 0.402503
vt 0.943584 0.401847
vt 0.946027 0.561021
vt 0.946027 0.555015
vt 0.956372 0.555015
vt 0.946027 0.561021
vt 0.956372 0.555015
vt 0.956372 0.561021
vt 0.946027 0.369456
vt 0.956372 0.369456
vt 0.956372 0.374037
vt 0.946027 0.369456
vt 0.956372 0.374037
vt 0.946027 0.374037
vt 0.946027 0.555015
vt 0.946027 0.532555
vt 0.956372 0.532555
vt 0.946027 0.555015
vt 0.956372 0.532555
vt 0.956372 0.555015
vt 0.946027 0.374037
vt 0.956372 0.374037
vt 0.956372 0.396497
vt 0.946027 0.374037
vt 0.956372 0.396497
vt 0.946027 0.396497
vt 0.946027 0.532555
vt 0.946027 0.527974
vt 0.956372 0.527974
vt 0.946027 0.532555
vt 0.956372 0.527974
vt 0.956372 0.532555
vt 0.946027 0.396497
vt 0.956372 0.396497
vt 0.956372 0.402503
vt 0.946027 0.396497
vt 0.956372 0.402503
vt 0.946027 0.402503
vt 0.956372 0.561021
vt 0.956372 0.555015
vt 0.959365 0.555727
vt 0.956372 0.561021
vt 0.959365 0.555727
vt 0.958816 0.560365
vt 0.956372 0.369456
vt 0.958816 0.370743
vt 0.959365 0.374750
vt 0.956372 0.369456
vt 0.959365 0.374750
vt 0.956372 0.374037
vt 0.956372 0.555015
vt 0.956372 0.532555
vt 0.959365 0.533268
vt 0.956372 0.555015
vt 0.959365 0.533268
vt 0.959365 0.555727
vt 0.956372 0.374037
vt 0.959365 0.374750
vt 0.959365 0.397209
vt 0.956372 0.374037
vt 0.959365 0.397209
vt 0.956372 0.396497
vt 0.956372 0.532555
vt 0.956372 0.527974
vt 0.958816 0.529261
vt 0.956372 0.532555
vt 0.958816 0.529261
vt 0.959365 0.533268
vt 0.956372 0.396497
vt 0.959365 0.397209
vt 0.958816 0.401847
vt 0.956372 0.396497
vt 0.958816 0.401847
vt 0.956372 0.402503
vt 0.958816 0.328653
vt 0.956372 0.329005
vt 0.956372 0.327753
vt 0.958816 0.328653
vt 0.956372 0.327753
vt 0.959365 0.327559
vt 0.943584 0.165893
vt 0.943035 0.164626
vt 0.946027 0.164432
vt 0.943584 0.165893
vt 0.946027 0.164432
vt 0.946027 0.166072
vt 0.959365 0.327559
vt 0.956372 0.327753
vt 0.956372 0.272204
vt 0.959365 0.327559
vt 0.956372 0.272204
vt 0.959365 0.272010
vt 0.943035 0.164626
vt 0.943035 0.109077
vt 0.946027 0.108883
vt 0.943035 0.164626
vt 0.946027 0.108883
vt 0.946027 0.164432
vt 0.959365 0.272010
vt 0.956372 0.272204
vt 0.956372 0.270564
vt 0.959365 0.272010
vt 0.956372 0.270564
vt 0.958816 0.270743
vt 0.943035 0.109077
vt 0.943584 0.107983
vt 0.946027 0.107631
vt 0.943035 0.109077
vt 0.946027 0.107631
vt 0.946027 0.108883
vt 0.956372 0.329005
vt 0.946028 0.329005
vt 0.946028 0.327753
vt 0.956372 0.329005
vt 0.946028 0.327753
vt 0.956372 0.327753
vt 0.946027 0.166072
vt 0.946027 0.164432
vt 0.956372 0.164432
vt 0.946027 0.166072
vt 0.956372 0.164432
vt 0.956372 0.166072
vt 0.956372 0.327753
vt 0.946028 0.327753
vt 0.946028 0.272204
vt 0.956372 0.327753
vt 0.946028 0.272204
vt 0.956372 0.272204
vt 0.946027 0.164432
vt 0.946027 0.108883
vt 0.956372 0.108883
vt 0.946027 0.164432
vt 0.956372 0.108883
vt 0.956372 0.164432
vt 0.956372 0.272204
vt 0.946028 0.272204
vt 0.946028 0.270564
vt 0.956372 0.272204
vt 0.946028 0.270564
vt 0.956372 0.270564
vt 0.946027 0.108883
vt 0.946027 0.107631
vt 0.956372 0.107631
vt 0.946027 0.108883
vt 0.956372 0.107631
vt 0.956372 0.108883
vt 0.946028 0.329005
vt 0.943584 0.328653
vt 0.943035 0.327559
vt 0.946028 0.329005
vt 0.943035 0.327559
vt 0.946028 0.327753
vt 0.956372 0.166072
vt 0.956372 0.164432
vt 0.959365 0.164626
vt 0.956372 0.166072
vt 0.959365 0.164626
vt 0.958816 0.165893
vt 0.946028 0.327753
vt 0.943035 0.327559
vt 0.943035 0.272010
vt 0.946028 0.327753
vt 0.943035 0.272010
vt 0.946028 0.272204
vt 0.956372 0.164432
vt 0.956372 0.108883
vt 0.959365 0.109077
vt 0.956372 0.164432
vt 0.959365 0.109077
vt 0.959365 0.164626
vt 0.946028 0.272204
vt 0.943035 0.272010
vt 0.943584 0.270743
vt 0.946028 0.272204
vt 0.943584 0.270743
vt 0.946028 0.270564
vt 0.956372 0.108883
vt 0.956372 0.107631
vt 0.958816 0.107983
vt 0.956372 0.108883
vt 0.958816 0.107983
vt 0.959365 0.109077
vn 0.886452 -0.281748 -0.367179
vn 0.886452 -0.281748 -0.367179
vn 0.886452 -0.281748 -0.367179
vn 0.886452 -0.367180 -0.281747
vn 0.886452 -0.367180 -0.281747
vn 0.886452 -0.367180 -0.281747
vn -0.886452 -0.367180 -0.281747
vn -0.886452 -0.367180 -0.281747
vn -0.886452 -0.367180 -0.281747
vn -0.886452 -0.281748 -0.367179
vn -0.886452 -0.281748 -0.367179
vn -0.886452 -0.281748 -0.367179
vn 0.923880 -0.382683 0.000000
vn 0.923880 -0.382683 0.000000
vn 0.923880 -0.382683 0.000000
vn 0.923880 -0.382683 0.000000
vn 0.923880 -0.382683 0.000000
vn 0.923880 -0.382683 0.000000
vn -0.923880 -0.382683 0.000000
vn -0.923880 -0.382683 0.000000
vn -0.923880 -0.382683 0.000000
vn -0.923880 -0.382683 0.000000
vn -0.923880 -0.382683 0.000000
vn -0.923880 -0.382683 0.000000
vn 0.862857 -0.357406 0.357405
vn 0.862857 -0.357406 0.357405
vn 0.862857 -0.357406 0.357405
vn 0.925259 -0.268232 0.268231
vn 0.925259 -0.268232 0.268231
vn 0.925259 -0.268232 0.268231
vn -0.925259 -0.268232 0.268231
vn -0.925259 -0.268232 0.268231
vn -0.925259 -0.268232 0.268231
vn -0.862857 -0.357406 0.357405
vn -0.862857 -0.357406 0.357405
vn -0.862857 -0.357406 0.357405
vn 0.923880 0.000000 -0.382682
vn 0.923880 0.000000 -0.382682
vn 0.923880 0.000000 -0.382682
vn 0.923880 0.000000 -0.382682
vn 0.923880 0.000000 -0.382682
vn 0.923880 0.000000 -0.382682
vn -0.923880 0.000000 -0.382682
vn -0.923880 0.000000 -0.382682
vn -0.923880 0.000000 -0.382682
vn -0.923880 0.000000 -0.382682
vn -0.923880 0.000000 -0.382682
vn -0.923880 0.000000 -0.382682
vn 1.000000 0.000000 0.000000
vn 1.000000 0.000000 0.000000
vn 1.000000 0.000000 0.000000
vn 1.000000 0.000000 0.000000
vn 1.000000 0.000000 0.000000
vn 1.000000 0.000000 0.000000
vn -1.000000 0.000000 0.000000
vn -1.000000 0.000000 0.000000
vn -1.000000 0.000000 0.000000
vn -1.000000 0.000000 0.000000
vn -1.000000 0.000000 0.000000
vn -1.000000 0.000000 0.000000
vn 0.923880 0.000000 0.382682
vn 0.923880 0.000000 0.382682
vn 0.923880 0.000000 0.382682
vn 0.923880 0.000000 0.382682
vn 0.923880 0.000000 0.382682
vn 0.923880 0.000000 0.382682
vn -0.923880 0.000000 0.382682
vn -0.923880 0.000000 0.382682
vn -0.923880 0.000000 0.382682
vn -0.923880 0.000000 0.382682
vn -0.923880 0.000000 0.382682
vn -0.923880 0.000000 0.382682
vn 0.925260 0.268231 -0.268229
vn 0.925260 0.268231 -0.268229
vn 0.925260 0.268231 -0.268229
vn 0.862857 0.357407 -0.357405
vn 0.862857 0.357407 -0.357405
vn 0.862857 0.357407 -0.357405
vn -0.862857 0.357407 -0.357405
vn -0.862857 0.357407 -0.357405
vn -0.862857 0.357407 -0.357405
vn -0.925260 0.268231 -0.268229
vn -0.925260 0.268231 -0.268229
vn -0.925260 0.268231 -0.268229
vn 0.923879 0.382684 0.000000
vn 0.923879 0.382684 0.000000
vn 0.923879 0.382684 0.000000
vn 0.923879 0.382684 0.000000
vn 0.923879 0.382684 0.000000
vn 0.923879 0.382684 0.000000
vn -0.923879 0.382684 0.000000
vn -0.923879 0.382684 0.000000
vn -0.923879 0.382684 0.000000
vn -0.923879 0.382684 0.000000
vn -0.923879 0.382684 0.000000
vn -0.923879 0.382684 0.000000
vn 0.886452 0.367181 0.281745
vn 0.886452 0.367181 0.281745
vn 0.886452 0.367181 0.281745
vn 0.886453 0.281747 0.367179
vn 0.886453 0.281747 0.367179
vn 0.886453 0.281747 0.367179
vn -0.886453 0.281747 0.367179
vn -0.886453 0.281747 0.367179
vn -0.886453 0.281747 0.367179
vn -0.886452 0.367181 0.281745
vn -0.886452 0.367181 0.281745
vn -0.886452 0.367181 0.281745
vn -0.367180 0.886454 -0.281741
vn -0.367180 0.886454 -0.281741
vn -0.367180 0.886454 -0.281741
vn -0.281742 0.886454 -0.367179
vn -0.281742 0.886454 -0.367179
vn -0.281742 0.886454 -0.367179
vn -0.281748 -0.886452 -0.367179
vn -0.281748 -0.886452 -0.367179
vn -0.281748 -0.886452 -0.367179
vn -0.367180 -0.886452 -0.281747
vn -0.367180 -0.886452 -0.281747
vn -0.367180 -0.886452 -0.281747
vn -0.382683 0.923880 0.000000
vn -0.382683 0.923880 0.000000
vn -0.382683 0.923880 0.000000
vn -0.382683 0.923880 0.000000
vn -0.382683 0.923880 0.000000
vn -0.382683 0.923880 0.000000
vn -0.382683 -0.923880 0.000000
vn -0.382683 -0.923880 0.000000
vn -0.382683 -0.923880 0.000000
vn -0.382683 -0.923880 0.000000
vn -0.382683 -0.923880 0.000000
vn -0.382683 -0.923880 0.000000
vn -0.268224 0.925263 0.268223
vn -0.268224 0.925263 0.268223
vn -0.268224 0.925263 0.268223
vn -0.357406 0.862857 0.357405
vn -0.357406 0.862857 0.357405
vn -0.357406 0.862857 0.357405
vn -0.357406 -0.862857 0.357405
vn -0.357406 -0.862857 0.357405
vn -0.357406 -0.862857 0.357405
vn -0.268232 -0.925259 0.268231
vn -0.268232 -0.925259 0.268231
vn -0.268232 -0.925259 0.268231
vn 0.000000 0.923880 -0.382682
vn 0.000000 0.923880 -0.382682
vn 0.000000 0.923880 -0.382682
vn 0.000000 0.923880 -0.382682
vn 0.000000 0.923880 -0.382682
vn 0.000000 0.923880 -0.382682
vn 0.000000 -0.923880 -0.382682
vn 0.000000 -0.923880 -0.382682
vn 0.000000 -0.923880 -0.382682
vn 0.000000 -0.923880 -0.382682
vn 0.000000 -0.923880 -0.382682
vn 0.000000 -0.923880 -0.382682
vn 0.000000 1.000000 0.000000
vn 0.000000 1.000000 0.000000
vn 0.000000 1.000000 0.000000
vn 0.000000 1.000000 0.000000
vn 0.000000 1.000000 0.000000
vn 0.000000 1.000000 0.000000
vn 0.000000 -1.000000 0.000000
vn 0.000000 -1.000000 0.000000
vn 0.000000 -1.000000 0.000000
vn 0.000000 -1.000000 0.000000
vn 0.000000 -1.000000 0.000000
vn 0.000000 -1.000000 0.000000
vn 0.000000 0.923880 0.382682
vn 0.000000 0.923880 0.382682
vn 0.000000 0.923880 0.382682
vn 0.000000 0.923880 0.382682
vn 0.000000 0.923880 0.382682
vn 0.000000 0.923880 0.382682
vn 0.000000 -0.923880 0.382682
vn 0.000000 -0.923880 0.382682
vn 0.000000 -0.923880 0.382682
vn 0.000000 -0.923880 0.382682
vn 0.000000 -0.923880 0.382682
vn 0.000000 -0.923880 0.382682
vn 0.357406 0.862857 -0.357405
vn 0.357406 0.862857 -0.357405
vn 0.357406 0.862857 -0.357405
vn 0.268224 0.925263 -0.268223
vn 0.268224 0.925263 -0.268223
vn 0.268224 0.925263 -0.268223
vn 0.268232 -0.925259 -0.268231
vn 0.268232 -0.925259 -0.268231
vn 0.268232 -0.925259 -0.268231
vn 0.357406 -0.862857 -0.357405
vn 0.357406 -0.862857 -0.357405
vn 0.357406 -0.862857 -0.357405
vn 0.382683 0.923880 0.000000
vn 0.382683 0.923880 0.000000
vn 0.382683 0.923880 0.000000
vn 0.382683 0.923880 0.000000
vn 0.382683 0.923880 0.000000
vn 0.382683 0.923880 0.000000
vn 0.382683 -0.923880 0.000000
vn 0.382683 -0.923880 0.000000
vn 0.382683 -0.923880 0.000000
vn 0.382683 -0.923880 0.000000
vn 0.382683 -0.923880 0.000000
vn 0.382683 -0.923880 0.000000
vn 0.281742 0.886454 0.367179
vn 0.281742 0.886454 0.367179
vn 0.281742 0.886454 0.367179
vn 0.367180 0.886454 0.281741
vn 0.367180 0.886454 0.281741
vn 0.367180 0.886454 0.281741
vn 0.367180 -0.886452 0.281747
vn 0.367180 -0.886452 0.281747
vn 0.367180 -0.886452 0.281747
vn 0.281748 -0.886452 0.367179
vn 0.281748 -0.886452 0.367179
vn 0.281748 -0.886452 0.367179
vn -0.281748 -0.367179 0.886452
vn -0.281748 -0.367179 0.886452
vn -0.281748 -0.367179 0.886452
vn -0.367179 -0.281748 0.886452
vn -0.367179 -0.281748 0.886452
vn -0.367179 -0.281748 0.886452
vn -0.367179 -0.281748 -0.886452
vn -0.367179 -0.281748 -0.886452
vn -0.367179 -0.281748 -0.886452
vn -0.281748 -0.367179 -0.886452
vn -0.281748 -0.367179 -0.886452
vn -0.281748 -0.367179 -0.886452
vn -0.382683 0.000000 0.923880
vn -0.382683 0.000000 0.923880
vn -0.382683 0.000000 0.923880
vn -0.382683 0.000000 0.923880
vn -0.382683 0.000000 0.923880
vn -0.382683 0.000000 0.923880
vn -0.382683 0.000000 -0.923880
vn -0.382683 0.000000 -0.923880
vn -0.382683 0.000000 -0.923880
vn -0.382683 0.000000 -0.923880
vn -0.382683 0.000000 -0.923880
vn -0.382683 0.000000 -0.923880
vn -0.357406 0.357407 0.862856
vn -0.357406 0.357407 0.862856
vn -0.357406 0.357407 0.862856
vn -0.268230 0.268231 0.925259
vn -0.268230 0.268231 0.925259
vn -0.268230 0.268231 0.925259
vn -0.268230 0.268231 -0.925259
vn -0.268230 0.268231 -0.925259
vn -0.268230 0.268231 -0.925259
vn -0.357406 0.357407 -0.862856
vn -0.357406 0.357407 -0.862856
vn -0.357406 0.357407 -0.862856
vn 0.000000 -0.382683 0.923880
vn 0.000000 -0.382683 0.923880
vn 0.000000 -0.382683 0.923880
vn 0.000000 -0.382683 0.923880
vn 0.000000 -0.382683 0.923880
vn 0.000000 -0.382683 0.923880
vn 0.000000 -0.382683 -0.923880
vn 0.000000 -0.382683 -0.923880
vn 0.000000 -0.382683 -0.923880
vn 0.000000 -0.382683 -0.923880
vn 0.000000 -0.382683 -0.923880
vn 0.000000 -0.382683 -0.923880
vn 0.000000 0.000000 1.000000
vn 0.000000 0.000000 1.000000
vn 0.000000 0.000000 1.000000
vn 0.000000 0.000000 1.000000
vn 0.000000 0.000000 1.000000
vn 0.000000 0.000000 1.000000
vn 0.000000 0.000000 -1.000000
vn 0.000000 0.000000 -1.000000
vn 0.000000 0.000000 -1.000000
vn 0.000000 0.000000 -1.000000
vn 0.000000 0.000000 -1.000000
vn 0.000000 0.000000 -1.000000
vn 0.000000 0.382684 0.923879
vn 0.000000 0.382684 0.923879
vn 0.000000 0.382684 0.923879
vn 0.000000 0.382684 0.923879
vn 0.000000 0.382684 0.923879
vn 0.000000 0.382684 0.923879
vn 0.000000 0.382684 -0.923879
vn 0.000000 0.382684 -0.923879
vn 0.000000 0.382684 -0.923879
vn 0.000000 0.382684 -0.923879
vn 0.000000 0.382684 -0.923879
vn 0.000000 0.382684 -0.923879
vn 0.268232 -0.268232 0.925258
vn 0.268232 -0.268232 0.925258
vn 0.268232 -0.268232 0.925258
vn 0.357406 -0.357406 0.862857
vn 0.357406 -0.357406 0.862857
vn 0.357406 -0.357406 0.862857
vn 0.357406 -0.357406 -0.862857
vn 0.357406 -0.357406 -0.862857
vn 0.357406 -0.357406 -0.862857
vn 0.268232 -0.268232 -0.925258
vn 0.268232 -0.268232 -0.925258
vn 0.268232 -0.268232 -0.925258
vn 0.382683 0.000000 0.923880
vn 0.382683 0.000000 0.923880
vn 0.382683 0.000000 0.923880
vn 0.382683 0.000000 0.923880
vn 0.382683 0.000000 0.923880
vn 0.382683 0.000000 0.923880
vn 0.382683 0.000000 -0.923880
vn 0.382683 0.000000 -0.923880
vn 0.382683 0.000000 -0.923880
vn 0.382683 0.000000 -0.923880
vn 0.382683 0.000000 -0.923880
vn 0.382683 0.000000 -0.923880
vn 0.367180 0.281747 0.886452
vn 0.367180 0.281747 0.886452
vn 0.367180 0.281747 0.886452
vn 0.281746 0.367181 0.886452
vn 0.281746 0.367181 0.886452
vn 0.281746 0.367181 0.886452
vn 0.281746 0.367181 -0.886452
vn 0.281746 0.367181 -0.886452
vn 0.281746 0.367181 -0.886452
vn 0.367180 0.281747 -0.886452
vn 0.367180 0.281747 -0.886452
vn 0.367180 0.281747 -0.886452
vn 0.886452 -0.281746 -0.367181
vn 0.886452 -0.281746 -0.367181
vn 0.886452 -0.281746 -0.367181
vn 0.886452 -0.367181 -0.281746
vn 0.886452 -0.367181 -0.281746
vn 0.886452 -0.367181 -0.281746
vn -0.886452 -0.367181 -0.281746
vn -0.886452 -0.367181 -0.281746
vn -0.886452 -0.367181 -0.281746
vn -0.886452 -0.281746 -0.367181
vn -0.886452 -0.281746 -0.367181
vn -0.886452 -0.281746 -0.367181
vn 0.923879 -0.382684 0.000000
vn 0.923879 -0.382684 0.000000
vn 0.923879 -0.382684 0.000000
vn 0.923879 -0.382684 0.000000
vn 0.923879 -0.382684 0.000000
vn 0.923879 -0.382684 0.000000
vn -0.923879 -0.382684 0.000000
vn -0.923879 -0.382684 0.000000
vn -0.923879 -0.382684 0.000000
vn -0.923879 -0.382684 0.000000
vn -0.923879 -0.382684 0.000000
vn -0.923879 -0.382684 0.000000
vn 0.862855 -0.357408 0.357408
vn 0.862855 -0.357408 0.357408
vn 0.862855 -0.357408 0.357408
vn 0.925260 -0.268230 0.268230
vn 0.925260 -0.268230 0.268230
vn 0.925260 -0.268230 0.268230
vn -0.925260 -0.268230 0.268230
vn -0.925260 -0.268230 0.268230
vn -0.925260 -0.268230 0.268230
vn -0.862855 -0.357408 0.357408
vn -0.862855 -0.357408 0.357408
vn -0.862855 -0.357408 0.357408
vn 0.923879 0.000000 -0.382684
vn 0.923879 0.000000 -0.382684
vn 0.923879 0.000000 -0.382684
vn 0.923879 0.000000 -0.382684
vn 0.923879 0.000000 -0.382684
vn 0.923879 0.000000 -0.382684
vn -0.923879 0.000000 -0.382684
vn -0.923879 0.000000 -0.382684
vn -0.923879 0.000000 -0.382684
vn -0.923879 0.000000 -0.382684
vn -0.923879 0.000000 -0.382684
vn -0.923879 0.000000 -0.382684
vn 1.000000 0.000000 0.000000
vn 1.000000 0.000000 0.000000
vn 1.000000 0.000000 0.000000
vn 1.000000 0.000000 0.000000
vn 1.000000 0.000000 0.000000
vn 1.000000 0.000000 0.000000
vn -1.000000 0.000000 0.000000
vn -1.000000 0.000000 0.000000
vn -1.000000 0.000000 0.000000
vn -1.000000 0.000000 0.000000
vn -1.000000 0.000000 0.000000
vn -1.000000 0.000000 0.000000
vn 0.923879 0.000000 0.382684
vn 0.923879 0.000000 0.382684
vn 0.923879 0.000000 0.382684
vn 0.923879 0.000000 0.382684
vn 0.923879 0.000000 0.382684
vn 0.923879 0.000000 0.382684
vn -0.923879 0.000000 0.382684
vn -0.923879 0.000000 0.382684
vn -0.923879 0.000000 0.382684
vn -0.923879 0.000000 0.382684
vn -0.923879 0.000000 0.382684
vn -0.923879 0.000000 0.382684
vn 0.925260 0.268230 -0.268230
vn 0.925260 0.268230 -0.268230
vn 0.925260 0.268230 -0.268230
vn 0.862855 0.357408 -0.357408
vn 0.862855 0.357408 -0.357408
vn 0.862855 0.357408 -0.357408
vn -0.862855 0.357408 -0.357408
vn -0.862855 0.357408 -0.357408
vn -0.862855 0.357408 -0.357408
vn -0.925260 0.268230 -0.268230
vn -0.925260 0.268230 -0.268230
vn -0.925260 0.268230 -0.268230
vn 0.923879 0.382684 0.000000
vn 0.923879 0.382684 0.000000
vn 0.923879 0.382684 0.000000
vn 0.923879 0.382684 0.000000
vn 0.923879 0.382684 0.000000
vn 0.923879 0.382684 0.000000
vn -0.923879 0.382684 0.000000
vn -0.923879 0.382684 0.000000
vn -0.923879 0.382684 0.000000
vn -0.923879 0.382684 0.000000
vn -0.923879 0.382684 0.000000
vn -0.923879 0.382684 0.000000
vn 0.886452 0.367181 0.281746
vn 0.886452 0.367181 0.281746
vn 0.886452 0.367181 0.281746
vn 0.886452 0.281746 0.367181
vn 0.886452 0.281746 0.367181
vn 0.886452 0.281746 0.367181
vn -0.886452 0.281746 0.367181
vn -0.886452 0.281746 0.367181
vn -0.886452 0.281746 0.367181
vn -0.886452 0.367181 0.281746
vn -0.886452 0.367181 0.281746
vn -0.886452 0.367181 0.281746
vn -0.367181 0.886453 -0.281745
vn -0.367181 0.886453 -0.281745
vn -0.367181 0.886453 -0.281745
vn -0.281744 0.886452 -0.367182
vn -0.281744 0.886452 -0.367182
vn -0.281744 0.886452 -0.367182
vn -0.281744 -0.886452 -0.367182
vn -0.281744 -0.886452 -0.367182
vn -0.281744 -0.886452 -0.367182
vn -0.367181 -0.886453 -0.281745
vn -0.367181 -0.886453 -0.281745
vn -0.367181 -0.886453 -0.281745
vn -0.382684 0.923880 0.000000
vn -0.382684 0.923880 0.000000
vn -0.382684 0.923880 0.000000
vn -0.382684 0.923880 0.000000
vn -0.382684 0.923880 0.000000
vn -0.382684 0.923880 0.000000
vn -0.382684 -0.923880 0.000000
vn -0.382684 -0.923880 0.000000
vn -0.382684 -0.923880 0.000000
vn -0.382684 -0.923880 0.000000
vn -0.382684 -0.923880 0.000000
vn -0.382684 -0.923880 0.000000
vn -0.268227 0.925261 0.268227
vn -0.268227 0.925261 0.268227
vn -0.268227 0.925261 0.268227
vn -0.357407 0.862856 0.357408
vn -0.357407 0.862856 0.357408
vn -0.357407 0.862856 0.357408
vn -0.357407 -0.862856 0.357408
vn -0.357407 -0.862856 0.357408
vn -0.357407 -0.862856 0.357408
vn -0.268227 -0.925261 0.268227
vn -0.268227 -0.925261 0.268227
vn -0.268227 -0.925261 0.268227
vn 0.000000 0.923879 -0.382684
vn 0.000000 0.923879 -0.382684
vn 0.000000 0.923879 -0.382684
vn 0.000000 0.923879 -0.382684
vn 0.000000 0.923879 -0.382684
vn 0.000000 0.923879 -0.382684
vn 0.000000 -0.923879 -0.382684
vn 0.000000 -0.923879 -0.382684
vn 0.000000 -0.923879 -0.382684
vn 0.000000 -0.923879 -0.382684
vn 0.000000 -0.923879 -0.382684
vn 0.000000 -0.923879 -0.382684
vn 0.000000 1.000000 0.000000
vn 0.000000 1.000000 0.000000
vn 0.000000 1.000000 0.000000
vn 0.000000 1.000000 0.000000
vn 0.000000 1.000000 0.000000
vn 0.000000 1.000000 0.000000
vn 0.000000 -1.000000 0.000000
vn 0.000000 -1.000000 0.000000
vn 0.000000 -1.000000 0.000000
vn 0.000000 -1.000000 0.000000
vn 0.000000 -1.000000 0.000000
vn 0.000000 -1.000000 0.000000
vn 0.000000 0.923879 0.382684
vn 0.000000 0.923879 0.382684
vn 0.000000 0.923879 0.382684
vn 0.000000 0.923879 0.382684
vn 0.000000 0.923879 0.382684
vn 0.000000 0.923879 0.382684
vn 0.000000 -0.923879 0.382684
vn 0.000000 -0.923879 0.382684
vn 0.000000 -0.923879 0.382684
vn 0.000000 -0.923879 0.382684
vn 0.000000 -0.923879 0.382684
vn 0.000000 -0.923879 0.382684
vn 0.357407 0.862856 -0.357408
vn 0.357407 0.862856 -0.357408
vn 0.357407 0.862856 -0.357408
vn 0.268227 0.925261 -0.268227
vn 0.268227 0.925261 -0.268227
vn 0.268227 0.925261 -0.268227
vn 0.268227 -0.925261 -0.268227
vn 0.268227 -0.925261 -0.268227
vn 0.268227 -0.925261 -0.268227
vn 0.357407 -0.862856 -0.357408
vn 0.357407 -0.862856 -0.357408
vn 0.357407 -0.862856 -0.357408
vn 0.382684 0.923880 0.000000
vn 0.382684 0.923880 0.000000
vn 0.382684 0.923880 0.000000
vn 0.382684 0.923880 0.000000
vn 0.382684 0.923880 0.000000
vn 0.382684 0.923880 0.000000
vn 0.382684 -0.923880 0.000000
vn 0.382684 -0.923880 0.000000
vn 0.382684 -0.923880 0.000000
vn 0.382684 -0.923880 0.000000
vn 0.382684 -0.923880 0.000000
vn 0.382684 -0.923880 0.000000
vn 0.281744 0.886452 0.367182
vn 0.281744 0.886452 0.367182
vn 0.281744 0.886452 0.367182
vn 0.367181 0.886453 0.281745
vn 0.367181 0.886453 0.281745
vn 0.367181 0.886453 0.281745
vn 0.367181 -0.886453 0.281745
vn 0.367181 -0.886453 0.281745
vn 0.367181 -0.886453 0.281745
vn 0.281744 -0.886452 0.367182
vn 0.281744 -0.886452 0.367182
vn 0.281744 -0.886452 0.367182
vn -0.281744 -0.367184 0.886452
vn -0.281744 -0.367184 0.886452
vn -0.281744 -0.367184 0.886452
vn -0.367183 -0.281745 0.886452
vn -0.367183 -0.281745 0.886452
vn -0.367183 -0.281745 0.886452
vn -0.367183 -0.281745 -0.886452
vn -0.367183 -0.281745 -0.886452
vn -0.367183 -0.281745 -0.886452
vn -0.281744 -0.367184 -0.886452
vn -0.281744 -0.367184 -0.886452
vn -0.281744 -0.367184 -0.886452
vn -0.382686 0.000000 0.923879
vn -0.382686 0.000000 0.923879
vn -0.382686 0.000000 0.923879
vn -0.382686 0.000000 0.923879
vn -0.382686 0.000000 0.923879
vn -0.382686 0.000000 0.923879
vn -0.382686 0.000000 -0.923879
vn -0.382686 0.000000 -0.923879
vn -0.382686 0.000000 -0.923879
vn -0.382686 0.000000 -0.923879
vn -0.382686 0.000000 -0.923879
vn -0.382686 0.000000 -0.923879
vn -0.357408 0.357409 0.862854
vn -0.357408 0.357409 0.862854
vn -0.357408 0.357409 0.862854
vn -0.268227 0.268227 0.925261
vn -0.268227 0.268227 0.925261
vn -0.268227 0.268227 0.925261
vn -0.268227 0.268227 -0.925261
vn -0.268227 0.268227 -0.925261
vn -0.268227 0.268227 -0.925261
vn -0.357408 0.357409 -0.862854
vn -0.357408 0.357409 -0.862854
vn -0.357408 0.357409 -0.862854
vn 0.000000 -0.382686 0.923878
vn 0.000000 -0.382686 0.923878
vn 0.000000 -0.382686 0.923878
vn 0.000000 -0.382686 0.923878
vn 0.000000 -0.382686 0.923878
vn 0.000000 -0.382686 0.923878
vn 0.000000 -0.382686 -0.923878
vn 0.000000 -0.382686 -0.923878
vn 0.000000 -0.382686 -0.923878
vn 0.000000 -0.382686 -0.923878
vn 0.000000 -0.382686 -0.923878
vn 0.000000 -0.382686 -0.923878
vn 0.000000 0.000000 1.000000
vn 0.000000 0.000000 1.000000
vn 0.000000 0.000000 1.000000
vn 0.000000 0.000000 1.000000
vn 0.000000 0.000000 1.000000
vn 0.000000 0.000000 1.000000
vn 0.000000 0.000000 -1.000000
vn 0.000000 0.000000 -1.000000
vn 0.000000 0.000000 -1.000000
vn 0.000000 0.000000 -1.000000
vn 0.000000 0.000000 -1.000000
vn 0.000000 0.000000 -1.000000
vn 0.000000 0.382686 0.923878
vn 0.000000 0.382686 0.923878
vn 0.000000 0.382686 0.923878
vn 0.000000 0.382686 0.923878
vn 0.000000 0.382686 0.923878
vn 0.000000 0.382686 0.923878
vn 0.000000 0.382686 -0.923878
vn 0.000000 0.382686 -0.923878
vn 0.000000 0.382686 -0.923878
vn 0.000000 0.382686 -0.923878
vn 0.000000 0.382686 -0.923878
vn 0.000000 0.382686 -0.923878
vn 0.268227 -0.268227 0.925261
vn 0.268227 -0.268227 0.925261
vn 0.268227 -0.268227 0.925261
vn 0.357408 -0.357409 0.862854
vn 0.357408 -0.357409 0.862854
vn 0.357408 -0.357409 0.862854
vn 0.357408 -0.357409 -0.862854
vn 0.357408 -0.357409 -0.862854
vn 0.357408 -0.357409 -0.862854
vn 0.268227 -0.268227 -0.925261
vn 0.268227 -0.268227 -0.925261
vn 0.268227 -0.268227 -0.925261
vn 0.382686 0.000000 0.923879
vn 0.382686 0.000000 0.923879
vn 0.382686 0.000000 0.923879
vn 0.382686 0.000000 0.923879
vn 0.382686 0.000000 0.923879
vn 0.382686 0.000000 0.923879
vn 0.382686 0.000000 -0.923879
vn 0.382686 0.000000 -0.923879
vn 0.382686 0.000000 -0.923879
vn 0.382686 0.000000 -0.923879
vn 0.382686 0.000000 -0.923879
vn 0.382686 0.000000 -0.923879
vn 0.367183 0.281745 0.886452
vn 0.367183 0.281745 0.886452
vn 0.367183 0.281745 0.886452
vn 0.281744 0.367184 0.886452
vn 0.281744 0.367184 0.886452
vn 0.281744 0.367184 0.886452
vn 0.281744 0.367184 -0.886452
vn 0.281744 0.367184 -0.886452
vn 0.281744 0.367184 -0.886452
vn 0.367183 0.281745 -0.886452
vn 0.367183 0.281745 -0.886452
vn 0.367183 0.281745 -0.886452
vn 0.886452 -0.154489 -0.436274
vn 0.886452 -0.154489 -0.436274
vn 0.886452 -0.154489 -0.436274
vn 0.886452 -0.262146 -0.381421
vn 0.886452 -0.262146 -0.381421
vn 0.886452 -0.262146 -0.381421
vn -0.886452 -0.262146 -0.381421
vn -0.886452 -0.262146 -0.381421
vn -0.886452 -0.262146 -0.381421
vn -0.886452 -0.154489 -0.436274
vn -0.886452 -0.154489 -0.436274
vn -0.886452 -0.154489 -0.436274
vn 0.923879 -0.363955 -0.118256
vn 0.923879 -0.363955 -0.118256
vn 0.923879 -0.363955 -0.118256
vn 0.923880 -0.363953 -0.118256
vn 0.923880 -0.363953 -0.118256
vn 0.923880 -0.363953 -0.118256
vn -0.923880 -0.363953 -0.118256
vn -0.923880 -0.363953 -0.118256
vn -0.923880 -0.363953 -0.118256
vn -0.923879 -0.363955 -0.118256
vn -0.923879 -0.363955 -0.118256
vn -0.923879 -0.363955 -0.118256
vn 0.862855 -0.450360 0.229470
vn 0.862855 -0.450360 0.229470
vn 0.862855 -0.450360 0.229470
vn 0.925259 -0.337991 0.172215
vn 0.925259 -0.337991 0.172215
vn 0.925259 -0.337991 0.172215
vn -0.925259 -0.337991 0.172215
vn -0.925259 -0.337991 0.172215
vn -0.925259 -0.337991 0.172215
vn -0.862855 -0.450360 0.229470
vn -0.862855 -0.450360 0.229470
vn -0.862855 -0.450360 0.229470
vn 0.923879 0.118256 -0.363954
vn 0.923879 0.118256 -0.363954
vn 0.923879 0.118256 -0.363954
vn 0.923880 0.118256 -0.363954
vn 0.923880 0.118256 -0.363954
vn 0.923880 0.118256 -0.363954
vn -0.923880 0.118256 -0.363954
vn -0.923880 0.118256 -0.363954
vn -0.923880 0.118256 -0.363954
vn -0.923879 0.118256 -0.363954
vn -0.923879 0.118256 -0.363954
vn -0.923879 0.118256 -0.363954
vn 1.000000 0.000000 0.000000
vn 1.000000 0.000000 0.000000
vn 1.000000 0.000000 0.000000
vn 1.000000 0.000000 0.000000
vn 1.000000 0.000000 0.000000
vn 1.000000 0.000000 0.000000
vn -1.000000 0.000000 0.000000
vn -1.000000 0.000000 0.000000
vn -1.000000 0.000000 0.000000
vn -1.000000 0.000000 0.000000
vn -1.000000 0.000000 0.000000
vn -1.000000 0.000000 0.000000
vn 0.923880 -0.118256 0.363954
vn 0.923880 -0.118256 0.363954
vn 0.923880 -0.118256 0.363954
vn 0.923879 -0.118256 0.363954
vn 0.923879 -0.118256 0.363954
vn 0.923879 -0.118256 0.363954
vn -0.923879 -0.118256 0.363954
vn -0.923879 -0.118256 0.363954
vn -0.923879 -0.118256 0.363954
vn -0.923880 -0.118256 0.363954
vn -0.923880 -0.118256 0.363954
vn -0.923880 -0.118256 0.363954
vn 0.925259 0.337989 -0.172215
vn 0.925259 0.337989 -0.172215
vn 0.925259 0.337989 -0.172215
vn 0.862855 0.450360 -0.229472
vn 0.862855 0.450360 -0.229472
vn 0.862855 0.450360 -0.229472
vn -0.862855 0.450360 -0.229472
vn -0.862855 0.450360 -0.229472
vn -0.862855 0.450360 -0.229472
vn -0.925259 0.337989 -0.172215
vn -0.925259 0.337989 -0.172215
vn -0.925259 0.337989 -0.172215
vn 0.923880 0.363954 0.118256
vn 0.923880 0.363954 0.118256
vn 0.923880 0.363954 0.118256
vn 0.923880 0.363954 0.118256
vn 0.923880 0.363954 0.118256
vn 0.923880 0.363954 0.118256
vn -0.923880 0.363954 0.118256
vn -0.923880 0.363954 0.118256
vn -0.923880 0.363954 0.118256
vn -0.923880 0.363954 0.118256
vn -0.923880 0.363954 0.118256
vn -0.923880 0.363954 0.118256
vn 0.886452 0.262144 0.381421
vn 0.886452 0.262144 0.381421
vn 0.886452 0.262144 0.381421
vn 0.886452 0.154489 0.436274
vn 0.886452 0.154489 0.436274
vn 0.886452 0.154489 0.436274
vn -0.886452 0.154489 0.436274
vn -0.886452 0.154489 0.436274
vn -0.886452 0.154489 0.436274
vn -0.886452 0.262144 0.381421
vn -0.886452 0.262144 0.381421
vn -0.886452 0.262144 0.381421
vn -0.367174 0.930133 0.005968
vn -0.367174 0.930133 0.005968
vn -0.367174 0.930133 0.005968
vn -0.281746 0.956531 -0.075279
vn -0.281746 0.956531 -0.075279
vn -0.281746 0.956531 -0.075279
vn -0.281745 -0.729603 -0.623137
vn -0.281745 -0.729603 -0.623137
vn -0.281745 -0.729603 -0.623137
vn -0.367180 -0.756004 -0.541883
vn -0.367180 -0.756004 -0.541883
vn -0.367180 -0.756004 -0.541883
vn -0.382677 0.878664 0.285495
vn -0.382677 0.878664 0.285495
vn -0.382677 0.878664 0.285495
vn -0.382677 0.878664 0.285495
vn -0.382677 0.878664 0.285495
vn -0.382677 0.878664 0.285495
vn -0.382684 -0.878662 -0.285495
vn -0.382684 -0.878662 -0.285495
vn -0.382684 -0.878662 -0.285495
vn -0.382680 -0.878663 -0.285496
vn -0.382680 -0.878663 -0.285496
vn -0.382680 -0.878663 -0.285496
vn -0.268228 0.797087 0.541023
vn -0.268228 0.797087 0.541023
vn -0.268228 0.797087 0.541023
vn -0.357401 0.710186 0.606549
vn -0.357401 0.710186 0.606549
vn -0.357401 0.710186 0.606549
vn -0.357404 -0.931071 0.073279
vn -0.357404 -0.931071 0.073279
vn -0.357404 -0.931071 0.073279
vn -0.268231 -0.962862 -0.030813
vn -0.268231 -0.962862 -0.030813
vn -0.268231 -0.962862 -0.030813
vn 0.000000 0.996917 -0.078457
vn 0.000000 0.996917 -0.078457
vn 0.000000 0.996917 -0.078457
vn 0.000000 0.996917 -0.078457
vn 0.000000 0.996917 -0.078457
vn 0.000000 0.996917 -0.078457
vn 0.000000 -0.760408 -0.649446
vn 0.000000 -0.760408 -0.649446
vn 0.000000 -0.760408 -0.649446
vn 0.000000 -0.760408 -0.649446
vn 0.000000 -0.760408 -0.649446
vn 0.000000 -0.760408 -0.649446
vn 0.000000 0.951056 0.309017
vn 0.000000 0.951056 0.309017
vn 0.000000 0.951056 0.309017
vn 0.000000 0.951056 0.309017
vn 0.000000 0.951056 0.309017
vn 0.000000 0.951056 0.309017
vn 0.000000 -0.951056 -0.309017
vn 0.000000 -0.951056 -0.309017
vn 0.000000 -0.951056 -0.309017
vn 0.000000 -0.951056 -0.309017
vn 0.000000 -0.951056 -0.309017
vn 0.000000 -0.951056 -0.309017
vn 0.000000 0.760410 0.649444
vn 0.000000 0.760410 0.649444
vn 0.000000 0.760410 0.649444
vn 0.000000 0.760410 0.649444
vn 0.000000 0.760410 0.649444
vn 0.000000 0.760410 0.649444
vn 0.000000 -0.996917 0.078461
vn 0.000000 -0.996917 0.078461
vn 0.000000 -0.996917 0.078461
vn 0.000000 -0.996917 0.078461
vn 0.000000 -0.996917 0.078461
vn 0.000000 -0.996917 0.078461
vn 0.357401 0.931072 -0.073275
vn 0.357401 0.931072 -0.073275
vn 0.357401 0.931072 -0.073275
vn 0.268231 0.962862 0.030813
vn 0.268231 0.962862 0.030813
vn 0.268231 0.962862 0.030813
vn 0.268228 -0.797089 -0.541020
vn 0.268228 -0.797089 -0.541020
vn 0.268228 -0.797089 -0.541020
vn 0.357406 -0.710182 -0.606550
vn 0.357406 -0.710182 -0.606550
vn 0.357406 -0.710182 -0.606550
vn 0.382677 0.878664 0.285495
vn 0.382677 0.878664 0.285495
vn 0.382677 0.878664 0.285495
vn 0.382677 0.878664 0.285495
vn 0.382677 0.878664 0.285495
vn 0.382677 0.878664 0.285495
vn 0.382684 -0.878661 -0.285495
vn 0.382684 -0.878661 -0.285495
vn 0.382684 -0.878661 -0.285495
vn 0.382680 -0.878663 -0.285495
vn 0.382680 -0.878663 -0.285495
vn 0.382680 -0.878663 -0.285495
vn 0.281745 0.729605 0.623134
vn 0.281745 0.729605 0.623134
vn 0.281745 0.729605 0.623134
vn 0.367174 0.756004 0.541887
vn 0.367174 0.756004 0.541887
vn 0.367174 0.756004 0.541887
vn 0.367177 -0.930132 -0.005967
vn 0.367177 -0.930132 -0.005967
vn 0.367177 -0.930132 -0.005967
vn 0.281747 -0.956531 0.075283
vn 0.281747 -0.956531 0.075283
vn 0.281747 -0.956531 0.075283
vn -0.281745 -0.623138 0.729602
vn -0.281745 -0.623138 0.729602
vn -0.281745 -0.623138 0.729602
vn -0.367176 -0.541889 0.756002
vn -0.367176 -0.541889 0.756002
vn -0.367176 -0.541889 0.756002
vn -0.367182 0.005976 -0.930130
vn -0.367182 0.005976 -0.930130
vn -0.367182 0.005976 -0.930130
vn -0.281746 -0.075279 -0.956531
vn -0.281746 -0.075279 -0.956531
vn -0.281746 -0.075279 -0.956531
vn -0.382678 -0.285495 0.878664
vn -0.382678 -0.285495 0.878664
vn -0.382678 -0.285495 0.878664
vn -0.382684 -0.285494 0.878661
vn -0.382684 -0.285494 0.878661
vn -0.382684 -0.285494 0.878661
vn -0.382678 0.285495 -0.878664
vn -0.382678 0.285495 -0.878664
vn -0.382678 0.285495 -0.878664
vn -0.382684 0.285494 -0.878661
vn -0.382684 0.285494 -0.878661
vn -0.382684 0.285494 -0.878661
vn -0.357409 0.073275 0.931069
vn -0.357409 0.073275 0.931069
vn -0.357409 0.073275 0.931069
vn -0.268229 -0.030824 0.962862
vn -0.268229 -0.030824 0.962862
vn -0.268229 -0.030824 0.962862
vn -0.268228 0.541023 -0.797087
vn -0.268228 0.541023 -0.797087
vn -0.268228 0.541023 -0.797087
vn -0.357405 0.606551 -0.710181
vn -0.357405 0.606551 -0.710181
vn -0.357405 0.606551 -0.710181
vn 0.000000 -0.649448 0.760406
vn 0.000000 -0.649448 0.760406
vn 0.000000 -0.649448 0.760406
vn 0.000000 -0.649448 0.760406
vn 0.000000 -0.649448 0.760406
vn 0.000000 -0.649448 0.760406
vn 0.000000 -0.078457 -0.996917
vn 0.000000 -0.078457 -0.996917
vn 0.000000 -0.078457 -0.996917
vn 0.000000 -0.078457 -0.996917
vn 0.000000 -0.078457 -0.996917
vn 0.000000 -0.078457 -0.996917
vn 0.000000 -0.309017 0.951057
vn 0.000000 -0.309017 0.951057
vn 0.000000 -0.309017 0.951057
vn 0.000000 -0.309017 0.951057
vn 0.000000 -0.309017 0.951057
vn 0.000000 -0.309017 0.951057
vn 0.000000 0.309017 -0.951057
vn 0.000000 0.309017 -0.951057
vn 0.000000 0.309017 -0.951057
vn 0.000000 0.309017 -0.951057
vn 0.000000 0.309017 -0.951057
vn 0.000000 0.309017 -0.951057
vn 0.000000 0.078457 0.996917
vn 0.000000 0.078457 0.996917
vn 0.000000 0.078457 0.996917
vn 0.000000 0.078457 0.996917
vn 0.000000 0.078457 0.996917
vn 0.000000 0.078457 0.996917
vn 0.000000 0.649448 -0.760406
vn 0.000000 0.649448 -0.760406
vn 0.000000 0.649448 -0.760406
vn 0.000000 0.649448 -0.760406
vn 0.000000 0.649448 -0.760406
vn 0.000000 0.649448 -0.760406
vn 0.268229 -0.541026 0.797085
vn 0.268229 -0.541026 0.797085
vn 0.268229 -0.541026 0.797085
vn 0.357402 -0.606552 0.710182
vn 0.357402 -0.606552 0.710182
vn 0.357402 -0.606552 0.710182
vn 0.357409 -0.073275 -0.931069
vn 0.357409 -0.073275 -0.931069
vn 0.357409 -0.073275 -0.931069
vn 0.268229 0.030824 -0.962862
vn 0.268229 0.030824 -0.962862
vn 0.268229 0.030824 -0.962862
vn 0.382678 -0.285495 0.878664
vn 0.382678 -0.285495 0.878664
vn 0.382678 -0.285495 0.878664
vn 0.382684 -0.285494 0.878661
vn 0.382684 -0.285494 0.878661
vn 0.382684 -0.285494 0.878661
vn 0.382679 0.285495 -0.878663
vn 0.382679 0.285495 -0.878663
vn 0.382679 0.285495 -0.878663
vn 0.382684 0.285494 -0.878662
vn 0.382684 0.285494 -0.878662
vn 0.382684 0.285494 -0.878662
vn 0.367182 -0.005976 0.930130
vn 0.367182 -0.005976 0.930130
vn 0.367182 -0.005976 0.930130
vn 0.281746 0.075279 0.956531
vn 0.281746 0.075279 0.956531
vn 0.281746 0.075279 0.956531
vn 0.281745 0.623138 -0.729602
vn 0.281745 0.623138 -0.729602
vn 0.281745 0.623138 -0.729602
vn 0.367178 0.541887 -0.756002
vn 0.367178 0.541887 -0.756002
vn 0.367178 0.541887 -0.756002
f 1/1/1 2/2/2 3/3/3
f 4/4/4 5/5/5 6/6/6
f 7/7/7 8/8/8 9/9/9
f 10/10/10 11/11/11 12/12/12
f 13/13/13 14/14/14 15/15/15
f 16/16/16 17/17/17 18/18/18
f 19/19/19 20/20/20 21/21/21
f 22/22/22 23/23/23 24/24/24
f 25/25/25 26/26/26 27/27/27
f 28/28/28 29/29/29 30/30/30
f 31/31/31 32/32/32 33/33/33
f 34/34/34 35/35/35 36/36/36
f 37/37/37 38/38/38 39/39/39
f 40/40/40 41/41/41 42/42/42
f 43/43/43 44/44/44 45/45/45
f 46/46/46 47/47/47 48/48/48
f 49/49/49 50/50/50 51/51/51
f 52/52/52 53/53/53 54/54/54
f 55/55/55 56/56/56 57/57/57
f 58/58/58 59/59/59 60/60/60
f 61/61/61 62/62/62 63/63/63
f 64/64/64 65/65/65 66/66/66
f 67/67/67 68/68/68 69/69/69
f 70/70/70 71/71/71 72/72/72
f 73/73/73 74/74/74 75/75/75
f 76/76/76 77/77/77 78/78/78
f 79/79/79 80/80/80 81/81/81
f 82/82/82 83/83/83 84/84/84
f 85/85/85 86/86/86 87/87/87
f 88/88/88 89/89/89 90/90/90
f 91/91/91 92/92/92 93/93/93
f 94/94/94 95/95/95 96/96/96
f 97/97/97 98/98/98 99/99/99
f 100/100/100 101/101/101 102/102/102
f 103/103/103 104/104/104 105/105/105
f 106/106/106 107/107/107 108/108/108
f 109/109/109 110/110/110 111/111/111
f 112/112/112 113/113/113 114/114/114
f 115/115/115 116/116/116 117/117/117
f 118/118/118 119/119/119 120/120/120
f 121/121/121 122/122/122 123/123/123
f 124/124/124 125/125/125 126/126/126
f 127/127/127 128/128/128 129/129/129
f 130/130/130 131/131/131 132/132/132
f 133/133/133 134/134/134 135/135/135
f 136/136/136 137/137/137 138/138/138
f 139/139/139 140/140/140 141/141/141
f 142/142/142 143/143/143 144/144/144
f 145/145/145 146/146/146 147/147/147
f 148/148/148 149/149/149 150/150/150
f 151/151/151 152/152/152 153/153/153
f 154/154/154 155/155/155 156/156/156
f 157/157/157 158/158/158 159/159/159
f 160/160/160 161/161/161 162/162/162
f 163/163/163 164/164/164 165/165/165
f 166/166/166 167/167/167 168/168/168
f 169/169/169 170/170/170 171/171/171
f 172/172/172 173/173/173 174/174/174
f 175/175/175 176/176/176 177/177/177
f 178/178/178 179/179/179 180/180/180
f 181/181/181 182/182/182 183/183/183
f 184/184/184 185/185/185 186/186/186
f 187/187/187 188/188/188 189/189/189
f 190/190/190 191/191/191 192/192/192
f 193/193/193 194/194/194 195/195/195
f 196/196/196 197/197/197 198/198/198
f 199/199/199 200/200/200 201/201/201
f 202/202/202 203/203/203 204/204/204
f 205/205/205 206/206/206 207/207/207
f 208/208/208 209/209/209 210/210/210
f 211/211/211 212/212/212 213/213/213
f 214/214/214 215/215/215 216/216/216
f 217/217/217 218/218/218 219/219/219
f 220/220/220 221/221/221 222/222/222
f 223/223/223 224/224/224 225/225/225
f 226/226/226 227/227/227 228/228/228
f 229/229/229 230/230/230 231/231/231
f 232/232/232 233/233/233 234/234/234
f 235/235/235 236/236/236 237/237/237
f 238/238/238 239/239/239 240/240/240
f 241/241/241 242/242/242 243/243/243
f 244/244/244 245/245/245 246/246/246
f 247/247/247 248/248/248 249/249/249
f 250/250/250 251/251/251 252/252/252
f 253/253/253 254/254/254 255/255/255
f 256/256/256 257/257/257 258/258/258
f 259/259/259 260/260/260 261/261/261
f 262/262/262 263/263/263 264/264/264
f 265/265/265 266/266/266 267/267/267
f 268/268/268 269/269/269 270/270/270
f 271/271/271 272/272/272 273/273/273
f 274/274/274 275/275/275 276/276/276
f 277/277/277 278/278/278 279/279/279
f 280/280/280 281/281/281 282/282/282
f 283/283/283 284/284/284 285/285/285
f 286/286/286 287/287/287 288/288/288
f 289/289/289 290/290/290 291/291/291
f 292/292/292 293/293/293 294/294/294
f 295/295/295 296/296/296 297/297/297
f 298/298/298 299/299/299 300/300/300
f 301/301/301 302/302/302 303/303/303
f 304/304/304 305/305/305 306/306/306
f 307/307/307 308/308/308 309/309/309
f 310/310/310 311/311/311 312/312/312
f 313/313/313 314/314/314 315/315/315
f 316/316/316 317/317/317 318/318/318
f 319/319/319 320/320/320 321/321/321
f 322/322/322 323/323/323 324/324/324
f 325/325/325 326/326/326 327/327/327
f 328/328/328 329/329/329 330/330/330
f 331/331/331 332/332/332 333/333/333
f 334/334/334 335/335/335 336/336/336
f 337/337/337 338/338/338 339/339/339
f 340/340/340 341/341/341 342/342/342
f 343/343/343 344/344/344 345/345/345
f 346/346/346 347/347/347 348/348/348
f 349/349/349 350/350/350 351/351/351
f 352/352/352 353/353/353 354/354/354
f 355/355/355 356/356/356 357/357/357
f 358/358/358 359/359/359 360/360/360
f 361/361/361 362/362/362 363/363/363
f 364/364/364 365/365/365 366/366/366
f 367/367/367 368/368/368 369/369/369
f 370/370/370 371/371/371 372/372/372
f 373/373/373 374/374/374 375/375/375
f 376/376/376 377/377/377 378/378/378
f 379/379/379 380/380/380 381/381/381
f 382/382/382 383/383/383 384/384/384
f 385/385/385 386/386/386 387/387/387
f 388/388/388 389/389/389 390/390/390
f 391/391/391 392/392/392 393/393/393
f 394/394/394 395/395/395 396/396/396
f 397/397/397 398/398/398 399/399/399
f 400/400/400 401/401/401 402/402/402
f 403/403/403 404/404/404 405/405/405
f 406/406/406 407/407/407 408/408/408
f 409/409/409 410/410/410 411/411/411
f 412/412/412 413/413/413 414/414/414
f 415/415/415 416/416/416 417/417/417
f 418/418/418 419/419/419 420/420/420
f 421/421/421 422/422/422 423/423/423
f 424/424/424 425/425/425 426/426/426
f 427/427/427 428/428/428 429/429/429
f 430/430/430 431/431/431 432/432/432
f 433/433/433 434/434/434 435/435/435
f 436/436/436 437/437/437 438/438/438
f 439/439/439 440/440/440 441/441/441
f 442/442/442 443/443/443 444/444/444
f 445/445/445 446/446/446 447/447/447
f 448/448/448 449/449/449 450/450/450
f 451/451/451 452/452/452 453/453/453
f 454/454/454 455/455/455 456/456/456
f 457/457/457 458/458/458 459/459/459
f 460/460/460 461/461/461 462/462/462
f 463/463/463 464/464/464 465/465/465
f 466/466/466 467/467/467 468/468/468
f 469/469/469 470/470/470 471/471/471
f 472/472/472 473/473/473 474/474/474
f 475/475/475 476/476/476 477/477/477
f 478/478/478 479/479/479 480/480/480
f 481/481/481 482/482/482 483/483/483
f 484/484/484 485/485/485 486/486/486
f 487/487/487 488/488/488 489/489/489
f 490/490/490 491/491/491 492/492/492
f 493/493/493 494/494/494 495/495/495
f 496/496/496 497/497/497 498/498/498
f 499/499/499 500/500/500 501/501/501
f 502/502/502 503/503/503 504/504/504
f 505/505/505 506/506/506 507/507/507
f 508/508/508 509/509/509 510/510/510
f 511/511/511 512/512/512 513/513/513
f 514/514/514 515/515/515 516/516/516
f 517/517/517 518/518/518 519/519/519
f 520/520/520 521/521/521 522/522/522
f 523/523/523 524/524/524 525/525/525
f 526/526/526 527/527/527 528/528/528
f 529/529/529 530/530/530 531/531/531
f 532/532/532 533/533/533 534/534/534
f 535/535/535 536/536/536 537/537/537
f 538/538/538 539/539/539 540/540/540
f 541/541/541 542/542/542 543/543/543
f 544/544/544 545/545/545 546/546/546
f 547/547/547 548/548/548 549/549/549
f 550/550/550 551/551/551 552/552/552
f 553/553/553 554/554/554 555/555/555
f 556/556/556 557/557/557 558/558/558
f 559/559/559 560/560/560 561/561/561
f 562/562/562 563/563/563 564/564/564
f 565/565/565 566/566/566 567/567/567
f 568/568/568 569/569/569 570/570/570
f 571/571/571 572/572/572 573/573/573
f 574/574/574 575/575/575 576/576/576
f 577/577/577 578/578/578 579/579/579
f 580/580/580 581/581/581 582/582/582
f 583/583/583 584/584/584 585/585/585
f 586/586/586 587/587/587 588/588/588
f 589/589/589 590/590/590 591/591/591
f 592/592/592 593/593/593 594/594/594
f 595/595/595 596/596/596 597/597/597
f 598/598/598 599/599/599 600/600/600
f 601/601/601 602/602/602 603/603/603
f 604/604/604 605/605/605 606/606/606
f 607/607/607 608/608/608 609/609/609
f 610/610/610 611/611/611 612/612/612
f 613/613/613 614/614/614 615/615/615
f 616/616/616 617/617/617 618/618/618
f 619/619/619 620/620/620 621/621/621
f 622/622/622 623/623/623 624/624/624
f 625/625/625 626/626/626 627/627/627
f 628/628/628 629/629/629 630/630/630
f 631/631/631 632/632/632 633/633/633
f 634/634/634 635/635/635 636/636/636
f 637/637/637 638/638/638 639/639/639
f 640/640/640 641/641/641 642/642/642
f 643/643/643 644/644/644 645/645/645
f 646/646/646 647/647/647 648/648/648
f 649/649/649 650/650/650 651/651/651
f 652/652/652 653/653/653 654/654/654
f 655/655/655 656/656/656 657/657/657
f 658/658/658 659/659/659 660/660/660
f 661/661/661 662/662/662 663/663/663
f 664/664/664 665/665/665 666/666/666
f 667/667/667 668/668/668 669/669/669
f 670/670/670 671/671/671 672/672/672
f 673/673/673 674/674/674 675/675/675
f 676/676/676 677/677/677 678/678/678
f 679/679/679 680/680/680 681/681/681
f 682/682/682 683/683/683 684/684/684
f 685/685/685 686/686/686 687/687/687
f 688/688/688 689/689/689 690/690/690
f 691/691/691 692/692/692 693/693/693
f 694/694/694 695/695/695 696/696/696
f 697/697/697 698/698/698 699/699/699
f 700/700/700 701/701/701 702/702/702
f 703/703/703 704/704/704 705/705/705
f 706/706/706 707/707/707 708/708/708
f 709/709/709 710/710/710 711/711/711
f 712/712/712 713/713/713 714/714/714
f 715/715/715 716/716/716 717/717/717
f 718/718/718 719/719/719 720/720/720
f 721/721/721 722/722/722 723/723/723
f 724/724/724 725/725/725 726/726/726
f 727/727/727 728/728/728 729/729/729
f 730/730/730 731/731/731 732/732/732
f 733/733/733 734/734/734 735/735/735
f 736/736/736 737/737/737 738/738/738
f 739/739/739 740/740/740 741/741/741
f 742/742/742 743/743/743 744/744/744
f 745/745/745 746/746/746 747/747/747
f 748/748/748 749/749/749 750/750/750
f 751/751/751 752/752/752 753/753/753
f 754/754/754 755/755/755 756/756/756
f 757/757/757 758/758/758 759/759/759
f 760/760/760 761/761/761 762/762/762
f 763/763/763 764/764/764 765/765/765
f 766/766/766 767/767/767 768/768/768
f 769/769/769 770/770/770 771/771/771
f 772/772/772 773/773/773 774/774/774
f 775/775/775 776/776/776 777/777/777
f 778/778/778 779/779/779 780/780/780
f 781/781/781 782/782/782 783/783/783
f 784/784/784 785/785/785 786/786/786
f 787/787/787 788/788/788 789/789/789
f 790/790/790 791/791/791 792/792/792
f 793/793/793 794/794/794 795/795/795
f 796/796/796 797/797/797 798/798/798
f 799/799/799 800/800/800 801/801/801
f 802/802/802 803/803/803 804/804/804
f 805/805/805 806/806/806 807/807/807
f 808/808/808 809/809/809 810/810/810
f 811/811/811 812/812/812 813/813/813
f 814/814/814 815/815/815 816/816/816
f 817/817/817 818/818/818 819/819/819
f 820/820/820 821/821/821 822/822/822
f 823/823/823 824/824/824 825/825/825
f 826/826/826 827/827/827 828/828/828
f 829/829/829 830/830/830 831/831/831
f 832/832/832 833/833/833 834/834/834
f 835/835/835 836/836/836 837/837/837
f 838/838/838 839/839/839 840/840/840
f 841/841/841 842/842/842 843/843/843
f 844/844/844 845/845/845 846/846/846
f 847/847/847 848/848/848 849/849/849
f 850/850/850 851/851/851 852/852/852
f 853/853/853 854/854/854 855/855/855
f 856/856/856 857/857/857 858/858/858
f 859/859/859 860/860/860 861/861/861
f 862/862/862 863/863/863 864/864/864
f 865/865/865 866/866/866 867/867/867
f 868/868/868 869/869/869 870/870/870
f 871/871/871 872/872/872 873/873/873
f 874/874/874 875/875/875 876/876/876
f 877/877/877 878/878/878 879/879/879
f 880/880/880 881/881/881 882/882/882
f 883/883/883 884/884/884 885/885/885
f 886/886/886 887/887/887 888/888/888
f 889/889/889 890/890/890 891/891/891
f 892/892/892 893/893/893 894/894/894
f 895/895/895 896/896/896 897/897/897
f 898/898/898 899/899/899 900/900/900
f 901/901/901 902/902/902 903/903/903
f 904/904/904 905/905/905 906/906/906
f 907/907/907 908/908/908 909/909/909
f 910/910/910 911/911/911 912/912/912
f 913/913/913 914/914/914 915/915/915
f 916/916/916 917/917/917 918/918/918
f 919/919/919 920/920/920 921/921/921
f 922/922/922 923/923/923 924/924/924
f 925/925/925 926/926/926 927/927/927
f 928/928/928 929/929/929 930/930/930
f 931/931/931 932/932/932 933/933/933
f 934/934/934 935/935/935 936/936/936
f 937/937/937 938/938/938 939/939/939
f 940/940/940 941/941/941 942/942/942
f 943/943/943 944/944/944 945/945/945
f 946/946/946 947/947/947 948/948/948
f 949/949/949 950/950/950 951/951/951
f 952/952/952 953/953/953 954/954/954
f 955/955/955 956/956/956 957/957/957
f 958/958/958 959/959/959 960/960/960
f 961/961/961 962/962/962 963/963/963
f 964/964/964 965/965/965 966/966/966
f 967/967/967 968/968/968 969/969/969
f 970/970/970 971/971/971 972/972/972
