# Torrent authored macroform LOD1 semantic component
# Imported production resource; exact geometry/authenticity false
o RaisedSpine
usemtl torrent_hull_light
v -1.550000 1.670000 -2.025000
v -1.550000 2.390000 -2.025000
v -1.090000 2.390000 -2.025000
v -1.550000 1.670000 -2.025000
v -1.090000 2.390000 -2.025000
v -1.090000 1.670000 -2.025000
v -1.550000 1.670000 1.525000
v -1.090000 1.670000 1.525000
v -1.090000 2.390000 1.525000
v -1.550000 1.670000 1.525000
v -1.090000 2.390000 1.525000
v -1.550000 2.390000 1.525000
v -1.550000 1.670000 -2.025000
v -1.550000 1.670000 1.525000
v -1.550000 2.390000 1.525000
v -1.550000 1.670000 -2.025000
v -1.550000 2.390000 1.525000
v -1.550000 2.390000 -2.025000
v -1.090000 1.670000 -2.025000
v -1.090000 2.390000 -2.025000
v -1.090000 2.390000 1.525000
v -1.090000 1.670000 -2.025000
v -1.090000 2.390000 1.525000
v -1.090000 1.670000 1.525000
v -1.550000 1.670000 -2.025000
v -1.090000 1.670000 -2.025000
v -1.090000 1.670000 1.525000
v -1.550000 1.670000 -2.025000
v -1.090000 1.670000 1.525000
v -1.550000 1.670000 1.525000
v -1.550000 2.390000 -2.025000
v -1.550000 2.390000 1.525000
v -1.090000 2.390000 1.525000
v -1.550000 2.390000 -2.025000
v -1.090000 2.390000 1.525000
v -1.090000 2.390000 -2.025000
v 1.090000 1.670000 -2.025000
v 1.090000 2.390000 -2.025000
v 1.550000 2.390000 -2.025000
v 1.090000 1.670000 -2.025000
v 1.550000 2.390000 -2.025000
v 1.550000 1.670000 -2.025000
v 1.090000 1.670000 1.525000
v 1.550000 1.670000 1.525000
v 1.550000 2.390000 1.525000
v 1.090000 1.670000 1.525000
v 1.550000 2.390000 1.525000
v 1.090000 2.390000 1.525000
v 1.090000 1.670000 -2.025000
v 1.090000 1.670000 1.525000
v 1.090000 2.390000 1.525000
v 1.090000 1.670000 -2.025000
v 1.090000 2.390000 1.525000
v 1.090000 2.390000 -2.025000
v 1.550000 1.670000 -2.025000
v 1.550000 2.390000 -2.025000
v 1.550000 2.390000 1.525000
v 1.550000 1.670000 -2.025000
v 1.550000 2.390000 1.525000
v 1.550000 1.670000 1.525000
v 1.090000 1.670000 -2.025000
v 1.550000 1.670000 -2.025000
v 1.550000 1.670000 1.525000
v 1.090000 1.670000 -2.025000
v 1.550000 1.670000 1.525000
v 1.090000 1.670000 1.525000
v 1.090000 2.390000 -2.025000
v 1.090000 2.390000 1.525000
v 1.550000 2.390000 1.525000
v 1.090000 2.390000 -2.025000
v 1.550000 2.390000 1.525000
v 1.550000 2.390000 -2.025000
v -1.370000 2.050000 1.055000
v -1.370000 3.190000 1.055000
v 1.370000 3.190000 1.055000
v -1.370000 2.050000 1.055000
v 1.370000 3.190000 1.055000
v 1.370000 2.050000 1.055000
v -1.370000 2.050000 2.505000
v 1.370000 2.050000 2.505000
v 1.370000 3.190000 2.505000
v -1.370000 2.050000 2.505000
v 1.370000 3.190000 2.505000
v -1.370000 3.190000 2.505000
v -1.370000 2.050000 1.055000
v -1.370000 2.050000 2.505000
v -1.370000 3.190000 2.505000
v -1.370000 2.050000 1.055000
v -1.370000 3.190000 2.505000
v -1.370000 3.190000 1.055000
v 1.370000 2.050000 1.055000
v 1.370000 3.190000 1.055000
v 1.370000 3.190000 2.505000
v 1.370000 2.050000 1.055000
v 1.370000 3.190000 2.505000
v 1.370000 2.050000 2.505000
v -1.370000 2.050000 1.055000
v 1.370000 2.050000 1.055000
v 1.370000 2.050000 2.505000
v -1.370000 2.050000 1.055000
v 1.370000 2.050000 2.505000
v -1.370000 2.050000 2.505000
v -1.370000 3.190000 1.055000
v -1.370000 3.190000 2.505000
v 1.370000 3.190000 2.505000
v -1.370000 3.190000 1.055000
v 1.370000 3.190000 2.505000
v 1.370000 3.190000 1.055000
v -0.810000 2.050000 -2.280000
v -0.810000 2.390000 -2.280000
v 0.810000 2.390000 -2.280000
v -0.810000 2.050000 -2.280000
v 0.810000 2.390000 -2.280000
v 0.810000 2.050000 -2.280000
v -0.810000 2.050000 -1.160000
v 0.810000 2.050000 -1.160000
v 0.810000 2.390000 -1.160000
v -0.810000 2.050000 -1.160000
v 0.810000 2.390000 -1.160000
v -0.810000 2.390000 -1.160000
v -0.810000 2.050000 -2.280000
v -0.810000 2.050000 -1.160000
v -0.810000 2.390000 -1.160000
v -0.810000 2.050000 -2.280000
v -0.810000 2.390000 -1.160000
v -0.810000 2.390000 -2.280000
v 0.810000 2.050000 -2.280000
v 0.810000 2.390000 -2.280000
v 0.810000 2.390000 -1.160000
v 0.810000 2.050000 -2.280000
v 0.810000 2.390000 -1.160000
v 0.810000 2.050000 -1.160000
v -0.810000 2.050000 -2.280000
v 0.810000 2.050000 -2.280000
v 0.810000 2.050000 -1.160000
v -0.810000 2.050000 -2.280000
v 0.810000 2.050000 -1.160000
v -0.810000 2.050000 -1.160000
v -0.810000 2.390000 -2.280000
v -0.810000 2.390000 -1.160000
v 0.810000 2.390000 -1.160000
v -0.810000 2.390000 -2.280000
v 0.810000 2.390000 -1.160000
v 0.810000 2.390000 -2.280000
v -0.590000 3.210000 1.560000
v -0.590000 3.630000 1.560000
v 0.590000 3.630000 1.560000
v -0.590000 3.210000 1.560000
v 0.590000 3.630000 1.560000
v 0.590000 3.210000 1.560000
v -0.590000 3.210000 2.280000
v 0.590000 3.210000 2.280000
v 0.590000 3.630000 2.280000
v -0.590000 3.210000 2.280000
v 0.590000 3.630000 2.280000
v -0.590000 3.630000 2.280000
v -0.590000 3.210000 1.560000
v -0.590000 3.210000 2.280000
v -0.590000 3.630000 2.280000
v -0.590000 3.210000 1.560000
v -0.590000 3.630000 2.280000
v -0.590000 3.630000 1.560000
v 0.590000 3.210000 1.560000
v 0.590000 3.630000 1.560000
v 0.590000 3.630000 2.280000
v 0.590000 3.210000 1.560000
v 0.590000 3.630000 2.280000
v 0.590000 3.210000 2.280000
v -0.590000 3.210000 1.560000
v 0.590000 3.210000 1.560000
v 0.590000 3.210000 2.280000
v -0.590000 3.210000 1.560000
v 0.590000 3.210000 2.280000
v -0.590000 3.210000 2.280000
v -0.590000 3.630000 1.560000
v -0.590000 3.630000 2.280000
v 0.590000 3.630000 2.280000
v -0.590000 3.630000 1.560000
v 0.590000 3.630000 2.280000
v 0.590000 3.630000 1.560000
vt 0.081600 0.176000
vt 0.081600 0.120163
vt 0.088960 0.120163
vt 0.081600 0.176000
vt 0.088960 0.120163
vt 0.088960 0.176000
vt 0.131200 0.336000
vt 0.123840 0.336000
vt 0.123840 0.280163
vt 0.131200 0.336000
vt 0.123840 0.280163
vt 0.131200 0.280163
vt 0.128557 0.816000
vt 0.091758 0.816000
vt 0.091758 0.760163
vt 0.128557 0.816000
vt 0.091758 0.760163
vt 0.128557 0.760163
vt 0.084243 0.976000
vt 0.084243 0.920163
vt 0.121042 0.920163
vt 0.084243 0.976000
vt 0.121042 0.920163
vt 0.121042 0.976000
vt 0.081600 0.352100
vt 0.088960 0.352100
vt 0.088960 0.464869
vt 0.081600 0.352100
vt 0.088960 0.464869
vt 0.081600 0.464869
vt 0.081600 0.647900
vt 0.081600 0.535131
vt 0.088960 0.535131
vt 0.081600 0.647900
vt 0.088960 0.535131
vt 0.088960 0.647900
vt 0.123840 0.176000
vt 0.123840 0.120163
vt 0.131200 0.120163
vt 0.123840 0.176000
vt 0.131200 0.120163
vt 0.131200 0.176000
vt 0.088960 0.336000
vt 0.081600 0.336000
vt 0.081600 0.280163
vt 0.088960 0.336000
vt 0.081600 0.280163
vt 0.088960 0.280163
vt 0.128557 0.816000
vt 0.091758 0.816000
vt 0.091758 0.760163
vt 0.128557 0.816000
vt 0.091758 0.760163
vt 0.128557 0.760163
vt 0.084243 0.976000
vt 0.084243 0.920163
vt 0.121042 0.920163
vt 0.084243 0.976000
vt 0.121042 0.920163
vt 0.121042 0.976000
vt 0.123840 0.352100
vt 0.131200 0.352100
vt 0.131200 0.464869
vt 0.123840 0.352100
vt 0.131200 0.464869
vt 0.123840 0.464869
vt 0.123840 0.647900
vt 0.123840 0.535131
vt 0.131200 0.535131
vt 0.123840 0.647900
vt 0.131200 0.535131
vt 0.131200 0.647900
vt 0.084480 0.146531
vt 0.084480 0.058122
vt 0.128320 0.058122
vt 0.084480 0.146531
vt 0.128320 0.058122
vt 0.128320 0.146531
vt 0.128320 0.306531
vt 0.084480 0.306531
vt 0.084480 0.218122
vt 0.128320 0.306531
vt 0.084480 0.218122
vt 0.128320 0.218122
vt 0.096630 0.786531
vt 0.081600 0.786531
vt 0.081600 0.698123
vt 0.096630 0.786531
vt 0.081600 0.698123
vt 0.096630 0.698123
vt 0.116170 0.946531
vt 0.116170 0.858122
vt 0.131200 0.858122
vt 0.116170 0.946531
vt 0.131200 0.858122
vt 0.131200 0.946531
vt 0.084480 0.449939
vt 0.128320 0.449939
vt 0.128320 0.496000
vt 0.084480 0.449939
vt 0.128320 0.496000
vt 0.084480 0.496000
vt 0.084480 0.550061
vt 0.084480 0.504000
vt 0.128320 0.504000
vt 0.084480 0.550061
vt 0.128320 0.504000
vt 0.128320 0.550061
vt 0.093440 0.146531
vt 0.093440 0.120163
vt 0.119360 0.120163
vt 0.093440 0.146531
vt 0.119360 0.120163
vt 0.119360 0.146531
vt 0.119360 0.306531
vt 0.093440 0.306531
vt 0.093440 0.280163
vt 0.119360 0.306531
vt 0.093440 0.280163
vt 0.119360 0.280163
vt 0.131200 0.786531
vt 0.119590 0.786531
vt 0.119590 0.760163
vt 0.131200 0.786531
vt 0.119590 0.760163
vt 0.131200 0.760163
vt 0.081600 0.946531
vt 0.081600 0.920163
vt 0.093210 0.920163
vt 0.081600 0.946531
vt 0.093210 0.920163
vt 0.093210 0.946531
vt 0.093440 0.344000
vt 0.119360 0.344000
vt 0.119360 0.379578
vt 0.093440 0.344000
vt 0.119360 0.379578
vt 0.093440 0.379578
vt 0.093440 0.656000
vt 0.093440 0.620422
vt 0.119360 0.620422
vt 0.093440 0.656000
vt 0.119360 0.620422
vt 0.119360 0.656000
vt 0.096960 0.056571
vt 0.096960 0.024000
vt 0.115840 0.024000
vt 0.096960 0.056571
vt 0.115840 0.024000
vt 0.115840 0.056571
vt 0.115840 0.216571
vt 0.096960 0.216571
vt 0.096960 0.184000
vt 0.115840 0.216571
vt 0.096960 0.184000
vt 0.115840 0.184000
vt 0.091396 0.696571
vt 0.083932 0.696571
vt 0.083932 0.664000
vt 0.091396 0.696571
vt 0.083932 0.664000
vt 0.091396 0.664000
vt 0.121404 0.856571
vt 0.121404 0.824000
vt 0.128868 0.824000
vt 0.121404 0.856571
vt 0.128868 0.824000
vt 0.128868 0.856571
vt 0.096960 0.465981
vt 0.115840 0.465981
vt 0.115840 0.488853
vt 0.096960 0.465981
vt 0.115840 0.488853
vt 0.096960 0.488853
vt 0.096960 0.534019
vt 0.096960 0.511147
vt 0.115840 0.511147
vt 0.096960 0.534019
vt 0.115840 0.511147
vt 0.115840 0.534019
vn 0.000000 0.000000 -1.000000
vn 0.000000 0.000000 -1.000000
vn 0.000000 0.000000 -1.000000
vn 0.000000 0.000000 -1.000000
vn 0.000000 0.000000 -1.000000
vn 0.000000 0.000000 -1.000000
vn 0.000000 0.000000 1.000000
vn 0.000000 0.000000 1.000000
vn 0.000000 0.000000 1.000000
vn 0.000000 0.000000 1.000000
vn 0.000000 0.000000 1.000000
vn 0.000000 0.000000 1.000000
vn -1.000000 0.000000 0.000000
vn -1.000000 0.000000 0.000000
vn -1.000000 0.000000 0.000000
vn -1.000000 0.000000 0.000000
vn -1.000000 0.000000 0.000000
vn -1.000000 0.000000 0.000000
vn 1.000000 0.000000 0.000000
vn 1.000000 0.000000 0.000000
vn 1.000000 0.000000 0.000000
vn 1.000000 0.000000 0.000000
vn 1.000000 0.000000 0.000000
vn 1.000000 0.000000 0.000000
vn 0.000000 -1.000000 0.000000
vn 0.000000 -1.000000 0.000000
vn 0.000000 -1.000000 0.000000
vn 0.000000 -1.000000 0.000000
vn 0.000000 -1.000000 0.000000
vn 0.000000 -1.000000 0.000000
vn 0.000000 1.000000 0.000000
vn 0.000000 1.000000 0.000000
vn 0.000000 1.000000 0.000000
vn 0.000000 1.000000 0.000000
vn 0.000000 1.000000 0.000000
vn 0.000000 1.000000 0.000000
vn 0.000000 0.000000 -1.000000
vn 0.000000 0.000000 -1.000000
vn 0.000000 0.000000 -1.000000
vn 0.000000 0.000000 -1.000000
vn 0.000000 0.000000 -1.000000
vn 0.000000 0.000000 -1.000000
vn 0.000000 0.000000 1.000000
vn 0.000000 0.000000 1.000000
vn 0.000000 0.000000 1.000000
vn 0.000000 0.000000 1.000000
vn 0.000000 0.000000 1.000000
vn 0.000000 0.000000 1.000000
vn -1.000000 0.000000 0.000000
vn -1.000000 0.000000 0.000000
vn -1.000000 0.000000 0.000000
vn -1.000000 0.000000 0.000000
vn -1.000000 0.000000 0.000000
vn -1.000000 0.000000 0.000000
vn 1.000000 0.000000 0.000000
vn 1.000000 0.000000 0.000000
vn 1.000000 0.000000 0.000000
vn 1.000000 0.000000 0.000000
vn 1.000000 0.000000 0.000000
vn 1.000000 0.000000 0.000000
vn 0.000000 -1.000000 0.000000
vn 0.000000 -1.000000 0.000000
vn 0.000000 -1.000000 0.000000
vn 0.000000 -1.000000 0.000000
vn 0.000000 -1.000000 0.000000
vn 0.000000 -1.000000 0.000000
vn 0.000000 1.000000 0.000000
vn 0.000000 1.000000 0.000000
vn 0.000000 1.000000 0.000000
vn 0.000000 1.000000 0.000000
vn 0.000000 1.000000 0.000000
vn 0.000000 1.000000 0.000000
vn 0.000000 0.000000 -1.000000
vn 0.000000 0.000000 -1.000000
vn 0.000000 0.000000 -1.000000
vn 0.000000 0.000000 -1.000000
vn 0.000000 0.000000 -1.000000
vn 0.000000 0.000000 -1.000000
vn 0.000000 0.000000 1.000000
vn 0.000000 0.000000 1.000000
vn 0.000000 0.000000 1.000000
vn 0.000000 0.000000 1.000000
vn 0.000000 0.000000 1.000000
vn 0.000000 0.000000 1.000000
vn -1.000000 0.000000 0.000000
vn -1.000000 0.000000 0.000000
vn -1.000000 0.000000 0.000000
vn -1.000000 0.000000 0.000000
vn -1.000000 0.000000 0.000000
vn -1.000000 0.000000 0.000000
vn 1.000000 0.000000 0.000000
vn 1.000000 0.000000 0.000000
vn 1.000000 0.000000 0.000000
vn 1.000000 0.000000 0.000000
vn 1.000000 0.000000 0.000000
vn 1.000000 0.000000 0.000000
vn 0.000000 -1.000000 0.000000
vn 0.000000 -1.000000 0.000000
vn 0.000000 -1.000000 0.000000
vn 0.000000 -1.000000 0.000000
vn 0.000000 -1.000000 0.000000
vn 0.000000 -1.000000 0.000000
vn 0.000000 1.000000 0.000000
vn 0.000000 1.000000 0.000000
vn 0.000000 1.000000 0.000000
vn 0.000000 1.000000 0.000000
vn 0.000000 1.000000 0.000000
vn 0.000000 1.000000 0.000000
vn 0.000000 0.000000 -1.000000
vn 0.000000 0.000000 -1.000000
vn 0.000000 0.000000 -1.000000
vn 0.000000 0.000000 -1.000000
vn 0.000000 0.000000 -1.000000
vn 0.000000 0.000000 -1.000000
vn 0.000000 0.000000 1.000000
vn 0.000000 0.000000 1.000000
vn 0.000000 0.000000 1.000000
vn 0.000000 0.000000 1.000000
vn 0.000000 0.000000 1.000000
vn 0.000000 0.000000 1.000000
vn -1.000000 0.000000 0.000000
vn -1.000000 0.000000 0.000000
vn -1.000000 0.000000 0.000000
vn -1.000000 0.000000 0.000000
vn -1.000000 0.000000 0.000000
vn -1.000000 0.000000 0.000000
vn 1.000000 0.000000 0.000000
vn 1.000000 0.000000 0.000000
vn 1.000000 0.000000 0.000000
vn 1.000000 0.000000 0.000000
vn 1.000000 0.000000 0.000000
vn 1.000000 0.000000 0.000000
vn 0.000000 -1.000000 0.000000
vn 0.000000 -1.000000 0.000000
vn 0.000000 -1.000000 0.000000
vn 0.000000 -1.000000 0.000000
vn 0.000000 -1.000000 0.000000
vn 0.000000 -1.000000 0.000000
vn 0.000000 1.000000 0.000000
vn 0.000000 1.000000 0.000000
vn 0.000000 1.000000 0.000000
vn 0.000000 1.000000 0.000000
vn 0.000000 1.000000 0.000000
vn 0.000000 1.000000 0.000000
vn 0.000000 0.000000 -1.000000
vn 0.000000 0.000000 -1.000000
vn 0.000000 0.000000 -1.000000
vn 0.000000 0.000000 -1.000000
vn 0.000000 0.000000 -1.000000
vn 0.000000 0.000000 -1.000000
vn 0.000000 0.000000 1.000000
vn 0.000000 0.000000 1.000000
vn 0.000000 0.000000 1.000000
vn 0.000000 0.000000 1.000000
vn 0.000000 0.000000 1.000000
vn 0.000000 0.000000 1.000000
vn -1.000000 0.000000 0.000000
vn -1.000000 0.000000 0.000000
vn -1.000000 0.000000 0.000000
vn -1.000000 0.000000 0.000000
vn -1.000000 0.000000 0.000000
vn -1.000000 0.000000 0.000000
vn 1.000000 0.000000 0.000000
vn 1.000000 0.000000 0.000000
vn 1.000000 0.000000 0.000000
vn 1.000000 0.000000 0.000000
vn 1.000000 0.000000 0.000000
vn 1.000000 0.000000 0.000000
vn 0.000000 -1.000000 0.000000
vn 0.000000 -1.000000 0.000000
vn 0.000000 -1.000000 0.000000
vn 0.000000 -1.000000 0.000000
vn 0.000000 -1.000000 0.000000
vn 0.000000 -1.000000 0.000000
vn 0.000000 1.000000 0.000000
vn 0.000000 1.000000 0.000000
vn 0.000000 1.000000 0.000000
vn 0.000000 1.000000 0.000000
vn 0.000000 1.000000 0.000000
vn 0.000000 1.000000 0.000000
f 1/1/1 2/2/2 3/3/3
f 4/4/4 5/5/5 6/6/6
f 7/7/7 8/8/8 9/9/9
f 10/10/10 11/11/11 12/12/12
f 13/13/13 14/14/14 15/15/15
f 16/16/16 17/17/17 18/18/18
f 19/19/19 20/20/20 21/21/21
f 22/22/22 23/23/23 24/24/24
f 25/25/25 26/26/26 27/27/27
f 28/28/28 29/29/29 30/30/30
f 31/31/31 32/32/32 33/33/33
f 34/34/34 35/35/35 36/36/36
f 37/37/37 38/38/38 39/39/39
f 40/40/40 41/41/41 42/42/42
f 43/43/43 44/44/44 45/45/45
f 46/46/46 47/47/47 48/48/48
f 49/49/49 50/50/50 51/51/51
f 52/52/52 53/53/53 54/54/54
f 55/55/55 56/56/56 57/57/57
f 58/58/58 59/59/59 60/60/60
f 61/61/61 62/62/62 63/63/63
f 64/64/64 65/65/65 66/66/66
f 67/67/67 68/68/68 69/69/69
f 70/70/70 71/71/71 72/72/72
f 73/73/73 74/74/74 75/75/75
f 76/76/76 77/77/77 78/78/78
f 79/79/79 80/80/80 81/81/81
f 82/82/82 83/83/83 84/84/84
f 85/85/85 86/86/86 87/87/87
f 88/88/88 89/89/89 90/90/90
f 91/91/91 92/92/92 93/93/93
f 94/94/94 95/95/95 96/96/96
f 97/97/97 98/98/98 99/99/99
f 100/100/100 101/101/101 102/102/102
f 103/103/103 104/104/104 105/105/105
f 106/106/106 107/107/107 108/108/108
f 109/109/109 110/110/110 111/111/111
f 112/112/112 113/113/113 114/114/114
f 115/115/115 116/116/116 117/117/117
f 118/118/118 119/119/119 120/120/120
f 121/121/121 122/122/122 123/123/123
f 124/124/124 125/125/125 126/126/126
f 127/127/127 128/128/128 129/129/129
f 130/130/130 131/131/131 132/132/132
f 133/133/133 134/134/134 135/135/135
f 136/136/136 137/137/137 138/138/138
f 139/139/139 140/140/140 141/141/141
f 142/142/142 143/143/143 144/144/144
f 145/145/145 146/146/146 147/147/147
f 148/148/148 149/149/149 150/150/150
f 151/151/151 152/152/152 153/153/153
f 154/154/154 155/155/155 156/156/156
f 157/157/157 158/158/158 159/159/159
f 160/160/160 161/161/161 162/162/162
f 163/163/163 164/164/164 165/165/165
f 166/166/166 167/167/167 168/168/168
f 169/169/169 170/170/170 171/171/171
f 172/172/172 173/173/173 174/174/174
f 175/175/175 176/176/176 177/177/177
f 178/178/178 179/179/179 180/180/180
