# Torrent authored macroform LOD1 semantic component
# Imported production resource; exact geometry/authenticity false
o StarboardAftRail
usemtl torrent_hull_ivory
v 1.430000 1.670000 2.410000
v 1.430000 4.150000 2.410000
v 1.670000 4.150000 2.410000
v 1.430000 1.670000 2.410000
v 1.670000 4.150000 2.410000
v 1.670000 1.670000 2.410000
v 1.430000 1.670000 2.750000
v 1.670000 1.670000 2.750000
v 1.670000 4.150000 2.750000
v 1.430000 1.670000 2.750000
v 1.670000 4.150000 2.750000
v 1.430000 4.150000 2.750000
v 1.430000 1.670000 2.410000
v 1.430000 1.670000 2.750000
v 1.430000 4.150000 2.750000
v 1.430000 1.670000 2.410000
v 1.430000 4.150000 2.750000
v 1.430000 4.150000 2.410000
v 1.670000 1.670000 2.410000
v 1.670000 4.150000 2.410000
v 1.670000 4.150000 2.750000
v 1.670000 1.670000 2.410000
v 1.670000 4.150000 2.750000
v 1.670000 1.670000 2.750000
v 1.430000 1.670000 2.410000
v 1.670000 1.670000 2.410000
v 1.670000 1.670000 2.750000
v 1.430000 1.670000 2.410000
v 1.670000 1.670000 2.750000
v 1.430000 1.670000 2.750000
v 1.430000 4.150000 2.410000
v 1.430000 4.150000 2.750000
v 1.670000 4.150000 2.750000
v 1.430000 4.150000 2.410000
v 1.670000 4.150000 2.750000
v 1.670000 4.150000 2.410000
v 1.320000 1.570000 2.020000
v 1.320000 1.870000 2.020000
v 1.780000 1.870000 2.020000
v 1.320000 1.570000 2.020000
v 1.780000 1.870000 2.020000
v 1.780000 1.570000 2.020000
v 1.320000 1.570000 2.740000
v 1.780000 1.570000 2.740000
v 1.780000 1.870000 2.740000
v 1.320000 1.570000 2.740000
v 1.780000 1.870000 2.740000
v 1.320000 1.870000 2.740000
v 1.320000 1.570000 2.020000
v 1.320000 1.570000 2.740000
v 1.320000 1.870000 2.740000
v 1.320000 1.570000 2.020000
v 1.320000 1.870000 2.740000
v 1.320000 1.870000 2.020000
v 1.780000 1.570000 2.020000
v 1.780000 1.870000 2.020000
v 1.780000 1.870000 2.740000
v 1.780000 1.570000 2.020000
v 1.780000 1.870000 2.740000
v 1.780000 1.570000 2.740000
v 1.320000 1.570000 2.020000
v 1.780000 1.570000 2.020000
v 1.780000 1.570000 2.740000
v 1.320000 1.570000 2.020000
v 1.780000 1.570000 2.740000
v 1.320000 1.570000 2.740000
v 1.320000 1.870000 2.020000
v 1.320000 1.870000 2.740000
v 1.780000 1.870000 2.740000
v 1.320000 1.870000 2.020000
v 1.780000 1.870000 2.740000
v 1.780000 1.870000 2.020000
vt 0.938261 0.170109
vt 0.938261 0.024000
vt 0.964139 0.024000
vt 0.938261 0.170109
vt 0.964139 0.024000
vt 0.964139 0.170109
vt 0.964139 0.330109
vt 0.938261 0.330109
vt 0.938261 0.184000
vt 0.964139 0.330109
vt 0.938261 0.184000
vt 0.964139 0.184000
vt 0.949501 0.810109
vt 0.926400 0.810109
vt 0.926400 0.664000
vt 0.949501 0.810109
vt 0.926400 0.664000
vt 0.949501 0.664000
vt 0.952899 0.970109
vt 0.952899 0.824000
vt 0.976000 0.824000
vt 0.952899 0.970109
vt 0.976000 0.824000
vt 0.976000 0.970109
vt 0.938261 0.425205
vt 0.964139 0.425205
vt 0.964139 0.496000
vt 0.938261 0.425205
vt 0.964139 0.496000
vt 0.938261 0.496000
vt 0.938261 0.574795
vt 0.938261 0.504000
vt 0.964139 0.504000
vt 0.938261 0.574795
vt 0.964139 0.504000
vt 0.964139 0.574795
vt 0.926400 0.176000
vt 0.926400 0.158326
vt 0.976000 0.158326
vt 0.926400 0.176000
vt 0.976000 0.158326
vt 0.976000 0.176000
vt 0.976000 0.336000
vt 0.926400 0.336000
vt 0.926400 0.318326
vt 0.976000 0.336000
vt 0.926400 0.318326
vt 0.976000 0.318326
vt 0.976000 0.816000
vt 0.927079 0.816000
vt 0.927079 0.798326
vt 0.976000 0.816000
vt 0.927079 0.798326
vt 0.976000 0.798326
vt 0.926400 0.976000
vt 0.926400 0.958326
vt 0.975321 0.958326
vt 0.926400 0.976000
vt 0.975321 0.958326
vt 0.975321 0.976000
vt 0.926400 0.344000
vt 0.976000 0.344000
vt 0.976000 0.493918
vt 0.926400 0.344000
vt 0.976000 0.493918
vt 0.926400 0.493918
vt 0.926400 0.656000
vt 0.926400 0.506082
vt 0.976000 0.506082
vt 0.926400 0.656000
vt 0.976000 0.506082
vt 0.976000 0.656000
vn 0.000000 0.000000 -1.000000
vn 0.000000 0.000000 -1.000000
vn 0.000000 0.000000 -1.000000
vn 0.000000 0.000000 -1.000000
vn 0.000000 0.000000 -1.000000
vn 0.000000 0.000000 -1.000000
vn 0.000000 0.000000 1.000000
vn 0.000000 0.000000 1.000000
vn 0.000000 0.000000 1.000000
vn 0.000000 0.000000 1.000000
vn 0.000000 0.000000 1.000000
vn 0.000000 0.000000 1.000000
vn -1.000000 0.000000 0.000000
vn -1.000000 0.000000 0.000000
vn -1.000000 0.000000 0.000000
vn -1.000000 0.000000 0.000000
vn -1.000000 0.000000 0.000000
vn -1.000000 0.000000 0.000000
vn 1.000000 0.000000 0.000000
vn 1.000000 0.000000 0.000000
vn 1.000000 0.000000 0.000000
vn 1.000000 0.000000 0.000000
vn 1.000000 0.000000 0.000000
vn 1.000000 0.000000 0.000000
vn 0.000000 -1.000000 0.000000
vn 0.000000 -1.000000 0.000000
vn 0.000000 -1.000000 0.000000
vn 0.000000 -1.000000 0.000000
vn 0.000000 -1.000000 0.000000
vn 0.000000 -1.000000 0.000000
vn 0.000000 1.000000 0.000000
vn 0.000000 1.000000 0.000000
vn 0.000000 1.000000 0.000000
vn 0.000000 1.000000 0.000000
vn 0.000000 1.000000 0.000000
vn 0.000000 1.000000 0.000000
vn 0.000000 0.000000 -1.000000
vn 0.000000 0.000000 -1.000000
vn 0.000000 0.000000 -1.000000
vn 0.000000 0.000000 -1.000000
vn 0.000000 0.000000 -1.000000
vn 0.000000 0.000000 -1.000000
vn 0.000000 0.000000 1.000000
vn 0.000000 0.000000 1.000000
vn 0.000000 0.000000 1.000000
vn 0.000000 0.000000 1.000000
vn 0.000000 0.000000 1.000000
vn 0.000000 0.000000 1.000000
vn -1.000000 0.000000 0.000000
vn -1.000000 0.000000 0.000000
vn -1.000000 0.000000 0.000000
vn -1.000000 0.000000 0.000000
vn -1.000000 0.000000 0.000000
vn -1.000000 0.000000 0.000000
vn 1.000000 0.000000 0.000000
vn 1.000000 0.000000 0.000000
vn 1.000000 0.000000 0.000000
vn 1.000000 0.000000 0.000000
vn 1.000000 0.000000 0.000000
vn 1.000000 0.000000 0.000000
vn 0.000000 -1.000000 0.000000
vn 0.000000 -1.000000 0.000000
vn 0.000000 -1.000000 0.000000
vn 0.000000 -1.000000 0.000000
vn 0.000000 -1.000000 0.000000
vn 0.000000 -1.000000 0.000000
vn 0.000000 1.000000 0.000000
vn 0.000000 1.000000 0.000000
vn 0.000000 1.000000 0.000000
vn 0.000000 1.000000 0.000000
vn 0.000000 1.000000 0.000000
vn 0.000000 1.000000 0.000000
f 1/1/1 2/2/2 3/3/3
f 4/4/4 5/5/5 6/6/6
f 7/7/7 8/8/8 9/9/9
f 10/10/10 11/11/11 12/12/12
f 13/13/13 14/14/14 15/15/15
f 16/16/16 17/17/17 18/18/18
f 19/19/19 20/20/20 21/21/21
f 22/22/22 23/23/23 24/24/24
f 25/25/25 26/26/26 27/27/27
f 28/28/28 29/29/29 30/30/30
f 31/31/31 32/32/32 33/33/33
f 34/34/34 35/35/35 36/36/36
f 37/37/37 38/38/38 39/39/39
f 40/40/40 41/41/41 42/42/42
f 43/43/43 44/44/44 45/45/45
f 46/46/46 47/47/47 48/48/48
f 49/49/49 50/50/50 51/51/51
f 52/52/52 53/53/53 54/54/54
f 55/55/55 56/56/56 57/57/57
f 58/58/58 59/59/59 60/60/60
f 61/61/61 62/62/62 63/63/63
f 64/64/64 65/65/65 66/66/66
f 67/67/67 68/68/68 69/69/69
f 70/70/70 71/71/71 72/72/72
