# Torrent authored macroform LOD0 semantic component
# Imported production resource; exact geometry/authenticity false
o PointedNose
usemtl torrent_hull_ivory
v -0.034800 1.000000 -4.800000
v -0.127600 1.120000 -4.580000
v 0.127600 1.120000 -4.580000
v -0.034800 1.000000 -4.800000
v 0.127600 1.120000 -4.580000
v 0.034800 1.000000 -4.800000
v 0.034800 1.000000 -4.800000
v 0.127600 1.120000 -4.580000
v 0.193600 1.060000 -4.580000
v 0.034800 1.000000 -4.800000
v 0.193600 1.060000 -4.580000
v 0.052800 0.976000 -4.800000
v 0.052800 0.976000 -4.800000
v 0.193600 1.060000 -4.580000
v 0.220000 0.964000 -4.580000
v 0.052800 0.976000 -4.800000
v 0.220000 0.964000 -4.580000
v 0.060000 0.937600 -4.800000
v 0.060000 0.937600 -4.800000
v 0.220000 0.964000 -4.580000
v 0.220000 0.808000 -4.580000
v 0.060000 0.937600 -4.800000
v 0.220000 0.808000 -4.580000
v 0.060000 0.875200 -4.800000
v 0.060000 0.875200 -4.800000
v 0.220000 0.808000 -4.580000
v 0.136400 0.720000 -4.580000
v 0.060000 0.875200 -4.800000
v 0.136400 0.720000 -4.580000
v 0.037200 0.840000 -4.800000
v 0.037200 0.840000 -4.800000
v 0.136400 0.720000 -4.580000
v -0.136400 0.720000 -4.580000
v 0.037200 0.840000 -4.800000
v -0.136400 0.720000 -4.580000
v -0.037200 0.840000 -4.800000
v -0.037200 0.840000 -4.800000
v -0.136400 0.720000 -4.580000
v -0.220000 0.808000 -4.580000
v -0.037200 0.840000 -4.800000
v -0.220000 0.808000 -4.580000
v -0.060000 0.875200 -4.800000
v -0.060000 0.875200 -4.800000
v -0.220000 0.808000 -4.580000
v -0.220000 0.964000 -4.580000
v -0.060000 0.875200 -4.800000
v -0.220000 0.964000 -4.580000
v -0.060000 0.937600 -4.800000
v -0.060000 0.937600 -4.800000
v -0.220000 0.964000 -4.580000
v -0.193600 1.060000 -4.580000
v -0.060000 0.937600 -4.800000
v -0.193600 1.060000 -4.580000
v -0.052800 0.976000 -4.800000
v -0.052800 0.976000 -4.800000
v -0.193600 1.060000 -4.580000
v -0.127600 1.120000 -4.580000
v -0.052800 0.976000 -4.800000
v -0.127600 1.120000 -4.580000
v -0.034800 1.000000 -4.800000
v -0.127600 1.120000 -4.580000
v -0.243600 1.260000 -4.320000
v 0.243600 1.260000 -4.320000
v -0.127600 1.120000 -4.580000
v 0.243600 1.260000 -4.320000
v 0.127600 1.120000 -4.580000
v 0.127600 1.120000 -4.580000
v 0.243600 1.260000 -4.320000
v 0.369600 1.158000 -4.320000
v 0.127600 1.120000 -4.580000
v 0.369600 1.158000 -4.320000
v 0.193600 1.060000 -4.580000
v 0.193600 1.060000 -4.580000
v 0.369600 1.158000 -4.320000
v 0.420000 0.994800 -4.320000
v 0.193600 1.060000 -4.580000
v 0.420000 0.994800 -4.320000
v 0.220000 0.964000 -4.580000
v 0.220000 0.964000 -4.580000
v 0.420000 0.994800 -4.320000
v 0.420000 0.729600 -4.320000
v 0.220000 0.964000 -4.580000
v 0.420000 0.729600 -4.320000
v 0.220000 0.808000 -4.580000
v 0.220000 0.808000 -4.580000
v 0.420000 0.729600 -4.320000
v 0.260400 0.580000 -4.320000
v 0.220000 0.808000 -4.580000
v 0.260400 0.580000 -4.320000
v 0.136400 0.720000 -4.580000
v 0.136400 0.720000 -4.580000
v 0.260400 0.580000 -4.320000
v -0.260400 0.580000 -4.320000
v 0.136400 0.720000 -4.580000
v -0.260400 0.580000 -4.320000
v -0.136400 0.720000 -4.580000
v -0.136400 0.720000 -4.580000
v -0.260400 0.580000 -4.320000
v -0.420000 0.729600 -4.320000
v -0.136400 0.720000 -4.580000
v -0.420000 0.729600 -4.320000
v -0.220000 0.808000 -4.580000
v -0.220000 0.808000 -4.580000
v -0.420000 0.729600 -4.320000
v -0.420000 0.994800 -4.320000
v -0.220000 0.808000 -4.580000
v -0.420000 0.994800 -4.320000
v -0.220000 0.964000 -4.580000
v -0.220000 0.964000 -4.580000
v -0.420000 0.994800 -4.320000
v -0.369600 1.158000 -4.320000
v -0.220000 0.964000 -4.580000
v -0.369600 1.158000 -4.320000
v -0.193600 1.060000 -4.580000
v -0.193600 1.060000 -4.580000
v -0.369600 1.158000 -4.320000
v -0.243600 1.260000 -4.320000
v -0.193600 1.060000 -4.580000
v -0.243600 1.260000 -4.320000
v -0.127600 1.120000 -4.580000
v -0.243600 1.260000 -4.320000
v -0.382800 1.380000 -4.020000
v 0.382800 1.380000 -4.020000
v -0.243600 1.260000 -4.320000
v 0.382800 1.380000 -4.020000
v 0.243600 1.260000 -4.320000
v 0.243600 1.260000 -4.320000
v 0.382800 1.380000 -4.020000
v 0.580800 1.242000 -4.020000
v 0.243600 1.260000 -4.320000
v 0.580800 1.242000 -4.020000
v 0.369600 1.158000 -4.320000
v 0.369600 1.158000 -4.320000
v 0.580800 1.242000 -4.020000
v 0.660000 1.021200 -4.020000
v 0.369600 1.158000 -4.320000
v 0.660000 1.021200 -4.020000
v 0.420000 0.994800 -4.320000
v 0.420000 0.994800 -4.320000
v 0.660000 1.021200 -4.020000
v 0.660000 0.662400 -4.020000
v 0.420000 0.994800 -4.320000
v 0.660000 0.662400 -4.020000
v 0.420000 0.729600 -4.320000
v 0.420000 0.729600 -4.320000
v 0.660000 0.662400 -4.020000
v 0.409200 0.460000 -4.020000
v 0.420000 0.729600 -4.320000
v 0.409200 0.460000 -4.020000
v 0.260400 0.580000 -4.320000
v 0.260400 0.580000 -4.320000
v 0.409200 0.460000 -4.020000
v -0.409200 0.460000 -4.020000
v 0.260400 0.580000 -4.320000
v -0.409200 0.460000 -4.020000
v -0.260400 0.580000 -4.320000
v -0.260400 0.580000 -4.320000
v -0.409200 0.460000 -4.020000
v -0.660000 0.662400 -4.020000
v -0.260400 0.580000 -4.320000
v -0.660000 0.662400 -4.020000
v -0.420000 0.729600 -4.320000
v -0.420000 0.729600 -4.320000
v -0.660000 0.662400 -4.020000
v -0.660000 1.021200 -4.020000
v -0.420000 0.729600 -4.320000
v -0.660000 1.021200 -4.020000
v -0.420000 0.994800 -4.320000
v -0.420000 0.994800 -4.320000
v -0.660000 1.021200 -4.020000
v -0.580800 1.242000 -4.020000
v -0.420000 0.994800 -4.320000
v -0.580800 1.242000 -4.020000
v -0.369600 1.158000 -4.320000
v -0.369600 1.158000 -4.320000
v -0.580800 1.242000 -4.020000
v -0.382800 1.380000 -4.020000
v -0.369600 1.158000 -4.320000
v -0.382800 1.380000 -4.020000
v -0.243600 1.260000 -4.320000
v -0.382800 1.380000 -4.020000
v -0.533600 1.480000 -3.700000
v 0.533600 1.480000 -3.700000
v -0.382800 1.380000 -4.020000
v 0.533600 1.480000 -3.700000
v 0.382800 1.380000 -4.020000
v 0.382800 1.380000 -4.020000
v 0.533600 1.480000 -3.700000
v 0.809600 1.312000 -3.700000
v 0.382800 1.380000 -4.020000
v 0.809600 1.312000 -3.700000
v 0.580800 1.242000 -4.020000
v 0.580800 1.242000 -4.020000
v 0.809600 1.312000 -3.700000
v 0.920000 1.043200 -3.700000
v 0.580800 1.242000 -4.020000
v 0.920000 1.043200 -3.700000
v 0.660000 1.021200 -4.020000
v 0.660000 1.021200 -4.020000
v 0.920000 1.043200 -3.700000
v 0.920000 0.606400 -3.700000
v 0.660000 1.021200 -4.020000
v 0.920000 0.606400 -3.700000
v 0.660000 0.662400 -4.020000
v 0.660000 0.662400 -4.020000
v 0.920000 0.606400 -3.700000
v 0.570400 0.360000 -3.700000
v 0.660000 0.662400 -4.020000
v 0.570400 0.360000 -3.700000
v 0.409200 0.460000 -4.020000
v 0.409200 0.460000 -4.020000
v 0.570400 0.360000 -3.700000
v -0.570400 0.360000 -3.700000
v 0.409200 0.460000 -4.020000
v -0.570400 0.360000 -3.700000
v -0.409200 0.460000 -4.020000
v -0.409200 0.460000 -4.020000
v -0.570400 0.360000 -3.700000
v -0.920000 0.606400 -3.700000
v -0.409200 0.460000 -4.020000
v -0.920000 0.606400 -3.700000
v -0.660000 0.662400 -4.020000
v -0.660000 0.662400 -4.020000
v -0.920000 0.606400 -3.700000
v -0.920000 1.043200 -3.700000
v -0.660000 0.662400 -4.020000
v -0.920000 1.043200 -3.700000
v -0.660000 1.021200 -4.020000
v -0.660000 1.021200 -4.020000
v -0.920000 1.043200 -3.700000
v -0.809600 1.312000 -3.700000
v -0.660000 1.021200 -4.020000
v -0.809600 1.312000 -3.700000
v -0.580800 1.242000 -4.020000
v -0.580800 1.242000 -4.020000
v -0.809600 1.312000 -3.700000
v -0.533600 1.480000 -3.700000
v -0.580800 1.242000 -4.020000
v -0.533600 1.480000 -3.700000
v -0.382800 1.380000 -4.020000
v -0.533600 1.480000 -3.700000
v -0.684400 1.540000 -3.340000
v 0.684400 1.540000 -3.340000
v -0.533600 1.480000 -3.700000
v 0.684400 1.540000 -3.340000
v 0.533600 1.480000 -3.700000
v 0.533600 1.480000 -3.700000
v 0.684400 1.540000 -3.340000
v 1.038400 1.354000 -3.340000
v 0.533600 1.480000 -3.700000
v 1.038400 1.354000 -3.340000
v 0.809600 1.312000 -3.700000
v 0.809600 1.312000 -3.700000
v 1.038400 1.354000 -3.340000
v 1.180000 1.056400 -3.340000
v 0.809600 1.312000 -3.700000
v 1.180000 1.056400 -3.340000
v 0.920000 1.043200 -3.700000
v 0.920000 1.043200 -3.700000
v 1.180000 1.056400 -3.340000
v 1.180000 0.572800 -3.340000
v 0.920000 1.043200 -3.700000
v 1.180000 0.572800 -3.340000
v 0.920000 0.606400 -3.700000
v 0.920000 0.606400 -3.700000
v 1.180000 0.572800 -3.340000
v 0.731600 0.300000 -3.340000
v 0.920000 0.606400 -3.700000
v 0.731600 0.300000 -3.340000
v 0.570400 0.360000 -3.700000
v 0.570400 0.360000 -3.700000
v 0.731600 0.300000 -3.340000
v -0.731600 0.300000 -3.340000
v 0.570400 0.360000 -3.700000
v -0.731600 0.300000 -3.340000
v -0.570400 0.360000 -3.700000
v -0.570400 0.360000 -3.700000
v -0.731600 0.300000 -3.340000
v -1.180000 0.572800 -3.340000
v -0.570400 0.360000 -3.700000
v -1.180000 0.572800 -3.340000
v -0.920000 0.606400 -3.700000
v -0.920000 0.606400 -3.700000
v -1.180000 0.572800 -3.340000
v -1.180000 1.056400 -3.340000
v -0.920000 0.606400 -3.700000
v -1.180000 1.056400 -3.340000
v -0.920000 1.043200 -3.700000
v -0.920000 1.043200 -3.700000
v -1.180000 1.056400 -3.340000
v -1.038400 1.354000 -3.340000
v -0.920000 1.043200 -3.700000
v -1.038400 1.354000 -3.340000
v -0.809600 1.312000 -3.700000
v -0.809600 1.312000 -3.700000
v -1.038400 1.354000 -3.340000
v -0.684400 1.540000 -3.340000
v -0.809600 1.312000 -3.700000
v -0.684400 1.540000 -3.340000
v -0.533600 1.480000 -3.700000
v -0.684400 1.540000 -3.340000
v -0.800400 1.590000 -2.980000
v 0.800400 1.590000 -2.980000
v -0.684400 1.540000 -3.340000
v 0.800400 1.590000 -2.980000
v 0.684400 1.540000 -3.340000
v 0.684400 1.540000 -3.340000
v 0.800400 1.590000 -2.980000
v 1.214400 1.389000 -2.980000
v 0.684400 1.540000 -3.340000
v 1.214400 1.389000 -2.980000
v 1.038400 1.354000 -3.340000
v 1.038400 1.354000 -3.340000
v 1.214400 1.389000 -2.980000
v 1.380000 1.067400 -2.980000
v 1.038400 1.354000 -3.340000
v 1.380000 1.067400 -2.980000
v 1.180000 1.056400 -3.340000
v 1.180000 1.056400 -3.340000
v 1.380000 1.067400 -2.980000
v 1.380000 0.544800 -2.980000
v 1.180000 1.056400 -3.340000
v 1.380000 0.544800 -2.980000
v 1.180000 0.572800 -3.340000
v 1.180000 0.572800 -3.340000
v 1.380000 0.544800 -2.980000
v 0.855600 0.250000 -2.980000
v 1.180000 0.572800 -3.340000
v 0.855600 0.250000 -2.980000
v 0.731600 0.300000 -3.340000
v 0.731600 0.300000 -3.340000
v 0.855600 0.250000 -2.980000
v -0.855600 0.250000 -2.980000
v 0.731600 0.300000 -3.340000
v -0.855600 0.250000 -2.980000
v -0.731600 0.300000 -3.340000
v -0.731600 0.300000 -3.340000
v -0.855600 0.250000 -2.980000
v -1.380000 0.544800 -2.980000
v -0.731600 0.300000 -3.340000
v -1.380000 0.544800 -2.980000
v -1.180000 0.572800 -3.340000
v -1.180000 0.572800 -3.340000
v -1.380000 0.544800 -2.980000
v -1.380000 1.067400 -2.980000
v -1.180000 0.572800 -3.340000
v -1.380000 1.067400 -2.980000
v -1.180000 1.056400 -3.340000
v -1.180000 1.056400 -3.340000
v -1.380000 1.067400 -2.980000
v -1.214400 1.389000 -2.980000
v -1.180000 1.056400 -3.340000
v -1.214400 1.389000 -2.980000
v -1.038400 1.354000 -3.340000
v -1.038400 1.354000 -3.340000
v -1.214400 1.389000 -2.980000
v -0.800400 1.590000 -2.980000
v -1.038400 1.354000 -3.340000
v -0.800400 1.590000 -2.980000
v -0.684400 1.540000 -3.340000
v -0.800400 1.590000 -2.980000
v -0.893200 1.620000 -2.620000
v 0.893200 1.620000 -2.620000
v -0.800400 1.590000 -2.980000
v 0.893200 1.620000 -2.620000
v 0.800400 1.590000 -2.980000
v 0.800400 1.590000 -2.980000
v 0.893200 1.620000 -2.620000
v 1.355200 1.410000 -2.620000
v 0.800400 1.590000 -2.980000
v 1.355200 1.410000 -2.620000
v 1.214400 1.389000 -2.980000
v 1.214400 1.389000 -2.980000
v 1.355200 1.410000 -2.620000
v 1.540000 1.074000 -2.620000
v 1.214400 1.389000 -2.980000
v 1.540000 1.074000 -2.620000
v 1.380000 1.067400 -2.980000
v 1.380000 1.067400 -2.980000
v 1.540000 1.074000 -2.620000
v 1.540000 0.528000 -2.620000
v 1.380000 1.067400 -2.980000
v 1.540000 0.528000 -2.620000
v 1.380000 0.544800 -2.980000
v 1.380000 0.544800 -2.980000
v 1.540000 0.528000 -2.620000
v 0.954800 0.220000 -2.620000
v 1.380000 0.544800 -2.980000
v 0.954800 0.220000 -2.620000
v 0.855600 0.250000 -2.980000
v 0.855600 0.250000 -2.980000
v 0.954800 0.220000 -2.620000
v -0.954800 0.220000 -2.620000
v 0.855600 0.250000 -2.980000
v -0.954800 0.220000 -2.620000
v -0.855600 0.250000 -2.980000
v -0.855600 0.250000 -2.980000
v -0.954800 0.220000 -2.620000
v -1.540000 0.528000 -2.620000
v -0.855600 0.250000 -2.980000
v -1.540000 0.528000 -2.620000
v -1.380000 0.544800 -2.980000
v -1.380000 0.544800 -2.980000
v -1.540000 0.528000 -2.620000
v -1.540000 1.074000 -2.620000
v -1.380000 0.544800 -2.980000
v -1.540000 1.074000 -2.620000
v -1.380000 1.067400 -2.980000
v -1.380000 1.067400 -2.980000
v -1.540000 1.074000 -2.620000
v -1.355200 1.410000 -2.620000
v -1.380000 1.067400 -2.980000
v -1.355200 1.410000 -2.620000
v -1.214400 1.389000 -2.980000
v -1.214400 1.389000 -2.980000
v -1.355200 1.410000 -2.620000
v -0.893200 1.620000 -2.620000
v -1.214400 1.389000 -2.980000
v -0.893200 1.620000 -2.620000
v -0.800400 1.590000 -2.980000
v -0.893200 1.620000 -2.620000
v -0.962800 1.640000 -2.250000
v 0.962800 1.640000 -2.250000
v -0.893200 1.620000 -2.620000
v 0.962800 1.640000 -2.250000
v 0.893200 1.620000 -2.620000
v 0.893200 1.620000 -2.620000
v 0.962800 1.640000 -2.250000
v 1.460800 1.424000 -2.250000
v 0.893200 1.620000 -2.620000
v 1.460800 1.424000 -2.250000
v 1.355200 1.410000 -2.620000
v 1.355200 1.410000 -2.620000
v 1.460800 1.424000 -2.250000
v 1.660000 1.078400 -2.250000
v 1.355200 1.410000 -2.620000
v 1.660000 1.078400 -2.250000
v 1.540000 1.074000 -2.620000
v 1.540000 1.074000 -2.620000
v 1.660000 1.078400 -2.250000
v 1.660000 0.516800 -2.250000
v 1.540000 1.074000 -2.620000
v 1.660000 0.516800 -2.250000
v 1.540000 0.528000 -2.620000
v 1.540000 0.528000 -2.620000
v 1.660000 0.516800 -2.250000
v 1.029200 0.200000 -2.250000
v 1.540000 0.528000 -2.620000
v 1.029200 0.200000 -2.250000
v 0.954800 0.220000 -2.620000
v 0.954800 0.220000 -2.620000
v 1.029200 0.200000 -2.250000
v -1.029200 0.200000 -2.250000
v 0.954800 0.220000 -2.620000
v -1.029200 0.200000 -2.250000
v -0.954800 0.220000 -2.620000
v -0.954800 0.220000 -2.620000
v -1.029200 0.200000 -2.250000
v -1.660000 0.516800 -2.250000
v -0.954800 0.220000 -2.620000
v -1.660000 0.516800 -2.250000
v -1.540000 0.528000 -2.620000
v -1.540000 0.528000 -2.620000
v -1.660000 0.516800 -2.250000
v -1.660000 1.078400 -2.250000
v -1.540000 0.528000 -2.620000
v -1.660000 1.078400 -2.250000
v -1.540000 1.074000 -2.620000
v -1.540000 1.074000 -2.620000
v -1.660000 1.078400 -2.250000
v -1.460800 1.424000 -2.250000
v -1.540000 1.074000 -2.620000
v -1.460800 1.424000 -2.250000
v -1.355200 1.410000 -2.620000
v -1.355200 1.410000 -2.620000
v -1.460800 1.424000 -2.250000
v -0.962800 1.640000 -2.250000
v -1.355200 1.410000 -2.620000
v -0.962800 1.640000 -2.250000
v -0.893200 1.620000 -2.620000
v -0.962800 1.640000 -2.250000
v -1.009200 1.650000 -1.940000
v 1.009200 1.650000 -1.940000
v -0.962800 1.640000 -2.250000
v 1.009200 1.650000 -1.940000
v 0.962800 1.640000 -2.250000
v 0.962800 1.640000 -2.250000
v 1.009200 1.650000 -1.940000
v 1.531200 1.431000 -1.940000
v 0.962800 1.640000 -2.250000
v 1.531200 1.431000 -1.940000
v 1.460800 1.424000 -2.250000
v 1.460800 1.424000 -2.250000
v 1.531200 1.431000 -1.940000
v 1.740000 1.080600 -1.940000
v 1.460800 1.424000 -2.250000
v 1.740000 1.080600 -1.940000
v 1.660000 1.078400 -2.250000
v 1.660000 1.078400 -2.250000
v 1.740000 1.080600 -1.940000
v 1.740000 0.511200 -1.940000
v 1.660000 1.078400 -2.250000
v 1.740000 0.511200 -1.940000
v 1.660000 0.516800 -2.250000
v 1.660000 0.516800 -2.250000
v 1.740000 0.511200 -1.940000
v 1.078800 0.190000 -1.940000
v 1.660000 0.516800 -2.250000
v 1.078800 0.190000 -1.940000
v 1.029200 0.200000 -2.250000
v 1.029200 0.200000 -2.250000
v 1.078800 0.190000 -1.940000
v -1.078800 0.190000 -1.940000
v 1.029200 0.200000 -2.250000
v -1.078800 0.190000 -1.940000
v -1.029200 0.200000 -2.250000
v -1.029200 0.200000 -2.250000
v -1.078800 0.190000 -1.940000
v -1.740000 0.511200 -1.940000
v -1.029200 0.200000 -2.250000
v -1.740000 0.511200 -1.940000
v -1.660000 0.516800 -2.250000
v -1.660000 0.516800 -2.250000
v -1.740000 0.511200 -1.940000
v -1.740000 1.080600 -1.940000
v -1.660000 0.516800 -2.250000
v -1.740000 1.080600 -1.940000
v -1.660000 1.078400 -2.250000
v -1.660000 1.078400 -2.250000
v -1.740000 1.080600 -1.940000
v -1.531200 1.431000 -1.940000
v -1.660000 1.078400 -2.250000
v -1.531200 1.431000 -1.940000
v -1.460800 1.424000 -2.250000
v -1.460800 1.424000 -2.250000
v -1.531200 1.431000 -1.940000
v -1.009200 1.650000 -1.940000
v -1.460800 1.424000 -2.250000
v -1.009200 1.650000 -1.940000
v -0.962800 1.640000 -2.250000
v -1.009200 1.650000 -1.940000
v -1.067200 1.640000 -1.620000
v 1.067200 1.640000 -1.620000
v -1.009200 1.650000 -1.940000
v 1.067200 1.640000 -1.620000
v 1.009200 1.650000 -1.940000
v 1.009200 1.650000 -1.940000
v 1.067200 1.640000 -1.620000
v 1.619200 1.424000 -1.620000
v 1.009200 1.650000 -1.940000
v 1.619200 1.424000 -1.620000
v 1.531200 1.431000 -1.940000
v 1.531200 1.431000 -1.940000
v 1.619200 1.424000 -1.620000
v 1.840000 1.078400 -1.620000
v 1.531200 1.431000 -1.940000
v 1.840000 1.078400 -1.620000
v 1.740000 1.080600 -1.940000
v 1.740000 1.080600 -1.940000
v 1.840000 1.078400 -1.620000
v 1.840000 0.516800 -1.620000
v 1.740000 1.080600 -1.940000
v 1.840000 0.516800 -1.620000
v 1.740000 0.511200 -1.940000
v 1.740000 0.511200 -1.940000
v 1.840000 0.516800 -1.620000
v 1.140800 0.200000 -1.620000
v 1.740000 0.511200 -1.940000
v 1.140800 0.200000 -1.620000
v 1.078800 0.190000 -1.940000
v 1.078800 0.190000 -1.940000
v 1.140800 0.200000 -1.620000
v -1.140800 0.200000 -1.620000
v 1.078800 0.190000 -1.940000
v -1.140800 0.200000 -1.620000
v -1.078800 0.190000 -1.940000
v -1.078800 0.190000 -1.940000
v -1.140800 0.200000 -1.620000
v -1.840000 0.516800 -1.620000
v -1.078800 0.190000 -1.940000
v -1.840000 0.516800 -1.620000
v -1.740000 0.511200 -1.940000
v -1.740000 0.511200 -1.940000
v -1.840000 0.516800 -1.620000
v -1.840000 1.078400 -1.620000
v -1.740000 0.511200 -1.940000
v -1.840000 1.078400 -1.620000
v -1.740000 1.080600 -1.940000
v -1.740000 1.080600 -1.940000
v -1.840000 1.078400 -1.620000
v -1.619200 1.424000 -1.620000
v -1.740000 1.080600 -1.940000
v -1.619200 1.424000 -1.620000
v -1.531200 1.431000 -1.940000
v -1.531200 1.431000 -1.940000
v -1.619200 1.424000 -1.620000
v -1.067200 1.640000 -1.620000
v -1.531200 1.431000 -1.940000
v -1.067200 1.640000 -1.620000
v -1.009200 1.650000 -1.940000
v 0.000000 0.925760 -4.800000
v 0.034800 1.000000 -4.800000
v -0.034800 1.000000 -4.800000
v 0.000000 0.925760 -4.800000
v 0.052800 0.976000 -4.800000
v 0.034800 1.000000 -4.800000
v 0.000000 0.925760 -4.800000
v 0.060000 0.937600 -4.800000
v 0.052800 0.976000 -4.800000
v 0.000000 0.925760 -4.800000
v 0.060000 0.875200 -4.800000
v 0.060000 0.937600 -4.800000
v 0.000000 0.925760 -4.800000
v 0.037200 0.840000 -4.800000
v 0.060000 0.875200 -4.800000
v 0.000000 0.925760 -4.800000
v -0.037200 0.840000 -4.800000
v 0.037200 0.840000 -4.800000
v 0.000000 0.925760 -4.800000
v -0.060000 0.875200 -4.800000
v -0.037200 0.840000 -4.800000
v 0.000000 0.925760 -4.800000
v -0.060000 0.937600 -4.800000
v -0.060000 0.875200 -4.800000
v 0.000000 0.925760 -4.800000
v -0.052800 0.976000 -4.800000
v -0.060000 0.937600 -4.800000
v 0.000000 0.925760 -4.800000
v -0.034800 1.000000 -4.800000
v -0.052800 0.976000 -4.800000
v 0.000000 0.971840 -1.620000
v -1.067200 1.640000 -1.620000
v 1.067200 1.640000 -1.620000
v 0.000000 0.971840 -1.620000
v 1.067200 1.640000 -1.620000
v 1.619200 1.424000 -1.620000
v 0.000000 0.971840 -1.620000
v 1.619200 1.424000 -1.620000
v 1.840000 1.078400 -1.620000
v 0.000000 0.971840 -1.620000
v 1.840000 1.078400 -1.620000
v 1.840000 0.516800 -1.620000
v 0.000000 0.971840 -1.620000
v 1.840000 0.516800 -1.620000
v 1.140800 0.200000 -1.620000
v 0.000000 0.971840 -1.620000
v 1.140800 0.200000 -1.620000
v -1.140800 0.200000 -1.620000
v 0.000000 0.971840 -1.620000
v -1.140800 0.200000 -1.620000
v -1.840000 0.516800 -1.620000
v 0.000000 0.971840 -1.620000
v -1.840000 0.516800 -1.620000
v -1.840000 1.078400 -1.620000
v 0.000000 0.971840 -1.620000
v -1.840000 1.078400 -1.620000
v -1.619200 1.424000 -1.620000
v 0.000000 0.971840 -1.620000
v -1.619200 1.424000 -1.620000
v -1.067200 1.640000 -1.620000
vt 0.048267 0.656000
vt 0.046846 0.645484
vt 0.050754 0.645484
vt 0.048267 0.656000
vt 0.050754 0.645484
vt 0.049333 0.656000
vt 0.049333 0.656000
vt 0.050754 0.645484
vt 0.051765 0.645484
vt 0.024000 0.895224
vt 0.027431 0.885309
vt 0.024000 0.899190
vt 0.024000 0.899190
vt 0.027431 0.885309
vt 0.027431 0.901173
vt 0.024000 0.899190
vt 0.027431 0.901173
vt 0.024000 0.905536
vt 0.024000 0.905536
vt 0.027431 0.901173
vt 0.027431 0.926953
vt 0.024000 0.905536
vt 0.027431 0.926953
vt 0.024000 0.915848
vt 0.049609 0.104729
vt 0.051765 0.111822
vt 0.050638 0.121111
vt 0.024000 0.915848
vt 0.027431 0.941495
vt 0.024000 0.921665
vt 0.049301 0.344000
vt 0.050638 0.354516
vt 0.046962 0.354516
vt 0.049301 0.344000
vt 0.046962 0.354516
vt 0.048299 0.344000
vt 0.073600 0.761665
vt 0.070169 0.781495
vt 0.070169 0.766953
vt 0.073600 0.761665
vt 0.070169 0.766953
vt 0.073600 0.755848
vt 0.073600 0.755848
vt 0.070169 0.766953
vt 0.070169 0.741173
vt 0.073600 0.755848
vt 0.070169 0.741173
vt 0.073600 0.745536
vt 0.073600 0.745536
vt 0.070169 0.741173
vt 0.070169 0.725309
vt 0.073600 0.745536
vt 0.070169 0.725309
vt 0.073600 0.739190
vt 0.047991 0.656000
vt 0.045835 0.645484
vt 0.046846 0.645484
vt 0.073600 0.739190
vt 0.070169 0.715394
vt 0.073600 0.735224
vt 0.046846 0.645484
vt 0.045069 0.633057
vt 0.052531 0.633057
vt 0.046846 0.645484
vt 0.052531 0.633057
vt 0.050754 0.645484
vt 0.050754 0.645484
vt 0.052531 0.633057
vt 0.054461 0.633057
vt 0.050754 0.645484
vt 0.054461 0.633057
vt 0.051765 0.645484
vt 0.027431 0.885309
vt 0.031487 0.869114
vt 0.031487 0.896083
vt 0.027431 0.885309
vt 0.031487 0.896083
vt 0.027431 0.901173
vt 0.027431 0.901173
vt 0.031487 0.896083
vt 0.031487 0.939909
vt 0.027431 0.901173
vt 0.031487 0.939909
vt 0.027431 0.926953
vt 0.051765 0.111822
vt 0.054461 0.120098
vt 0.052310 0.135889
vt 0.027431 0.926953
vt 0.031487 0.964631
vt 0.027431 0.941495
vt 0.050638 0.354516
vt 0.052310 0.366943
vt 0.045290 0.366943
vt 0.050638 0.354516
vt 0.045290 0.366943
vt 0.046962 0.354516
vt 0.046962 0.354516
vt 0.045290 0.366943
vt 0.043139 0.366943
vt 0.046962 0.121111
vt 0.043139 0.120098
vt 0.045835 0.111822
vt 0.070169 0.766953
vt 0.066113 0.779909
vt 0.066113 0.736084
vt 0.070169 0.766953
vt 0.066113 0.736084
vt 0.070169 0.741173
vt 0.070169 0.741173
vt 0.066113 0.736084
vt 0.066113 0.709114
vt 0.070169 0.741173
vt 0.066113 0.709114
vt 0.070169 0.725309
vt 0.045835 0.645484
vt 0.043139 0.633057
vt 0.045069 0.633057
vt 0.045835 0.645484
vt 0.045069 0.633057
vt 0.046846 0.645484
vt 0.045069 0.633057
vt 0.042937 0.618717
vt 0.054663 0.618717
vt 0.045069 0.633057
vt 0.054663 0.618717
vt 0.052531 0.633057
vt 0.052531 0.633057
vt 0.054663 0.618717
vt 0.057696 0.618717
vt 0.052531 0.633057
vt 0.057696 0.618717
vt 0.054461 0.633057
vt 0.031487 0.869114
vt 0.036166 0.855233
vt 0.036166 0.891721
vt 0.031487 0.869114
vt 0.036166 0.891721
vt 0.031487 0.896083
vt 0.031487 0.896083
vt 0.036166 0.891721
vt 0.036166 0.951014
vt 0.031487 0.896083
vt 0.036166 0.951014
vt 0.031487 0.939909
vt 0.054461 0.366943
vt 0.057696 0.381283
vt 0.054315 0.381283
vt 0.054461 0.366943
vt 0.054315 0.381283
vt 0.052310 0.366943
vt 0.052310 0.366943
vt 0.054315 0.381283
vt 0.043285 0.381283
vt 0.052310 0.366943
vt 0.043285 0.381283
vt 0.045290 0.366943
vt 0.045290 0.366943
vt 0.043285 0.381283
vt 0.039904 0.381283
vt 0.045290 0.366943
vt 0.039904 0.381283
vt 0.043139 0.366943
vt 0.066113 0.779909
vt 0.061434 0.791014
vt 0.061434 0.731721
vt 0.066113 0.779909
vt 0.061434 0.731721
vt 0.066113 0.736084
vt 0.066113 0.736084
vt 0.061434 0.731721
vt 0.061434 0.695233
vt 0.066113 0.736084
vt 0.061434 0.695233
vt 0.066113 0.709114
vt 0.043139 0.633057
vt 0.039904 0.618717
vt 0.042937 0.618717
vt 0.043139 0.633057
vt 0.042937 0.618717
vt 0.045069 0.633057
vt 0.042937 0.618717
vt 0.040627 0.603421
vt 0.056973 0.603421
vt 0.042937 0.618717
vt 0.056973 0.603421
vt 0.054663 0.618717
vt 0.054663 0.618717
vt 0.056973 0.603421
vt 0.061200 0.603421
vt 0.054663 0.618717
vt 0.061200 0.603421
vt 0.057696 0.618717
vt 0.036166 0.855233
vt 0.041157 0.843665
vt 0.041157 0.888085
vt 0.036166 0.855233
vt 0.041157 0.888085
vt 0.036166 0.891721
vt 0.036166 0.891721
vt 0.041157 0.888085
vt 0.041157 0.960268
vt 0.036166 0.891721
vt 0.041157 0.960268
vt 0.036166 0.951014
vt 0.057696 0.381283
vt 0.061200 0.396579
vt 0.056488 0.396579
vt 0.057696 0.381283
vt 0.056488 0.396579
vt 0.054315 0.381283
vt 0.054315 0.381283
vt 0.056488 0.396579
vt 0.041112 0.396579
vt 0.054315 0.381283
vt 0.041112 0.396579
vt 0.043285 0.381283
vt 0.043285 0.381283
vt 0.041112 0.396579
vt 0.036400 0.396579
vt 0.043285 0.381283
vt 0.036400 0.396579
vt 0.039904 0.381283
vt 0.061434 0.791014
vt 0.056443 0.800268
vt 0.056443 0.728085
vt 0.061434 0.791014
vt 0.056443 0.728085
vt 0.061434 0.731721
vt 0.061434 0.731721
vt 0.056443 0.728085
vt 0.056443 0.683665
vt 0.061434 0.731721
vt 0.056443 0.683665
vt 0.061434 0.695233
vt 0.039904 0.618717
vt 0.036400 0.603421
vt 0.040627 0.603421
vt 0.039904 0.618717
vt 0.040627 0.603421
vt 0.042937 0.618717
vt 0.040627 0.603421
vt 0.038318 0.586214
vt 0.059282 0.586214
vt 0.040627 0.603421
vt 0.059282 0.586214
vt 0.056973 0.603421
vt 0.056973 0.603421
vt 0.059282 0.586214
vt 0.064704 0.586214
vt 0.056973 0.603421
vt 0.064704 0.586214
vt 0.061200 0.603421
vt 0.041157 0.843665
vt 0.046772 0.836725
vt 0.046772 0.885904
vt 0.041157 0.843665
vt 0.046772 0.885904
vt 0.041157 0.888085
vt 0.041157 0.888085
vt 0.046772 0.885904
vt 0.046772 0.965820
vt 0.041157 0.888085
vt 0.046772 0.965820
vt 0.041157 0.960268
vt 0.061200 0.396579
vt 0.064704 0.413786
vt 0.058661 0.413786
vt 0.061200 0.396579
vt 0.058661 0.413786
vt 0.056488 0.396579
vt 0.056488 0.396579
vt 0.058661 0.413786
vt 0.038939 0.413786
vt 0.056488 0.396579
vt 0.038939 0.413786
vt 0.041112 0.396579
vt 0.041112 0.396579
vt 0.038939 0.413786
vt 0.032896 0.413786
vt 0.041112 0.396579
vt 0.032896 0.413786
vt 0.036400 0.396579
vt 0.056443 0.800268
vt 0.050828 0.805820
vt 0.050828 0.725904
vt 0.056443 0.800268
vt 0.050828 0.725904
vt 0.056443 0.728085
vt 0.056443 0.728085
vt 0.050828 0.725904
vt 0.050828 0.676725
vt 0.056443 0.728085
vt 0.050828 0.676725
vt 0.056443 0.683665
vt 0.036400 0.603421
vt 0.032896 0.586214
vt 0.038318 0.586214
vt 0.036400 0.603421
vt 0.038318 0.586214
vt 0.040627 0.603421
vt 0.038318 0.586214
vt 0.036541 0.569006
vt 0.061059 0.569006
vt 0.038318 0.586214
vt 0.061059 0.569006
vt 0.059282 0.586214
vt 0.059282 0.586214
vt 0.061059 0.569006
vt 0.067400 0.569006
vt 0.059282 0.586214
vt 0.067400 0.569006
vt 0.064704 0.586214
vt 0.046772 0.836725
vt 0.052387 0.830941
vt 0.052387 0.884086
vt 0.046772 0.836725
vt 0.052387 0.884086
vt 0.046772 0.885904
vt 0.046772 0.885904
vt 0.052387 0.884086
vt 0.052387 0.970447
vt 0.046772 0.885904
vt 0.052387 0.970447
vt 0.046772 0.965820
vt 0.064704 0.413786
vt 0.067400 0.430994
vt 0.060332 0.430994
vt 0.064704 0.413786
vt 0.060332 0.430994
vt 0.058661 0.413786
vt 0.058661 0.413786
vt 0.060332 0.430994
vt 0.037268 0.430994
vt 0.058661 0.413786
vt 0.037268 0.430994
vt 0.038939 0.413786
vt 0.038939 0.413786
vt 0.037268 0.430994
vt 0.030200 0.430994
vt 0.038939 0.413786
vt 0.030200 0.430994
vt 0.032896 0.413786
vt 0.050828 0.805820
vt 0.045213 0.810447
vt 0.045213 0.724086
vt 0.050828 0.805820
vt 0.045213 0.724086
vt 0.050828 0.725904
vt 0.050828 0.725904
vt 0.045213 0.724086
vt 0.045213 0.670941
vt 0.050828 0.725904
vt 0.045213 0.670941
vt 0.050828 0.676725
vt 0.032896 0.586214
vt 0.030200 0.569006
vt 0.036541 0.569006
vt 0.032896 0.586214
vt 0.036541 0.569006
vt 0.038318 0.586214
vt 0.036541 0.569006
vt 0.035120 0.551799
vt 0.062480 0.551799
vt 0.036541 0.569006
vt 0.062480 0.551799
vt 0.061059 0.569006
vt 0.061059 0.569006
vt 0.062480 0.551799
vt 0.069557 0.551799
vt 0.061059 0.569006
vt 0.069557 0.551799
vt 0.067400 0.569006
vt 0.052387 0.830941
vt 0.058003 0.827470
vt 0.058003 0.882995
vt 0.052387 0.830941
vt 0.058003 0.882995
vt 0.052387 0.884086
vt 0.052387 0.884086
vt 0.058003 0.882995
vt 0.058003 0.973224
vt 0.052387 0.884086
vt 0.058003 0.973224
vt 0.052387 0.970447
vt 0.067400 0.430994
vt 0.069557 0.448201
vt 0.061669 0.448201
vt 0.067400 0.430994
vt 0.061669 0.448201
vt 0.060332 0.430994
vt 0.060332 0.430994
vt 0.061669 0.448201
vt 0.035931 0.448201
vt 0.060332 0.430994
vt 0.035931 0.448201
vt 0.037268 0.430994
vt 0.037268 0.430994
vt 0.035931 0.448201
vt 0.028043 0.448201
vt 0.037268 0.430994
vt 0.028043 0.448201
vt 0.030200 0.430994
vt 0.045213 0.810447
vt 0.039597 0.813224
vt 0.039597 0.722995
vt 0.045213 0.810447
vt 0.039597 0.722995
vt 0.045213 0.724086
vt 0.045213 0.724086
vt 0.039597 0.722995
vt 0.039597 0.667470
vt 0.045213 0.724086
vt 0.039597 0.667470
vt 0.045213 0.670941
vt 0.030200 0.569006
vt 0.028043 0.551799
vt 0.035120 0.551799
vt 0.030200 0.569006
vt 0.035120 0.551799
vt 0.036541 0.569006
vt 0.035120 0.551799
vt 0.034054 0.534113
vt 0.063546 0.534113
vt 0.035120 0.551799
vt 0.063546 0.534113
vt 0.062480 0.551799
vt 0.062480 0.551799
vt 0.063546 0.534113
vt 0.071174 0.534113
vt 0.062480 0.551799
vt 0.071174 0.534113
vt 0.069557 0.551799
vt 0.058003 0.827470
vt 0.063774 0.825157
vt 0.063774 0.882268
vt 0.058003 0.827470
vt 0.063774 0.882268
vt 0.058003 0.882995
vt 0.058003 0.882995
vt 0.063774 0.882268
vt 0.063774 0.975075
vt 0.058003 0.882995
vt 0.063774 0.975075
vt 0.058003 0.973224
vt 0.069557 0.448201
vt 0.071174 0.465887
vt 0.062672 0.465887
vt 0.069557 0.448201
vt 0.062672 0.465887
vt 0.061669 0.448201
vt 0.061669 0.448201
vt 0.062672 0.465887
vt 0.034928 0.465887
vt 0.061669 0.448201
vt 0.034928 0.465887
vt 0.035931 0.448201
vt 0.035931 0.448201
vt 0.034928 0.465887
vt 0.026426 0.465887
vt 0.035931 0.448201
vt 0.026426 0.465887
vt 0.028043 0.448201
vt 0.039597 0.813224
vt 0.033826 0.815075
vt 0.033826 0.722268
vt 0.039597 0.813224
vt 0.033826 0.722268
vt 0.039597 0.722995
vt 0.039597 0.722995
vt 0.033826 0.722268
vt 0.033826 0.665157
vt 0.039597 0.722995
vt 0.033826 0.665157
vt 0.039597 0.667470
vt 0.028043 0.551799
vt 0.026426 0.534113
vt 0.034054 0.534113
vt 0.028043 0.551799
vt 0.034054 0.534113
vt 0.035120 0.551799
vt 0.034054 0.534113
vt 0.033343 0.519296
vt 0.064257 0.519296
vt 0.034054 0.534113
vt 0.064257 0.519296
vt 0.063546 0.534113
vt 0.063546 0.534113
vt 0.064257 0.519296
vt 0.072252 0.519296
vt 0.063546 0.534113
vt 0.072252 0.519296
vt 0.071174 0.534113
vt 0.063774 0.825157
vt 0.068609 0.824000
vt 0.068609 0.881905
vt 0.063774 0.825157
vt 0.068609 0.881905
vt 0.063774 0.882268
vt 0.063774 0.882268
vt 0.068609 0.881905
vt 0.068609 0.976000
vt 0.063774 0.882268
vt 0.068609 0.976000
vt 0.063774 0.975075
vt 0.071174 0.465887
vt 0.072252 0.480704
vt 0.063340 0.480704
vt 0.071174 0.465887
vt 0.063340 0.480704
vt 0.062672 0.465887
vt 0.062672 0.465887
vt 0.063340 0.480704
vt 0.034260 0.480704
vt 0.062672 0.465887
vt 0.034260 0.480704
vt 0.034928 0.465887
vt 0.034928 0.465887
vt 0.034260 0.480704
vt 0.025348 0.480704
vt 0.034928 0.465887
vt 0.025348 0.480704
vt 0.026426 0.465887
vt 0.033826 0.815075
vt 0.028991 0.816000
vt 0.028991 0.721905
vt 0.033826 0.815075
vt 0.028991 0.721905
vt 0.033826 0.722268
vt 0.033826 0.722268
vt 0.028991 0.721905
vt 0.028991 0.664000
vt 0.033826 0.722268
vt 0.028991 0.664000
vt 0.033826 0.665157
vt 0.026426 0.534113
vt 0.025348 0.519296
vt 0.033343 0.519296
vt 0.026426 0.534113
vt 0.033343 0.519296
vt 0.034054 0.534113
vt 0.033343 0.519296
vt 0.032455 0.504000
vt 0.065145 0.504000
vt 0.033343 0.519296
vt 0.065145 0.504000
vt 0.064257 0.519296
vt 0.064257 0.519296
vt 0.065145 0.504000
vt 0.073600 0.504000
vt 0.064257 0.519296
vt 0.073600 0.504000
vt 0.072252 0.519296
vt 0.068609 0.824000
vt 0.073600 0.825157
vt 0.073600 0.882268
vt 0.068609 0.824000
vt 0.073600 0.882268
vt 0.068609 0.881905
vt 0.068609 0.881905
vt 0.073600 0.882268
vt 0.073600 0.975075
vt 0.068609 0.881905
vt 0.073600 0.975075
vt 0.068609 0.976000
vt 0.072252 0.480704
vt 0.073600 0.496000
vt 0.064176 0.496000
vt 0.072252 0.480704
vt 0.064176 0.496000
vt 0.063340 0.480704
vt 0.063340 0.480704
vt 0.064176 0.496000
vt 0.033424 0.496000
vt 0.063340 0.480704
vt 0.033424 0.496000
vt 0.034260 0.480704
vt 0.034260 0.480704
vt 0.033424 0.496000
vt 0.024000 0.496000
vt 0.034260 0.480704
vt 0.024000 0.496000
vt 0.025348 0.480704
vt 0.028991 0.816000
vt 0.024000 0.815075
vt 0.024000 0.722268
vt 0.028991 0.816000
vt 0.024000 0.722268
vt 0.028991 0.721905
vt 0.028991 0.721905
vt 0.024000 0.722268
vt 0.024000 0.665157
vt 0.028991 0.721905
vt 0.024000 0.665157
vt 0.028991 0.664000
vt 0.025348 0.519296
vt 0.024000 0.504000
vt 0.032455 0.504000
vt 0.025348 0.519296
vt 0.032455 0.504000
vt 0.033343 0.519296
vt 0.048800 0.254528
vt 0.034416 0.184000
vt 0.063184 0.184000
vt 0.048800 0.254528
vt 0.026976 0.206800
vt 0.034416 0.184000
vt 0.048800 0.254528
vt 0.024000 0.243280
vt 0.026976 0.206800
vt 0.048800 0.254528
vt 0.024000 0.302560
vt 0.024000 0.243280
vt 0.048800 0.254528
vt 0.033424 0.336000
vt 0.024000 0.302560
vt 0.048800 0.254528
vt 0.064176 0.336000
vt 0.033424 0.336000
vt 0.048800 0.254528
vt 0.073600 0.302560
vt 0.064176 0.336000
vt 0.048800 0.254528
vt 0.073600 0.243280
vt 0.073600 0.302560
vt 0.048800 0.254528
vt 0.070624 0.206800
vt 0.073600 0.243280
vt 0.048800 0.254528
vt 0.063184 0.184000
vt 0.070624 0.206800
vt 0.048800 0.094528
vt 0.034416 0.024000
vt 0.063184 0.024000
vt 0.048800 0.094528
vt 0.063184 0.024000
vt 0.070624 0.046800
vt 0.048800 0.094528
vt 0.070624 0.046800
vt 0.073600 0.083280
vt 0.048800 0.094528
vt 0.073600 0.083280
vt 0.073600 0.142560
vt 0.048800 0.094528
vt 0.073600 0.142560
vt 0.064176 0.176000
vt 0.048800 0.094528
vt 0.064176 0.176000
vt 0.033424 0.176000
vt 0.048800 0.094528
vt 0.033424 0.176000
vt 0.024000 0.142560
vt 0.048800 0.094528
vt 0.024000 0.142560
vt 0.024000 0.083280
vt 0.048800 0.094528
vt 0.024000 0.083280
vt 0.026976 0.046800
vt 0.048800 0.094528
vt 0.026976 0.046800
vt 0.034416 0.024000
vn 0.000000 0.877896 -0.478852
vn 0.000000 0.877896 -0.478852
vn 0.000000 0.877896 -0.478852
vn 0.000000 0.877896 -0.478852
vn 0.000000 0.877896 -0.478852
vn 0.000000 0.877896 -0.478852
vn 0.554350 0.609784 -0.566444
vn 0.554350 0.609784 -0.566444
vn 0.554350 0.609784 -0.566444
vn 0.642738 0.482054 -0.595409
vn 0.642738 0.482054 -0.595409
vn 0.642738 0.482054 -0.595409
vn 0.783105 0.215354 -0.583412
vn 0.783105 0.215354 -0.583412
vn 0.783105 0.215354 -0.583412
vn 0.791234 0.148356 -0.593245
vn 0.791234 0.148356 -0.593245
vn 0.791234 0.148356 -0.593245
vn 0.808736 0.000000 -0.588171
vn 0.808736 0.000000 -0.588171
vn 0.808736 0.000000 -0.588171
vn 0.808736 0.000000 -0.588171
vn 0.808736 0.000000 -0.588171
vn 0.808736 0.000000 -0.588171
vn 0.583439 -0.554267 -0.593622
vn 0.583439 -0.554267 -0.593622
vn 0.583439 -0.554267 -0.593622
vn 0.695668 -0.450603 -0.559466
vn 0.695668 -0.450603 -0.559466
vn 0.695668 -0.450603 -0.559466
vn 0.000000 -0.877896 -0.478852
vn 0.000000 -0.877896 -0.478852
vn 0.000000 -0.877896 -0.478852
vn 0.000000 -0.877896 -0.478852
vn 0.000000 -0.877896 -0.478852
vn 0.000000 -0.877896 -0.478852
vn -0.593220 -0.563559 -0.574883
vn -0.593220 -0.563559 -0.574883
vn -0.593220 -0.563559 -0.574883
vn -0.662935 -0.429401 -0.613296
vn -0.662935 -0.429401 -0.613296
vn -0.662935 -0.429401 -0.613296
vn -0.808736 0.000000 -0.588171
vn -0.808736 0.000000 -0.588171
vn -0.808736 0.000000 -0.588171
vn -0.808736 0.000000 -0.588171
vn -0.808736 0.000000 -0.588171
vn -0.808736 0.000000 -0.588171
vn -0.777642 0.213852 -0.591219
vn -0.777642 0.213852 -0.591219
vn -0.777642 0.213852 -0.591219
vn -0.805426 0.151017 -0.573133
vn -0.805426 0.151017 -0.573133
vn -0.805426 0.151017 -0.573133
vn -0.547701 0.602471 -0.580562
vn -0.547701 0.602471 -0.580562
vn -0.547701 0.602471 -0.580562
vn -0.666236 0.499677 -0.553581
vn -0.666236 0.499677 -0.553581
vn -0.666236 0.499677 -0.553581
vn 0.000000 0.880471 -0.474100
vn 0.000000 0.880471 -0.474100
vn 0.000000 0.880471 -0.474100
vn 0.000000 0.880471 -0.474100
vn 0.000000 0.880471 -0.474100
vn 0.000000 0.880471 -0.474100
vn 0.515644 0.636972 -0.573042
vn 0.515644 0.636972 -0.573042
vn 0.515644 0.636972 -0.573042
vn 0.542210 0.596430 -0.591844
vn 0.542210 0.596430 -0.591844
vn 0.542210 0.596430 -0.591844
vn 0.761445 0.235152 -0.604074
vn 0.761445 0.235152 -0.604074
vn 0.761445 0.235152 -0.604074
vn 0.762821 0.209776 -0.611636
vn 0.762821 0.209776 -0.611636
vn 0.762821 0.209776 -0.611636
vn 0.792624 0.000000 -0.609711
vn 0.792624 0.000000 -0.609711
vn 0.792624 0.000000 -0.609711
vn 0.792624 0.000000 -0.609711
vn 0.792624 0.000000 -0.609711
vn 0.792624 0.000000 -0.609711
vn 0.548138 -0.584779 -0.597979
vn 0.548138 -0.584779 -0.597979
vn 0.548138 -0.584779 -0.597979
vn 0.589301 -0.559836 -0.582502
vn 0.589301 -0.559836 -0.582502
vn 0.589301 -0.559836 -0.582502
vn 0.000000 -0.880471 -0.474100
vn 0.000000 -0.880471 -0.474100
vn 0.000000 -0.880471 -0.474100
vn 0.000000 -0.880471 -0.474100
vn 0.000000 -0.880471 -0.474100
vn 0.000000 -0.880471 -0.474100
vn -0.555251 -0.592367 -0.583779
vn -0.555251 -0.592367 -0.583779
vn -0.555251 -0.592367 -0.583779
vn -0.575723 -0.546936 -0.607786
vn -0.575723 -0.546936 -0.607786
vn -0.575723 -0.546936 -0.607786
vn -0.792624 0.000000 -0.609711
vn -0.792624 0.000000 -0.609711
vn -0.792624 0.000000 -0.609711
vn -0.792624 0.000000 -0.609711
vn -0.792624 0.000000 -0.609711
vn -0.792624 0.000000 -0.609711
vn -0.757074 0.233802 -0.610062
vn -0.757074 0.233802 -0.610062
vn -0.757074 0.233802 -0.610062
vn -0.770388 0.211857 -0.601348
vn -0.770388 0.211857 -0.601348
vn -0.770388 0.211857 -0.601348
vn -0.510887 0.631096 -0.583706
vn -0.510887 0.631096 -0.583706
vn -0.510887 0.631096 -0.583706
vn -0.551452 0.606596 -0.572662
vn -0.551452 0.606596 -0.572662
vn -0.551452 0.606596 -0.572662
vn 0.000000 0.928477 -0.371390
vn 0.000000 0.928477 -0.371390
vn 0.000000 0.928477 -0.371390
vn 0.000000 0.928477 -0.371390
vn 0.000000 0.928477 -0.371390
vn 0.000000 0.928477 -0.371390
vn 0.491719 0.705510 -0.510361
vn 0.491719 0.705510 -0.510361
vn 0.491719 0.705510 -0.510361
vn 0.524994 0.648522 -0.551181
vn 0.524994 0.648522 -0.551181
vn 0.524994 0.648522 -0.551181
vn 0.750422 0.269173 -0.603665
vn 0.750422 0.269173 -0.603665
vn 0.750422 0.269173 -0.603665
vn 0.749618 0.231499 -0.620066
vn 0.749618 0.231499 -0.620066
vn 0.749618 0.231499 -0.620066
vn 0.780869 0.000000 -0.624695
vn 0.780869 0.000000 -0.624695
vn 0.780869 0.000000 -0.624695
vn 0.780869 0.000000 -0.624695
vn 0.780869 0.000000 -0.624695
vn 0.780869 0.000000 -0.624695
vn 0.520115 -0.644490 -0.560458
vn 0.520115 -0.644490 -0.560458
vn 0.520115 -0.644490 -0.560458
vn 0.578353 -0.617013 -0.533668
vn 0.578353 -0.617013 -0.533668
vn 0.578353 -0.617013 -0.533668
vn 0.000000 -0.928477 -0.371390
vn 0.000000 -0.928477 -0.371390
vn 0.000000 -0.928477 -0.371390
vn 0.000000 -0.928477 -0.371391
vn 0.000000 -0.928477 -0.371391
vn 0.000000 -0.928477 -0.371391
vn -0.533091 -0.660570 -0.528641
vn -0.533091 -0.660570 -0.528641
vn -0.533091 -0.660570 -0.528641
vn -0.557484 -0.594749 -0.579211
vn -0.557484 -0.594749 -0.579211
vn -0.557484 -0.594749 -0.579211
vn -0.780869 0.000000 -0.624695
vn -0.780869 0.000000 -0.624695
vn -0.780869 0.000000 -0.624695
vn -0.780869 0.000000 -0.624695
vn -0.780869 0.000000 -0.624695
vn -0.780869 0.000000 -0.624695
vn -0.741216 0.265871 -0.616369
vn -0.741216 0.265871 -0.616369
vn -0.741216 0.265871 -0.616369
vn -0.762445 0.235461 -0.602690
vn -0.762445 0.235461 -0.602690
vn -0.762445 0.235461 -0.602690
vn -0.483297 0.693426 -0.534400
vn -0.483297 0.693426 -0.534400
vn -0.483297 0.693426 -0.534400
vn -0.538855 0.665645 -0.516287
vn -0.538855 0.665645 -0.516287
vn -0.538855 0.665645 -0.516287
vn 0.000000 0.954480 -0.298275
vn 0.000000 0.954480 -0.298275
vn 0.000000 0.954480 -0.298275
vn 0.000000 0.954480 -0.298275
vn 0.000000 0.954480 -0.298275
vn 0.000000 0.954480 -0.298275
vn 0.462819 0.760346 -0.455712
vn 0.462819 0.760346 -0.455712
vn 0.462819 0.760346 -0.455712
vn 0.492835 0.707111 -0.507058
vn 0.492835 0.707111 -0.507058
vn 0.492835 0.707111 -0.507058
vn 0.741971 0.304738 -0.597171
vn 0.741971 0.304738 -0.597171
vn 0.741971 0.304738 -0.597171
vn 0.739322 0.265192 -0.618931
vn 0.739322 0.265192 -0.618931
vn 0.739322 0.265192 -0.618931
vn 0.776114 0.000000 -0.630593
vn 0.776114 0.000000 -0.630593
vn 0.776114 0.000000 -0.630593
vn 0.776114 0.000000 -0.630593
vn 0.776114 0.000000 -0.630593
vn 0.776114 0.000000 -0.630593
vn 0.491570 -0.697455 -0.521455
vn 0.491570 -0.697455 -0.521455
vn 0.491570 -0.697455 -0.521455
vn 0.548055 -0.679112 -0.488306
vn 0.548055 -0.679112 -0.488306
vn 0.548055 -0.679112 -0.488306
vn 0.000000 -0.954480 -0.298275
vn 0.000000 -0.954480 -0.298275
vn 0.000000 -0.954480 -0.298275
vn 0.000000 -0.954480 -0.298275
vn 0.000000 -0.954480 -0.298275
vn 0.000000 -0.954480 -0.298275
vn -0.505712 -0.717520 -0.478978
vn -0.505712 -0.717520 -0.478978
vn -0.505712 -0.717520 -0.478978
vn -0.527413 -0.653533 -0.542891
vn -0.527413 -0.653533 -0.542891
vn -0.527413 -0.653533 -0.542891
vn -0.776114 0.000000 -0.630593
vn -0.776114 0.000000 -0.630593
vn -0.776114 0.000000 -0.630593
vn -0.776114 0.000000 -0.630593
vn -0.776114 0.000000 -0.630593
vn -0.776114 0.000000 -0.630593
vn -0.730195 0.299901 -0.613901
vn -0.730195 0.299901 -0.613901
vn -0.730195 0.299901 -0.613901
vn -0.754154 0.270512 -0.598394
vn -0.754154 0.270512 -0.598394
vn -0.754154 0.270512 -0.598394
vn -0.453924 0.745732 -0.487685
vn -0.453924 0.745732 -0.487685
vn -0.453924 0.745732 -0.487685
vn -0.506091 0.726130 -0.465411
vn -0.506091 0.726130 -0.465411
vn -0.506091 0.726130 -0.465411
vn 0.000000 0.986394 -0.164399
vn 0.000000 0.986394 -0.164399
vn 0.000000 0.986394 -0.164399
vn 0.000000 0.986394 -0.164399
vn 0.000000 0.986394 -0.164399
vn 0.000000 0.986394 -0.164399
vn 0.440051 0.837516 -0.323918
vn 0.440051 0.837516 -0.323918
vn 0.440051 0.837516 -0.323918
vn 0.477640 0.784694 -0.395114
vn 0.477640 0.784694 -0.395114
vn 0.477640 0.784694 -0.395114
vn 0.766072 0.364502 -0.529406
vn 0.766072 0.364502 -0.529406
vn 0.766072 0.364502 -0.529406
vn 0.764212 0.313873 -0.563439
vn 0.764212 0.313873 -0.563439
vn 0.764212 0.313873 -0.563439
vn 0.810679 0.000000 -0.585490
vn 0.810679 0.000000 -0.585490
vn 0.810679 0.000000 -0.585490
vn 0.810679 0.000000 -0.585490
vn 0.810679 0.000000 -0.585490
vn 0.810679 0.000000 -0.585490
vn 0.473065 -0.777574 -0.414231
vn 0.473065 -0.777574 -0.414231
vn 0.473065 -0.777574 -0.414231
vn 0.535958 -0.760434 -0.366729
vn 0.535958 -0.760434 -0.366729
vn 0.535958 -0.760434 -0.366729
vn 0.000000 -0.986394 -0.164399
vn 0.000000 -0.986394 -0.164399
vn 0.000000 -0.986394 -0.164399
vn 0.000000 -0.986394 -0.164399
vn 0.000000 -0.986394 -0.164399
vn 0.000000 -0.986394 -0.164399
vn -0.486641 -0.799890 -0.351222
vn -0.486641 -0.799890 -0.351222
vn -0.486641 -0.799890 -0.351222
vn -0.516846 -0.733317 -0.441720
vn -0.516846 -0.733317 -0.441720
vn -0.516846 -0.733317 -0.441720
vn -0.810679 0.000000 -0.585490
vn -0.810679 0.000000 -0.585490
vn -0.810679 0.000000 -0.585490
vn -0.810679 0.000000 -0.585490
vn -0.810679 0.000000 -0.585490
vn -0.810679 0.000000 -0.585490
vn -0.750904 0.357285 -0.555420
vn -0.750904 0.357285 -0.555420
vn -0.750904 0.357285 -0.555420
vn -0.781866 0.321124 -0.534383
vn -0.781866 0.321124 -0.534383
vn -0.781866 0.321124 -0.534383
vn -0.432025 0.822241 -0.370504
vn -0.432025 0.822241 -0.370504
vn -0.432025 0.822241 -0.370504
vn -0.489186 0.803662 -0.338858
vn -0.489186 0.803662 -0.338858
vn -0.489186 0.803662 -0.338858
vn 0.000000 0.990492 -0.137569
vn 0.000000 0.990492 -0.137569
vn 0.000000 0.990492 -0.137569
vn 0.000000 0.990492 -0.137569
vn 0.000000 0.990492 -0.137569
vn 0.000000 0.990492 -0.137569
vn 0.422110 0.869421 -0.256767
vn 0.422110 0.869421 -0.256767
vn 0.422110 0.869421 -0.256767
vn 0.443834 0.844716 -0.299111
vn 0.443834 0.844716 -0.299111
vn 0.443834 0.844716 -0.299111
vn 0.801768 0.412851 -0.432114
vn 0.801768 0.412851 -0.432114
vn 0.801768 0.412851 -0.432114
vn 0.802857 0.382005 -0.457704
vn 0.802857 0.382005 -0.457704
vn 0.802857 0.382005 -0.457704
vn 0.874157 0.000000 -0.485643
vn 0.874157 0.000000 -0.485643
vn 0.874157 0.000000 -0.485643
vn 0.874157 0.000000 -0.485643
vn 0.874157 0.000000 -0.485643
vn 0.874157 0.000000 -0.485643
vn 0.463951 -0.825291 -0.321940
vn 0.463951 -0.825291 -0.321940
vn 0.463951 -0.825291 -0.321940
vn 0.498150 -0.818807 -0.285308
vn 0.498150 -0.818807 -0.285308
vn 0.498150 -0.818807 -0.285308
vn 0.000000 -0.990492 -0.137568
vn 0.000000 -0.990492 -0.137568
vn 0.000000 -0.990492 -0.137568
vn 0.000000 -0.990492 -0.137568
vn 0.000000 -0.990492 -0.137568
vn 0.000000 -0.990492 -0.137568
vn -0.470666 -0.837237 -0.278401
vn -0.470666 -0.837237 -0.278401
vn -0.470666 -0.837237 -0.278401
vn -0.489775 -0.805040 -0.334711
vn -0.489775 -0.805040 -0.334711
vn -0.489775 -0.805040 -0.334711
vn -0.874157 0.000000 -0.485643
vn -0.874157 0.000000 -0.485643
vn -0.874157 0.000000 -0.485643
vn -0.874157 0.000000 -0.485643
vn -0.874157 0.000000 -0.485643
vn -0.874157 0.000000 -0.485643
vn -0.792673 0.408167 -0.452846
vn -0.792673 0.408167 -0.452846
vn -0.792673 0.408167 -0.452846
vn -0.813042 0.386850 -0.435098
vn -0.813042 0.386850 -0.435098
vn -0.813042 0.386850 -0.435098
vn -0.418220 0.861409 -0.288212
vn -0.418220 0.861409 -0.288212
vn -0.418220 0.861409 -0.288212
vn -0.448727 0.854030 -0.263205
vn -0.448727 0.854030 -0.263205
vn -0.448727 0.854030 -0.263205
vn 0.000000 0.996546 -0.083045
vn 0.000000 0.996546 -0.083045
vn 0.000000 0.996546 -0.083045
vn 0.000000 0.996546 -0.083045
vn 0.000000 0.996546 -0.083045
vn 0.000000 0.996546 -0.083045
vn 0.407077 0.895569 -0.179566
vn 0.407077 0.895569 -0.179566
vn 0.407077 0.895569 -0.179566
vn 0.426256 0.877960 -0.217927
vn 0.426256 0.877960 -0.217927
vn 0.426256 0.877960 -0.217927
vn 0.821553 0.451854 -0.347676
vn 0.821553 0.451854 -0.347676
vn 0.821553 0.451854 -0.347676
vn 0.824461 0.424536 -0.374210
vn 0.824461 0.424536 -0.374210
vn 0.824461 0.424536 -0.374210
vn 0.913812 0.000000 -0.406138
vn 0.913812 0.000000 -0.406138
vn 0.913812 0.000000 -0.406138
vn 0.913812 0.000000 -0.406138
vn 0.913812 0.000000 -0.406138
vn 0.913812 0.000000 -0.406138
vn 0.452021 -0.858840 -0.240977
vn 0.452021 -0.858840 -0.240977
vn 0.452021 -0.858840 -0.240977
vn 0.479803 -0.853489 -0.203336
vn 0.479803 -0.853489 -0.203336
vn 0.479803 -0.853489 -0.203336
vn 0.000000 -0.996546 -0.083045
vn 0.000000 -0.996546 -0.083045
vn 0.000000 -0.996546 -0.083045
vn 0.000000 -0.996546 -0.083045
vn 0.000000 -0.996546 -0.083045
vn 0.000000 -0.996546 -0.083045
vn -0.456518 -0.867385 -0.198078
vn -0.456518 -0.867385 -0.198078
vn -0.456518 -0.867385 -0.198078
vn -0.474448 -0.843963 -0.250250
vn -0.474448 -0.843963 -0.250250
vn -0.474448 -0.843963 -0.250250
vn -0.913812 0.000000 -0.406138
vn -0.913812 0.000000 -0.406138
vn -0.913812 0.000000 -0.406138
vn -0.913812 0.000000 -0.406138
vn -0.913812 0.000000 -0.406138
vn -0.913812 0.000000 -0.406138
vn -0.814032 0.447718 -0.370000
vn -0.814032 0.447718 -0.370000
vn -0.814032 0.447718 -0.370000
vn -0.832607 0.428730 -0.350651
vn -0.832607 0.428730 -0.350651
vn -0.832607 0.428730 -0.350651
vn -0.404563 0.890038 -0.210148
vn -0.404563 0.890038 -0.210148
vn -0.404563 0.890038 -0.210148
vn -0.429269 0.884165 -0.184336
vn -0.429269 0.884165 -0.184336
vn -0.429269 0.884165 -0.184336
vn 0.000000 0.998542 -0.053975
vn 0.000000 0.998542 -0.053975
vn 0.000000 0.998542 -0.053975
vn 0.000000 0.998542 -0.053975
vn 0.000000 0.998542 -0.053975
vn 0.000000 0.998542 -0.053975
vn 0.394872 0.910399 -0.123489
vn 0.394872 0.910399 -0.123489
vn 0.394872 0.910399 -0.123489
vn 0.409071 0.899955 -0.150804
vn 0.409071 0.899955 -0.150804
vn 0.409071 0.899955 -0.150804
vn 0.837236 0.482574 -0.257212
vn 0.837236 0.482574 -0.257212
vn 0.837236 0.482574 -0.257212
vn 0.841564 0.462860 -0.278444
vn 0.841564 0.462860 -0.278444
vn 0.841564 0.462860 -0.278444
vn 0.951223 0.000000 -0.308505
vn 0.951223 0.000000 -0.308505
vn 0.951223 0.000000 -0.308505
vn 0.951223 0.000000 -0.308505
vn 0.951223 0.000000 -0.308505
vn 0.951223 0.000000 -0.308505
vn 0.442260 -0.880611 -0.170092
vn 0.442260 -0.880611 -0.170092
vn 0.442260 -0.880611 -0.170092
vn 0.461154 -0.876192 -0.140091
vn 0.461154 -0.876192 -0.140091
vn 0.461154 -0.876192 -0.140091
vn 0.000000 -0.998542 -0.053975
vn 0.000000 -0.998542 -0.053975
vn 0.000000 -0.998542 -0.053975
vn 0.000000 -0.998542 -0.053975
vn 0.000000 -0.998542 -0.053975
vn 0.000000 -0.998542 -0.053975
vn -0.444553 -0.885177 -0.137239
vn -0.444553 -0.885177 -0.137239
vn -0.444553 -0.885177 -0.137239
vn -0.458552 -0.871248 -0.175092
vn -0.458552 -0.871248 -0.175092
vn -0.458552 -0.871248 -0.175092
vn -0.951223 0.000000 -0.308505
vn -0.951223 0.000000 -0.308505
vn -0.951223 0.000000 -0.308505
vn -0.951223 0.000000 -0.308505
vn -0.951223 0.000000 -0.308505
vn -0.951223 0.000000 -0.308505
vn -0.832783 0.480007 -0.275800
vn -0.832783 0.480007 -0.275800
vn -0.832783 0.480007 -0.275800
vn -0.846283 0.465456 -0.259146
vn -0.846283 0.465456 -0.259146
vn -0.846283 0.465456 -0.259146
vn -0.393614 0.907499 -0.146677
vn -0.393614 0.907499 -0.146677
vn -0.393614 0.907499 -0.146677
vn -0.410503 0.903107 -0.126036
vn -0.410503 0.903107 -0.126036
vn -0.410503 0.903107 -0.126036
vn 0.000000 0.999480 -0.032241
vn 0.000000 0.999480 -0.032241
vn 0.000000 0.999480 -0.032241
vn 0.000000 0.999480 -0.032241
vn 0.000000 0.999480 -0.032241
vn 0.000000 0.999480 -0.032241
vn 0.385394 0.918611 -0.087317
vn 0.385394 0.918611 -0.087317
vn 0.385394 0.918611 -0.087317
vn 0.395485 0.911813 -0.110403
vn 0.395485 0.911813 -0.110403
vn 0.395485 0.911813 -0.110403
vn 0.841272 0.501306 -0.202370
vn 0.841272 0.501306 -0.202370
vn 0.841272 0.501306 -0.202370
vn 0.844868 0.486972 -0.221486
vn 0.844868 0.486972 -0.221486
vn 0.844868 0.486972 -0.221486
vn 0.968277 0.000000 -0.249878
vn 0.968277 0.000000 -0.249878
vn 0.968277 0.000000 -0.249878
vn 0.968277 0.000000 -0.249878
vn 0.968277 0.000000 -0.249878
vn 0.968277 0.000000 -0.249878
vn 0.433363 -0.892090 -0.127951
vn 0.433363 -0.892090 -0.127951
vn 0.433363 -0.892090 -0.127951
vn 0.446544 -0.889141 -0.100129
vn 0.446544 -0.889141 -0.100129
vn 0.446544 -0.889141 -0.100129
vn 0.000000 -0.999480 -0.032241
vn 0.000000 -0.999480 -0.032241
vn 0.000000 -0.999480 -0.032241
vn 0.000000 -0.999480 -0.032241
vn 0.000000 -0.999480 -0.032241
vn 0.000000 -0.999480 -0.032241
vn -0.434832 -0.895114 -0.098448
vn -0.434832 -0.895114 -0.098448
vn -0.434832 -0.895114 -0.098448
vn -0.444942 -0.885952 -0.130828
vn -0.444942 -0.885952 -0.130828
vn -0.444942 -0.885952 -0.130828
vn -0.968277 0.000000 -0.249878
vn -0.968277 0.000000 -0.249878
vn -0.968277 0.000000 -0.249878
vn -0.968277 0.000000 -0.249878
vn -0.968277 0.000000 -0.249878
vn -0.968277 0.000000 -0.249878
vn -0.838036 0.499378 -0.219812
vn -0.838036 0.499378 -0.219812
vn -0.838036 0.499378 -0.219812
vn -0.848226 0.488908 -0.203670
vn -0.848226 0.488908 -0.203670
vn -0.848226 0.488908 -0.203670
vn -0.384607 0.916735 -0.108044
vn -0.384607 0.916735 -0.108044
vn -0.384607 0.916735 -0.108044
vn -0.396346 0.913797 -0.088801
vn -0.396346 0.913797 -0.088801
vn -0.396346 0.913797 -0.088801
vn 0.000000 0.999512 0.031235
vn 0.000000 0.999512 0.031235
vn 0.000000 0.999512 0.031235
vn 0.000000 0.999512 0.031235
vn 0.000000 0.999512 0.031235
vn 0.000000 0.999512 0.031235
vn 0.364151 0.930608 -0.036921
vn 0.364151 0.930608 -0.036921
vn 0.364151 0.930608 -0.036921
vn 0.385442 0.918725 -0.085899
vn 0.385442 0.918725 -0.085899
vn 0.385442 0.918725 -0.085899
vn 0.823021 0.525819 -0.214828
vn 0.823021 0.525819 -0.214828
vn 0.823021 0.525819 -0.214828
vn 0.830398 0.494826 -0.256098
vn 0.830398 0.494826 -0.256098
vn 0.830398 0.494826 -0.256098
vn 0.954480 0.000000 -0.298275
vn 0.954480 0.000000 -0.298275
vn 0.954480 0.000000 -0.298275
vn 0.954480 0.000000 -0.298275
vn 0.954480 0.000000 -0.298275
vn 0.954480 0.000000 -0.298275
vn 0.410092 -0.905102 -0.112315
vn 0.410092 -0.905102 -0.112315
vn 0.410092 -0.905102 -0.112315
vn 0.436257 -0.898049 -0.056461
vn 0.436257 -0.898049 -0.056461
vn 0.436257 -0.898049 -0.056461
vn 0.000000 -0.999512 0.031235
vn 0.000000 -0.999512 0.031235
vn 0.000000 -0.999512 0.031235
vn 0.000000 -0.999512 0.031235
vn 0.000000 -0.999512 0.031235
vn 0.000000 -0.999512 0.031235
vn -0.412157 -0.909660 -0.051429
vn -0.412157 -0.909660 -0.051429
vn -0.412157 -0.909660 -0.051429
vn -0.433800 -0.892991 -0.119935
vn -0.433800 -0.892991 -0.119935
vn -0.433800 -0.892991 -0.119935
vn -0.954480 0.000000 -0.298275
vn -0.954480 0.000000 -0.298275
vn -0.954480 0.000000 -0.298275
vn -0.954480 0.000000 -0.298275
vn -0.954480 0.000000 -0.298275
vn -0.954480 0.000000 -0.298275
vn -0.815652 0.521111 -0.251308
vn -0.815652 0.521111 -0.251308
vn -0.815652 0.521111 -0.251308
vn -0.838087 0.499408 -0.219549
vn -0.838087 0.499408 -0.219549
vn -0.838087 0.499408 -0.219549
vn -0.363243 0.928289 -0.079586
vn -0.363243 0.928289 -0.079586
vn -0.363243 0.928289 -0.079586
vn -0.386542 0.921348 -0.041269
vn -0.386542 0.921348 -0.041269
vn -0.386542 0.921348 -0.041269
vn 0.000000 0.000006 1.000000
vn 0.000000 0.000006 1.000000
vn 0.000000 0.000006 1.000000
vn 0.000005 0.000004 1.000000
vn 0.000005 0.000004 1.000000
vn 0.000005 0.000004 1.000000
vn 0.000008 0.000001 1.000000
vn 0.000008 0.000001 1.000000
vn 0.000008 0.000001 1.000000
vn 0.000008 0.000000 1.000000
vn 0.000008 0.000000 1.000000
vn 0.000008 0.000000 1.000000
vn 0.000005 -0.000003 1.000000
vn 0.000005 -0.000003 1.000000
vn 0.000005 -0.000003 1.000000
vn 0.000000 -0.000006 1.000000
vn 0.000000 -0.000006 1.000000
vn 0.000000 -0.000006 1.000000
vn -0.000005 -0.000003 1.000000
vn -0.000005 -0.000003 1.000000
vn -0.000005 -0.000003 1.000000
vn -0.000008 0.000000 1.000000
vn -0.000008 0.000000 1.000000
vn -0.000008 0.000000 1.000000
vn -0.000008 0.000001 1.000000
vn -0.000008 0.000001 1.000000
vn -0.000008 0.000001 1.000000
vn -0.000005 0.000004 1.000000
vn -0.000005 0.000004 1.000000
vn -0.000005 0.000004 1.000000
vn 0.000000 0.000000 -1.000000
vn 0.000000 0.000000 -1.000000
vn 0.000000 0.000000 -1.000000
vn 0.000000 0.000000 -1.000000
vn 0.000000 0.000000 -1.000000
vn 0.000000 0.000000 -1.000000
vn 0.000000 0.000000 -1.000000
vn 0.000000 0.000000 -1.000000
vn 0.000000 0.000000 -1.000000
vn 0.000000 0.000000 -1.000000
vn 0.000000 0.000000 -1.000000
vn 0.000000 0.000000 -1.000000
vn 0.000000 0.000000 -1.000000
vn 0.000000 0.000000 -1.000000
vn 0.000000 0.000000 -1.000000
vn 0.000000 0.000000 -1.000000
vn 0.000000 0.000000 -1.000000
vn 0.000000 0.000000 -1.000000
vn 0.000000 0.000000 -1.000000
vn 0.000000 0.000000 -1.000000
vn 0.000000 0.000000 -1.000000
vn 0.000000 0.000000 -1.000000
vn 0.000000 0.000000 -1.000000
vn 0.000000 0.000000 -1.000000
vn 0.000000 0.000000 -1.000000
vn 0.000000 0.000000 -1.000000
vn 0.000000 0.000000 -1.000000
vn 0.000000 0.000000 -1.000000
vn 0.000000 0.000000 -1.000000
vn 0.000000 0.000000 -1.000000
f 1/1/1 2/2/2 3/3/3
f 4/4/4 5/5/5 6/6/6
f 7/7/7 8/8/8 9/9/9
f 10/10/10 11/11/11 12/12/12
f 13/13/13 14/14/14 15/15/15
f 16/16/16 17/17/17 18/18/18
f 19/19/19 20/20/20 21/21/21
f 22/22/22 23/23/23 24/24/24
f 25/25/25 26/26/26 27/27/27
f 28/28/28 29/29/29 30/30/30
f 31/31/31 32/32/32 33/33/33
f 34/34/34 35/35/35 36/36/36
f 37/37/37 38/38/38 39/39/39
f 40/40/40 41/41/41 42/42/42
f 43/43/43 44/44/44 45/45/45
f 46/46/46 47/47/47 48/48/48
f 49/49/49 50/50/50 51/51/51
f 52/52/52 53/53/53 54/54/54
f 55/55/55 56/56/56 57/57/57
f 58/58/58 59/59/59 60/60/60
f 61/61/61 62/62/62 63/63/63
f 64/64/64 65/65/65 66/66/66
f 67/67/67 68/68/68 69/69/69
f 70/70/70 71/71/71 72/72/72
f 73/73/73 74/74/74 75/75/75
f 76/76/76 77/77/77 78/78/78
f 79/79/79 80/80/80 81/81/81
f 82/82/82 83/83/83 84/84/84
f 85/85/85 86/86/86 87/87/87
f 88/88/88 89/89/89 90/90/90
f 91/91/91 92/92/92 93/93/93
f 94/94/94 95/95/95 96/96/96
f 97/97/97 98/98/98 99/99/99
f 100/100/100 101/101/101 102/102/102
f 103/103/103 104/104/104 105/105/105
f 106/106/106 107/107/107 108/108/108
f 109/109/109 110/110/110 111/111/111
f 112/112/112 113/113/113 114/114/114
f 115/115/115 116/116/116 117/117/117
f 118/118/118 119/119/119 120/120/120
f 121/121/121 122/122/122 123/123/123
f 124/124/124 125/125/125 126/126/126
f 127/127/127 128/128/128 129/129/129
f 130/130/130 131/131/131 132/132/132
f 133/133/133 134/134/134 135/135/135
f 136/136/136 137/137/137 138/138/138
f 139/139/139 140/140/140 141/141/141
f 142/142/142 143/143/143 144/144/144
f 145/145/145 146/146/146 147/147/147
f 148/148/148 149/149/149 150/150/150
f 151/151/151 152/152/152 153/153/153
f 154/154/154 155/155/155 156/156/156
f 157/157/157 158/158/158 159/159/159
f 160/160/160 161/161/161 162/162/162
f 163/163/163 164/164/164 165/165/165
f 166/166/166 167/167/167 168/168/168
f 169/169/169 170/170/170 171/171/171
f 172/172/172 173/173/173 174/174/174
f 175/175/175 176/176/176 177/177/177
f 178/178/178 179/179/179 180/180/180
f 181/181/181 182/182/182 183/183/183
f 184/184/184 185/185/185 186/186/186
f 187/187/187 188/188/188 189/189/189
f 190/190/190 191/191/191 192/192/192
f 193/193/193 194/194/194 195/195/195
f 196/196/196 197/197/197 198/198/198
f 199/199/199 200/200/200 201/201/201
f 202/202/202 203/203/203 204/204/204
f 205/205/205 206/206/206 207/207/207
f 208/208/208 209/209/209 210/210/210
f 211/211/211 212/212/212 213/213/213
f 214/214/214 215/215/215 216/216/216
f 217/217/217 218/218/218 219/219/219
f 220/220/220 221/221/221 222/222/222
f 223/223/223 224/224/224 225/225/225
f 226/226/226 227/227/227 228/228/228
f 229/229/229 230/230/230 231/231/231
f 232/232/232 233/233/233 234/234/234
f 235/235/235 236/236/236 237/237/237
f 238/238/238 239/239/239 240/240/240
f 241/241/241 242/242/242 243/243/243
f 244/244/244 245/245/245 246/246/246
f 247/247/247 248/248/248 249/249/249
f 250/250/250 251/251/251 252/252/252
f 253/253/253 254/254/254 255/255/255
f 256/256/256 257/257/257 258/258/258
f 259/259/259 260/260/260 261/261/261
f 262/262/262 263/263/263 264/264/264
f 265/265/265 266/266/266 267/267/267
f 268/268/268 269/269/269 270/270/270
f 271/271/271 272/272/272 273/273/273
f 274/274/274 275/275/275 276/276/276
f 277/277/277 278/278/278 279/279/279
f 280/280/280 281/281/281 282/282/282
f 283/283/283 284/284/284 285/285/285
f 286/286/286 287/287/287 288/288/288
f 289/289/289 290/290/290 291/291/291
f 292/292/292 293/293/293 294/294/294
f 295/295/295 296/296/296 297/297/297
f 298/298/298 299/299/299 300/300/300
f 301/301/301 302/302/302 303/303/303
f 304/304/304 305/305/305 306/306/306
f 307/307/307 308/308/308 309/309/309
f 310/310/310 311/311/311 312/312/312
f 313/313/313 314/314/314 315/315/315
f 316/316/316 317/317/317 318/318/318
f 319/319/319 320/320/320 321/321/321
f 322/322/322 323/323/323 324/324/324
f 325/325/325 326/326/326 327/327/327
f 328/328/328 329/329/329 330/330/330
f 331/331/331 332/332/332 333/333/333
f 334/334/334 335/335/335 336/336/336
f 337/337/337 338/338/338 339/339/339
f 340/340/340 341/341/341 342/342/342
f 343/343/343 344/344/344 345/345/345
f 346/346/346 347/347/347 348/348/348
f 349/349/349 350/350/350 351/351/351
f 352/352/352 353/353/353 354/354/354
f 355/355/355 356/356/356 357/357/357
f 358/358/358 359/359/359 360/360/360
f 361/361/361 362/362/362 363/363/363
f 364/364/364 365/365/365 366/366/366
f 367/367/367 368/368/368 369/369/369
f 370/370/370 371/371/371 372/372/372
f 373/373/373 374/374/374 375/375/375
f 376/376/376 377/377/377 378/378/378
f 379/379/379 380/380/380 381/381/381
f 382/382/382 383/383/383 384/384/384
f 385/385/385 386/386/386 387/387/387
f 388/388/388 389/389/389 390/390/390
f 391/391/391 392/392/392 393/393/393
f 394/394/394 395/395/395 396/396/396
f 397/397/397 398/398/398 399/399/399
f 400/400/400 401/401/401 402/402/402
f 403/403/403 404/404/404 405/405/405
f 406/406/406 407/407/407 408/408/408
f 409/409/409 410/410/410 411/411/411
f 412/412/412 413/413/413 414/414/414
f 415/415/415 416/416/416 417/417/417
f 418/418/418 419/419/419 420/420/420
f 421/421/421 422/422/422 423/423/423
f 424/424/424 425/425/425 426/426/426
f 427/427/427 428/428/428 429/429/429
f 430/430/430 431/431/431 432/432/432
f 433/433/433 434/434/434 435/435/435
f 436/436/436 437/437/437 438/438/438
f 439/439/439 440/440/440 441/441/441
f 442/442/442 443/443/443 444/444/444
f 445/445/445 446/446/446 447/447/447
f 448/448/448 449/449/449 450/450/450
f 451/451/451 452/452/452 453/453/453
f 454/454/454 455/455/455 456/456/456
f 457/457/457 458/458/458 459/459/459
f 460/460/460 461/461/461 462/462/462
f 463/463/463 464/464/464 465/465/465
f 466/466/466 467/467/467 468/468/468
f 469/469/469 470/470/470 471/471/471
f 472/472/472 473/473/473 474/474/474
f 475/475/475 476/476/476 477/477/477
f 478/478/478 479/479/479 480/480/480
f 481/481/481 482/482/482 483/483/483
f 484/484/484 485/485/485 486/486/486
f 487/487/487 488/488/488 489/489/489
f 490/490/490 491/491/491 492/492/492
f 493/493/493 494/494/494 495/495/495
f 496/496/496 497/497/497 498/498/498
f 499/499/499 500/500/500 501/501/501
f 502/502/502 503/503/503 504/504/504
f 505/505/505 506/506/506 507/507/507
f 508/508/508 509/509/509 510/510/510
f 511/511/511 512/512/512 513/513/513
f 514/514/514 515/515/515 516/516/516
f 517/517/517 518/518/518 519/519/519
f 520/520/520 521/521/521 522/522/522
f 523/523/523 524/524/524 525/525/525
f 526/526/526 527/527/527 528/528/528
f 529/529/529 530/530/530 531/531/531
f 532/532/532 533/533/533 534/534/534
f 535/535/535 536/536/536 537/537/537
f 538/538/538 539/539/539 540/540/540
f 541/541/541 542/542/542 543/543/543
f 544/544/544 545/545/545 546/546/546
f 547/547/547 548/548/548 549/549/549
f 550/550/550 551/551/551 552/552/552
f 553/553/553 554/554/554 555/555/555
f 556/556/556 557/557/557 558/558/558
f 559/559/559 560/560/560 561/561/561
f 562/562/562 563/563/563 564/564/564
f 565/565/565 566/566/566 567/567/567
f 568/568/568 569/569/569 570/570/570
f 571/571/571 572/572/572 573/573/573
f 574/574/574 575/575/575 576/576/576
f 577/577/577 578/578/578 579/579/579
f 580/580/580 581/581/581 582/582/582
f 583/583/583 584/584/584 585/585/585
f 586/586/586 587/587/587 588/588/588
f 589/589/589 590/590/590 591/591/591
f 592/592/592 593/593/593 594/594/594
f 595/595/595 596/596/596 597/597/597
f 598/598/598 599/599/599 600/600/600
f 601/601/601 602/602/602 603/603/603
f 604/604/604 605/605/605 606/606/606
f 607/607/607 608/608/608 609/609/609
f 610/610/610 611/611/611 612/612/612
f 613/613/613 614/614/614 615/615/615
f 616/616/616 617/617/617 618/618/618
f 619/619/619 620/620/620 621/621/621
f 622/622/622 623/623/623 624/624/624
f 625/625/625 626/626/626 627/627/627
f 628/628/628 629/629/629 630/630/630
f 631/631/631 632/632/632 633/633/633
f 634/634/634 635/635/635 636/636/636
f 637/637/637 638/638/638 639/639/639
f 640/640/640 641/641/641 642/642/642
f 643/643/643 644/644/644 645/645/645
f 646/646/646 647/647/647 648/648/648
f 649/649/649 650/650/650 651/651/651
f 652/652/652 653/653/653 654/654/654
f 655/655/655 656/656/656 657/657/657
f 658/658/658 659/659/659 660/660/660
