# Torrent authored macroform LOD0 semantic component
# Imported production resource; exact geometry/authenticity false
o CentralPressureKeel
usemtl torrent_hull_ivory
v -1.032400 1.400000 -1.700000
v -1.055600 1.430000 -1.320000
v 1.055600 1.430000 -1.320000
v -1.032400 1.400000 -1.700000
v 1.055600 1.430000 -1.320000
v 1.032400 1.400000 -1.700000
v 1.032400 1.400000 -1.700000
v 1.055600 1.430000 -1.320000
v 1.601600 1.229000 -1.320000
v 1.032400 1.400000 -1.700000
v 1.601600 1.229000 -1.320000
v 1.566400 1.208000 -1.700000
v 1.566400 1.208000 -1.700000
v 1.601600 1.229000 -1.320000
v 1.820000 0.907400 -1.320000
v 1.566400 1.208000 -1.700000
v 1.820000 0.907400 -1.320000
v 1.780000 0.900800 -1.700000
v 1.780000 0.900800 -1.700000
v 1.820000 0.907400 -1.320000
v 1.820000 0.384800 -1.320000
v 1.780000 0.900800 -1.700000
v 1.820000 0.384800 -1.320000
v 1.780000 0.401600 -1.700000
v 1.780000 0.401600 -1.700000
v 1.820000 0.384800 -1.320000
v 1.128400 0.090000 -1.320000
v 1.780000 0.401600 -1.700000
v 1.128400 0.090000 -1.320000
v 1.103600 0.120000 -1.700000
v 1.103600 0.120000 -1.700000
v 1.128400 0.090000 -1.320000
v -1.128400 0.090000 -1.320000
v 1.103600 0.120000 -1.700000
v -1.128400 0.090000 -1.320000
v -1.103600 0.120000 -1.700000
v -1.103600 0.120000 -1.700000
v -1.128400 0.090000 -1.320000
v -1.820000 0.384800 -1.320000
v -1.103600 0.120000 -1.700000
v -1.820000 0.384800 -1.320000
v -1.780000 0.401600 -1.700000
v -1.780000 0.401600 -1.700000
v -1.820000 0.384800 -1.320000
v -1.820000 0.907400 -1.320000
v -1.780000 0.401600 -1.700000
v -1.820000 0.907400 -1.320000
v -1.780000 0.900800 -1.700000
v -1.780000 0.900800 -1.700000
v -1.820000 0.907400 -1.320000
v -1.601600 1.229000 -1.320000
v -1.780000 0.900800 -1.700000
v -1.601600 1.229000 -1.320000
v -1.566400 1.208000 -1.700000
v -1.566400 1.208000 -1.700000
v -1.601600 1.229000 -1.320000
v -1.055600 1.430000 -1.320000
v -1.566400 1.208000 -1.700000
v -1.055600 1.430000 -1.320000
v -1.032400 1.400000 -1.700000
v -1.055600 1.430000 -1.320000
v -1.078800 1.460000 -0.900000
v 1.078800 1.460000 -0.900000
v -1.055600 1.430000 -1.320000
v 1.078800 1.460000 -0.900000
v 1.055600 1.430000 -1.320000
v 1.055600 1.430000 -1.320000
v 1.078800 1.460000 -0.900000
v 1.636800 1.250000 -0.900000
v 1.055600 1.430000 -1.320000
v 1.636800 1.250000 -0.900000
v 1.601600 1.229000 -1.320000
v 1.601600 1.229000 -1.320000
v 1.636800 1.250000 -0.900000
v 1.860000 0.914000 -0.900000
v 1.601600 1.229000 -1.320000
v 1.860000 0.914000 -0.900000
v 1.820000 0.907400 -1.320000
v 1.820000 0.907400 -1.320000
v 1.860000 0.914000 -0.900000
v 1.860000 0.368000 -0.900000
v 1.820000 0.907400 -1.320000
v 1.860000 0.368000 -0.900000
v 1.820000 0.384800 -1.320000
v 1.820000 0.384800 -1.320000
v 1.860000 0.368000 -0.900000
v 1.153200 0.060000 -0.900000
v 1.820000 0.384800 -1.320000
v 1.153200 0.060000 -0.900000
v 1.128400 0.090000 -1.320000
v 1.128400 0.090000 -1.320000
v 1.153200 0.060000 -0.900000
v -1.153200 0.060000 -0.900000
v 1.128400 0.090000 -1.320000
v -1.153200 0.060000 -0.900000
v -1.128400 0.090000 -1.320000
v -1.128400 0.090000 -1.320000
v -1.153200 0.060000 -0.900000
v -1.860000 0.368000 -0.900000
v -1.128400 0.090000 -1.320000
v -1.860000 0.368000 -0.900000
v -1.820000 0.384800 -1.320000
v -1.820000 0.384800 -1.320000
v -1.860000 0.368000 -0.900000
v -1.860000 0.914000 -0.900000
v -1.820000 0.384800 -1.320000
v -1.860000 0.914000 -0.900000
v -1.820000 0.907400 -1.320000
v -1.820000 0.907400 -1.320000
v -1.860000 0.914000 -0.900000
v -1.636800 1.250000 -0.900000
v -1.820000 0.907400 -1.320000
v -1.636800 1.250000 -0.900000
v -1.601600 1.229000 -1.320000
v -1.601600 1.229000 -1.320000
v -1.636800 1.250000 -0.900000
v -1.078800 1.460000 -0.900000
v -1.601600 1.229000 -1.320000
v -1.078800 1.460000 -0.900000
v -1.055600 1.430000 -1.320000
v -1.078800 1.460000 -0.900000
v -1.090400 1.480000 -0.550000
v 1.090400 1.480000 -0.550000
v -1.078800 1.460000 -0.900000
v 1.090400 1.480000 -0.550000
v 1.078800 1.460000 -0.900000
v 1.078800 1.460000 -0.900000
v 1.090400 1.480000 -0.550000
v 1.654400 1.264000 -0.550000
v 1.078800 1.460000 -0.900000
v 1.654400 1.264000 -0.550000
v 1.636800 1.250000 -0.900000
v 1.636800 1.250000 -0.900000
v 1.654400 1.264000 -0.550000
v 1.880000 0.918400 -0.550000
v 1.636800 1.250000 -0.900000
v 1.880000 0.918400 -0.550000
v 1.860000 0.914000 -0.900000
v 1.860000 0.914000 -0.900000
v 1.880000 0.918400 -0.550000
v 1.880000 0.356800 -0.550000
v 1.860000 0.914000 -0.900000
v 1.880000 0.356800 -0.550000
v 1.860000 0.368000 -0.900000
v 1.860000 0.368000 -0.900000
v 1.880000 0.356800 -0.550000
v 1.165600 0.040000 -0.550000
v 1.860000 0.368000 -0.900000
v 1.165600 0.040000 -0.550000
v 1.153200 0.060000 -0.900000
v 1.153200 0.060000 -0.900000
v 1.165600 0.040000 -0.550000
v -1.165600 0.040000 -0.550000
v 1.153200 0.060000 -0.900000
v -1.165600 0.040000 -0.550000
v -1.153200 0.060000 -0.900000
v -1.153200 0.060000 -0.900000
v -1.165600 0.040000 -0.550000
v -1.880000 0.356800 -0.550000
v -1.153200 0.060000 -0.900000
v -1.880000 0.356800 -0.550000
v -1.860000 0.368000 -0.900000
v -1.860000 0.368000 -0.900000
v -1.880000 0.356800 -0.550000
v -1.880000 0.918400 -0.550000
v -1.860000 0.368000 -0.900000
v -1.880000 0.918400 -0.550000
v -1.860000 0.914000 -0.900000
v -1.860000 0.914000 -0.900000
v -1.880000 0.918400 -0.550000
v -1.654400 1.264000 -0.550000
v -1.860000 0.914000 -0.900000
v -1.654400 1.264000 -0.550000
v -1.636800 1.250000 -0.900000
v -1.636800 1.250000 -0.900000
v -1.654400 1.264000 -0.550000
v -1.090400 1.480000 -0.550000
v -1.636800 1.250000 -0.900000
v -1.090400 1.480000 -0.550000
v -1.078800 1.460000 -0.900000
v -1.090400 1.480000 -0.550000
v -1.102000 1.510000 0.050000
v 1.102000 1.510000 0.050000
v -1.090400 1.480000 -0.550000
v 1.102000 1.510000 0.050000
v 1.090400 1.480000 -0.550000
v 1.090400 1.480000 -0.550000
v 1.102000 1.510000 0.050000
v 1.672000 1.285000 0.050000
v 1.090400 1.480000 -0.550000
v 1.672000 1.285000 0.050000
v 1.654400 1.264000 -0.550000
v 1.654400 1.264000 -0.550000
v 1.672000 1.285000 0.050000
v 1.900000 0.925000 0.050000
v 1.654400 1.264000 -0.550000
v 1.900000 0.925000 0.050000
v 1.880000 0.918400 -0.550000
v 1.880000 0.918400 -0.550000
v 1.900000 0.925000 0.050000
v 1.900000 0.340000 0.050000
v 1.880000 0.918400 -0.550000
v 1.900000 0.340000 0.050000
v 1.880000 0.356800 -0.550000
v 1.880000 0.356800 -0.550000
v 1.900000 0.340000 0.050000
v 1.178000 0.010000 0.050000
v 1.880000 0.356800 -0.550000
v 1.178000 0.010000 0.050000
v 1.165600 0.040000 -0.550000
v 1.165600 0.040000 -0.550000
v 1.178000 0.010000 0.050000
v -1.178000 0.010000 0.050000
v 1.165600 0.040000 -0.550000
v -1.178000 0.010000 0.050000
v -1.165600 0.040000 -0.550000
v -1.165600 0.040000 -0.550000
v -1.178000 0.010000 0.050000
v -1.900000 0.340000 0.050000
v -1.165600 0.040000 -0.550000
v -1.900000 0.340000 0.050000
v -1.880000 0.356800 -0.550000
v -1.880000 0.356800 -0.550000
v -1.900000 0.340000 0.050000
v -1.900000 0.925000 0.050000
v -1.880000 0.356800 -0.550000
v -1.900000 0.925000 0.050000
v -1.880000 0.918400 -0.550000
v -1.880000 0.918400 -0.550000
v -1.900000 0.925000 0.050000
v -1.672000 1.285000 0.050000
v -1.880000 0.918400 -0.550000
v -1.672000 1.285000 0.050000
v -1.654400 1.264000 -0.550000
v -1.654400 1.264000 -0.550000
v -1.672000 1.285000 0.050000
v -1.102000 1.510000 0.050000
v -1.654400 1.264000 -0.550000
v -1.102000 1.510000 0.050000
v -1.090400 1.480000 -0.550000
v -1.102000 1.510000 0.050000
v -1.113600 1.540000 0.720000
v 1.113600 1.540000 0.720000
v -1.102000 1.510000 0.050000
v 1.113600 1.540000 0.720000
v 1.102000 1.510000 0.050000
v 1.102000 1.510000 0.050000
v 1.113600 1.540000 0.720000
v 1.689600 1.306000 0.720000
v 1.102000 1.510000 0.050000
v 1.689600 1.306000 0.720000
v 1.672000 1.285000 0.050000
v 1.672000 1.285000 0.050000
v 1.689600 1.306000 0.720000
v 1.920000 0.931600 0.720000
v 1.672000 1.285000 0.050000
v 1.920000 0.931600 0.720000
v 1.900000 0.925000 0.050000
v 1.900000 0.925000 0.050000
v 1.920000 0.931600 0.720000
v 1.920000 0.323200 0.720000
v 1.900000 0.925000 0.050000
v 1.920000 0.323200 0.720000
v 1.900000 0.340000 0.050000
v 1.900000 0.340000 0.050000
v 1.920000 0.323200 0.720000
v 1.190400 -0.020000 0.720000
v 1.900000 0.340000 0.050000
v 1.190400 -0.020000 0.720000
v 1.178000 0.010000 0.050000
v 1.178000 0.010000 0.050000
v 1.190400 -0.020000 0.720000
v -1.190400 -0.020000 0.720000
v 1.178000 0.010000 0.050000
v -1.190400 -0.020000 0.720000
v -1.178000 0.010000 0.050000
v -1.178000 0.010000 0.050000
v -1.190400 -0.020000 0.720000
v -1.920000 0.323200 0.720000
v -1.178000 0.010000 0.050000
v -1.920000 0.323200 0.720000
v -1.900000 0.340000 0.050000
v -1.900000 0.340000 0.050000
v -1.920000 0.323200 0.720000
v -1.920000 0.931600 0.720000
v -1.900000 0.340000 0.050000
v -1.920000 0.931600 0.720000
v -1.900000 0.925000 0.050000
v -1.900000 0.925000 0.050000
v -1.920000 0.931600 0.720000
v -1.689600 1.306000 0.720000
v -1.900000 0.925000 0.050000
v -1.689600 1.306000 0.720000
v -1.672000 1.285000 0.050000
v -1.672000 1.285000 0.050000
v -1.689600 1.306000 0.720000
v -1.113600 1.540000 0.720000
v -1.672000 1.285000 0.050000
v -1.113600 1.540000 0.720000
v -1.102000 1.510000 0.050000
v -1.113600 1.540000 0.720000
v -1.113600 1.540000 1.350000
v 1.113600 1.540000 1.350000
v -1.113600 1.540000 0.720000
v 1.113600 1.540000 1.350000
v 1.113600 1.540000 0.720000
v 1.113600 1.540000 0.720000
v 1.113600 1.540000 1.350000
v 1.689600 1.306000 1.350000
v 1.113600 1.540000 0.720000
v 1.689600 1.306000 1.350000
v 1.689600 1.306000 0.720000
v 1.689600 1.306000 0.720000
v 1.689600 1.306000 1.350000
v 1.920000 0.931600 1.350000
v 1.689600 1.306000 0.720000
v 1.920000 0.931600 1.350000
v 1.920000 0.931600 0.720000
v 1.920000 0.931600 0.720000
v 1.920000 0.931600 1.350000
v 1.920000 0.323200 1.350000
v 1.920000 0.931600 0.720000
v 1.920000 0.323200 1.350000
v 1.920000 0.323200 0.720000
v 1.920000 0.323200 0.720000
v 1.920000 0.323200 1.350000
v 1.190400 -0.020000 1.350000
v 1.920000 0.323200 0.720000
v 1.190400 -0.020000 1.350000
v 1.190400 -0.020000 0.720000
v 1.190400 -0.020000 0.720000
v 1.190400 -0.020000 1.350000
v -1.190400 -0.020000 1.350000
v 1.190400 -0.020000 0.720000
v -1.190400 -0.020000 1.350000
v -1.190400 -0.020000 0.720000
v -1.190400 -0.020000 0.720000
v -1.190400 -0.020000 1.350000
v -1.920000 0.323200 1.350000
v -1.190400 -0.020000 0.720000
v -1.920000 0.323200 1.350000
v -1.920000 0.323200 0.720000
v -1.920000 0.323200 0.720000
v -1.920000 0.323200 1.350000
v -1.920000 0.931600 1.350000
v -1.920000 0.323200 0.720000
v -1.920000 0.931600 1.350000
v -1.920000 0.931600 0.720000
v -1.920000 0.931600 0.720000
v -1.920000 0.931600 1.350000
v -1.689600 1.306000 1.350000
v -1.920000 0.931600 0.720000
v -1.689600 1.306000 1.350000
v -1.689600 1.306000 0.720000
v -1.689600 1.306000 0.720000
v -1.689600 1.306000 1.350000
v -1.113600 1.540000 1.350000
v -1.689600 1.306000 0.720000
v -1.113600 1.540000 1.350000
v -1.113600 1.540000 0.720000
v -1.113600 1.540000 1.350000
v -1.113600 1.680000 2.160000
v 1.113600 1.680000 2.160000
v -1.113600 1.540000 1.350000
v 1.113600 1.680000 2.160000
v 1.113600 1.540000 1.350000
v 1.113600 1.540000 1.350000
v 1.113600 1.680000 2.160000
v 1.689600 1.404000 2.160000
v 1.113600 1.540000 1.350000
v 1.689600 1.404000 2.160000
v 1.689600 1.306000 1.350000
v 1.689600 1.306000 1.350000
v 1.689600 1.404000 2.160000
v 1.920000 0.962400 2.160000
v 1.689600 1.306000 1.350000
v 1.920000 0.962400 2.160000
v 1.920000 0.931600 1.350000
v 1.920000 0.931600 1.350000
v 1.920000 0.962400 2.160000
v 1.920000 0.244800 2.160000
v 1.920000 0.931600 1.350000
v 1.920000 0.244800 2.160000
v 1.920000 0.323200 1.350000
v 1.920000 0.323200 1.350000
v 1.920000 0.244800 2.160000
v 1.190400 -0.160000 2.160000
v 1.920000 0.323200 1.350000
v 1.190400 -0.160000 2.160000
v 1.190400 -0.020000 1.350000
v 1.190400 -0.020000 1.350000
v 1.190400 -0.160000 2.160000
v -1.190400 -0.160000 2.160000
v 1.190400 -0.020000 1.350000
v -1.190400 -0.160000 2.160000
v -1.190400 -0.020000 1.350000
v -1.190400 -0.020000 1.350000
v -1.190400 -0.160000 2.160000
v -1.920000 0.244800 2.160000
v -1.190400 -0.020000 1.350000
v -1.920000 0.244800 2.160000
v -1.920000 0.323200 1.350000
v -1.920000 0.323200 1.350000
v -1.920000 0.244800 2.160000
v -1.920000 0.962400 2.160000
v -1.920000 0.323200 1.350000
v -1.920000 0.962400 2.160000
v -1.920000 0.931600 1.350000
v -1.920000 0.931600 1.350000
v -1.920000 0.962400 2.160000
v -1.689600 1.404000 2.160000
v -1.920000 0.931600 1.350000
v -1.689600 1.404000 2.160000
v -1.689600 1.306000 1.350000
v -1.689600 1.306000 1.350000
v -1.689600 1.404000 2.160000
v -1.113600 1.680000 2.160000
v -1.689600 1.306000 1.350000
v -1.113600 1.680000 2.160000
v -1.113600 1.540000 1.350000
v -1.113600 1.680000 2.160000
v -1.113600 1.910000 3.480000
v 1.113600 1.910000 3.480000
v -1.113600 1.680000 2.160000
v 1.113600 1.910000 3.480000
v 1.113600 1.680000 2.160000
v 1.113600 1.680000 2.160000
v 1.113600 1.910000 3.480000
v 1.689600 1.565000 3.480000
v 1.113600 1.680000 2.160000
v 1.689600 1.565000 3.480000
v 1.689600 1.404000 2.160000
v 1.689600 1.404000 2.160000
v 1.689600 1.565000 3.480000
v 1.920000 1.013000 3.480000
v 1.689600 1.404000 2.160000
v 1.920000 1.013000 3.480000
v 1.920000 0.962400 2.160000
v 1.920000 0.962400 2.160000
v 1.920000 1.013000 3.480000
v 1.920000 0.116000 3.480000
v 1.920000 0.962400 2.160000
v 1.920000 0.116000 3.480000
v 1.920000 0.244800 2.160000
v 1.920000 0.244800 2.160000
v 1.920000 0.116000 3.480000
v 1.190400 -0.390000 3.480000
v 1.920000 0.244800 2.160000
v 1.190400 -0.390000 3.480000
v 1.190400 -0.160000 2.160000
v 1.190400 -0.160000 2.160000
v 1.190400 -0.390000 3.480000
v -1.190400 -0.390000 3.480000
v 1.190400 -0.160000 2.160000
v -1.190400 -0.390000 3.480000
v -1.190400 -0.160000 2.160000
v -1.190400 -0.160000 2.160000
v -1.190400 -0.390000 3.480000
v -1.920000 0.116000 3.480000
v -1.190400 -0.160000 2.160000
v -1.920000 0.116000 3.480000
v -1.920000 0.244800 2.160000
v -1.920000 0.244800 2.160000
v -1.920000 0.116000 3.480000
v -1.920000 1.013000 3.480000
v -1.920000 0.244800 2.160000
v -1.920000 1.013000 3.480000
v -1.920000 0.962400 2.160000
v -1.920000 0.962400 2.160000
v -1.920000 1.013000 3.480000
v -1.689600 1.565000 3.480000
v -1.920000 0.962400 2.160000
v -1.689600 1.565000 3.480000
v -1.689600 1.404000 2.160000
v -1.689600 1.404000 2.160000
v -1.689600 1.565000 3.480000
v -1.113600 1.910000 3.480000
v -1.689600 1.404000 2.160000
v -1.113600 1.910000 3.480000
v -1.113600 1.680000 2.160000
v 0.000000 0.806080 -1.700000
v 1.032400 1.400000 -1.700000
v -1.032400 1.400000 -1.700000
v 0.000000 0.806080 -1.700000
v 1.566400 1.208000 -1.700000
v 1.032400 1.400000 -1.700000
v 0.000000 0.806080 -1.700000
v 1.780000 0.900800 -1.700000
v 1.566400 1.208000 -1.700000
v 0.000000 0.806080 -1.700000
v 1.780000 0.401600 -1.700000
v 1.780000 0.900800 -1.700000
v 0.000000 0.806080 -1.700000
v 1.103600 0.120000 -1.700000
v 1.780000 0.401600 -1.700000
v 0.000000 0.806080 -1.700000
v -1.103600 0.120000 -1.700000
v 1.103600 0.120000 -1.700000
v 0.000000 0.806080 -1.700000
v -1.780000 0.401600 -1.700000
v -1.103600 0.120000 -1.700000
v 0.000000 0.806080 -1.700000
v -1.780000 0.900800 -1.700000
v -1.780000 0.401600 -1.700000
v 0.000000 0.806080 -1.700000
v -1.566400 1.208000 -1.700000
v -1.780000 0.900800 -1.700000
v 0.000000 0.806080 -1.700000
v -1.032400 1.400000 -1.700000
v -1.566400 1.208000 -1.700000
v 0.000000 0.842800 3.480000
v -1.113600 1.910000 3.480000
v 1.113600 1.910000 3.480000
v 0.000000 0.842800 3.480000
v 1.113600 1.910000 3.480000
v 1.689600 1.565000 3.480000
v 0.000000 0.842800 3.480000
v 1.689600 1.565000 3.480000
v 1.920000 1.013000 3.480000
v 0.000000 0.842800 3.480000
v 1.920000 1.013000 3.480000
v 1.920000 0.116000 3.480000
v 0.000000 0.842800 3.480000
v 1.920000 0.116000 3.480000
v 1.190400 -0.390000 3.480000
v 0.000000 0.842800 3.480000
v 1.190400 -0.390000 3.480000
v -1.190400 -0.390000 3.480000
v 0.000000 0.842800 3.480000
v -1.190400 -0.390000 3.480000
v -1.920000 0.116000 3.480000
v 0.000000 0.842800 3.480000
v -1.920000 0.116000 3.480000
v -1.920000 1.013000 3.480000
v 0.000000 0.842800 3.480000
v -1.920000 1.013000 3.480000
v -1.689600 1.565000 3.480000
v 0.000000 0.842800 3.480000
v -1.689600 1.565000 3.480000
v -1.113600 1.910000 3.480000
vt 0.033646 0.656000
vt 0.033306 0.644849
vt 0.064294 0.644849
vt 0.033646 0.656000
vt 0.064294 0.644849
vt 0.063954 0.656000
vt 0.063954 0.656000
vt 0.064294 0.644849
vt 0.072308 0.644849
vt 0.063954 0.656000
vt 0.072308 0.644849
vt 0.071792 0.656000
vt 0.024000 0.861449
vt 0.027639 0.859246
vt 0.027639 0.892982
vt 0.024000 0.861449
vt 0.027639 0.892982
vt 0.024000 0.893675
vt 0.024000 0.893675
vt 0.027639 0.892982
vt 0.027639 0.947803
vt 0.024000 0.893675
vt 0.027639 0.947803
vt 0.024000 0.946041
vt 0.071792 0.344000
vt 0.072308 0.355151
vt 0.063375 0.355151
vt 0.071792 0.344000
vt 0.063375 0.355151
vt 0.063055 0.344000
vt 0.063055 0.344000
vt 0.063375 0.355151
vt 0.034225 0.355151
vt 0.063055 0.344000
vt 0.034225 0.355151
vt 0.034545 0.344000
vt 0.034545 0.344000
vt 0.034225 0.355151
vt 0.025292 0.355151
vt 0.034545 0.344000
vt 0.025292 0.355151
vt 0.025808 0.344000
vt 0.073600 0.786041
vt 0.069961 0.787803
vt 0.069961 0.732982
vt 0.073600 0.786041
vt 0.069961 0.732982
vt 0.073600 0.733675
vt 0.073600 0.733675
vt 0.069961 0.732982
vt 0.069961 0.699246
vt 0.073600 0.733675
vt 0.069961 0.699246
vt 0.073600 0.701449
vt 0.025808 0.656000
vt 0.025292 0.644849
vt 0.033306 0.644849
vt 0.025808 0.656000
vt 0.033306 0.644849
vt 0.033646 0.656000
vt 0.033306 0.644849
vt 0.032965 0.632525
vt 0.064635 0.632525
vt 0.033306 0.644849
vt 0.064635 0.632525
vt 0.064294 0.644849
vt 0.064294 0.644849
vt 0.064635 0.632525
vt 0.072825 0.632525
vt 0.064294 0.644849
vt 0.072825 0.632525
vt 0.072308 0.644849
vt 0.027639 0.859246
vt 0.031660 0.857043
vt 0.031660 0.892290
vt 0.027639 0.859246
vt 0.031660 0.892290
vt 0.027639 0.892982
vt 0.027639 0.892982
vt 0.031660 0.892290
vt 0.031660 0.949565
vt 0.027639 0.892982
vt 0.031660 0.949565
vt 0.027639 0.947803
vt 0.072308 0.355151
vt 0.072825 0.367475
vt 0.063696 0.367475
vt 0.072308 0.355151
vt 0.063696 0.367475
vt 0.063375 0.355151
vt 0.063375 0.355151
vt 0.063696 0.367475
vt 0.033905 0.367475
vt 0.063375 0.355151
vt 0.033905 0.367475
vt 0.034225 0.355151
vt 0.034225 0.355151
vt 0.033905 0.367475
vt 0.024775 0.367475
vt 0.034225 0.355151
vt 0.024775 0.367475
vt 0.025292 0.355151
vt 0.069961 0.787803
vt 0.065940 0.789565
vt 0.065940 0.732290
vt 0.069961 0.787803
vt 0.065940 0.732290
vt 0.069961 0.732982
vt 0.069961 0.732982
vt 0.065940 0.732290
vt 0.065940 0.697044
vt 0.069961 0.732982
vt 0.065940 0.697044
vt 0.069961 0.699246
vt 0.025292 0.644849
vt 0.024775 0.632525
vt 0.032965 0.632525
vt 0.025292 0.644849
vt 0.032965 0.632525
vt 0.033306 0.644849
vt 0.032965 0.632525
vt 0.032795 0.622255
vt 0.064805 0.622255
vt 0.032965 0.632525
vt 0.064805 0.622255
vt 0.064635 0.632525
vt 0.064635 0.632525
vt 0.064805 0.622255
vt 0.073083 0.622255
vt 0.064635 0.632525
vt 0.073083 0.622255
vt 0.072825 0.632525
vt 0.031660 0.857043
vt 0.035012 0.855575
vt 0.035012 0.891828
vt 0.031660 0.857043
vt 0.035012 0.891828
vt 0.031660 0.892290
vt 0.031660 0.892290
vt 0.035012 0.891828
vt 0.035012 0.950740
vt 0.031660 0.892290
vt 0.035012 0.950740
vt 0.031660 0.949565
vt 0.072825 0.367475
vt 0.073083 0.377745
vt 0.063856 0.377745
vt 0.072825 0.367475
vt 0.063856 0.377745
vt 0.063696 0.367475
vt 0.063696 0.367475
vt 0.063856 0.377745
vt 0.033744 0.377745
vt 0.063696 0.367475
vt 0.033744 0.377745
vt 0.033905 0.367475
vt 0.033905 0.367475
vt 0.033744 0.377745
vt 0.024517 0.377745
vt 0.033905 0.367475
vt 0.024517 0.377745
vt 0.024775 0.367475
vt 0.065940 0.789565
vt 0.062588 0.790740
vt 0.062588 0.731828
vt 0.065940 0.789565
vt 0.062588 0.731828
vt 0.065940 0.732290
vt 0.065940 0.732290
vt 0.062588 0.731828
vt 0.062588 0.695575
vt 0.065940 0.732290
vt 0.062588 0.695575
vt 0.065940 0.697044
vt 0.024775 0.632525
vt 0.024517 0.622255
vt 0.032795 0.622255
vt 0.024775 0.632525
vt 0.032795 0.622255
vt 0.032965 0.632525
vt 0.032795 0.622255
vt 0.032625 0.604649
vt 0.064975 0.604649
vt 0.032795 0.622255
vt 0.064975 0.604649
vt 0.064805 0.622255
vt 0.064805 0.622255
vt 0.064975 0.604649
vt 0.073342 0.604649
vt 0.064805 0.622255
vt 0.073342 0.604649
vt 0.073083 0.622255
vt 0.035012 0.855575
vt 0.040757 0.853372
vt 0.040757 0.891136
vt 0.035012 0.855575
vt 0.040757 0.891136
vt 0.035012 0.891828
vt 0.035012 0.891828
vt 0.040757 0.891136
vt 0.040757 0.952502
vt 0.035012 0.891828
vt 0.040757 0.952502
vt 0.035012 0.950740
vt 0.073083 0.377745
vt 0.073342 0.395351
vt 0.064016 0.395351
vt 0.073083 0.377745
vt 0.064016 0.395351
vt 0.063856 0.377745
vt 0.063856 0.377745
vt 0.064016 0.395351
vt 0.033584 0.395351
vt 0.063856 0.377745
vt 0.033584 0.395351
vt 0.033744 0.377745
vt 0.033744 0.377745
vt 0.033584 0.395351
vt 0.024258 0.395351
vt 0.033744 0.377745
vt 0.024258 0.395351
vt 0.024517 0.377745
vt 0.062588 0.790740
vt 0.056843 0.792502
vt 0.056843 0.731136
vt 0.062588 0.790740
vt 0.056843 0.731136
vt 0.062588 0.731828
vt 0.062588 0.731828
vt 0.056843 0.731136
vt 0.056843 0.693372
vt 0.062588 0.731828
vt 0.056843 0.693372
vt 0.062588 0.695575
vt 0.024517 0.622255
vt 0.024258 0.604649
vt 0.032625 0.604649
vt 0.024517 0.622255
vt 0.032625 0.604649
vt 0.032795 0.622255
vt 0.032625 0.604649
vt 0.032455 0.584988
vt 0.065145 0.584988
vt 0.032625 0.604649
vt 0.065145 0.584988
vt 0.064975 0.604649
vt 0.064975 0.604649
vt 0.065145 0.584988
vt 0.073600 0.584988
vt 0.064975 0.604649
vt 0.073600 0.584988
vt 0.073342 0.604649
vt 0.040757 0.853372
vt 0.047172 0.851169
vt 0.047172 0.890444
vt 0.040757 0.853372
vt 0.047172 0.890444
vt 0.040757 0.891136
vt 0.040757 0.891136
vt 0.047172 0.890444
vt 0.047172 0.954265
vt 0.040757 0.891136
vt 0.047172 0.954265
vt 0.040757 0.952502
vt 0.073342 0.395351
vt 0.073600 0.415012
vt 0.064176 0.415012
vt 0.073342 0.395351
vt 0.064176 0.415012
vt 0.064016 0.395351
vt 0.064016 0.395351
vt 0.064176 0.415012
vt 0.033424 0.415012
vt 0.064016 0.395351
vt 0.033424 0.415012
vt 0.033584 0.395351
vt 0.033584 0.395351
vt 0.033424 0.415012
vt 0.024000 0.415012
vt 0.033584 0.395351
vt 0.024000 0.415012
vt 0.024258 0.395351
vt 0.056843 0.792502
vt 0.050428 0.794265
vt 0.050428 0.730444
vt 0.056843 0.792502
vt 0.050428 0.730444
vt 0.056843 0.731136
vt 0.056843 0.731136
vt 0.050428 0.730444
vt 0.050428 0.691169
vt 0.056843 0.731136
vt 0.050428 0.691169
vt 0.056843 0.693372
vt 0.024258 0.604649
vt 0.024000 0.584988
vt 0.032455 0.584988
vt 0.024258 0.604649
vt 0.032455 0.584988
vt 0.032625 0.604649
vt 0.032455 0.584988
vt 0.032455 0.566502
vt 0.065145 0.566502
vt 0.032455 0.584988
vt 0.065145 0.566502
vt 0.065145 0.584988
vt 0.065145 0.584988
vt 0.065145 0.566502
vt 0.073600 0.566502
vt 0.065145 0.584988
vt 0.073600 0.566502
vt 0.073600 0.584988
vt 0.047172 0.851169
vt 0.053205 0.851169
vt 0.053205 0.890444
vt 0.047172 0.851169
vt 0.053205 0.890444
vt 0.047172 0.890444
vt 0.047172 0.890444
vt 0.053205 0.890444
vt 0.053205 0.954265
vt 0.047172 0.890444
vt 0.053205 0.954265
vt 0.047172 0.954265
vt 0.073600 0.415012
vt 0.073600 0.433498
vt 0.064176 0.433498
vt 0.073600 0.415012
vt 0.064176 0.433498
vt 0.064176 0.415012
vt 0.064176 0.415012
vt 0.064176 0.433498
vt 0.033424 0.433498
vt 0.064176 0.415012
vt 0.033424 0.433498
vt 0.033424 0.415012
vt 0.033424 0.415012
vt 0.033424 0.433498
vt 0.024000 0.433498
vt 0.033424 0.415012
vt 0.024000 0.433498
vt 0.024000 0.415012
vt 0.050428 0.794265
vt 0.044395 0.794265
vt 0.044395 0.730444
vt 0.050428 0.794265
vt 0.044395 0.730444
vt 0.050428 0.730444
vt 0.050428 0.730444
vt 0.044395 0.730444
vt 0.044395 0.691169
vt 0.050428 0.730444
vt 0.044395 0.691169
vt 0.050428 0.691169
vt 0.024000 0.584988
vt 0.024000 0.566502
vt 0.032455 0.566502
vt 0.024000 0.584988
vt 0.032455 0.566502
vt 0.032455 0.584988
vt 0.032455 0.566502
vt 0.032455 0.542734
vt 0.065145 0.542734
vt 0.032455 0.566502
vt 0.065145 0.542734
vt 0.065145 0.566502
vt 0.065145 0.566502
vt 0.065145 0.542734
vt 0.073600 0.542734
vt 0.065145 0.566502
vt 0.073600 0.542734
vt 0.073600 0.566502
vt 0.053205 0.851169
vt 0.060961 0.840889
vt 0.060961 0.887213
vt 0.053205 0.851169
vt 0.060961 0.887213
vt 0.053205 0.890444
vt 0.053205 0.890444
vt 0.060961 0.887213
vt 0.060961 0.962489
vt 0.053205 0.890444
vt 0.060961 0.962489
vt 0.053205 0.954265
vt 0.073600 0.433498
vt 0.073600 0.457266
vt 0.064176 0.457266
vt 0.073600 0.433498
vt 0.064176 0.457266
vt 0.064176 0.433498
vt 0.064176 0.433498
vt 0.064176 0.457266
vt 0.033424 0.457266
vt 0.064176 0.433498
vt 0.033424 0.457266
vt 0.033424 0.433498
vt 0.033424 0.433498
vt 0.033424 0.457266
vt 0.024000 0.457266
vt 0.033424 0.433498
vt 0.024000 0.457266
vt 0.024000 0.433498
vt 0.044395 0.794265
vt 0.036639 0.802489
vt 0.036639 0.727213
vt 0.044395 0.794265
vt 0.036639 0.727213
vt 0.044395 0.730444
vt 0.044395 0.730444
vt 0.036639 0.727213
vt 0.036639 0.680889
vt 0.044395 0.730444
vt 0.036639 0.680889
vt 0.044395 0.691169
vt 0.024000 0.566502
vt 0.024000 0.542734
vt 0.032455 0.542734
vt 0.024000 0.566502
vt 0.032455 0.542734
vt 0.032455 0.566502
vt 0.032455 0.542734
vt 0.032455 0.504000
vt 0.065145 0.504000
vt 0.032455 0.542734
vt 0.065145 0.504000
vt 0.065145 0.542734
vt 0.065145 0.542734
vt 0.065145 0.504000
vt 0.073600 0.504000
vt 0.065145 0.542734
vt 0.073600 0.504000
vt 0.073600 0.542734
vt 0.060961 0.840889
vt 0.073600 0.824000
vt 0.073600 0.881905
vt 0.060961 0.840889
vt 0.073600 0.881905
vt 0.060961 0.887213
vt 0.060961 0.887213
vt 0.073600 0.881905
vt 0.073600 0.976000
vt 0.060961 0.887213
vt 0.073600 0.976000
vt 0.060961 0.962489
vt 0.073600 0.457266
vt 0.073600 0.496000
vt 0.064176 0.496000
vt 0.073600 0.457266
vt 0.064176 0.496000
vt 0.064176 0.457266
vt 0.064176 0.457266
vt 0.064176 0.496000
vt 0.033424 0.496000
vt 0.064176 0.457266
vt 0.033424 0.496000
vt 0.033424 0.457266
vt 0.033424 0.457266
vt 0.033424 0.496000
vt 0.024000 0.496000
vt 0.033424 0.457266
vt 0.024000 0.496000
vt 0.024000 0.457266
vt 0.036639 0.802489
vt 0.024000 0.816000
vt 0.024000 0.721905
vt 0.036639 0.802489
vt 0.024000 0.721905
vt 0.036639 0.727213
vt 0.036639 0.727213
vt 0.024000 0.721905
vt 0.024000 0.664000
vt 0.036639 0.727213
vt 0.024000 0.664000
vt 0.036639 0.680889
vt 0.024000 0.542734
vt 0.024000 0.504000
vt 0.032455 0.504000
vt 0.024000 0.542734
vt 0.032455 0.504000
vt 0.032455 0.542734
vt 0.048800 0.254528
vt 0.034416 0.184000
vt 0.063184 0.184000
vt 0.048800 0.254528
vt 0.026976 0.206800
vt 0.034416 0.184000
vt 0.048800 0.254528
vt 0.024000 0.243280
vt 0.026976 0.206800
vt 0.048800 0.254528
vt 0.024000 0.302560
vt 0.024000 0.243280
vt 0.048800 0.254528
vt 0.033424 0.336000
vt 0.024000 0.302560
vt 0.048800 0.254528
vt 0.064176 0.336000
vt 0.033424 0.336000
vt 0.048800 0.254528
vt 0.073600 0.302560
vt 0.064176 0.336000
vt 0.048800 0.254528
vt 0.073600 0.243280
vt 0.073600 0.302560
vt 0.048800 0.254528
vt 0.070624 0.206800
vt 0.073600 0.243280
vt 0.048800 0.254528
vt 0.063184 0.184000
vt 0.070624 0.206800
vt 0.048800 0.094528
vt 0.034416 0.024000
vt 0.063184 0.024000
vt 0.048800 0.094528
vt 0.063184 0.024000
vt 0.070624 0.046800
vt 0.048800 0.094528
vt 0.070624 0.046800
vt 0.073600 0.083280
vt 0.048800 0.094528
vt 0.073600 0.083280
vt 0.073600 0.142560
vt 0.048800 0.094528
vt 0.073600 0.142560
vt 0.064176 0.176000
vt 0.048800 0.094528
vt 0.064176 0.176000
vt 0.033424 0.176000
vt 0.048800 0.094528
vt 0.033424 0.176000
vt 0.024000 0.142560
vt 0.048800 0.094528
vt 0.024000 0.142560
vt 0.024000 0.083280
vt 0.048800 0.094528
vt 0.024000 0.083280
vt 0.026976 0.046800
vt 0.048800 0.094528
vt 0.026976 0.046800
vt 0.034416 0.024000
vn 0.000000 0.996898 -0.078703
vn 0.000000 0.996898 -0.078703
vn 0.000000 0.996898 -0.078703
vn 0.000000 0.996898 -0.078703
vn 0.000000 0.996898 -0.078703
vn 0.000000 0.996898 -0.078703
vn 0.343912 0.934209 -0.094750
vn 0.343912 0.934209 -0.094750
vn 0.343912 0.934209 -0.094750
vn 0.337176 0.937771 -0.083058
vn 0.337176 0.937771 -0.083058
vn 0.337176 0.937771 -0.083058
vn 0.822516 0.558574 -0.107060
vn 0.822516 0.558574 -0.107060
vn 0.822516 0.558574 -0.107060
vn 0.817252 0.568246 -0.095896
vn 0.817252 0.568246 -0.095896
vn 0.817252 0.568246 -0.095896
vn 0.994505 0.000000 -0.104685
vn 0.994505 0.000000 -0.104685
vn 0.994505 0.000000 -0.104685
vn 0.994505 0.000000 -0.104685
vn 0.994505 0.000000 -0.104685
vn 0.994505 0.000000 -0.104685
vn 0.390811 -0.916841 -0.081672
vn 0.390811 -0.916841 -0.081672
vn 0.390811 -0.916841 -0.081672
vn 0.382513 -0.918791 -0.097500
vn 0.382513 -0.918791 -0.097500
vn 0.382513 -0.918791 -0.097500
vn 0.000000 -0.996898 -0.078703
vn 0.000000 -0.996898 -0.078703
vn 0.000000 -0.996898 -0.078703
vn 0.000000 -0.996898 -0.078703
vn 0.000000 -0.996898 -0.078703
vn 0.000000 -0.996898 -0.078703
vn -0.390243 -0.915509 -0.097746
vn -0.390243 -0.915509 -0.097746
vn -0.390243 -0.915509 -0.097746
vn -0.383081 -0.920156 -0.081005
vn -0.383081 -0.920156 -0.081005
vn -0.383081 -0.920156 -0.081005
vn -0.994505 0.000000 -0.104685
vn -0.994505 0.000000 -0.104685
vn -0.994505 0.000000 -0.104685
vn -0.994505 0.000000 -0.104685
vn -0.994505 0.000000 -0.104685
vn -0.994505 0.000000 -0.104685
vn -0.823419 0.559188 -0.096388
vn -0.823419 0.559188 -0.096388
vn -0.823419 0.559188 -0.096388
vn -0.816324 0.567600 -0.106985
vn -0.816324 0.567600 -0.106985
vn -0.816324 0.567600 -0.106985
vn -0.344258 0.935148 -0.083569
vn -0.344258 0.935148 -0.083569
vn -0.344258 0.935148 -0.083569
vn -0.336830 0.936809 -0.094523
vn -0.336830 0.936809 -0.094523
vn -0.336830 0.936809 -0.094523
vn 0.000000 0.997459 -0.071247
vn 0.000000 0.997459 -0.071247
vn 0.000000 0.997459 -0.071247
vn 0.000000 0.997459 -0.071247
vn 0.000000 0.997459 -0.071247
vn 0.000000 0.997459 -0.071247
vn 0.350922 0.932449 -0.085988
vn 0.350922 0.932449 -0.085988
vn 0.350922 0.932449 -0.085988
vn 0.344476 0.935741 -0.075658
vn 0.344476 0.935741 -0.075658
vn 0.344476 0.935741 -0.075658
vn 0.829035 0.550716 -0.097017
vn 0.829035 0.550716 -0.097017
vn 0.829035 0.550716 -0.097017
vn 0.824114 0.559659 -0.087282
vn 0.824114 0.559659 -0.087282
vn 0.824114 0.559659 -0.087282
vn 0.995495 0.000000 -0.094809
vn 0.995495 0.000000 -0.094809
vn 0.995495 0.000000 -0.094809
vn 0.995495 0.000000 -0.094809
vn 0.995495 0.000000 -0.094809
vn 0.995495 0.000000 -0.094809
vn 0.398374 -0.914192 -0.074508
vn 0.398374 -0.914192 -0.074508
vn 0.398374 -0.914192 -0.074508
vn 0.390582 -0.916303 -0.088513
vn 0.390582 -0.916303 -0.088513
vn 0.390582 -0.916303 -0.088513
vn 0.000000 -0.997459 -0.071247
vn 0.000000 -0.997459 -0.071247
vn 0.000000 -0.997459 -0.071247
vn 0.000000 -0.997459 -0.071247
vn 0.000000 -0.997459 -0.071247
vn 0.000000 -0.997459 -0.071247
vn -0.397910 -0.913125 -0.088719
vn -0.397910 -0.913125 -0.088719
vn -0.397910 -0.913125 -0.088719
vn -0.391047 -0.917396 -0.073938
vn -0.391047 -0.917396 -0.073938
vn -0.391047 -0.917396 -0.073938
vn -0.995495 0.000000 -0.094809
vn -0.995495 0.000000 -0.094809
vn -0.995495 0.000000 -0.094809
vn -0.995495 0.000000 -0.094809
vn -0.995495 0.000000 -0.094809
vn -0.995495 0.000000 -0.094809
vn -0.829756 0.551195 -0.087686
vn -0.829756 0.551195 -0.087686
vn -0.829756 0.551195 -0.087686
vn -0.823373 0.559156 -0.096964
vn -0.823373 0.559156 -0.096964
vn -0.823373 0.559156 -0.096964
vn -0.351205 0.933201 -0.076094
vn -0.351205 0.933201 -0.076094
vn -0.351205 0.933201 -0.076094
vn -0.344193 0.934971 -0.085796
vn -0.344193 0.934971 -0.085796
vn -0.344193 0.934971 -0.085796
vn 0.000000 0.998371 -0.057050
vn 0.000000 0.998371 -0.057050
vn 0.000000 0.998371 -0.057050
vn 0.000000 0.998371 -0.057050
vn 0.000000 0.998371 -0.057050
vn 0.000000 0.998371 -0.057050
vn 0.356889 0.931877 -0.065078
vn 0.356889 0.931877 -0.065078
vn 0.356889 0.931877 -0.065078
vn 0.351692 0.934495 -0.055065
vn 0.351692 0.934495 -0.055065
vn 0.351692 0.934495 -0.055065
vn 0.835671 0.545507 -0.063843
vn 0.835671 0.545507 -0.063843
vn 0.835671 0.545507 -0.063843
vn 0.831728 0.552505 -0.054473
vn 0.831728 0.552505 -0.054473
vn 0.831728 0.552505 -0.054473
vn 0.998371 0.000000 -0.057050
vn 0.998371 0.000000 -0.057050
vn 0.998371 0.000000 -0.057050
vn 0.998371 0.000000 -0.057050
vn 0.998371 0.000000 -0.057050
vn 0.998371 0.000000 -0.057050
vn 0.404823 -0.912896 -0.052345
vn 0.404823 -0.912896 -0.052345
vn 0.404823 -0.912896 -0.052345
vn 0.398603 -0.914717 -0.066392
vn 0.398603 -0.914717 -0.066392
vn 0.398603 -0.914717 -0.066392
vn 0.000000 -0.998371 -0.057050
vn 0.000000 -0.998371 -0.057050
vn 0.000000 -0.998371 -0.057050
vn 0.000000 -0.998371 -0.057050
vn 0.000000 -0.998371 -0.057050
vn 0.000000 -0.998371 -0.057050
vn -0.404483 -0.912128 -0.066452
vn -0.404483 -0.912128 -0.066452
vn -0.404483 -0.912128 -0.066452
vn -0.398942 -0.915495 -0.052093
vn -0.398942 -0.915495 -0.052093
vn -0.398942 -0.915495 -0.052093
vn -0.998371 0.000000 -0.057050
vn -0.998371 0.000000 -0.057050
vn -0.998371 0.000000 -0.057050
vn -0.998371 0.000000 -0.057050
vn -0.998371 0.000000 -0.057050
vn -0.998371 0.000000 -0.057050
vn -0.836128 0.545806 -0.054640
vn -0.836128 0.545806 -0.054640
vn -0.836128 0.545806 -0.054640
vn -0.831263 0.552196 -0.063888
vn -0.831263 0.552196 -0.063888
vn -0.831263 0.552196 -0.063888
vn -0.357101 0.932430 -0.055254
vn -0.357101 0.932430 -0.055254
vn -0.357101 0.932430 -0.055254
vn -0.351481 0.933935 -0.065017
vn -0.351481 0.933935 -0.065017
vn -0.351481 0.933935 -0.065017
vn 0.000000 0.998752 -0.049938
vn 0.000000 0.998752 -0.049938
vn 0.000000 0.998752 -0.049938
vn 0.000000 0.998752 -0.049938
vn 0.000000 0.998752 -0.049938
vn 0.000000 0.998752 -0.049938
vn 0.366640 0.928822 -0.053529
vn 0.366640 0.928822 -0.053529
vn 0.366640 0.928822 -0.053529
vn 0.357314 0.932988 -0.043136
vn 0.357314 0.932988 -0.043136
vn 0.357314 0.932988 -0.043136
vn 0.844021 0.534547 -0.043467
vn 0.844021 0.534547 -0.043467
vn 0.844021 0.534547 -0.043467
vn 0.836898 0.546308 -0.033906
vn 0.836898 0.546308 -0.033906
vn 0.836898 0.546308 -0.033906
vn 0.999445 0.000000 -0.033315
vn 0.999445 0.000000 -0.033315
vn 0.999445 0.000000 -0.033315
vn 0.999445 0.000000 -0.033315
vn 0.999445 0.000000 -0.033315
vn 0.999445 0.000000 -0.033315
vn 0.415379 -0.908799 -0.039292
vn 0.415379 -0.908799 -0.039292
vn 0.415379 -0.908799 -0.039292
vn 0.404787 -0.912815 -0.054006
vn 0.404787 -0.912815 -0.054006
vn 0.404787 -0.912815 -0.054006
vn 0.000000 -0.998752 -0.049938
vn 0.000000 -0.998752 -0.049938
vn 0.000000 -0.998752 -0.049938
vn 0.000000 -0.998752 -0.049938
vn 0.000000 -0.998752 -0.049938
vn 0.000000 -0.998752 -0.049938
vn -0.415094 -0.908175 -0.053987
vn -0.415094 -0.908175 -0.053987
vn -0.415094 -0.908175 -0.053987
vn -0.405069 -0.913451 -0.039079
vn -0.405069 -0.913451 -0.039079
vn -0.405069 -0.913451 -0.039079
vn -0.999445 0.000000 -0.033315
vn -0.999445 0.000000 -0.033315
vn -0.999445 0.000000 -0.033315
vn -0.999445 0.000000 -0.033315
vn -0.999445 0.000000 -0.033315
vn -0.999445 0.000000 -0.033315
vn -0.844330 0.534742 -0.034026
vn -0.844330 0.534742 -0.034026
vn -0.844330 0.534742 -0.034026
vn -0.836581 0.546101 -0.043653
vn -0.836581 0.546101 -0.043653
vn -0.836581 0.546101 -0.043653
vn -0.366822 0.929283 -0.043285
vn -0.366822 0.929283 -0.043285
vn -0.366822 0.929283 -0.043285
vn -0.357134 0.932518 -0.053530
vn -0.357134 0.932518 -0.053530
vn -0.357134 0.932518 -0.053530
vn 0.000000 0.998999 -0.044731
vn 0.000000 0.998999 -0.044731
vn 0.000000 0.998999 -0.044731
vn 0.000000 0.998999 -0.044731
vn 0.000000 0.998999 -0.044731
vn 0.000000 0.998999 -0.044731
vn 0.375944 0.925401 -0.047945
vn 0.375944 0.925401 -0.047945
vn 0.375944 0.925401 -0.047945
vn 0.366891 0.929456 -0.038770
vn 0.366891 0.929456 -0.038770
vn 0.366891 0.929456 -0.038770
vn 0.851018 0.523703 -0.038770
vn 0.851018 0.523703 -0.038770
vn 0.851018 0.523703 -0.038770
vn 0.844427 0.534804 -0.030475
vn 0.844427 0.534804 -0.030475
vn 0.844427 0.534804 -0.030475
vn 0.999555 0.000000 -0.029837
vn 0.999555 0.000000 -0.029837
vn 0.999555 0.000000 -0.029837
vn 0.999555 0.000000 -0.029837
vn 0.999555 0.000000 -0.029837
vn 0.999555 0.000000 -0.029837
vn 0.425387 -0.904320 -0.035374
vn 0.425387 -0.904320 -0.035374
vn 0.425387 -0.904320 -0.035374
vn 0.415214 -0.908437 -0.048361
vn 0.415214 -0.908437 -0.048361
vn 0.415214 -0.908437 -0.048361
vn 0.000000 -0.998999 -0.044731
vn 0.000000 -0.998999 -0.044731
vn 0.000000 -0.998999 -0.044731
vn 0.000000 -0.998999 -0.044731
vn 0.000000 -0.998999 -0.044731
vn 0.000000 -0.998999 -0.044731
vn -0.425156 -0.903828 -0.048338
vn -0.425156 -0.903828 -0.048338
vn -0.425156 -0.903828 -0.048338
vn -0.415443 -0.908938 -0.035193
vn -0.415443 -0.908938 -0.035193
vn -0.415443 -0.908938 -0.035193
vn -0.999555 0.000000 -0.029837
vn -0.999555 0.000000 -0.029837
vn -0.999555 0.000000 -0.029837
vn -0.999555 0.000000 -0.029837
vn -0.999555 0.000000 -0.029837
vn -0.999555 0.000000 -0.029837
vn -0.851260 0.523852 -0.030571
vn -0.851260 0.523852 -0.030571
vn -0.851260 0.523852 -0.030571
vn -0.844178 0.534647 -0.038933
vn -0.844178 0.534647 -0.038933
vn -0.844178 0.534647 -0.038933
vn -0.376092 0.925766 -0.038896
vn -0.376092 0.925766 -0.038896
vn -0.376092 0.925766 -0.038896
vn -0.366744 0.929085 -0.047950
vn -0.366744 0.929085 -0.047950
vn -0.366744 0.929085 -0.047950
vn 0.000000 1.000000 0.000000
vn 0.000000 1.000000 0.000000
vn 0.000000 1.000000 0.000000
vn 0.000000 1.000000 0.000000
vn 0.000000 1.000000 0.000000
vn 0.000000 1.000000 0.000000
vn 0.376377 0.926467 0.000000
vn 0.376377 0.926467 0.000000
vn 0.376377 0.926467 0.000000
vn 0.376377 0.926467 0.000000
vn 0.376377 0.926467 0.000000
vn 0.376377 0.926467 0.000000
vn 0.851658 0.524097 0.000000
vn 0.851658 0.524097 0.000000
vn 0.851658 0.524097 0.000000
vn 0.851658 0.524097 0.000000
vn 0.851658 0.524097 0.000000
vn 0.851658 0.524097 0.000000
vn 1.000000 0.000000 0.000000
vn 1.000000 0.000000 0.000000
vn 1.000000 0.000000 0.000000
vn 1.000000 0.000000 0.000000
vn 1.000000 0.000000 0.000000
vn 1.000000 0.000000 0.000000
vn 0.425654 -0.904886 0.000000
vn 0.425654 -0.904886 0.000000
vn 0.425654 -0.904886 0.000000
vn 0.425654 -0.904886 0.000000
vn 0.425654 -0.904886 0.000000
vn 0.425654 -0.904886 0.000000
vn 0.000000 -1.000000 0.000000
vn 0.000000 -1.000000 0.000000
vn 0.000000 -1.000000 0.000000
vn 0.000000 -1.000000 0.000000
vn 0.000000 -1.000000 0.000000
vn 0.000000 -1.000000 0.000000
vn -0.425654 -0.904886 0.000000
vn -0.425654 -0.904886 0.000000
vn -0.425654 -0.904886 0.000000
vn -0.425654 -0.904886 0.000000
vn -0.425654 -0.904886 0.000000
vn -0.425654 -0.904886 0.000000
vn -1.000000 0.000000 0.000000
vn -1.000000 0.000000 0.000000
vn -1.000000 0.000000 0.000000
vn -1.000000 0.000000 0.000000
vn -1.000000 0.000000 0.000000
vn -1.000000 0.000000 0.000000
vn -0.851658 0.524097 0.000000
vn -0.851658 0.524097 0.000000
vn -0.851658 0.524097 0.000000
vn -0.851658 0.524097 0.000000
vn -0.851658 0.524097 0.000000
vn -0.851658 0.524097 0.000000
vn -0.376377 0.926467 0.000000
vn -0.376377 0.926467 0.000000
vn -0.376377 0.926467 0.000000
vn -0.376377 0.926467 0.000000
vn -0.376377 0.926467 0.000000
vn -0.376377 0.926467 0.000000
vn 0.000000 0.985390 -0.170314
vn 0.000000 0.985390 -0.170314
vn 0.000000 0.985390 -0.170314
vn 0.000000 0.985390 -0.170314
vn 0.000000 0.985390 -0.170314
vn 0.000000 0.985390 -0.170314
vn 0.426965 0.891057 -0.154010
vn 0.426965 0.891057 -0.154010
vn 0.426965 0.891057 -0.154010
vn 0.374035 0.920701 -0.111393
vn 0.374035 0.920701 -0.111393
vn 0.374035 0.920701 -0.111393
vn 0.885200 0.461843 -0.055877
vn 0.885200 0.461843 -0.055877
vn 0.885200 0.461843 -0.055877
vn 0.851489 0.523993 -0.019925
vn 0.851489 0.523993 -0.019925
vn 0.851489 0.523993 -0.019925
vn 1.000000 0.000000 0.000000
vn 1.000000 0.000000 0.000000
vn 1.000000 0.000000 0.000000
vn 1.000000 0.000000 0.000000
vn 1.000000 0.000000 0.000000
vn 1.000000 0.000000 0.000000
vn 0.483426 -0.871313 -0.084335
vn 0.483426 -0.871313 -0.084335
vn 0.483426 -0.871313 -0.084335
vn 0.420541 -0.894018 -0.154522
vn 0.420541 -0.894018 -0.154522
vn 0.420541 -0.894018 -0.154522
vn 0.000000 -0.985390 -0.170314
vn 0.000000 -0.985390 -0.170314
vn 0.000000 -0.985390 -0.170314
vn 0.000000 -0.985390 -0.170314
vn 0.000000 -0.985390 -0.170314
vn 0.000000 -0.985390 -0.170314
vn -0.479707 -0.864609 -0.149439
vn -0.479707 -0.864609 -0.149439
vn -0.479707 -0.864609 -0.149439
vn -0.424030 -0.901435 -0.087250
vn -0.424030 -0.901435 -0.087250
vn -0.424030 -0.901435 -0.087250
vn -1.000000 0.000000 0.000000
vn -1.000000 0.000000 0.000000
vn -1.000000 0.000000 0.000000
vn -1.000000 0.000000 0.000000
vn -1.000000 0.000000 0.000000
vn -1.000000 0.000000 0.000000
vn -0.886448 0.462494 -0.017586
vn -0.886448 0.462494 -0.017586
vn -0.886448 0.462494 -0.017586
vn -0.849951 0.523047 -0.063282
vn -0.849951 0.523047 -0.063282
vn -0.849951 0.523047 -0.063282
vn -0.429571 0.896496 -0.108465
vn -0.429571 0.896496 -0.108465
vn -0.429571 0.896496 -0.108465
vn -0.371642 0.914812 -0.158116
vn -0.371642 0.914812 -0.158116
vn -0.371642 0.914812 -0.158116
vn 0.000000 0.985157 -0.171656
vn 0.000000 0.985157 -0.171656
vn 0.000000 0.985157 -0.171656
vn 0.000000 0.985157 -0.171656
vn 0.000000 0.985157 -0.171656
vn 0.000000 0.985157 -0.171656
vn 0.508192 0.848460 -0.147838
vn 0.508192 0.848460 -0.147838
vn 0.508192 0.848460 -0.147838
vn 0.429530 0.896410 -0.109335
vn 0.429530 0.896410 -0.109335
vn 0.429530 0.896410 -0.109335
vn 0.921823 0.384761 -0.046929
vn 0.921823 0.384761 -0.046929
vn 0.921823 0.384761 -0.046929
vn 0.886446 0.462493 -0.017729
vn 0.886446 0.462493 -0.017729
vn 0.886446 0.462493 -0.017729
vn 1.000000 0.000000 0.000000
vn 1.000000 0.000000 0.000000
vn 1.000000 0.000000 0.000000
vn 1.000000 0.000000 0.000000
vn 1.000000 0.000000 0.000000
vn 1.000000 0.000000 0.000000
vn 0.568066 -0.819093 -0.079924
vn 0.568066 -0.819093 -0.079924
vn 0.568066 -0.819093 -0.079924
vn 0.479619 -0.864452 -0.150624
vn 0.479619 -0.864452 -0.150624
vn 0.479619 -0.864452 -0.150624
vn 0.000000 -0.985157 -0.171656
vn 0.000000 -0.985157 -0.171656
vn 0.000000 -0.985157 -0.171656
vn 0.000000 -0.985157 -0.171656
vn 0.000000 -0.985157 -0.171656
vn 0.000000 -0.985157 -0.171656
vn -0.564136 -0.813426 -0.141733
vn -0.564136 -0.813426 -0.141733
vn -0.564136 -0.813426 -0.141733
vn -0.483398 -0.871263 -0.085014
vn -0.483398 -0.871263 -0.085014
vn -0.483398 -0.871263 -0.085014
vn -1.000000 0.000000 0.000000
vn -1.000000 0.000000 0.000000
vn -1.000000 0.000000 0.000000
vn -1.000000 0.000000 0.000000
vn -1.000000 0.000000 0.000000
vn -1.000000 0.000000 0.000000
vn -0.922739 0.385143 -0.014764
vn -0.922739 0.385143 -0.014764
vn -0.922739 0.385143 -0.014764
vn -0.885177 0.461831 -0.056329
vn -0.885177 0.461831 -0.056329
vn -0.885177 0.461831 -0.056329
vn -0.511048 0.853229 -0.104068
vn -0.511048 0.853229 -0.104068
vn -0.511048 0.853229 -0.104068
vn -0.426882 0.890885 -0.155230
vn -0.426882 0.890885 -0.155230
vn -0.426882 0.890885 -0.155230
vn 0.000000 0.000000 1.000000
vn 0.000000 0.000000 1.000000
vn 0.000000 0.000000 1.000000
vn 0.000000 0.000000 1.000000
vn 0.000000 0.000000 1.000000
vn 0.000000 0.000000 1.000000
vn 0.000000 0.000000 1.000000
vn 0.000000 0.000000 1.000000
vn 0.000000 0.000000 1.000000
vn 0.000000 0.000000 1.000000
vn 0.000000 0.000000 1.000000
vn 0.000000 0.000000 1.000000
vn 0.000000 0.000000 1.000000
vn 0.000000 0.000000 1.000000
vn 0.000000 0.000000 1.000000
vn 0.000000 0.000000 1.000000
vn 0.000000 0.000000 1.000000
vn 0.000000 0.000000 1.000000
vn 0.000000 0.000000 1.000000
vn 0.000000 0.000000 1.000000
vn 0.000000 0.000000 1.000000
vn 0.000000 0.000000 1.000000
vn 0.000000 0.000000 1.000000
vn 0.000000 0.000000 1.000000
vn 0.000000 0.000000 1.000000
vn 0.000000 0.000000 1.000000
vn 0.000000 0.000000 1.000000
vn 0.000000 0.000000 1.000000
vn 0.000000 0.000000 1.000000
vn 0.000000 0.000000 1.000000
vn 0.000000 0.000000 -1.000000
vn 0.000000 0.000000 -1.000000
vn 0.000000 0.000000 -1.000000
vn 0.000000 0.000000 -1.000000
vn 0.000000 0.000000 -1.000000
vn 0.000000 0.000000 -1.000000
vn 0.000000 0.000000 -1.000000
vn 0.000000 0.000000 -1.000000
vn 0.000000 0.000000 -1.000000
vn 0.000000 0.000000 -1.000000
vn 0.000000 0.000000 -1.000000
vn 0.000000 0.000000 -1.000000
vn 0.000000 0.000000 -1.000000
vn 0.000000 0.000000 -1.000000
vn 0.000000 0.000000 -1.000000
vn 0.000000 0.000000 -1.000000
vn 0.000000 0.000000 -1.000000
vn 0.000000 0.000000 -1.000000
vn 0.000000 0.000000 -1.000000
vn 0.000000 0.000000 -1.000000
vn 0.000000 0.000000 -1.000000
vn 0.000000 0.000000 -1.000000
vn 0.000000 0.000000 -1.000000
vn 0.000000 0.000000 -1.000000
vn 0.000000 0.000000 -1.000000
vn 0.000000 0.000000 -1.000000
vn 0.000000 0.000000 -1.000000
vn 0.000000 0.000000 -1.000000
vn 0.000000 0.000000 -1.000000
vn 0.000000 0.000000 -1.000000
f 1/1/1 2/2/2 3/3/3
f 4/4/4 5/5/5 6/6/6
f 7/7/7 8/8/8 9/9/9
f 10/10/10 11/11/11 12/12/12
f 13/13/13 14/14/14 15/15/15
f 16/16/16 17/17/17 18/18/18
f 19/19/19 20/20/20 21/21/21
f 22/22/22 23/23/23 24/24/24
f 25/25/25 26/26/26 27/27/27
f 28/28/28 29/29/29 30/30/30
f 31/31/31 32/32/32 33/33/33
f 34/34/34 35/35/35 36/36/36
f 37/37/37 38/38/38 39/39/39
f 40/40/40 41/41/41 42/42/42
f 43/43/43 44/44/44 45/45/45
f 46/46/46 47/47/47 48/48/48
f 49/49/49 50/50/50 51/51/51
f 52/52/52 53/53/53 54/54/54
f 55/55/55 56/56/56 57/57/57
f 58/58/58 59/59/59 60/60/60
f 61/61/61 62/62/62 63/63/63
f 64/64/64 65/65/65 66/66/66
f 67/67/67 68/68/68 69/69/69
f 70/70/70 71/71/71 72/72/72
f 73/73/73 74/74/74 75/75/75
f 76/76/76 77/77/77 78/78/78
f 79/79/79 80/80/80 81/81/81
f 82/82/82 83/83/83 84/84/84
f 85/85/85 86/86/86 87/87/87
f 88/88/88 89/89/89 90/90/90
f 91/91/91 92/92/92 93/93/93
f 94/94/94 95/95/95 96/96/96
f 97/97/97 98/98/98 99/99/99
f 100/100/100 101/101/101 102/102/102
f 103/103/103 104/104/104 105/105/105
f 106/106/106 107/107/107 108/108/108
f 109/109/109 110/110/110 111/111/111
f 112/112/112 113/113/113 114/114/114
f 115/115/115 116/116/116 117/117/117
f 118/118/118 119/119/119 120/120/120
f 121/121/121 122/122/122 123/123/123
f 124/124/124 125/125/125 126/126/126
f 127/127/127 128/128/128 129/129/129
f 130/130/130 131/131/131 132/132/132
f 133/133/133 134/134/134 135/135/135
f 136/136/136 137/137/137 138/138/138
f 139/139/139 140/140/140 141/141/141
f 142/142/142 143/143/143 144/144/144
f 145/145/145 146/146/146 147/147/147
f 148/148/148 149/149/149 150/150/150
f 151/151/151 152/152/152 153/153/153
f 154/154/154 155/155/155 156/156/156
f 157/157/157 158/158/158 159/159/159
f 160/160/160 161/161/161 162/162/162
f 163/163/163 164/164/164 165/165/165
f 166/166/166 167/167/167 168/168/168
f 169/169/169 170/170/170 171/171/171
f 172/172/172 173/173/173 174/174/174
f 175/175/175 176/176/176 177/177/177
f 178/178/178 179/179/179 180/180/180
f 181/181/181 182/182/182 183/183/183
f 184/184/184 185/185/185 186/186/186
f 187/187/187 188/188/188 189/189/189
f 190/190/190 191/191/191 192/192/192
f 193/193/193 194/194/194 195/195/195
f 196/196/196 197/197/197 198/198/198
f 199/199/199 200/200/200 201/201/201
f 202/202/202 203/203/203 204/204/204
f 205/205/205 206/206/206 207/207/207
f 208/208/208 209/209/209 210/210/210
f 211/211/211 212/212/212 213/213/213
f 214/214/214 215/215/215 216/216/216
f 217/217/217 218/218/218 219/219/219
f 220/220/220 221/221/221 222/222/222
f 223/223/223 224/224/224 225/225/225
f 226/226/226 227/227/227 228/228/228
f 229/229/229 230/230/230 231/231/231
f 232/232/232 233/233/233 234/234/234
f 235/235/235 236/236/236 237/237/237
f 238/238/238 239/239/239 240/240/240
f 241/241/241 242/242/242 243/243/243
f 244/244/244 245/245/245 246/246/246
f 247/247/247 248/248/248 249/249/249
f 250/250/250 251/251/251 252/252/252
f 253/253/253 254/254/254 255/255/255
f 256/256/256 257/257/257 258/258/258
f 259/259/259 260/260/260 261/261/261
f 262/262/262 263/263/263 264/264/264
f 265/265/265 266/266/266 267/267/267
f 268/268/268 269/269/269 270/270/270
f 271/271/271 272/272/272 273/273/273
f 274/274/274 275/275/275 276/276/276
f 277/277/277 278/278/278 279/279/279
f 280/280/280 281/281/281 282/282/282
f 283/283/283 284/284/284 285/285/285
f 286/286/286 287/287/287 288/288/288
f 289/289/289 290/290/290 291/291/291
f 292/292/292 293/293/293 294/294/294
f 295/295/295 296/296/296 297/297/297
f 298/298/298 299/299/299 300/300/300
f 301/301/301 302/302/302 303/303/303
f 304/304/304 305/305/305 306/306/306
f 307/307/307 308/308/308 309/309/309
f 310/310/310 311/311/311 312/312/312
f 313/313/313 314/314/314 315/315/315
f 316/316/316 317/317/317 318/318/318
f 319/319/319 320/320/320 321/321/321
f 322/322/322 323/323/323 324/324/324
f 325/325/325 326/326/326 327/327/327
f 328/328/328 329/329/329 330/330/330
f 331/331/331 332/332/332 333/333/333
f 334/334/334 335/335/335 336/336/336
f 337/337/337 338/338/338 339/339/339
f 340/340/340 341/341/341 342/342/342
f 343/343/343 344/344/344 345/345/345
f 346/346/346 347/347/347 348/348/348
f 349/349/349 350/350/350 351/351/351
f 352/352/352 353/353/353 354/354/354
f 355/355/355 356/356/356 357/357/357
f 358/358/358 359/359/359 360/360/360
f 361/361/361 362/362/362 363/363/363
f 364/364/364 365/365/365 366/366/366
f 367/367/367 368/368/368 369/369/369
f 370/370/370 371/371/371 372/372/372
f 373/373/373 374/374/374 375/375/375
f 376/376/376 377/377/377 378/378/378
f 379/379/379 380/380/380 381/381/381
f 382/382/382 383/383/383 384/384/384
f 385/385/385 386/386/386 387/387/387
f 388/388/388 389/389/389 390/390/390
f 391/391/391 392/392/392 393/393/393
f 394/394/394 395/395/395 396/396/396
f 397/397/397 398/398/398 399/399/399
f 400/400/400 401/401/401 402/402/402
f 403/403/403 404/404/404 405/405/405
f 406/406/406 407/407/407 408/408/408
f 409/409/409 410/410/410 411/411/411
f 412/412/412 413/413/413 414/414/414
f 415/415/415 416/416/416 417/417/417
f 418/418/418 419/419/419 420/420/420
f 421/421/421 422/422/422 423/423/423
f 424/424/424 425/425/425 426/426/426
f 427/427/427 428/428/428 429/429/429
f 430/430/430 431/431/431 432/432/432
f 433/433/433 434/434/434 435/435/435
f 436/436/436 437/437/437 438/438/438
f 439/439/439 440/440/440 441/441/441
f 442/442/442 443/443/443 444/444/444
f 445/445/445 446/446/446 447/447/447
f 448/448/448 449/449/449 450/450/450
f 451/451/451 452/452/452 453/453/453
f 454/454/454 455/455/455 456/456/456
f 457/457/457 458/458/458 459/459/459
f 460/460/460 461/461/461 462/462/462
f 463/463/463 464/464/464 465/465/465
f 466/466/466 467/467/467 468/468/468
f 469/469/469 470/470/470 471/471/471
f 472/472/472 473/473/473 474/474/474
f 475/475/475 476/476/476 477/477/477
f 478/478/478 479/479/479 480/480/480
f 481/481/481 482/482/482 483/483/483
f 484/484/484 485/485/485 486/486/486
f 487/487/487 488/488/488 489/489/489
f 490/490/490 491/491/491 492/492/492
f 493/493/493 494/494/494 495/495/495
f 496/496/496 497/497/497 498/498/498
f 499/499/499 500/500/500 501/501/501
f 502/502/502 503/503/503 504/504/504
f 505/505/505 506/506/506 507/507/507
f 508/508/508 509/509/509 510/510/510
f 511/511/511 512/512/512 513/513/513
f 514/514/514 515/515/515 516/516/516
f 517/517/517 518/518/518 519/519/519
f 520/520/520 521/521/521 522/522/522
f 523/523/523 524/524/524 525/525/525
f 526/526/526 527/527/527 528/528/528
f 529/529/529 530/530/530 531/531/531
f 532/532/532 533/533/533 534/534/534
f 535/535/535 536/536/536 537/537/537
f 538/538/538 539/539/539 540/540/540
