# Torrent authored macroform LOD1 semantic component
# Imported production resource; exact geometry/authenticity false
o StarboardAftCircularHousing
usemtl torrent_hull_light
v 2.860000 1.020000 0.250000
v 2.920000 1.020000 0.375000
v 2.866410 1.220000 0.375000
v 2.860000 1.020000 0.250000
v 2.866410 1.220000 0.375000
v 2.814449 1.190000 0.250000
v 2.814449 1.190000 0.250000
v 2.866410 1.220000 0.375000
v 2.720000 1.366410 0.375000
v 2.814449 1.190000 0.250000
v 2.720000 1.366410 0.375000
v 2.690000 1.314449 0.250000
v 2.690000 1.314449 0.250000
v 2.720000 1.366410 0.375000
v 2.520000 1.420000 0.375000
v 2.690000 1.314449 0.250000
v 2.520000 1.420000 0.375000
v 2.520000 1.360000 0.250000
v 2.520000 1.360000 0.250000
v 2.520000 1.420000 0.375000
v 2.320000 1.366410 0.375000
v 2.520000 1.360000 0.250000
v 2.320000 1.366410 0.375000
v 2.350000 1.314449 0.250000
v 2.350000 1.314449 0.250000
v 2.320000 1.366410 0.375000
v 2.173590 1.220000 0.375000
v 2.350000 1.314449 0.250000
v 2.173590 1.220000 0.375000
v 2.225551 1.190000 0.250000
v 2.225551 1.190000 0.250000
v 2.173590 1.220000 0.375000
v 2.120000 1.020000 0.375000
v 2.225551 1.190000 0.250000
v 2.120000 1.020000 0.375000
v 2.180000 1.020000 0.250000
v 2.180000 1.020000 0.250000
v 2.120000 1.020000 0.375000
v 2.173590 0.820000 0.375000
v 2.180000 1.020000 0.250000
v 2.173590 0.820000 0.375000
v 2.225551 0.850000 0.250000
v 2.225551 0.850000 0.250000
v 2.173590 0.820000 0.375000
v 2.320000 0.673590 0.375000
v 2.225551 0.850000 0.250000
v 2.320000 0.673590 0.375000
v 2.350000 0.725551 0.250000
v 2.350000 0.725551 0.250000
v 2.320000 0.673590 0.375000
v 2.520000 0.620000 0.375000
v 2.350000 0.725551 0.250000
v 2.520000 0.620000 0.375000
v 2.520000 0.680000 0.250000
v 2.520000 0.680000 0.250000
v 2.520000 0.620000 0.375000
v 2.720000 0.673590 0.375000
v 2.520000 0.680000 0.250000
v 2.720000 0.673590 0.375000
v 2.690000 0.725551 0.250000
v 2.690000 0.725551 0.250000
v 2.720000 0.673590 0.375000
v 2.866410 0.820000 0.375000
v 2.690000 0.725551 0.250000
v 2.866410 0.820000 0.375000
v 2.814449 0.850000 0.250000
v 2.814449 0.850000 0.250000
v 2.866410 0.820000 0.375000
v 2.920000 1.020000 0.375000
v 2.814449 0.850000 0.250000
v 2.920000 1.020000 0.375000
v 2.860000 1.020000 0.250000
v 2.920000 1.020000 0.375000
v 2.920000 1.020000 3.475000
v 2.866410 1.220000 3.475000
v 2.920000 1.020000 0.375000
v 2.866410 1.220000 3.475000
v 2.866410 1.220000 0.375000
v 2.866410 1.220000 0.375000
v 2.866410 1.220000 3.475000
v 2.720000 1.366410 3.475000
v 2.866410 1.220000 0.375000
v 2.720000 1.366410 3.475000
v 2.720000 1.366410 0.375000
v 2.720000 1.366410 0.375000
v 2.720000 1.366410 3.475000
v 2.520000 1.420000 3.475000
v 2.720000 1.366410 0.375000
v 2.520000 1.420000 3.475000
v 2.520000 1.420000 0.375000
v 2.520000 1.420000 0.375000
v 2.520000 1.420000 3.475000
v 2.320000 1.366410 3.475000
v 2.520000 1.420000 0.375000
v 2.320000 1.366410 3.475000
v 2.320000 1.366410 0.375000
v 2.320000 1.366410 0.375000
v 2.320000 1.366410 3.475000
v 2.173590 1.220000 3.475000
v 2.320000 1.366410 0.375000
v 2.173590 1.220000 3.475000
v 2.173590 1.220000 0.375000
v 2.173590 1.220000 0.375000
v 2.173590 1.220000 3.475000
v 2.120000 1.020000 3.475000
v 2.173590 1.220000 0.375000
v 2.120000 1.020000 3.475000
v 2.120000 1.020000 0.375000
v 2.120000 1.020000 0.375000
v 2.120000 1.020000 3.475000
v 2.173590 0.820000 3.475000
v 2.120000 1.020000 0.375000
v 2.173590 0.820000 3.475000
v 2.173590 0.820000 0.375000
v 2.173590 0.820000 0.375000
v 2.173590 0.820000 3.475000
v 2.320000 0.673590 3.475000
v 2.173590 0.820000 0.375000
v 2.320000 0.673590 3.475000
v 2.320000 0.673590 0.375000
v 2.320000 0.673590 0.375000
v 2.320000 0.673590 3.475000
v 2.520000 0.620000 3.475000
v 2.320000 0.673590 0.375000
v 2.520000 0.620000 3.475000
v 2.520000 0.620000 0.375000
v 2.520000 0.620000 0.375000
v 2.520000 0.620000 3.475000
v 2.720000 0.673590 3.475000
v 2.520000 0.620000 0.375000
v 2.720000 0.673590 3.475000
v 2.720000 0.673590 0.375000
v 2.720000 0.673590 0.375000
v 2.720000 0.673590 3.475000
v 2.866410 0.820000 3.475000
v 2.720000 0.673590 0.375000
v 2.866410 0.820000 3.475000
v 2.866410 0.820000 0.375000
v 2.866410 0.820000 0.375000
v 2.866410 0.820000 3.475000
v 2.920000 1.020000 3.475000
v 2.866410 0.820000 0.375000
v 2.920000 1.020000 3.475000
v 2.920000 1.020000 0.375000
v 2.920000 1.020000 3.475000
v 2.860000 1.020000 3.600000
v 2.814449 1.190000 3.600000
v 2.920000 1.020000 3.475000
v 2.814449 1.190000 3.600000
v 2.866410 1.220000 3.475000
v 2.866410 1.220000 3.475000
v 2.814449 1.190000 3.600000
v 2.690000 1.314449 3.600000
v 2.866410 1.220000 3.475000
v 2.690000 1.314449 3.600000
v 2.720000 1.366410 3.475000
v 2.720000 1.366410 3.475000
v 2.690000 1.314449 3.600000
v 2.520000 1.360000 3.600000
v 2.720000 1.366410 3.475000
v 2.520000 1.360000 3.600000
v 2.520000 1.420000 3.475000
v 2.520000 1.420000 3.475000
v 2.520000 1.360000 3.600000
v 2.350000 1.314449 3.600000
v 2.520000 1.420000 3.475000
v 2.350000 1.314449 3.600000
v 2.320000 1.366410 3.475000
v 2.320000 1.366410 3.475000
v 2.350000 1.314449 3.600000
v 2.225551 1.190000 3.600000
v 2.320000 1.366410 3.475000
v 2.225551 1.190000 3.600000
v 2.173590 1.220000 3.475000
v 2.173590 1.220000 3.475000
v 2.225551 1.190000 3.600000
v 2.180000 1.020000 3.600000
v 2.173590 1.220000 3.475000
v 2.180000 1.020000 3.600000
v 2.120000 1.020000 3.475000
v 2.120000 1.020000 3.475000
v 2.180000 1.020000 3.600000
v 2.225551 0.850000 3.600000
v 2.120000 1.020000 3.475000
v 2.225551 0.850000 3.600000
v 2.173590 0.820000 3.475000
v 2.173590 0.820000 3.475000
v 2.225551 0.850000 3.600000
v 2.350000 0.725551 3.600000
v 2.173590 0.820000 3.475000
v 2.350000 0.725551 3.600000
v 2.320000 0.673590 3.475000
v 2.320000 0.673590 3.475000
v 2.350000 0.725551 3.600000
v 2.520000 0.680000 3.600000
v 2.320000 0.673590 3.475000
v 2.520000 0.680000 3.600000
v 2.520000 0.620000 3.475000
v 2.520000 0.620000 3.475000
v 2.520000 0.680000 3.600000
v 2.690000 0.725551 3.600000
v 2.520000 0.620000 3.475000
v 2.690000 0.725551 3.600000
v 2.720000 0.673590 3.475000
v 2.720000 0.673590 3.475000
v 2.690000 0.725551 3.600000
v 2.814449 0.850000 3.600000
v 2.720000 0.673590 3.475000
v 2.814449 0.850000 3.600000
v 2.866410 0.820000 3.475000
v 2.866410 0.820000 3.475000
v 2.814449 0.850000 3.600000
v 2.860000 1.020000 3.600000
v 2.866410 0.820000 3.475000
v 2.860000 1.020000 3.600000
v 2.920000 1.020000 3.475000
v 2.520000 1.020000 0.250000
v 2.814449 1.190000 0.250000
v 2.860000 1.020000 0.250000
v 2.520000 1.020000 0.250000
v 2.690000 1.314449 0.250000
v 2.814449 1.190000 0.250000
v 2.520000 1.020000 0.250000
v 2.520000 1.360000 0.250000
v 2.690000 1.314449 0.250000
v 2.520000 1.020000 0.250000
v 2.350000 1.314449 0.250000
v 2.520000 1.360000 0.250000
v 2.520000 1.020000 0.250000
v 2.225551 1.190000 0.250000
v 2.350000 1.314449 0.250000
v 2.520000 1.020000 0.250000
v 2.180000 1.020000 0.250000
v 2.225551 1.190000 0.250000
v 2.520000 1.020000 0.250000
v 2.225551 0.850000 0.250000
v 2.180000 1.020000 0.250000
v 2.520000 1.020000 0.250000
v 2.350000 0.725551 0.250000
v 2.225551 0.850000 0.250000
v 2.520000 1.020000 0.250000
v 2.520000 0.680000 0.250000
v 2.350000 0.725551 0.250000
v 2.520000 1.020000 0.250000
v 2.690000 0.725551 0.250000
v 2.520000 0.680000 0.250000
v 2.520000 1.020000 0.250000
v 2.814449 0.850000 0.250000
v 2.690000 0.725551 0.250000
v 2.520000 1.020000 0.250000
v 2.860000 1.020000 0.250000
v 2.814449 0.850000 0.250000
v 2.520000 1.020000 3.600000
v 2.860000 1.020000 3.600000
v 2.814449 1.190000 3.600000
v 2.520000 1.020000 3.600000
v 2.814449 1.190000 3.600000
v 2.690000 1.314449 3.600000
v 2.520000 1.020000 3.600000
v 2.690000 1.314449 3.600000
v 2.520000 1.360000 3.600000
v 2.520000 1.020000 3.600000
v 2.520000 1.360000 3.600000
v 2.350000 1.314449 3.600000
v 2.520000 1.020000 3.600000
v 2.350000 1.314449 3.600000
v 2.225551 1.190000 3.600000
v 2.520000 1.020000 3.600000
v 2.225551 1.190000 3.600000
v 2.180000 1.020000 3.600000
v 2.520000 1.020000 3.600000
v 2.180000 1.020000 3.600000
v 2.225551 0.850000 3.600000
v 2.520000 1.020000 3.600000
v 2.225551 0.850000 3.600000
v 2.350000 0.725551 3.600000
v 2.520000 1.020000 3.600000
v 2.350000 0.725551 3.600000
v 2.520000 0.680000 3.600000
v 2.520000 1.020000 3.600000
v 2.520000 0.680000 3.600000
v 2.690000 0.725551 3.600000
v 2.520000 1.020000 3.600000
v 2.690000 0.725551 3.600000
v 2.814449 0.850000 3.600000
v 2.520000 1.020000 3.600000
v 2.814449 0.850000 3.600000
v 2.860000 1.020000 3.600000
vt 0.918400 0.740000
vt 0.916549 0.740000
vt 0.916549 0.696121
vt 0.918400 0.740000
vt 0.916549 0.696121
vt 0.918400 0.702703
vt 0.918400 0.702703
vt 0.916549 0.696121
vt 0.916549 0.664000
vt 0.918400 0.702703
vt 0.916549 0.664000
vt 0.918400 0.675400
vt 0.914680 0.344000
vt 0.918400 0.349672
vt 0.893600 0.349672
vt 0.914680 0.344000
vt 0.893600 0.349672
vt 0.893600 0.344000
vt 0.893600 0.344000
vt 0.893600 0.349672
vt 0.868800 0.349672
vt 0.893600 0.344000
vt 0.868800 0.349672
vt 0.872520 0.344000
vt 0.868800 0.835400
vt 0.870651 0.824000
vt 0.870651 0.856121
vt 0.868800 0.835400
vt 0.870651 0.856121
vt 0.868800 0.862703
vt 0.868800 0.862703
vt 0.870651 0.856121
vt 0.870651 0.900000
vt 0.868800 0.862703
vt 0.870651 0.900000
vt 0.868800 0.900000
vt 0.868800 0.900000
vt 0.870651 0.900000
vt 0.870651 0.943879
vt 0.868800 0.900000
vt 0.870651 0.943879
vt 0.868800 0.937297
vt 0.868800 0.937297
vt 0.870651 0.943879
vt 0.870651 0.976000
vt 0.868800 0.937297
vt 0.870651 0.976000
vt 0.868800 0.964600
vt 0.872520 0.656000
vt 0.868800 0.650328
vt 0.893600 0.650328
vt 0.872520 0.656000
vt 0.893600 0.650328
vt 0.893600 0.656000
vt 0.893600 0.656000
vt 0.893600 0.650328
vt 0.918400 0.650328
vt 0.893600 0.656000
vt 0.918400 0.650328
vt 0.914680 0.656000
vt 0.918400 0.804600
vt 0.916549 0.816000
vt 0.916549 0.783879
vt 0.918400 0.804600
vt 0.916549 0.783879
vt 0.918400 0.777297
vt 0.918400 0.777297
vt 0.916549 0.783879
vt 0.916549 0.740000
vt 0.918400 0.777297
vt 0.916549 0.740000
vt 0.918400 0.740000
vt 0.916549 0.740000
vt 0.870651 0.740000
vt 0.870651 0.696121
vt 0.916549 0.740000
vt 0.870651 0.696121
vt 0.916549 0.696121
vt 0.916549 0.696121
vt 0.870651 0.696121
vt 0.870651 0.664000
vt 0.916549 0.696121
vt 0.870651 0.664000
vt 0.916549 0.664000
vt 0.918400 0.349672
vt 0.918400 0.490328
vt 0.893600 0.490328
vt 0.918400 0.349672
vt 0.893600 0.490328
vt 0.893600 0.349672
vt 0.893600 0.349672
vt 0.893600 0.490328
vt 0.868800 0.490328
vt 0.893600 0.349672
vt 0.868800 0.490328
vt 0.868800 0.349672
vt 0.870651 0.824000
vt 0.916549 0.824000
vt 0.916549 0.856121
vt 0.870651 0.824000
vt 0.916549 0.856121
vt 0.870651 0.856121
vt 0.870651 0.856121
vt 0.916549 0.856121
vt 0.916549 0.900000
vt 0.870651 0.856121
vt 0.916549 0.900000
vt 0.870651 0.900000
vt 0.870651 0.900000
vt 0.916549 0.900000
vt 0.916549 0.943879
vt 0.870651 0.900000
vt 0.916549 0.943879
vt 0.870651 0.943879
vt 0.870651 0.943879
vt 0.916549 0.943879
vt 0.916549 0.976000
vt 0.870651 0.943879
vt 0.916549 0.976000
vt 0.870651 0.976000
vt 0.868800 0.650328
vt 0.868800 0.509672
vt 0.893600 0.509672
vt 0.868800 0.650328
vt 0.893600 0.509672
vt 0.893600 0.650328
vt 0.893600 0.650328
vt 0.893600 0.509672
vt 0.918400 0.509672
vt 0.893600 0.650328
vt 0.918400 0.509672
vt 0.918400 0.650328
vt 0.916549 0.816000
vt 0.870651 0.816000
vt 0.870651 0.783879
vt 0.916549 0.816000
vt 0.870651 0.783879
vt 0.916549 0.783879
vt 0.916549 0.783879
vt 0.870651 0.783879
vt 0.870651 0.740000
vt 0.916549 0.783879
vt 0.870651 0.740000
vt 0.916549 0.740000
vt 0.870651 0.740000
vt 0.868800 0.740000
vt 0.868800 0.702703
vt 0.870651 0.740000
vt 0.868800 0.702703
vt 0.870651 0.696121
vt 0.870651 0.696121
vt 0.868800 0.702703
vt 0.868800 0.675400
vt 0.870651 0.696121
vt 0.868800 0.675400
vt 0.870651 0.664000
vt 0.918400 0.490328
vt 0.914680 0.496000
vt 0.893600 0.496000
vt 0.918400 0.490328
vt 0.893600 0.496000
vt 0.893600 0.490328
vt 0.893600 0.490328
vt 0.893600 0.496000
vt 0.872520 0.496000
vt 0.893600 0.490328
vt 0.872520 0.496000
vt 0.868800 0.490328
vt 0.916549 0.824000
vt 0.918400 0.835400
vt 0.918400 0.862703
vt 0.916549 0.824000
vt 0.918400 0.862703
vt 0.916549 0.856121
vt 0.916549 0.856121
vt 0.918400 0.862703
vt 0.918400 0.900000
vt 0.916549 0.856121
vt 0.918400 0.900000
vt 0.916549 0.900000
vt 0.916549 0.900000
vt 0.918400 0.900000
vt 0.918400 0.937297
vt 0.916549 0.900000
vt 0.918400 0.937297
vt 0.916549 0.943879
vt 0.916549 0.943879
vt 0.918400 0.937297
vt 0.918400 0.964600
vt 0.916549 0.943879
vt 0.918400 0.964600
vt 0.916549 0.976000
vt 0.868800 0.509672
vt 0.872520 0.504000
vt 0.893600 0.504000
vt 0.868800 0.509672
vt 0.893600 0.504000
vt 0.893600 0.509672
vt 0.893600 0.509672
vt 0.893600 0.504000
vt 0.914680 0.504000
vt 0.893600 0.509672
vt 0.914680 0.504000
vt 0.918400 0.509672
vt 0.870651 0.816000
vt 0.868800 0.804600
vt 0.868800 0.777297
vt 0.870651 0.816000
vt 0.868800 0.777297
vt 0.870651 0.783879
vt 0.870651 0.783879
vt 0.868800 0.777297
vt 0.868800 0.740000
vt 0.870651 0.783879
vt 0.868800 0.740000
vt 0.870651 0.740000
vt 0.893600 0.100000
vt 0.915077 0.062000
vt 0.918400 0.100000
vt 0.893600 0.100000
vt 0.906000 0.034182
vt 0.915077 0.062000
vt 0.893600 0.100000
vt 0.893600 0.024000
vt 0.906000 0.034182
vt 0.893600 0.100000
vt 0.881200 0.034182
vt 0.893600 0.024000
vt 0.893600 0.100000
vt 0.872123 0.062000
vt 0.881200 0.034182
vt 0.893600 0.100000
vt 0.868800 0.100000
vt 0.872123 0.062000
vt 0.893600 0.100000
vt 0.872123 0.138000
vt 0.868800 0.100000
vt 0.893600 0.100000
vt 0.881200 0.165818
vt 0.872123 0.138000
vt 0.893600 0.100000
vt 0.893600 0.176000
vt 0.881200 0.165818
vt 0.893600 0.100000
vt 0.906000 0.165818
vt 0.893600 0.176000
vt 0.893600 0.100000
vt 0.915077 0.138000
vt 0.906000 0.165818
vt 0.893600 0.100000
vt 0.918400 0.100000
vt 0.915077 0.138000
vt 0.893600 0.260000
vt 0.868800 0.260000
vt 0.872123 0.222000
vt 0.893600 0.260000
vt 0.872123 0.222000
vt 0.881200 0.194182
vt 0.893600 0.260000
vt 0.881200 0.194182
vt 0.893600 0.184000
vt 0.893600 0.260000
vt 0.893600 0.184000
vt 0.906000 0.194182
vt 0.893600 0.260000
vt 0.906000 0.194182
vt 0.915077 0.222000
vt 0.893600 0.260000
vt 0.915077 0.222000
vt 0.918400 0.260000
vt 0.893600 0.260000
vt 0.918400 0.260000
vt 0.915077 0.298000
vt 0.893600 0.260000
vt 0.915077 0.298000
vt 0.906000 0.325818
vt 0.893600 0.260000
vt 0.906000 0.325818
vt 0.893600 0.336000
vt 0.893600 0.260000
vt 0.893600 0.336000
vt 0.881200 0.325818
vt 0.893600 0.260000
vt 0.881200 0.325818
vt 0.872123 0.298000
vt 0.893600 0.260000
vt 0.872123 0.298000
vt 0.868800 0.260000
vn -0.876318 -0.234808 0.420634
vn -0.876318 -0.234808 0.420634
vn -0.876318 -0.234808 0.420634
vn -0.876318 -0.234808 0.420633
vn -0.876318 -0.234808 0.420633
vn -0.876318 -0.234808 0.420633
vn -0.641509 -0.641509 0.420634
vn -0.641509 -0.641509 0.420634
vn -0.641509 -0.641509 0.420634
vn -0.641510 -0.641509 0.420633
vn -0.641510 -0.641509 0.420633
vn -0.641510 -0.641509 0.420633
vn -0.234809 -0.876318 0.420633
vn -0.234809 -0.876318 0.420633
vn -0.234809 -0.876318 0.420633
vn -0.234809 -0.876318 0.420632
vn -0.234809 -0.876318 0.420632
vn -0.234809 -0.876318 0.420632
vn 0.234809 -0.876318 0.420632
vn 0.234809 -0.876318 0.420632
vn 0.234809 -0.876318 0.420632
vn 0.234809 -0.876318 0.420633
vn 0.234809 -0.876318 0.420633
vn 0.234809 -0.876318 0.420633
vn 0.641509 -0.641510 0.420633
vn 0.641509 -0.641510 0.420633
vn 0.641509 -0.641510 0.420633
vn 0.641509 -0.641509 0.420634
vn 0.641509 -0.641509 0.420634
vn 0.641509 -0.641509 0.420634
vn 0.876318 -0.234808 0.420633
vn 0.876318 -0.234808 0.420633
vn 0.876318 -0.234808 0.420633
vn 0.876318 -0.234808 0.420634
vn 0.876318 -0.234808 0.420634
vn 0.876318 -0.234808 0.420634
vn 0.876317 0.234808 0.420634
vn 0.876317 0.234808 0.420634
vn 0.876317 0.234808 0.420634
vn 0.876318 0.234808 0.420633
vn 0.876318 0.234808 0.420633
vn 0.876318 0.234808 0.420633
vn 0.641509 0.641509 0.420633
vn 0.641509 0.641509 0.420633
vn 0.641509 0.641509 0.420633
vn 0.641509 0.641509 0.420633
vn 0.641509 0.641509 0.420633
vn 0.641509 0.641509 0.420633
vn 0.234809 0.876318 0.420633
vn 0.234809 0.876318 0.420633
vn 0.234809 0.876318 0.420633
vn 0.234809 0.876318 0.420632
vn 0.234809 0.876318 0.420632
vn 0.234809 0.876318 0.420632
vn -0.234809 0.876318 0.420632
vn -0.234809 0.876318 0.420632
vn -0.234809 0.876318 0.420632
vn -0.234809 0.876318 0.420633
vn -0.234809 0.876318 0.420633
vn -0.234809 0.876318 0.420633
vn -0.641509 0.641509 0.420633
vn -0.641509 0.641509 0.420633
vn -0.641509 0.641509 0.420633
vn -0.641509 0.641509 0.420633
vn -0.641509 0.641509 0.420633
vn -0.641509 0.641509 0.420633
vn -0.876318 0.234809 0.420633
vn -0.876318 0.234809 0.420633
vn -0.876318 0.234809 0.420633
vn -0.876318 0.234808 0.420634
vn -0.876318 0.234808 0.420634
vn -0.876318 0.234808 0.420634
vn -0.965926 -0.258819 0.000000
vn -0.965926 -0.258819 0.000000
vn -0.965926 -0.258819 0.000000
vn -0.965926 -0.258819 0.000000
vn -0.965926 -0.258819 0.000000
vn -0.965926 -0.258819 0.000000
vn -0.707107 -0.707107 0.000000
vn -0.707107 -0.707107 0.000000
vn -0.707107 -0.707107 0.000000
vn -0.707107 -0.707107 0.000000
vn -0.707107 -0.707107 0.000000
vn -0.707107 -0.707107 0.000000
vn -0.258819 -0.965926 0.000000
vn -0.258819 -0.965926 0.000000
vn -0.258819 -0.965926 0.000000
vn -0.258819 -0.965926 0.000000
vn -0.258819 -0.965926 0.000000
vn -0.258819 -0.965926 0.000000
vn 0.258819 -0.965926 0.000000
vn 0.258819 -0.965926 0.000000
vn 0.258819 -0.965926 0.000000
vn 0.258819 -0.965926 0.000000
vn 0.258819 -0.965926 0.000000
vn 0.258819 -0.965926 0.000000
vn 0.707107 -0.707107 0.000000
vn 0.707107 -0.707107 0.000000
vn 0.707107 -0.707107 0.000000
vn 0.707107 -0.707107 0.000000
vn 0.707107 -0.707107 0.000000
vn 0.707107 -0.707107 0.000000
vn 0.965926 -0.258819 0.000000
vn 0.965926 -0.258819 0.000000
vn 0.965926 -0.258819 0.000000
vn 0.965926 -0.258819 0.000000
vn 0.965926 -0.258819 0.000000
vn 0.965926 -0.258819 0.000000
vn 0.965926 0.258819 0.000000
vn 0.965926 0.258819 0.000000
vn 0.965926 0.258819 0.000000
vn 0.965926 0.258819 0.000000
vn 0.965926 0.258819 0.000000
vn 0.965926 0.258819 0.000000
vn 0.707107 0.707107 0.000000
vn 0.707107 0.707107 0.000000
vn 0.707107 0.707107 0.000000
vn 0.707107 0.707107 0.000000
vn 0.707107 0.707107 0.000000
vn 0.707107 0.707107 0.000000
vn 0.258819 0.965926 0.000000
vn 0.258819 0.965926 0.000000
vn 0.258819 0.965926 0.000000
vn 0.258819 0.965926 0.000000
vn 0.258819 0.965926 0.000000
vn 0.258819 0.965926 0.000000
vn -0.258819 0.965926 0.000000
vn -0.258819 0.965926 0.000000
vn -0.258819 0.965926 0.000000
vn -0.258819 0.965926 0.000000
vn -0.258819 0.965926 0.000000
vn -0.258819 0.965926 0.000000
vn -0.707107 0.707107 0.000000
vn -0.707107 0.707107 0.000000
vn -0.707107 0.707107 0.000000
vn -0.707107 0.707107 0.000000
vn -0.707107 0.707107 0.000000
vn -0.707107 0.707107 0.000000
vn -0.965926 0.258819 0.000000
vn -0.965926 0.258819 0.000000
vn -0.965926 0.258819 0.000000
vn -0.965926 0.258819 0.000000
vn -0.965926 0.258819 0.000000
vn -0.965926 0.258819 0.000000
vn -0.876318 -0.234808 -0.420634
vn -0.876318 -0.234808 -0.420634
vn -0.876318 -0.234808 -0.420634
vn -0.876318 -0.234808 -0.420634
vn -0.876318 -0.234808 -0.420634
vn -0.876318 -0.234808 -0.420634
vn -0.641509 -0.641509 -0.420634
vn -0.641509 -0.641509 -0.420634
vn -0.641509 -0.641509 -0.420634
vn -0.641509 -0.641510 -0.420633
vn -0.641509 -0.641510 -0.420633
vn -0.641509 -0.641510 -0.420633
vn -0.234809 -0.876318 -0.420633
vn -0.234809 -0.876318 -0.420633
vn -0.234809 -0.876318 -0.420633
vn -0.234809 -0.876318 -0.420632
vn -0.234809 -0.876318 -0.420632
vn -0.234809 -0.876318 -0.420632
vn 0.234809 -0.876318 -0.420632
vn 0.234809 -0.876318 -0.420632
vn 0.234809 -0.876318 -0.420632
vn 0.234809 -0.876318 -0.420633
vn 0.234809 -0.876318 -0.420633
vn 0.234809 -0.876318 -0.420633
vn 0.641510 -0.641509 -0.420633
vn 0.641510 -0.641509 -0.420633
vn 0.641510 -0.641509 -0.420633
vn 0.641509 -0.641509 -0.420634
vn 0.641509 -0.641509 -0.420634
vn 0.641509 -0.641509 -0.420634
vn 0.876318 -0.234808 -0.420633
vn 0.876318 -0.234808 -0.420633
vn 0.876318 -0.234808 -0.420633
vn 0.876318 -0.234808 -0.420634
vn 0.876318 -0.234808 -0.420634
vn 0.876318 -0.234808 -0.420634
vn 0.876318 0.234808 -0.420634
vn 0.876318 0.234808 -0.420634
vn 0.876318 0.234808 -0.420634
vn 0.876318 0.234809 -0.420633
vn 0.876318 0.234809 -0.420633
vn 0.876318 0.234809 -0.420633
vn 0.641509 0.641509 -0.420633
vn 0.641509 0.641509 -0.420633
vn 0.641509 0.641509 -0.420633
vn 0.641509 0.641509 -0.420633
vn 0.641509 0.641509 -0.420633
vn 0.641509 0.641509 -0.420633
vn 0.234809 0.876318 -0.420633
vn 0.234809 0.876318 -0.420633
vn 0.234809 0.876318 -0.420633
vn 0.234809 0.876318 -0.420632
vn 0.234809 0.876318 -0.420632
vn 0.234809 0.876318 -0.420632
vn -0.234809 0.876318 -0.420632
vn -0.234809 0.876318 -0.420632
vn -0.234809 0.876318 -0.420632
vn -0.234809 0.876318 -0.420633
vn -0.234809 0.876318 -0.420633
vn -0.234809 0.876318 -0.420633
vn -0.641509 0.641509 -0.420633
vn -0.641509 0.641509 -0.420633
vn -0.641509 0.641509 -0.420633
vn -0.641509 0.641509 -0.420633
vn -0.641509 0.641509 -0.420633
vn -0.641509 0.641509 -0.420633
vn -0.876318 0.234808 -0.420633
vn -0.876318 0.234808 -0.420633
vn -0.876318 0.234808 -0.420633
vn -0.876317 0.234808 -0.420634
vn -0.876317 0.234808 -0.420634
vn -0.876317 0.234808 -0.420634
vn 0.000000 0.000000 -1.000000
vn 0.000000 0.000000 -1.000000
vn 0.000000 0.000000 -1.000000
vn 0.000000 0.000000 -1.000000
vn 0.000000 0.000000 -1.000000
vn 0.000000 0.000000 -1.000000
vn 0.000000 0.000000 -1.000000
vn 0.000000 0.000000 -1.000000
vn 0.000000 0.000000 -1.000000
vn 0.000000 0.000000 -1.000000
vn 0.000000 0.000000 -1.000000
vn 0.000000 0.000000 -1.000000
vn 0.000000 0.000000 -1.000000
vn 0.000000 0.000000 -1.000000
vn 0.000000 0.000000 -1.000000
vn 0.000000 0.000000 -1.000000
vn 0.000000 0.000000 -1.000000
vn 0.000000 0.000000 -1.000000
vn 0.000000 0.000000 -1.000000
vn 0.000000 0.000000 -1.000000
vn 0.000000 0.000000 -1.000000
vn 0.000000 0.000000 -1.000000
vn 0.000000 0.000000 -1.000000
vn 0.000000 0.000000 -1.000000
vn 0.000000 0.000000 -1.000000
vn 0.000000 0.000000 -1.000000
vn 0.000000 0.000000 -1.000000
vn 0.000000 0.000000 -1.000000
vn 0.000000 0.000000 -1.000000
vn 0.000000 0.000000 -1.000000
vn 0.000000 0.000000 -1.000000
vn 0.000000 0.000000 -1.000000
vn 0.000000 0.000000 -1.000000
vn 0.000000 0.000000 -1.000000
vn 0.000000 0.000000 -1.000000
vn 0.000000 0.000000 -1.000000
vn -0.000001 0.000000 1.000000
vn -0.000001 0.000000 1.000000
vn -0.000001 0.000000 1.000000
vn -0.000001 -0.000001 1.000000
vn -0.000001 -0.000001 1.000000
vn -0.000001 -0.000001 1.000000
vn 0.000000 -0.000001 1.000000
vn 0.000000 -0.000001 1.000000
vn 0.000000 -0.000001 1.000000
vn 0.000000 -0.000001 1.000000
vn 0.000000 -0.000001 1.000000
vn 0.000000 -0.000001 1.000000
vn 0.000001 -0.000001 1.000000
vn 0.000001 -0.000001 1.000000
vn 0.000001 -0.000001 1.000000
vn 0.000001 0.000000 1.000000
vn 0.000001 0.000000 1.000000
vn 0.000001 0.000000 1.000000
vn 0.000001 0.000000 1.000000
vn 0.000001 0.000000 1.000000
vn 0.000001 0.000000 1.000000
vn 0.000001 0.000001 1.000000
vn 0.000001 0.000001 1.000000
vn 0.000001 0.000001 1.000000
vn 0.000000 0.000001 1.000000
vn 0.000000 0.000001 1.000000
vn 0.000000 0.000001 1.000000
vn 0.000000 0.000001 1.000000
vn 0.000000 0.000001 1.000000
vn 0.000000 0.000001 1.000000
vn -0.000001 0.000001 1.000000
vn -0.000001 0.000001 1.000000
vn -0.000001 0.000001 1.000000
vn -0.000001 0.000000 1.000000
vn -0.000001 0.000000 1.000000
vn -0.000001 0.000000 1.000000
f 1/1/1 2/2/2 3/3/3
f 4/4/4 5/5/5 6/6/6
f 7/7/7 8/8/8 9/9/9
f 10/10/10 11/11/11 12/12/12
f 13/13/13 14/14/14 15/15/15
f 16/16/16 17/17/17 18/18/18
f 19/19/19 20/20/20 21/21/21
f 22/22/22 23/23/23 24/24/24
f 25/25/25 26/26/26 27/27/27
f 28/28/28 29/29/29 30/30/30
f 31/31/31 32/32/32 33/33/33
f 34/34/34 35/35/35 36/36/36
f 37/37/37 38/38/38 39/39/39
f 40/40/40 41/41/41 42/42/42
f 43/43/43 44/44/44 45/45/45
f 46/46/46 47/47/47 48/48/48
f 49/49/49 50/50/50 51/51/51
f 52/52/52 53/53/53 54/54/54
f 55/55/55 56/56/56 57/57/57
f 58/58/58 59/59/59 60/60/60
f 61/61/61 62/62/62 63/63/63
f 64/64/64 65/65/65 66/66/66
f 67/67/67 68/68/68 69/69/69
f 70/70/70 71/71/71 72/72/72
f 73/73/73 74/74/74 75/75/75
f 76/76/76 77/77/77 78/78/78
f 79/79/79 80/80/80 81/81/81
f 82/82/82 83/83/83 84/84/84
f 85/85/85 86/86/86 87/87/87
f 88/88/88 89/89/89 90/90/90
f 91/91/91 92/92/92 93/93/93
f 94/94/94 95/95/95 96/96/96
f 97/97/97 98/98/98 99/99/99
f 100/100/100 101/101/101 102/102/102
f 103/103/103 104/104/104 105/105/105
f 106/106/106 107/107/107 108/108/108
f 109/109/109 110/110/110 111/111/111
f 112/112/112 113/113/113 114/114/114
f 115/115/115 116/116/116 117/117/117
f 118/118/118 119/119/119 120/120/120
f 121/121/121 122/122/122 123/123/123
f 124/124/124 125/125/125 126/126/126
f 127/127/127 128/128/128 129/129/129
f 130/130/130 131/131/131 132/132/132
f 133/133/133 134/134/134 135/135/135
f 136/136/136 137/137/137 138/138/138
f 139/139/139 140/140/140 141/141/141
f 142/142/142 143/143/143 144/144/144
f 145/145/145 146/146/146 147/147/147
f 148/148/148 149/149/149 150/150/150
f 151/151/151 152/152/152 153/153/153
f 154/154/154 155/155/155 156/156/156
f 157/157/157 158/158/158 159/159/159
f 160/160/160 161/161/161 162/162/162
f 163/163/163 164/164/164 165/165/165
f 166/166/166 167/167/167 168/168/168
f 169/169/169 170/170/170 171/171/171
f 172/172/172 173/173/173 174/174/174
f 175/175/175 176/176/176 177/177/177
f 178/178/178 179/179/179 180/180/180
f 181/181/181 182/182/182 183/183/183
f 184/184/184 185/185/185 186/186/186
f 187/187/187 188/188/188 189/189/189
f 190/190/190 191/191/191 192/192/192
f 193/193/193 194/194/194 195/195/195
f 196/196/196 197/197/197 198/198/198
f 199/199/199 200/200/200 201/201/201
f 202/202/202 203/203/203 204/204/204
f 205/205/205 206/206/206 207/207/207
f 208/208/208 209/209/209 210/210/210
f 211/211/211 212/212/212 213/213/213
f 214/214/214 215/215/215 216/216/216
f 217/217/217 218/218/218 219/219/219
f 220/220/220 221/221/221 222/222/222
f 223/223/223 224/224/224 225/225/225
f 226/226/226 227/227/227 228/228/228
f 229/229/229 230/230/230 231/231/231
f 232/232/232 233/233/233 234/234/234
f 235/235/235 236/236/236 237/237/237
f 238/238/238 239/239/239 240/240/240
f 241/241/241 242/242/242 243/243/243
f 244/244/244 245/245/245 246/246/246
f 247/247/247 248/248/248 249/249/249
f 250/250/250 251/251/251 252/252/252
f 253/253/253 254/254/254 255/255/255
f 256/256/256 257/257/257 258/258/258
f 259/259/259 260/260/260 261/261/261
f 262/262/262 263/263/263 264/264/264
f 265/265/265 266/266/266 267/267/267
f 268/268/268 269/269/269 270/270/270
f 271/271/271 272/272/272 273/273/273
f 274/274/274 275/275/275 276/276/276
f 277/277/277 278/278/278 279/279/279
f 280/280/280 281/281/281 282/282/282
f 283/283/283 284/284/284 285/285/285
f 286/286/286 287/287/287 288/288/288
