# Torrent authored macroform LOD1 semantic component
# Imported production resource; exact geometry/authenticity false
o AftCrossbar
usemtl torrent_hull_ivory
v -1.670000 3.970000 2.410000
v -1.670000 4.150000 2.410000
v 1.670000 4.150000 2.410000
v -1.670000 3.970000 2.410000
v 1.670000 4.150000 2.410000
v 1.670000 3.970000 2.410000
v -1.670000 3.970000 2.750000
v 1.670000 3.970000 2.750000
v 1.670000 4.150000 2.750000
v -1.670000 3.970000 2.750000
v 1.670000 4.150000 2.750000
v -1.670000 4.150000 2.750000
v -1.670000 3.970000 2.410000
v -1.670000 3.970000 2.750000
v -1.670000 4.150000 2.750000
v -1.670000 3.970000 2.410000
v -1.670000 4.150000 2.750000
v -1.670000 4.150000 2.410000
v 1.670000 3.970000 2.410000
v 1.670000 4.150000 2.410000
v 1.670000 4.150000 2.750000
v 1.670000 3.970000 2.410000
v 1.670000 4.150000 2.750000
v 1.670000 3.970000 2.750000
v -1.670000 3.970000 2.410000
v 1.670000 3.970000 2.410000
v 1.670000 3.970000 2.750000
v -1.670000 3.970000 2.410000
v 1.670000 3.970000 2.750000
v -1.670000 3.970000 2.750000
v -1.670000 4.150000 2.410000
v -1.670000 4.150000 2.750000
v 1.670000 4.150000 2.750000
v -1.670000 4.150000 2.410000
v 1.670000 4.150000 2.750000
v 1.670000 4.150000 2.410000
vt 0.926400 0.176000
vt 0.926400 0.024000
vt 0.976000 0.024000
vt 0.926400 0.176000
vt 0.976000 0.024000
vt 0.976000 0.176000
vt 0.976000 0.336000
vt 0.926400 0.336000
vt 0.926400 0.184000
vt 0.976000 0.336000
vt 0.926400 0.184000
vt 0.976000 0.184000
vt 0.976000 0.816000
vt 0.926400 0.816000
vt 0.926400 0.664000
vt 0.976000 0.816000
vt 0.926400 0.664000
vt 0.976000 0.664000
vt 0.926400 0.976000
vt 0.926400 0.824000
vt 0.976000 0.824000
vt 0.926400 0.976000
vt 0.976000 0.824000
vt 0.976000 0.976000
vt 0.926400 0.344000
vt 0.976000 0.344000
vt 0.976000 0.496000
vt 0.926400 0.344000
vt 0.976000 0.496000
vt 0.926400 0.496000
vt 0.926400 0.656000
vt 0.926400 0.504000
vt 0.976000 0.504000
vt 0.926400 0.656000
vt 0.976000 0.504000
vt 0.976000 0.656000
vn 0.000000 0.000000 -1.000000
vn 0.000000 0.000000 -1.000000
vn 0.000000 0.000000 -1.000000
vn 0.000000 0.000000 -1.000000
vn 0.000000 0.000000 -1.000000
vn 0.000000 0.000000 -1.000000
vn 0.000000 0.000000 1.000000
vn 0.000000 0.000000 1.000000
vn 0.000000 0.000000 1.000000
vn 0.000000 0.000000 1.000000
vn 0.000000 0.000000 1.000000
vn 0.000000 0.000000 1.000000
vn -1.000000 0.000000 0.000000
vn -1.000000 0.000000 0.000000
vn -1.000000 0.000000 0.000000
vn -1.000000 0.000000 0.000000
vn -1.000000 0.000000 0.000000
vn -1.000000 0.000000 0.000000
vn 1.000000 0.000000 0.000000
vn 1.000000 0.000000 0.000000
vn 1.000000 0.000000 0.000000
vn 1.000000 0.000000 0.000000
vn 1.000000 0.000000 0.000000
vn 1.000000 0.000000 0.000000
vn 0.000000 -1.000000 0.000000
vn 0.000000 -1.000000 0.000000
vn 0.000000 -1.000000 0.000000
vn 0.000000 -1.000000 0.000000
vn 0.000000 -1.000000 0.000000
vn 0.000000 -1.000000 0.000000
vn 0.000000 1.000000 0.000000
vn 0.000000 1.000000 0.000000
vn 0.000000 1.000000 0.000000
vn 0.000000 1.000000 0.000000
vn 0.000000 1.000000 0.000000
vn 0.000000 1.000000 0.000000
f 1/1/1 2/2/2 3/3/3
f 4/4/4 5/5/5 6/6/6
f 7/7/7 8/8/8 9/9/9
f 10/10/10 11/11/11 12/12/12
f 13/13/13 14/14/14 15/15/15
f 16/16/16 17/17/17 18/18/18
f 19/19/19 20/20/20 21/21/21
f 22/22/22 23/23/23 24/24/24
f 25/25/25 26/26/26 27/27/27
f 28/28/28 29/29/29 30/30/30
f 31/31/31 32/32/32 33/33/33
f 34/34/34 35/35/35 36/36/36
