# Torrent authored macroform LOD1 semantic component
# Imported production resource; exact geometry/authenticity false
o CentralPressureKeel
usemtl torrent_hull_ivory
v -1.032400 1.400000 -1.700000
v -1.090400 1.480000 -0.550000
v 1.090400 1.480000 -0.550000
v -1.032400 1.400000 -1.700000
v 1.090400 1.480000 -0.550000
v 1.032400 1.400000 -1.700000
v 1.032400 1.400000 -1.700000
v 1.090400 1.480000 -0.550000
v 1.654400 1.264000 -0.550000
v 1.032400 1.400000 -1.700000
v 1.654400 1.264000 -0.550000
v 1.566400 1.208000 -1.700000
v 1.566400 1.208000 -1.700000
v 1.654400 1.264000 -0.550000
v 1.880000 0.918400 -0.550000
v 1.566400 1.208000 -1.700000
v 1.880000 0.918400 -0.550000
v 1.780000 0.900800 -1.700000
v 1.780000 0.900800 -1.700000
v 1.880000 0.918400 -0.550000
v 1.880000 0.356800 -0.550000
v 1.780000 0.900800 -1.700000
v 1.880000 0.356800 -0.550000
v 1.780000 0.401600 -1.700000
v 1.780000 0.401600 -1.700000
v 1.880000 0.356800 -0.550000
v 1.165600 0.040000 -0.550000
v 1.780000 0.401600 -1.700000
v 1.165600 0.040000 -0.550000
v 1.103600 0.120000 -1.700000
v 1.103600 0.120000 -1.700000
v 1.165600 0.040000 -0.550000
v -1.165600 0.040000 -0.550000
v 1.103600 0.120000 -1.700000
v -1.165600 0.040000 -0.550000
v -1.103600 0.120000 -1.700000
v -1.103600 0.120000 -1.700000
v -1.165600 0.040000 -0.550000
v -1.880000 0.356800 -0.550000
v -1.103600 0.120000 -1.700000
v -1.880000 0.356800 -0.550000
v -1.780000 0.401600 -1.700000
v -1.780000 0.401600 -1.700000
v -1.880000 0.356800 -0.550000
v -1.880000 0.918400 -0.550000
v -1.780000 0.401600 -1.700000
v -1.880000 0.918400 -0.550000
v -1.780000 0.900800 -1.700000
v -1.780000 0.900800 -1.700000
v -1.880000 0.918400 -0.550000
v -1.654400 1.264000 -0.550000
v -1.780000 0.900800 -1.700000
v -1.654400 1.264000 -0.550000
v -1.566400 1.208000 -1.700000
v -1.566400 1.208000 -1.700000
v -1.654400 1.264000 -0.550000
v -1.090400 1.480000 -0.550000
v -1.566400 1.208000 -1.700000
v -1.090400 1.480000 -0.550000
v -1.032400 1.400000 -1.700000
v -1.090400 1.480000 -0.550000
v -1.113600 1.540000 1.350000
v 1.113600 1.540000 1.350000
v -1.090400 1.480000 -0.550000
v 1.113600 1.540000 1.350000
v 1.090400 1.480000 -0.550000
v 1.090400 1.480000 -0.550000
v 1.113600 1.540000 1.350000
v 1.689600 1.306000 1.350000
v 1.090400 1.480000 -0.550000
v 1.689600 1.306000 1.350000
v 1.654400 1.264000 -0.550000
v 1.654400 1.264000 -0.550000
v 1.689600 1.306000 1.350000
v 1.920000 0.931600 1.350000
v 1.654400 1.264000 -0.550000
v 1.920000 0.931600 1.350000
v 1.880000 0.918400 -0.550000
v 1.880000 0.918400 -0.550000
v 1.920000 0.931600 1.350000
v 1.920000 0.323200 1.350000
v 1.880000 0.918400 -0.550000
v 1.920000 0.323200 1.350000
v 1.880000 0.356800 -0.550000
v 1.880000 0.356800 -0.550000
v 1.920000 0.323200 1.350000
v 1.190400 -0.020000 1.350000
v 1.880000 0.356800 -0.550000
v 1.190400 -0.020000 1.350000
v 1.165600 0.040000 -0.550000
v 1.165600 0.040000 -0.550000
v 1.190400 -0.020000 1.350000
v -1.190400 -0.020000 1.350000
v 1.165600 0.040000 -0.550000
v -1.190400 -0.020000 1.350000
v -1.165600 0.040000 -0.550000
v -1.165600 0.040000 -0.550000
v -1.190400 -0.020000 1.350000
v -1.920000 0.323200 1.350000
v -1.165600 0.040000 -0.550000
v -1.920000 0.323200 1.350000
v -1.880000 0.356800 -0.550000
v -1.880000 0.356800 -0.550000
v -1.920000 0.323200 1.350000
v -1.920000 0.931600 1.350000
v -1.880000 0.356800 -0.550000
v -1.920000 0.931600 1.350000
v -1.880000 0.918400 -0.550000
v -1.880000 0.918400 -0.550000
v -1.920000 0.931600 1.350000
v -1.689600 1.306000 1.350000
v -1.880000 0.918400 -0.550000
v -1.689600 1.306000 1.350000
v -1.654400 1.264000 -0.550000
v -1.654400 1.264000 -0.550000
v -1.689600 1.306000 1.350000
v -1.113600 1.540000 1.350000
v -1.654400 1.264000 -0.550000
v -1.113600 1.540000 1.350000
v -1.090400 1.480000 -0.550000
v -1.113600 1.540000 1.350000
v -1.113600 1.910000 3.480000
v 1.113600 1.910000 3.480000
v -1.113600 1.540000 1.350000
v 1.113600 1.910000 3.480000
v 1.113600 1.540000 1.350000
v 1.113600 1.540000 1.350000
v 1.113600 1.910000 3.480000
v 1.689600 1.565000 3.480000
v 1.113600 1.540000 1.350000
v 1.689600 1.565000 3.480000
v 1.689600 1.306000 1.350000
v 1.689600 1.306000 1.350000
v 1.689600 1.565000 3.480000
v 1.920000 1.013000 3.480000
v 1.689600 1.306000 1.350000
v 1.920000 1.013000 3.480000
v 1.920000 0.931600 1.350000
v 1.920000 0.931600 1.350000
v 1.920000 1.013000 3.480000
v 1.920000 0.116000 3.480000
v 1.920000 0.931600 1.350000
v 1.920000 0.116000 3.480000
v 1.920000 0.323200 1.350000
v 1.920000 0.323200 1.350000
v 1.920000 0.116000 3.480000
v 1.190400 -0.390000 3.480000
v 1.920000 0.323200 1.350000
v 1.190400 -0.390000 3.480000
v 1.190400 -0.020000 1.350000
v 1.190400 -0.020000 1.350000
v 1.190400 -0.390000 3.480000
v -1.190400 -0.390000 3.480000
v 1.190400 -0.020000 1.350000
v -1.190400 -0.390000 3.480000
v -1.190400 -0.020000 1.350000
v -1.190400 -0.020000 1.350000
v -1.190400 -0.390000 3.480000
v -1.920000 0.116000 3.480000
v -1.190400 -0.020000 1.350000
v -1.920000 0.116000 3.480000
v -1.920000 0.323200 1.350000
v -1.920000 0.323200 1.350000
v -1.920000 0.116000 3.480000
v -1.920000 1.013000 3.480000
v -1.920000 0.323200 1.350000
v -1.920000 1.013000 3.480000
v -1.920000 0.931600 1.350000
v -1.920000 0.931600 1.350000
v -1.920000 1.013000 3.480000
v -1.689600 1.565000 3.480000
v -1.920000 0.931600 1.350000
v -1.689600 1.565000 3.480000
v -1.689600 1.306000 1.350000
v -1.689600 1.306000 1.350000
v -1.689600 1.565000 3.480000
v -1.113600 1.910000 3.480000
v -1.689600 1.306000 1.350000
v -1.113600 1.910000 3.480000
v -1.113600 1.540000 1.350000
v 0.000000 0.806080 -1.700000
v 1.032400 1.400000 -1.700000
v -1.032400 1.400000 -1.700000
v 0.000000 0.806080 -1.700000
v 1.566400 1.208000 -1.700000
v 1.032400 1.400000 -1.700000
v 0.000000 0.806080 -1.700000
v 1.780000 0.900800 -1.700000
v 1.566400 1.208000 -1.700000
v 0.000000 0.806080 -1.700000
v 1.780000 0.401600 -1.700000
v 1.780000 0.900800 -1.700000
v 0.000000 0.806080 -1.700000
v 1.103600 0.120000 -1.700000
v 1.780000 0.401600 -1.700000
v 0.000000 0.806080 -1.700000
v -1.103600 0.120000 -1.700000
v 1.103600 0.120000 -1.700000
v 0.000000 0.806080 -1.700000
v -1.780000 0.401600 -1.700000
v -1.103600 0.120000 -1.700000
v 0.000000 0.806080 -1.700000
v -1.780000 0.900800 -1.700000
v -1.780000 0.401600 -1.700000
v 0.000000 0.806080 -1.700000
v -1.566400 1.208000 -1.700000
v -1.780000 0.900800 -1.700000
v 0.000000 0.806080 -1.700000
v -1.032400 1.400000 -1.700000
v -1.566400 1.208000 -1.700000
v 0.000000 0.842800 3.480000
v -1.113600 1.910000 3.480000
v 1.113600 1.910000 3.480000
v 0.000000 0.842800 3.480000
v 1.113600 1.910000 3.480000
v 1.689600 1.565000 3.480000
v 0.000000 0.842800 3.480000
v 1.689600 1.565000 3.480000
v 1.920000 1.013000 3.480000
v 0.000000 0.842800 3.480000
v 1.920000 1.013000 3.480000
v 1.920000 0.116000 3.480000
v 0.000000 0.842800 3.480000
v 1.920000 0.116000 3.480000
v 1.190400 -0.390000 3.480000
v 0.000000 0.842800 3.480000
v 1.190400 -0.390000 3.480000
v -1.190400 -0.390000 3.480000
v 0.000000 0.842800 3.480000
v -1.190400 -0.390000 3.480000
v -1.920000 0.116000 3.480000
v 0.000000 0.842800 3.480000
v -1.920000 0.116000 3.480000
v -1.920000 1.013000 3.480000
v 0.000000 0.842800 3.480000
v -1.920000 1.013000 3.480000
v -1.689600 1.565000 3.480000
v 0.000000 0.842800 3.480000
v -1.689600 1.565000 3.480000
v -1.113600 1.910000 3.480000
vt 0.033646 0.656000
vt 0.032795 0.622255
vt 0.064805 0.622255
vt 0.033646 0.656000
vt 0.064805 0.622255
vt 0.063954 0.656000
vt 0.063954 0.656000
vt 0.064805 0.622255
vt 0.073083 0.622255
vt 0.063954 0.656000
vt 0.073083 0.622255
vt 0.071792 0.656000
vt 0.024000 0.861449
vt 0.035012 0.855575
vt 0.035012 0.891828
vt 0.024000 0.861449
vt 0.035012 0.891828
vt 0.024000 0.893675
vt 0.024000 0.893675
vt 0.035012 0.891828
vt 0.035012 0.950740
vt 0.024000 0.893675
vt 0.035012 0.950740
vt 0.024000 0.946041
vt 0.071792 0.344000
vt 0.073083 0.377745
vt 0.063856 0.377745
vt 0.071792 0.344000
vt 0.063856 0.377745
vt 0.063055 0.344000
vt 0.063055 0.344000
vt 0.063856 0.377745
vt 0.033744 0.377745
vt 0.063055 0.344000
vt 0.033744 0.377745
vt 0.034545 0.344000
vt 0.034545 0.344000
vt 0.033744 0.377745
vt 0.024517 0.377745
vt 0.034545 0.344000
vt 0.024517 0.377745
vt 0.025808 0.344000
vt 0.073600 0.786041
vt 0.062588 0.790740
vt 0.062588 0.731828
vt 0.073600 0.786041
vt 0.062588 0.731828
vt 0.073600 0.733675
vt 0.073600 0.733675
vt 0.062588 0.731828
vt 0.062588 0.695575
vt 0.073600 0.733675
vt 0.062588 0.695575
vt 0.073600 0.701449
vt 0.025808 0.656000
vt 0.024517 0.622255
vt 0.032795 0.622255
vt 0.025808 0.656000
vt 0.032795 0.622255
vt 0.033646 0.656000
vt 0.032795 0.622255
vt 0.032455 0.566502
vt 0.065145 0.566502
vt 0.032795 0.622255
vt 0.065145 0.566502
vt 0.064805 0.622255
vt 0.064805 0.622255
vt 0.065145 0.566502
vt 0.073600 0.566502
vt 0.064805 0.622255
vt 0.073600 0.566502
vt 0.073083 0.622255
vt 0.035012 0.855575
vt 0.053205 0.851169
vt 0.053205 0.890444
vt 0.035012 0.855575
vt 0.053205 0.890444
vt 0.035012 0.891828
vt 0.035012 0.891828
vt 0.053205 0.890444
vt 0.053205 0.954265
vt 0.035012 0.891828
vt 0.053205 0.954265
vt 0.035012 0.950740
vt 0.073083 0.377745
vt 0.073600 0.433498
vt 0.064176 0.433498
vt 0.073083 0.377745
vt 0.064176 0.433498
vt 0.063856 0.377745
vt 0.063856 0.377745
vt 0.064176 0.433498
vt 0.033424 0.433498
vt 0.063856 0.377745
vt 0.033424 0.433498
vt 0.033744 0.377745
vt 0.033744 0.377745
vt 0.033424 0.433498
vt 0.024000 0.433498
vt 0.033744 0.377745
vt 0.024000 0.433498
vt 0.024517 0.377745
vt 0.062588 0.790740
vt 0.044395 0.794265
vt 0.044395 0.730444
vt 0.062588 0.790740
vt 0.044395 0.730444
vt 0.062588 0.731828
vt 0.062588 0.731828
vt 0.044395 0.730444
vt 0.044395 0.691169
vt 0.062588 0.731828
vt 0.044395 0.691169
vt 0.062588 0.695575
vt 0.024517 0.622255
vt 0.024000 0.566502
vt 0.032455 0.566502
vt 0.024517 0.622255
vt 0.032455 0.566502
vt 0.032795 0.622255
vt 0.032455 0.566502
vt 0.032455 0.504000
vt 0.065145 0.504000
vt 0.032455 0.566502
vt 0.065145 0.504000
vt 0.065145 0.566502
vt 0.065145 0.566502
vt 0.065145 0.504000
vt 0.073600 0.504000
vt 0.065145 0.566502
vt 0.073600 0.504000
vt 0.073600 0.566502
vt 0.053205 0.851169
vt 0.073600 0.824000
vt 0.073600 0.881905
vt 0.053205 0.851169
vt 0.073600 0.881905
vt 0.053205 0.890444
vt 0.053205 0.890444
vt 0.073600 0.881905
vt 0.073600 0.976000
vt 0.053205 0.890444
vt 0.073600 0.976000
vt 0.053205 0.954265
vt 0.073600 0.433498
vt 0.073600 0.496000
vt 0.064176 0.496000
vt 0.073600 0.433498
vt 0.064176 0.496000
vt 0.064176 0.433498
vt 0.064176 0.433498
vt 0.064176 0.496000
vt 0.033424 0.496000
vt 0.064176 0.433498
vt 0.033424 0.496000
vt 0.033424 0.433498
vt 0.033424 0.433498
vt 0.033424 0.496000
vt 0.024000 0.496000
vt 0.033424 0.433498
vt 0.024000 0.496000
vt 0.024000 0.433498
vt 0.044395 0.794265
vt 0.024000 0.816000
vt 0.024000 0.721905
vt 0.044395 0.794265
vt 0.024000 0.721905
vt 0.044395 0.730444
vt 0.044395 0.730444
vt 0.024000 0.721905
vt 0.024000 0.664000
vt 0.044395 0.730444
vt 0.024000 0.664000
vt 0.044395 0.691169
vt 0.024000 0.566502
vt 0.024000 0.504000
vt 0.032455 0.504000
vt 0.024000 0.566502
vt 0.032455 0.504000
vt 0.032455 0.566502
vt 0.048800 0.254528
vt 0.034416 0.184000
vt 0.063184 0.184000
vt 0.048800 0.254528
vt 0.026976 0.206800
vt 0.034416 0.184000
vt 0.048800 0.254528
vt 0.024000 0.243280
vt 0.026976 0.206800
vt 0.048800 0.254528
vt 0.024000 0.302560
vt 0.024000 0.243280
vt 0.048800 0.254528
vt 0.033424 0.336000
vt 0.024000 0.302560
vt 0.048800 0.254528
vt 0.064176 0.336000
vt 0.033424 0.336000
vt 0.048800 0.254528
vt 0.073600 0.302560
vt 0.064176 0.336000
vt 0.048800 0.254528
vt 0.073600 0.243280
vt 0.073600 0.302560
vt 0.048800 0.254528
vt 0.070624 0.206800
vt 0.073600 0.243280
vt 0.048800 0.254528
vt 0.063184 0.184000
vt 0.070624 0.206800
vt 0.048800 0.094528
vt 0.034416 0.024000
vt 0.063184 0.024000
vt 0.048800 0.094528
vt 0.063184 0.024000
vt 0.070624 0.046800
vt 0.048800 0.094528
vt 0.070624 0.046800
vt 0.073600 0.083280
vt 0.048800 0.094528
vt 0.073600 0.083280
vt 0.073600 0.142560
vt 0.048800 0.094528
vt 0.073600 0.142560
vt 0.064176 0.176000
vt 0.048800 0.094528
vt 0.064176 0.176000
vt 0.033424 0.176000
vt 0.048800 0.094528
vt 0.033424 0.176000
vt 0.024000 0.142560
vt 0.048800 0.094528
vt 0.024000 0.142560
vt 0.024000 0.083280
vt 0.048800 0.094528
vt 0.024000 0.083280
vt 0.026976 0.046800
vt 0.048800 0.094528
vt 0.026976 0.046800
vt 0.034416 0.024000
vn 0.000000 0.997589 -0.069398
vn 0.000000 0.997589 -0.069398
vn 0.000000 0.997589 -0.069398
vn 0.000000 0.997589 -0.069398
vn 0.000000 0.997589 -0.069398
vn 0.000000 0.997589 -0.069398
vn 0.356422 0.930656 -0.082717
vn 0.356422 0.930656 -0.082717
vn 0.356422 0.930656 -0.082717
vn 0.337478 0.938612 -0.071531
vn 0.337478 0.938612 -0.071531
vn 0.337478 0.938612 -0.071531
vn 0.833956 0.544388 -0.090325
vn 0.833956 0.544388 -0.090325
vn 0.833956 0.544388 -0.090325
vn 0.818413 0.569053 -0.079875
vn 0.818413 0.569053 -0.079875
vn 0.818413 0.569053 -0.079875
vn 0.996241 0.000000 -0.086630
vn 0.996241 0.000000 -0.086630
vn 0.996241 0.000000 -0.086630
vn 0.996241 0.000000 -0.086630
vn 0.996241 0.000000 -0.086630
vn 0.996241 0.000000 -0.086630
vn 0.404365 -0.911862 -0.070685
vn 0.404365 -0.911862 -0.070685
vn 0.404365 -0.911862 -0.070685
vn 0.382965 -0.919877 -0.084638
vn 0.382965 -0.919877 -0.084638
vn 0.382965 -0.919877 -0.084638
vn 0.000000 -0.997589 -0.069398
vn 0.000000 -0.997589 -0.069398
vn 0.000000 -0.997589 -0.069398
vn 0.000000 -0.997589 -0.069398
vn 0.000000 -0.997589 -0.069398
vn 0.000000 -0.997589 -0.069398
vn -0.403907 -0.910830 -0.085138
vn -0.403907 -0.910830 -0.085138
vn -0.403907 -0.910830 -0.085138
vn -0.383422 -0.920976 -0.069219
vn -0.383422 -0.920976 -0.069219
vn -0.383422 -0.920976 -0.069219
vn -0.996241 0.000000 -0.086630
vn -0.996241 0.000000 -0.086630
vn -0.996241 0.000000 -0.086630
vn -0.996241 0.000000 -0.086630
vn -0.996241 0.000000 -0.086630
vn -0.996241 0.000000 -0.086630
vn -0.834633 0.544830 -0.080915
vn -0.834633 0.544830 -0.080915
vn -0.834633 0.544830 -0.080915
vn -0.817685 0.568547 -0.090257
vn -0.817685 0.568547 -0.090257
vn -0.817685 0.568547 -0.090257
vn -0.356702 0.931389 -0.072650
vn -0.356702 0.931389 -0.072650
vn -0.356702 0.931389 -0.072650
vn -0.337199 0.937834 -0.082247
vn -0.337199 0.937834 -0.082247
vn -0.337199 0.937834 -0.082247
vn 0.000000 0.999502 -0.031563
vn 0.000000 0.999502 -0.031563
vn 0.000000 0.999502 -0.031563
vn 0.000000 0.999502 -0.031563
vn 0.000000 0.999502 -0.031563
vn 0.000000 0.999502 -0.031563
vn 0.376162 0.925936 -0.033833
vn 0.376162 0.925936 -0.033833
vn 0.376162 0.925936 -0.033833
vn 0.357514 0.933510 -0.027259
vn 0.357514 0.933510 -0.027259
vn 0.357514 0.933510 -0.027259
vn 0.851340 0.523901 -0.027353
vn 0.851340 0.523901 -0.027353
vn 0.851340 0.523901 -0.027353
vn 0.837187 0.546497 -0.021422
vn 0.837187 0.546497 -0.021422
vn 0.837187 0.546497 -0.021422
vn 0.999779 0.000000 -0.021048
vn 0.999779 0.000000 -0.021048
vn 0.999779 0.000000 -0.021048
vn 0.999779 0.000000 -0.021048
vn 0.999779 0.000000 -0.021048
vn 0.999779 0.000000 -0.021048
vn 0.425521 -0.904604 -0.024956
vn 0.425521 -0.904604 -0.024956
vn 0.425521 -0.904604 -0.024956
vn 0.405142 -0.913616 -0.034139
vn 0.405142 -0.913616 -0.034139
vn 0.405142 -0.913616 -0.034139
vn 0.000000 -0.999502 -0.031563
vn 0.000000 -0.999502 -0.031563
vn 0.000000 -0.999502 -0.031563
vn 0.000000 -0.999502 -0.031563
vn 0.000000 -0.999502 -0.031563
vn 0.000000 -0.999502 -0.031563
vn -0.425406 -0.904360 -0.034111
vn -0.425406 -0.904360 -0.034111
vn -0.425406 -0.904360 -0.034111
vn -0.405255 -0.913870 -0.024693
vn -0.405255 -0.913870 -0.024693
vn -0.405255 -0.913870 -0.024693
vn -0.999779 0.000000 -0.021048
vn -0.999779 0.000000 -0.021048
vn -0.999779 0.000000 -0.021048
vn -0.999779 0.000000 -0.021048
vn -0.999779 0.000000 -0.021048
vn -0.999779 0.000000 -0.021048
vn -0.851460 0.523975 -0.021566
vn -0.851460 0.523975 -0.021566
vn -0.851460 0.523975 -0.021566
vn -0.837061 0.546414 -0.027586
vn -0.837061 0.546414 -0.027586
vn -0.837061 0.546414 -0.027586
vn -0.376235 0.926118 -0.027442
vn -0.376235 0.926118 -0.027442
vn -0.376235 0.926118 -0.027442
vn -0.357442 0.933322 -0.033838
vn -0.357442 0.933322 -0.033838
vn -0.357442 0.933322 -0.033838
vn 0.000000 0.985246 -0.171146
vn 0.000000 0.985246 -0.171146
vn 0.000000 0.985246 -0.171146
vn 0.000000 0.985246 -0.171146
vn 0.000000 0.985246 -0.171146
vn 0.000000 0.985246 -0.171146
vn 0.508226 0.848517 -0.147395
vn 0.508226 0.848517 -0.147395
vn 0.508226 0.848517 -0.147395
vn 0.374011 0.920643 -0.111947
vn 0.374011 0.920643 -0.111947
vn 0.374011 0.920643 -0.111947
vn 0.921829 0.384763 -0.046786
vn 0.921829 0.384763 -0.046786
vn 0.921829 0.384763 -0.046786
vn 0.851488 0.523992 -0.020025
vn 0.851488 0.523992 -0.020025
vn 0.851488 0.523992 -0.020025
vn 1.000000 0.000000 0.000000
vn 1.000000 0.000000 0.000000
vn 1.000000 0.000000 0.000000
vn 1.000000 0.000000 0.000000
vn 1.000000 0.000000 0.000000
vn 1.000000 0.000000 0.000000
vn 0.568077 -0.819109 -0.079680
vn 0.568077 -0.819109 -0.079680
vn 0.568077 -0.819109 -0.079680
vn 0.420491 -0.893910 -0.155280
vn 0.420491 -0.893910 -0.155280
vn 0.420491 -0.893910 -0.155280
vn 0.000000 -0.985246 -0.171146
vn 0.000000 -0.985246 -0.171146
vn 0.000000 -0.985246 -0.171146
vn 0.000000 -0.985246 -0.171146
vn 0.000000 -0.985246 -0.171146
vn 0.000000 -0.985246 -0.171146
vn -0.564171 -0.813476 -0.141308
vn -0.564171 -0.813476 -0.141308
vn -0.564171 -0.813476 -0.141308
vn -0.424014 -0.901401 -0.087686
vn -0.424014 -0.901401 -0.087686
vn -0.424014 -0.901401 -0.087686
vn -1.000000 0.000000 0.000000
vn -1.000000 0.000000 0.000000
vn -1.000000 0.000000 0.000000
vn -1.000000 0.000000 0.000000
vn -1.000000 0.000000 0.000000
vn -1.000000 0.000000 0.000000
vn -0.922739 0.385143 -0.014719
vn -0.922739 0.385143 -0.014719
vn -0.922739 0.385143 -0.014719
vn -0.849934 0.523036 -0.063599
vn -0.849934 0.523036 -0.063599
vn -0.849934 0.523036 -0.063599
vn -0.511065 0.853257 -0.103753
vn -0.511065 0.853257 -0.103753
vn -0.511065 0.853257 -0.103753
vn -0.371596 0.914697 -0.158891
vn -0.371596 0.914697 -0.158891
vn -0.371596 0.914697 -0.158891
vn 0.000000 0.000000 1.000000
vn 0.000000 0.000000 1.000000
vn 0.000000 0.000000 1.000000
vn 0.000000 0.000000 1.000000
vn 0.000000 0.000000 1.000000
vn 0.000000 0.000000 1.000000
vn 0.000000 0.000000 1.000000
vn 0.000000 0.000000 1.000000
vn 0.000000 0.000000 1.000000
vn 0.000000 0.000000 1.000000
vn 0.000000 0.000000 1.000000
vn 0.000000 0.000000 1.000000
vn 0.000000 0.000000 1.000000
vn 0.000000 0.000000 1.000000
vn 0.000000 0.000000 1.000000
vn 0.000000 0.000000 1.000000
vn 0.000000 0.000000 1.000000
vn 0.000000 0.000000 1.000000
vn 0.000000 0.000000 1.000000
vn 0.000000 0.000000 1.000000
vn 0.000000 0.000000 1.000000
vn 0.000000 0.000000 1.000000
vn 0.000000 0.000000 1.000000
vn 0.000000 0.000000 1.000000
vn 0.000000 0.000000 1.000000
vn 0.000000 0.000000 1.000000
vn 0.000000 0.000000 1.000000
vn 0.000000 0.000000 1.000000
vn 0.000000 0.000000 1.000000
vn 0.000000 0.000000 1.000000
vn 0.000000 0.000000 -1.000000
vn 0.000000 0.000000 -1.000000
vn 0.000000 0.000000 -1.000000
vn 0.000000 0.000000 -1.000000
vn 0.000000 0.000000 -1.000000
vn 0.000000 0.000000 -1.000000
vn 0.000000 0.000000 -1.000000
vn 0.000000 0.000000 -1.000000
vn 0.000000 0.000000 -1.000000
vn 0.000000 0.000000 -1.000000
vn 0.000000 0.000000 -1.000000
vn 0.000000 0.000000 -1.000000
vn 0.000000 0.000000 -1.000000
vn 0.000000 0.000000 -1.000000
vn 0.000000 0.000000 -1.000000
vn 0.000000 0.000000 -1.000000
vn 0.000000 0.000000 -1.000000
vn 0.000000 0.000000 -1.000000
vn 0.000000 0.000000 -1.000000
vn 0.000000 0.000000 -1.000000
vn 0.000000 0.000000 -1.000000
vn 0.000000 0.000000 -1.000000
vn 0.000000 0.000000 -1.000000
vn 0.000000 0.000000 -1.000000
vn 0.000000 0.000000 -1.000000
vn 0.000000 0.000000 -1.000000
vn 0.000000 0.000000 -1.000000
vn 0.000000 0.000000 -1.000000
vn 0.000000 0.000000 -1.000000
vn 0.000000 0.000000 -1.000000
f 1/1/1 2/2/2 3/3/3
f 4/4/4 5/5/5 6/6/6
f 7/7/7 8/8/8 9/9/9
f 10/10/10 11/11/11 12/12/12
f 13/13/13 14/14/14 15/15/15
f 16/16/16 17/17/17 18/18/18
f 19/19/19 20/20/20 21/21/21
f 22/22/22 23/23/23 24/24/24
f 25/25/25 26/26/26 27/27/27
f 28/28/28 29/29/29 30/30/30
f 31/31/31 32/32/32 33/33/33
f 34/34/34 35/35/35 36/36/36
f 37/37/37 38/38/38 39/39/39
f 40/40/40 41/41/41 42/42/42
f 43/43/43 44/44/44 45/45/45
f 46/46/46 47/47/47 48/48/48
f 49/49/49 50/50/50 51/51/51
f 52/52/52 53/53/53 54/54/54
f 55/55/55 56/56/56 57/57/57
f 58/58/58 59/59/59 60/60/60
f 61/61/61 62/62/62 63/63/63
f 64/64/64 65/65/65 66/66/66
f 67/67/67 68/68/68 69/69/69
f 70/70/70 71/71/71 72/72/72
f 73/73/73 74/74/74 75/75/75
f 76/76/76 77/77/77 78/78/78
f 79/79/79 80/80/80 81/81/81
f 82/82/82 83/83/83 84/84/84
f 85/85/85 86/86/86 87/87/87
f 88/88/88 89/89/89 90/90/90
f 91/91/91 92/92/92 93/93/93
f 94/94/94 95/95/95 96/96/96
f 97/97/97 98/98/98 99/99/99
f 100/100/100 101/101/101 102/102/102
f 103/103/103 104/104/104 105/105/105
f 106/106/106 107/107/107 108/108/108
f 109/109/109 110/110/110 111/111/111
f 112/112/112 113/113/113 114/114/114
f 115/115/115 116/116/116 117/117/117
f 118/118/118 119/119/119 120/120/120
f 121/121/121 122/122/122 123/123/123
f 124/124/124 125/125/125 126/126/126
f 127/127/127 128/128/128 129/129/129
f 130/130/130 131/131/131 132/132/132
f 133/133/133 134/134/134 135/135/135
f 136/136/136 137/137/137 138/138/138
f 139/139/139 140/140/140 141/141/141
f 142/142/142 143/143/143 144/144/144
f 145/145/145 146/146/146 147/147/147
f 148/148/148 149/149/149 150/150/150
f 151/151/151 152/152/152 153/153/153
f 154/154/154 155/155/155 156/156/156
f 157/157/157 158/158/158 159/159/159
f 160/160/160 161/161/161 162/162/162
f 163/163/163 164/164/164 165/165/165
f 166/166/166 167/167/167 168/168/168
f 169/169/169 170/170/170 171/171/171
f 172/172/172 173/173/173 174/174/174
f 175/175/175 176/176/176 177/177/177
f 178/178/178 179/179/179 180/180/180
f 181/181/181 182/182/182 183/183/183
f 184/184/184 185/185/185 186/186/186
f 187/187/187 188/188/188 189/189/189
f 190/190/190 191/191/191 192/192/192
f 193/193/193 194/194/194 195/195/195
f 196/196/196 197/197/197 198/198/198
f 199/199/199 200/200/200 201/201/201
f 202/202/202 203/203/203 204/204/204
f 205/205/205 206/206/206 207/207/207
f 208/208/208 209/209/209 210/210/210
f 211/211/211 212/212/212 213/213/213
f 214/214/214 215/215/215 216/216/216
f 217/217/217 218/218/218 219/219/219
f 220/220/220 221/221/221 222/222/222
f 223/223/223 224/224/224 225/225/225
f 226/226/226 227/227/227 228/228/228
f 229/229/229 230/230/230 231/231/231
f 232/232/232 233/233/233 234/234/234
f 235/235/235 236/236/236 237/237/237
f 238/238/238 239/239/239 240/240/240
