# Torrent authored macroform LOD1 semantic component
# Imported production resource; exact geometry/authenticity false
o StarboardUpperSidePlane
usemtl torrent_hull_ivory
v 2.301667 1.030000 0.383333
v 1.250000 1.030000 -2.550000
v 1.480000 1.030000 2.450000
v 2.301667 1.030000 0.383333
v 1.480000 1.030000 2.450000
v 2.450000 1.030000 2.950000
v 2.301667 1.030000 0.383333
v 2.450000 1.030000 2.950000
v 3.360000 1.030000 2.350000
v 2.301667 1.030000 0.383333
v 3.360000 1.030000 2.350000
v 3.420000 1.030000 -0.550000
v 2.301667 1.030000 0.383333
v 3.420000 1.030000 -0.550000
v 1.850000 1.030000 -2.350000
v 2.301667 1.030000 0.383333
v 1.850000 1.030000 -2.350000
v 1.250000 1.030000 -2.550000
v 2.301667 0.790000 0.383333
v 1.480000 0.790000 2.450000
v 1.250000 0.790000 -2.550000
v 2.301667 0.790000 0.383333
v 2.450000 0.790000 2.950000
v 1.480000 0.790000 2.450000
v 2.301667 0.790000 0.383333
v 3.360000 0.790000 2.350000
v 2.450000 0.790000 2.950000
v 2.301667 0.790000 0.383333
v 3.420000 0.790000 -0.550000
v 3.360000 0.790000 2.350000
v 2.301667 0.790000 0.383333
v 1.850000 0.790000 -2.350000
v 3.420000 0.790000 -0.550000
v 2.301667 0.790000 0.383333
v 1.250000 0.790000 -2.550000
v 1.850000 0.790000 -2.350000
v 1.250000 1.030000 -2.550000
v 1.250000 0.790000 -2.550000
v 1.480000 0.790000 2.450000
v 1.250000 1.030000 -2.550000
v 1.480000 0.790000 2.450000
v 1.480000 1.030000 2.450000
v 1.480000 1.030000 2.450000
v 1.480000 0.790000 2.450000
v 2.450000 0.790000 2.950000
v 1.480000 1.030000 2.450000
v 2.450000 0.790000 2.950000
v 2.450000 1.030000 2.950000
v 2.450000 1.030000 2.950000
v 2.450000 0.790000 2.950000
v 3.360000 0.790000 2.350000
v 2.450000 1.030000 2.950000
v 3.360000 0.790000 2.350000
v 3.360000 1.030000 2.350000
v 3.360000 1.030000 2.350000
v 3.360000 0.790000 2.350000
v 3.420000 0.790000 -0.550000
v 3.360000 1.030000 2.350000
v 3.420000 0.790000 -0.550000
v 3.420000 1.030000 -0.550000
v 3.420000 1.030000 -0.550000
v 3.420000 0.790000 -0.550000
v 1.850000 0.790000 -2.350000
v 3.420000 1.030000 -0.550000
v 1.850000 0.790000 -2.350000
v 1.850000 1.030000 -2.350000
v 1.850000 1.030000 -2.350000
v 1.850000 0.790000 -2.350000
v 1.250000 0.790000 -2.550000
v 1.850000 1.030000 -2.350000
v 1.250000 0.790000 -2.550000
v 1.250000 1.030000 -2.550000
vt 0.676919 0.574933
vt 0.504000 0.656000
vt 0.541818 0.517818
vt 0.676919 0.574933
vt 0.541818 0.517818
vt 0.701309 0.504000
vt 0.676919 0.574933
vt 0.701309 0.504000
vt 0.850935 0.520582
vt 0.676919 0.574933
vt 0.850935 0.520582
vt 0.860800 0.600727
vt 0.676919 0.574933
vt 0.860800 0.600727
vt 0.602654 0.650473
vt 0.676919 0.574933
vt 0.602654 0.650473
vt 0.504000 0.656000
vt 0.676919 0.425067
vt 0.541818 0.482182
vt 0.504000 0.344000
vt 0.676919 0.425067
vt 0.701309 0.496000
vt 0.541818 0.482182
vt 0.676919 0.425067
vt 0.850935 0.479418
vt 0.701309 0.496000
vt 0.676919 0.425067
vt 0.860800 0.399273
vt 0.850935 0.479418
vt 0.676919 0.425067
vt 0.602654 0.349527
vt 0.860800 0.399273
vt 0.676919 0.425067
vt 0.504000 0.344000
vt 0.602654 0.349527
vt 0.860800 0.664000
vt 0.860800 0.816000
vt 0.504000 0.816000
vt 0.860800 0.664000
vt 0.504000 0.816000
vt 0.504000 0.664000
vt 0.860800 0.184000
vt 0.860800 0.336000
vt 0.676706 0.336000
vt 0.860800 0.184000
vt 0.676706 0.336000
vt 0.676706 0.184000
vt 0.676706 0.184000
vt 0.676706 0.336000
vt 0.504000 0.336000
vt 0.676706 0.184000
vt 0.504000 0.336000
vt 0.504000 0.184000
vt 0.860800 0.824000
vt 0.860800 0.976000
vt 0.640647 0.976000
vt 0.860800 0.824000
vt 0.640647 0.976000
vt 0.640647 0.824000
vt 0.640647 0.824000
vt 0.640647 0.976000
vt 0.504000 0.976000
vt 0.640647 0.824000
vt 0.504000 0.976000
vt 0.504000 0.824000
vt 0.860800 0.024000
vt 0.860800 0.176000
vt 0.504000 0.176000
vt 0.860800 0.024000
vt 0.504000 0.176000
vt 0.504000 0.024000
vn 0.000000 1.000000 0.000000
vn 0.000000 1.000000 0.000000
vn 0.000000 1.000000 0.000000
vn 0.000000 1.000000 0.000000
vn 0.000000 1.000000 0.000000
vn 0.000000 1.000000 0.000000
vn 0.000000 1.000000 0.000000
vn 0.000000 1.000000 0.000000
vn 0.000000 1.000000 0.000000
vn 0.000000 1.000000 0.000000
vn 0.000000 1.000000 0.000000
vn 0.000000 1.000000 0.000000
vn 0.000000 1.000000 0.000000
vn 0.000000 1.000000 0.000000
vn 0.000000 1.000000 0.000000
vn 0.000000 1.000000 0.000000
vn 0.000000 1.000000 0.000000
vn 0.000000 1.000000 0.000000
vn 0.000000 -1.000000 0.000000
vn 0.000000 -1.000000 0.000000
vn 0.000000 -1.000000 0.000000
vn 0.000000 -1.000000 0.000000
vn 0.000000 -1.000000 0.000000
vn 0.000000 -1.000000 0.000000
vn 0.000000 -1.000000 0.000000
vn 0.000000 -1.000000 0.000000
vn 0.000000 -1.000000 0.000000
vn 0.000000 -1.000000 0.000000
vn 0.000000 -1.000000 0.000000
vn 0.000000 -1.000000 0.000000
vn 0.000000 -1.000000 0.000000
vn 0.000000 -1.000000 0.000000
vn 0.000000 -1.000000 0.000000
vn 0.000000 -1.000000 0.000000
vn 0.000000 -1.000000 0.000000
vn 0.000000 -1.000000 0.000000
vn -0.998944 0.000000 0.045951
vn -0.998944 0.000000 0.045951
vn -0.998944 0.000000 0.045951
vn -0.998944 0.000000 0.045951
vn -0.998944 0.000000 0.045951
vn -0.998944 0.000000 0.045951
vn -0.458176 0.000000 0.888862
vn -0.458176 0.000000 0.888862
vn -0.458176 0.000000 0.888862
vn -0.458176 0.000000 0.888862
vn -0.458176 0.000000 0.888862
vn -0.458176 0.000000 0.888862
vn 0.550459 0.000000 0.834862
vn 0.550459 0.000000 0.834862
vn 0.550459 0.000000 0.834862
vn 0.550459 0.000000 0.834862
vn 0.550459 0.000000 0.834862
vn 0.550459 0.000000 0.834862
vn 0.999786 0.000000 0.020685
vn 0.999786 0.000000 0.020685
vn 0.999786 0.000000 0.020685
vn 0.999786 0.000000 0.020685
vn 0.999786 0.000000 0.020685
vn 0.999786 0.000000 0.020685
vn 0.753613 0.000000 -0.657318
vn 0.753613 0.000000 -0.657318
vn 0.753613 0.000000 -0.657318
vn 0.753613 0.000000 -0.657318
vn 0.753613 0.000000 -0.657318
vn 0.753613 0.000000 -0.657318
vn 0.316228 0.000000 -0.948683
vn 0.316228 0.000000 -0.948683
vn 0.316228 0.000000 -0.948683
vn 0.316228 0.000000 -0.948683
vn 0.316228 0.000000 -0.948683
vn 0.316228 0.000000 -0.948683
f 1/1/1 2/2/2 3/3/3
f 4/4/4 5/5/5 6/6/6
f 7/7/7 8/8/8 9/9/9
f 10/10/10 11/11/11 12/12/12
f 13/13/13 14/14/14 15/15/15
f 16/16/16 17/17/17 18/18/18
f 19/19/19 20/20/20 21/21/21
f 22/22/22 23/23/23 24/24/24
f 25/25/25 26/26/26 27/27/27
f 28/28/28 29/29/29 30/30/30
f 31/31/31 32/32/32 33/33/33
f 34/34/34 35/35/35 36/36/36
f 37/37/37 38/38/38 39/39/39
f 40/40/40 41/41/41 42/42/42
f 43/43/43 44/44/44 45/45/45
f 46/46/46 47/47/47 48/48/48
f 49/49/49 50/50/50 51/51/51
f 52/52/52 53/53/53 54/54/54
f 55/55/55 56/56/56 57/57/57
f 58/58/58 59/59/59 60/60/60
f 61/61/61 62/62/62 63/63/63
f 64/64/64 65/65/65 66/66/66
f 67/67/67 68/68/68 69/69/69
f 70/70/70 71/71/71 72/72/72
