# Torrent authored macroform LOD1 semantic component
# Imported production resource; exact geometry/authenticity false
o PointedNose
usemtl torrent_hull_ivory
v -0.034800 1.000000 -4.800000
v -0.313200 1.320000 -4.160000
v 0.313200 1.320000 -4.160000
v -0.034800 1.000000 -4.800000
v 0.313200 1.320000 -4.160000
v 0.034800 1.000000 -4.800000
v 0.034800 1.000000 -4.800000
v 0.313200 1.320000 -4.160000
v 0.475200 1.200000 -4.160000
v 0.034800 1.000000 -4.800000
v 0.475200 1.200000 -4.160000
v 0.052800 0.976000 -4.800000
v 0.052800 0.976000 -4.800000
v 0.475200 1.200000 -4.160000
v 0.540000 1.008000 -4.160000
v 0.052800 0.976000 -4.800000
v 0.540000 1.008000 -4.160000
v 0.060000 0.937600 -4.800000
v 0.060000 0.937600 -4.800000
v 0.540000 1.008000 -4.160000
v 0.540000 0.696000 -4.160000
v 0.060000 0.937600 -4.800000
v 0.540000 0.696000 -4.160000
v 0.060000 0.875200 -4.800000
v 0.060000 0.875200 -4.800000
v 0.540000 0.696000 -4.160000
v 0.334800 0.520000 -4.160000
v 0.060000 0.875200 -4.800000
v 0.334800 0.520000 -4.160000
v 0.037200 0.840000 -4.800000
v 0.037200 0.840000 -4.800000
v 0.334800 0.520000 -4.160000
v -0.334800 0.520000 -4.160000
v 0.037200 0.840000 -4.800000
v -0.334800 0.520000 -4.160000
v -0.037200 0.840000 -4.800000
v -0.037200 0.840000 -4.800000
v -0.334800 0.520000 -4.160000
v -0.540000 0.696000 -4.160000
v -0.037200 0.840000 -4.800000
v -0.540000 0.696000 -4.160000
v -0.060000 0.875200 -4.800000
v -0.060000 0.875200 -4.800000
v -0.540000 0.696000 -4.160000
v -0.540000 1.008000 -4.160000
v -0.060000 0.875200 -4.800000
v -0.540000 1.008000 -4.160000
v -0.060000 0.937600 -4.800000
v -0.060000 0.937600 -4.800000
v -0.540000 1.008000 -4.160000
v -0.475200 1.200000 -4.160000
v -0.060000 0.937600 -4.800000
v -0.475200 1.200000 -4.160000
v -0.052800 0.976000 -4.800000
v -0.052800 0.976000 -4.800000
v -0.475200 1.200000 -4.160000
v -0.313200 1.320000 -4.160000
v -0.052800 0.976000 -4.800000
v -0.313200 1.320000 -4.160000
v -0.034800 1.000000 -4.800000
v -0.313200 1.320000 -4.160000
v -0.684400 1.540000 -3.340000
v 0.684400 1.540000 -3.340000
v -0.313200 1.320000 -4.160000
v 0.684400 1.540000 -3.340000
v 0.313200 1.320000 -4.160000
v 0.313200 1.320000 -4.160000
v 0.684400 1.540000 -3.340000
v 1.038400 1.354000 -3.340000
v 0.313200 1.320000 -4.160000
v 1.038400 1.354000 -3.340000
v 0.475200 1.200000 -4.160000
v 0.475200 1.200000 -4.160000
v 1.038400 1.354000 -3.340000
v 1.180000 1.056400 -3.340000
v 0.475200 1.200000 -4.160000
v 1.180000 1.056400 -3.340000
v 0.540000 1.008000 -4.160000
v 0.540000 1.008000 -4.160000
v 1.180000 1.056400 -3.340000
v 1.180000 0.572800 -3.340000
v 0.540000 1.008000 -4.160000
v 1.180000 0.572800 -3.340000
v 0.540000 0.696000 -4.160000
v 0.540000 0.696000 -4.160000
v 1.180000 0.572800 -3.340000
v 0.731600 0.300000 -3.340000
v 0.540000 0.696000 -4.160000
v 0.731600 0.300000 -3.340000
v 0.334800 0.520000 -4.160000
v 0.334800 0.520000 -4.160000
v 0.731600 0.300000 -3.340000
v -0.731600 0.300000 -3.340000
v 0.334800 0.520000 -4.160000
v -0.731600 0.300000 -3.340000
v -0.334800 0.520000 -4.160000
v -0.334800 0.520000 -4.160000
v -0.731600 0.300000 -3.340000
v -1.180000 0.572800 -3.340000
v -0.334800 0.520000 -4.160000
v -1.180000 0.572800 -3.340000
v -0.540000 0.696000 -4.160000
v -0.540000 0.696000 -4.160000
v -1.180000 0.572800 -3.340000
v -1.180000 1.056400 -3.340000
v -0.540000 0.696000 -4.160000
v -1.180000 1.056400 -3.340000
v -0.540000 1.008000 -4.160000
v -0.540000 1.008000 -4.160000
v -1.180000 1.056400 -3.340000
v -1.038400 1.354000 -3.340000
v -0.540000 1.008000 -4.160000
v -1.038400 1.354000 -3.340000
v -0.475200 1.200000 -4.160000
v -0.475200 1.200000 -4.160000
v -1.038400 1.354000 -3.340000
v -0.684400 1.540000 -3.340000
v -0.475200 1.200000 -4.160000
v -0.684400 1.540000 -3.340000
v -0.313200 1.320000 -4.160000
v -0.684400 1.540000 -3.340000
v -0.962800 1.640000 -2.250000
v 0.962800 1.640000 -2.250000
v -0.684400 1.540000 -3.340000
v 0.962800 1.640000 -2.250000
v 0.684400 1.540000 -3.340000
v 0.684400 1.540000 -3.340000
v 0.962800 1.640000 -2.250000
v 1.460800 1.424000 -2.250000
v 0.684400 1.540000 -3.340000
v 1.460800 1.424000 -2.250000
v 1.038400 1.354000 -3.340000
v 1.038400 1.354000 -3.340000
v 1.460800 1.424000 -2.250000
v 1.660000 1.078400 -2.250000
v 1.038400 1.354000 -3.340000
v 1.660000 1.078400 -2.250000
v 1.180000 1.056400 -3.340000
v 1.180000 1.056400 -3.340000
v 1.660000 1.078400 -2.250000
v 1.660000 0.516800 -2.250000
v 1.180000 1.056400 -3.340000
v 1.660000 0.516800 -2.250000
v 1.180000 0.572800 -3.340000
v 1.180000 0.572800 -3.340000
v 1.660000 0.516800 -2.250000
v 1.029200 0.200000 -2.250000
v 1.180000 0.572800 -3.340000
v 1.029200 0.200000 -2.250000
v 0.731600 0.300000 -3.340000
v 0.731600 0.300000 -3.340000
v 1.029200 0.200000 -2.250000
v -1.029200 0.200000 -2.250000
v 0.731600 0.300000 -3.340000
v -1.029200 0.200000 -2.250000
v -0.731600 0.300000 -3.340000
v -0.731600 0.300000 -3.340000
v -1.029200 0.200000 -2.250000
v -1.660000 0.516800 -2.250000
v -0.731600 0.300000 -3.340000
v -1.660000 0.516800 -2.250000
v -1.180000 0.572800 -3.340000
v -1.180000 0.572800 -3.340000
v -1.660000 0.516800 -2.250000
v -1.660000 1.078400 -2.250000
v -1.180000 0.572800 -3.340000
v -1.660000 1.078400 -2.250000
v -1.180000 1.056400 -3.340000
v -1.180000 1.056400 -3.340000
v -1.660000 1.078400 -2.250000
v -1.460800 1.424000 -2.250000
v -1.180000 1.056400 -3.340000
v -1.460800 1.424000 -2.250000
v -1.038400 1.354000 -3.340000
v -1.038400 1.354000 -3.340000
v -1.460800 1.424000 -2.250000
v -0.962800 1.640000 -2.250000
v -1.038400 1.354000 -3.340000
v -0.962800 1.640000 -2.250000
v -0.684400 1.540000 -3.340000
v -0.962800 1.640000 -2.250000
v -1.067200 1.640000 -1.620000
v 1.067200 1.640000 -1.620000
v -0.962800 1.640000 -2.250000
v 1.067200 1.640000 -1.620000
v 0.962800 1.640000 -2.250000
v 0.962800 1.640000 -2.250000
v 1.067200 1.640000 -1.620000
v 1.619200 1.424000 -1.620000
v 0.962800 1.640000 -2.250000
v 1.619200 1.424000 -1.620000
v 1.460800 1.424000 -2.250000
v 1.460800 1.424000 -2.250000
v 1.619200 1.424000 -1.620000
v 1.840000 1.078400 -1.620000
v 1.460800 1.424000 -2.250000
v 1.840000 1.078400 -1.620000
v 1.660000 1.078400 -2.250000
v 1.660000 1.078400 -2.250000
v 1.840000 1.078400 -1.620000
v 1.840000 0.516800 -1.620000
v 1.660000 1.078400 -2.250000
v 1.840000 0.516800 -1.620000
v 1.660000 0.516800 -2.250000
v 1.660000 0.516800 -2.250000
v 1.840000 0.516800 -1.620000
v 1.140800 0.200000 -1.620000
v 1.660000 0.516800 -2.250000
v 1.140800 0.200000 -1.620000
v 1.029200 0.200000 -2.250000
v 1.029200 0.200000 -2.250000
v 1.140800 0.200000 -1.620000
v -1.140800 0.200000 -1.620000
v 1.029200 0.200000 -2.250000
v -1.140800 0.200000 -1.620000
v -1.029200 0.200000 -2.250000
v -1.029200 0.200000 -2.250000
v -1.140800 0.200000 -1.620000
v -1.840000 0.516800 -1.620000
v -1.029200 0.200000 -2.250000
v -1.840000 0.516800 -1.620000
v -1.660000 0.516800 -2.250000
v -1.660000 0.516800 -2.250000
v -1.840000 0.516800 -1.620000
v -1.840000 1.078400 -1.620000
v -1.660000 0.516800 -2.250000
v -1.840000 1.078400 -1.620000
v -1.660000 1.078400 -2.250000
v -1.660000 1.078400 -2.250000
v -1.840000 1.078400 -1.620000
v -1.619200 1.424000 -1.620000
v -1.660000 1.078400 -2.250000
v -1.619200 1.424000 -1.620000
v -1.460800 1.424000 -2.250000
v -1.460800 1.424000 -2.250000
v -1.619200 1.424000 -1.620000
v -1.067200 1.640000 -1.620000
v -1.460800 1.424000 -2.250000
v -1.067200 1.640000 -1.620000
v -0.962800 1.640000 -2.250000
v 0.000000 0.925760 -4.800000
v 0.034800 1.000000 -4.800000
v -0.034800 1.000000 -4.800000
v 0.000000 0.925760 -4.800000
v 0.052800 0.976000 -4.800000
v 0.034800 1.000000 -4.800000
v 0.000000 0.925760 -4.800000
v 0.060000 0.937600 -4.800000
v 0.052800 0.976000 -4.800000
v 0.000000 0.925760 -4.800000
v 0.060000 0.875200 -4.800000
v 0.060000 0.937600 -4.800000
v 0.000000 0.925760 -4.800000
v 0.037200 0.840000 -4.800000
v 0.060000 0.875200 -4.800000
v 0.000000 0.925760 -4.800000
v -0.037200 0.840000 -4.800000
v 0.037200 0.840000 -4.800000
v 0.000000 0.925760 -4.800000
v -0.060000 0.875200 -4.800000
v -0.037200 0.840000 -4.800000
v 0.000000 0.925760 -4.800000
v -0.060000 0.937600 -4.800000
v -0.060000 0.875200 -4.800000
v 0.000000 0.925760 -4.800000
v -0.052800 0.976000 -4.800000
v -0.060000 0.937600 -4.800000
v 0.000000 0.925760 -4.800000
v -0.034800 1.000000 -4.800000
v -0.052800 0.976000 -4.800000
v 0.000000 0.971840 -1.620000
v -1.067200 1.640000 -1.620000
v 1.067200 1.640000 -1.620000
v 0.000000 0.971840 -1.620000
v 1.067200 1.640000 -1.620000
v 1.619200 1.424000 -1.620000
v 0.000000 0.971840 -1.620000
v 1.619200 1.424000 -1.620000
v 1.840000 1.078400 -1.620000
v 0.000000 0.971840 -1.620000
v 1.840000 1.078400 -1.620000
v 1.840000 0.516800 -1.620000
v 0.000000 0.971840 -1.620000
v 1.840000 0.516800 -1.620000
v 1.140800 0.200000 -1.620000
v 0.000000 0.971840 -1.620000
v 1.140800 0.200000 -1.620000
v -1.140800 0.200000 -1.620000
v 0.000000 0.971840 -1.620000
v -1.140800 0.200000 -1.620000
v -1.840000 0.516800 -1.620000
v 0.000000 0.971840 -1.620000
v -1.840000 0.516800 -1.620000
v -1.840000 1.078400 -1.620000
v 0.000000 0.971840 -1.620000
v -1.840000 1.078400 -1.620000
v -1.619200 1.424000 -1.620000
v 0.000000 0.971840 -1.620000
v -1.619200 1.424000 -1.620000
v -1.067200 1.640000 -1.620000
vt 0.048267 0.656000
vt 0.044003 0.625409
vt 0.053597 0.625409
vt 0.048267 0.656000
vt 0.053597 0.625409
vt 0.049333 0.656000
vt 0.049333 0.656000
vt 0.053597 0.625409
vt 0.056078 0.625409
vt 0.024000 0.895041
vt 0.033982 0.861531
vt 0.024000 0.899062
vt 0.024000 0.899062
vt 0.033982 0.861531
vt 0.033982 0.893700
vt 0.024000 0.899062
vt 0.033982 0.893700
vt 0.024000 0.905496
vt 0.024000 0.905496
vt 0.033982 0.893700
vt 0.033982 0.945975
vt 0.024000 0.905496
vt 0.033982 0.945975
vt 0.024000 0.915951
vt 0.049609 0.344000
vt 0.056078 0.374591
vt 0.053313 0.374591
vt 0.024000 0.915951
vt 0.033982 0.975464
vt 0.024000 0.921848
vt 0.049301 0.344000
vt 0.053313 0.374591
vt 0.044287 0.374591
vt 0.049301 0.344000
vt 0.044287 0.374591
vt 0.048299 0.344000
vt 0.048299 0.344000
vt 0.044287 0.374591
vt 0.041522 0.374591
vt 0.073600 0.761848
vt 0.063618 0.785975
vt 0.073600 0.755951
vt 0.073600 0.755951
vt 0.063618 0.785975
vt 0.063618 0.733700
vt 0.073600 0.755951
vt 0.063618 0.733700
vt 0.073600 0.745496
vt 0.073600 0.745496
vt 0.063618 0.733700
vt 0.063618 0.701531
vt 0.073600 0.745496
vt 0.063618 0.701531
vt 0.073600 0.739062
vt 0.047991 0.656000
vt 0.041522 0.625409
vt 0.044003 0.625409
vt 0.073600 0.739062
vt 0.063618 0.681425
vt 0.073600 0.735041
vt 0.044003 0.625409
vt 0.038318 0.586214
vt 0.059282 0.586214
vt 0.044003 0.625409
vt 0.059282 0.586214
vt 0.053597 0.625409
vt 0.053597 0.625409
vt 0.059282 0.586214
vt 0.064704 0.586214
vt 0.053597 0.625409
vt 0.064704 0.586214
vt 0.056078 0.625409
vt 0.033982 0.861531
vt 0.046772 0.835728
vt 0.046772 0.885591
vt 0.033982 0.861531
vt 0.046772 0.885591
vt 0.033982 0.893700
vt 0.033982 0.893700
vt 0.046772 0.885591
vt 0.046772 0.966617
vt 0.033982 0.893700
vt 0.046772 0.966617
vt 0.033982 0.945975
vt 0.056078 0.374591
vt 0.064704 0.413786
vt 0.058661 0.413786
vt 0.056078 0.374591
vt 0.058661 0.413786
vt 0.053313 0.374591
vt 0.053313 0.374591
vt 0.058661 0.413786
vt 0.038939 0.413786
vt 0.053313 0.374591
vt 0.038939 0.413786
vt 0.044287 0.374591
vt 0.044287 0.374591
vt 0.038939 0.413786
vt 0.032896 0.413786
vt 0.044287 0.374591
vt 0.032896 0.413786
vt 0.041522 0.374591
vt 0.063618 0.785975
vt 0.050828 0.806617
vt 0.050828 0.725591
vt 0.063618 0.785975
vt 0.050828 0.725591
vt 0.063618 0.733700
vt 0.063618 0.733700
vt 0.050828 0.725591
vt 0.050828 0.675728
vt 0.063618 0.733700
vt 0.050828 0.675728
vt 0.063618 0.701531
vt 0.041522 0.625409
vt 0.032896 0.586214
vt 0.038318 0.586214
vt 0.041522 0.625409
vt 0.038318 0.586214
vt 0.044003 0.625409
vt 0.038318 0.586214
vt 0.034054 0.534113
vt 0.063546 0.534113
vt 0.038318 0.586214
vt 0.063546 0.534113
vt 0.059282 0.586214
vt 0.059282 0.586214
vt 0.063546 0.534113
vt 0.071174 0.534113
vt 0.059282 0.586214
vt 0.071174 0.534113
vt 0.064704 0.586214
vt 0.046772 0.835728
vt 0.063774 0.824000
vt 0.063774 0.881905
vt 0.046772 0.835728
vt 0.063774 0.881905
vt 0.046772 0.885591
vt 0.046772 0.885591
vt 0.063774 0.881905
vt 0.063774 0.976000
vt 0.046772 0.885591
vt 0.063774 0.976000
vt 0.046772 0.966617
vt 0.064704 0.413786
vt 0.071174 0.465887
vt 0.062672 0.465887
vt 0.064704 0.413786
vt 0.062672 0.465887
vt 0.058661 0.413786
vt 0.058661 0.413786
vt 0.062672 0.465887
vt 0.034928 0.465887
vt 0.058661 0.413786
vt 0.034928 0.465887
vt 0.038939 0.413786
vt 0.038939 0.413786
vt 0.034928 0.465887
vt 0.026426 0.465887
vt 0.038939 0.413786
vt 0.026426 0.465887
vt 0.032896 0.413786
vt 0.050828 0.806617
vt 0.033826 0.816000
vt 0.033826 0.721905
vt 0.050828 0.806617
vt 0.033826 0.721905
vt 0.050828 0.725591
vt 0.050828 0.725591
vt 0.033826 0.721905
vt 0.033826 0.664000
vt 0.050828 0.725591
vt 0.033826 0.664000
vt 0.050828 0.675728
vt 0.032896 0.586214
vt 0.026426 0.534113
vt 0.034054 0.534113
vt 0.032896 0.586214
vt 0.034054 0.534113
vt 0.038318 0.586214
vt 0.034054 0.534113
vt 0.032455 0.504000
vt 0.065145 0.504000
vt 0.034054 0.534113
vt 0.065145 0.504000
vt 0.063546 0.534113
vt 0.063546 0.534113
vt 0.065145 0.504000
vt 0.073600 0.504000
vt 0.063546 0.534113
vt 0.073600 0.504000
vt 0.071174 0.534113
vt 0.063774 0.824000
vt 0.073600 0.824000
vt 0.073600 0.881905
vt 0.063774 0.824000
vt 0.073600 0.881905
vt 0.063774 0.881905
vt 0.063774 0.881905
vt 0.073600 0.881905
vt 0.073600 0.976000
vt 0.063774 0.881905
vt 0.073600 0.976000
vt 0.063774 0.976000
vt 0.071174 0.465887
vt 0.073600 0.496000
vt 0.064176 0.496000
vt 0.071174 0.465887
vt 0.064176 0.496000
vt 0.062672 0.465887
vt 0.062672 0.465887
vt 0.064176 0.496000
vt 0.033424 0.496000
vt 0.062672 0.465887
vt 0.033424 0.496000
vt 0.034928 0.465887
vt 0.034928 0.465887
vt 0.033424 0.496000
vt 0.024000 0.496000
vt 0.034928 0.465887
vt 0.024000 0.496000
vt 0.026426 0.465887
vt 0.033826 0.816000
vt 0.024000 0.816000
vt 0.024000 0.721905
vt 0.033826 0.816000
vt 0.024000 0.721905
vt 0.033826 0.721905
vt 0.033826 0.721905
vt 0.024000 0.721905
vt 0.024000 0.664000
vt 0.033826 0.721905
vt 0.024000 0.664000
vt 0.033826 0.664000
vt 0.026426 0.534113
vt 0.024000 0.504000
vt 0.032455 0.504000
vt 0.026426 0.534113
vt 0.032455 0.504000
vt 0.034054 0.534113
vt 0.048800 0.254528
vt 0.034416 0.184000
vt 0.063184 0.184000
vt 0.048800 0.254528
vt 0.026976 0.206800
vt 0.034416 0.184000
vt 0.048800 0.254528
vt 0.024000 0.243280
vt 0.026976 0.206800
vt 0.048800 0.254528
vt 0.024000 0.302560
vt 0.024000 0.243280
vt 0.048800 0.254528
vt 0.033424 0.336000
vt 0.024000 0.302560
vt 0.048800 0.254528
vt 0.064176 0.336000
vt 0.033424 0.336000
vt 0.048800 0.254528
vt 0.073600 0.302560
vt 0.064176 0.336000
vt 0.048800 0.254528
vt 0.073600 0.243280
vt 0.073600 0.302560
vt 0.048800 0.254528
vt 0.070624 0.206800
vt 0.073600 0.243280
vt 0.048800 0.254528
vt 0.063184 0.184000
vt 0.070624 0.206800
vt 0.048800 0.094528
vt 0.034416 0.024000
vt 0.063184 0.024000
vt 0.048800 0.094528
vt 0.063184 0.024000
vt 0.070624 0.046800
vt 0.048800 0.094528
vt 0.070624 0.046800
vt 0.073600 0.083280
vt 0.048800 0.094528
vt 0.073600 0.083280
vt 0.073600 0.142560
vt 0.048800 0.094528
vt 0.073600 0.142560
vt 0.064176 0.176000
vt 0.048800 0.094528
vt 0.064176 0.176000
vt 0.033424 0.176000
vt 0.048800 0.094528
vt 0.033424 0.176000
vt 0.024000 0.142560
vt 0.048800 0.094528
vt 0.024000 0.142560
vt 0.024000 0.083280
vt 0.048800 0.094528
vt 0.024000 0.083280
vt 0.026976 0.046800
vt 0.048800 0.094528
vt 0.026976 0.046800
vt 0.034416 0.024000
vn 0.000000 0.894427 -0.447213
vn 0.000000 0.894427 -0.447213
vn 0.000000 0.894427 -0.447213
vn 0.000000 0.894427 -0.447214
vn 0.000000 0.894427 -0.447214
vn 0.000000 0.894427 -0.447214
vn 0.496622 0.670440 -0.551250
vn 0.496622 0.670440 -0.551250
vn 0.496622 0.670440 -0.551250
vn 0.643688 0.482767 -0.593802
vn 0.643688 0.482767 -0.593802
vn 0.643688 0.482767 -0.593802
vn 0.762629 0.257387 -0.593421
vn 0.762629 0.257387 -0.593421
vn 0.762629 0.257387 -0.593421
vn 0.783496 0.146906 -0.603782
vn 0.783496 0.146906 -0.603782
vn 0.783496 0.146906 -0.603782
vn 0.800000 0.000000 -0.600000
vn 0.800000 0.000000 -0.600000
vn 0.800000 0.000000 -0.600000
vn 0.800000 0.000000 -0.600000
vn 0.800000 0.000000 -0.600000
vn 0.800000 0.000000 -0.600000
vn 0.533146 -0.621600 -0.573907
vn 0.533146 -0.621600 -0.573907
vn 0.533146 -0.621600 -0.573907
vn 0.699822 -0.453294 -0.552064
vn 0.699822 -0.453294 -0.552064
vn 0.699822 -0.453294 -0.552064
vn 0.000000 -0.894427 -0.447213
vn 0.000000 -0.894427 -0.447213
vn 0.000000 -0.894427 -0.447213
vn 0.000000 -0.894427 -0.447213
vn 0.000000 -0.894427 -0.447213
vn 0.000000 -0.894427 -0.447213
vn -0.537794 -0.627019 -0.563583
vn -0.537794 -0.627019 -0.563583
vn -0.537794 -0.627019 -0.563583
vn -0.661254 -0.428312 -0.615867
vn -0.661254 -0.428312 -0.615867
vn -0.661254 -0.428312 -0.615867
vn -0.800000 0.000000 -0.600000
vn -0.800000 0.000000 -0.600000
vn -0.800000 0.000000 -0.600000
vn -0.800000 0.000000 -0.600000
vn -0.800000 0.000000 -0.600000
vn -0.800000 0.000000 -0.600000
vn -0.759524 0.256339 -0.597840
vn -0.759524 0.256339 -0.597840
vn -0.759524 0.256339 -0.597840
vn -0.800208 0.150039 -0.580651
vn -0.800208 0.150039 -0.580651
vn -0.800208 0.150039 -0.580651
vn -0.493561 0.666307 -0.558957
vn -0.493561 0.666307 -0.558957
vn -0.493561 0.666307 -0.558957
vn -0.671368 0.503526 -0.543808
vn -0.671368 0.503526 -0.543808
vn -0.671368 0.503526 -0.543808
vn 0.000000 0.965843 -0.259128
vn 0.000000 0.965843 -0.259128
vn 0.000000 0.965843 -0.259128
vn 0.000000 0.965843 -0.259128
vn 0.000000 0.965843 -0.259128
vn 0.000000 0.965843 -0.259128
vn 0.424468 0.807858 -0.408892
vn 0.424468 0.807858 -0.408892
vn 0.424468 0.807858 -0.408892
vn 0.519399 0.701189 -0.488425
vn 0.519399 0.701189 -0.488425
vn 0.519399 0.701189 -0.488425
vn 0.739452 0.351836 -0.573954
vn 0.739452 0.351836 -0.573954
vn 0.739452 0.351836 -0.573954
vn 0.754946 0.254794 -0.604265
vn 0.754946 0.254794 -0.604265
vn 0.754946 0.254794 -0.604265
vn 0.788316 0.000000 -0.615271
vn 0.788316 0.000000 -0.615271
vn 0.788316 0.000000 -0.615271
vn 0.788316 0.000000 -0.615271
vn 0.788316 0.000000 -0.615271
vn 0.788316 0.000000 -0.615271
vn 0.458476 -0.753594 -0.471058
vn 0.458476 -0.753594 -0.471058
vn 0.458476 -0.753594 -0.471058
vn 0.577920 -0.673802 -0.460433
vn 0.577920 -0.673802 -0.460433
vn 0.577920 -0.673802 -0.460433
vn 0.000000 -0.965843 -0.259129
vn 0.000000 -0.965843 -0.259129
vn 0.000000 -0.965843 -0.259129
vn 0.000000 -0.965843 -0.259129
vn 0.000000 -0.965843 -0.259129
vn 0.000000 -0.965843 -0.259129
vn -0.468439 -0.769970 -0.433256
vn -0.468439 -0.769970 -0.433256
vn -0.468439 -0.769970 -0.433256
vn -0.552779 -0.644490 -0.528268
vn -0.552779 -0.644490 -0.528268
vn -0.552779 -0.644490 -0.528268
vn -0.788316 0.000000 -0.615271
vn -0.788316 0.000000 -0.615271
vn -0.788316 0.000000 -0.615271
vn -0.788316 0.000000 -0.615271
vn -0.788316 0.000000 -0.615271
vn -0.788316 0.000000 -0.615271
vn -0.729290 0.347001 -0.589683
vn -0.729290 0.347001 -0.589683
vn -0.729290 0.347001 -0.589683
vn -0.772270 0.260641 -0.579367
vn -0.772270 0.260641 -0.579367
vn -0.772270 0.260641 -0.579367
vn -0.418386 0.796283 -0.436906
vn -0.418386 0.796283 -0.436906
vn -0.418386 0.796283 -0.436906
vn -0.535554 0.722998 -0.436411
vn -0.535554 0.722998 -0.436411
vn -0.535554 0.722998 -0.436411
vn 0.000000 0.995818 -0.091359
vn 0.000000 0.995818 -0.091359
vn 0.000000 0.995818 -0.091359
vn 0.000000 0.995818 -0.091359
vn 0.000000 0.995818 -0.091359
vn 0.000000 0.995818 -0.091359
vn 0.391222 0.901984 -0.182674
vn 0.391222 0.901984 -0.182674
vn 0.391222 0.901984 -0.182674
vn 0.452581 0.861363 -0.230702
vn 0.452581 0.861363 -0.230702
vn 0.452581 0.861363 -0.230702
vn 0.813127 0.468678 -0.345204
vn 0.813127 0.468678 -0.345204
vn 0.813127 0.468678 -0.345204
vn 0.836574 0.398047 -0.376434
vn 0.836574 0.398047 -0.376434
vn 0.836574 0.398047 -0.376434
vn 0.915191 0.000000 -0.403020
vn 0.915191 0.000000 -0.403020
vn 0.915191 0.000000 -0.403020
vn 0.915191 0.000000 -0.403020
vn 0.915191 0.000000 -0.403020
vn 0.915191 0.000000 -0.403020
vn 0.436053 -0.868253 -0.236631
vn 0.436053 -0.868253 -0.236631
vn 0.436053 -0.868253 -0.236631
vn 0.507584 -0.834313 -0.215127
vn 0.507584 -0.834313 -0.215127
vn 0.507584 -0.834313 -0.215127
vn 0.000000 -0.995818 -0.091359
vn 0.000000 -0.995818 -0.091359
vn 0.000000 -0.995818 -0.091359
vn 0.000000 -0.995818 -0.091359
vn 0.000000 -0.995818 -0.091359
vn 0.000000 -0.995818 -0.091359
vn -0.439698 -0.875510 -0.200372
vn -0.439698 -0.875510 -0.200372
vn -0.439698 -0.875510 -0.200372
vn -0.501433 -0.824204 -0.263159
vn -0.501433 -0.824204 -0.263159
vn -0.501433 -0.824204 -0.263159
vn -0.915191 0.000000 -0.403020
vn -0.915191 0.000000 -0.403020
vn -0.915191 0.000000 -0.403020
vn -0.915191 0.000000 -0.403020
vn -0.915191 0.000000 -0.403020
vn -0.915191 0.000000 -0.403020
vn -0.806733 0.464992 -0.364644
vn -0.806733 0.464992 -0.364644
vn -0.806733 0.464992 -0.364644
vn -0.844798 0.401960 -0.353193
vn -0.844798 0.401960 -0.353193
vn -0.844798 0.401960 -0.353193
vn -0.389178 0.897271 -0.208438
vn -0.389178 0.897271 -0.208438
vn -0.389178 0.897271 -0.208438
vn -0.456094 0.868050 -0.196130
vn -0.456094 0.868050 -0.196130
vn -0.456094 0.868050 -0.196130
vn 0.000000 1.000000 0.000000
vn 0.000000 1.000000 0.000000
vn 0.000000 1.000000 0.000000
vn 0.000000 1.000000 0.000000
vn 0.000000 1.000000 0.000000
vn 0.000000 1.000000 0.000000
vn 0.363737 0.929550 -0.060276
vn 0.363737 0.929550 -0.060276
vn 0.363737 0.929550 -0.060276
vn 0.395941 0.912864 -0.099551
vn 0.395941 0.912864 -0.099551
vn 0.395941 0.912864 -0.099551
vn 0.824395 0.526697 -0.207277
vn 0.824395 0.526697 -0.207277
vn 0.824395 0.526697 -0.207277
vn 0.841002 0.484745 -0.240286
vn 0.841002 0.484745 -0.240286
vn 0.841002 0.484745 -0.240286
vn 0.961524 0.000000 -0.274721
vn 0.961524 0.000000 -0.274721
vn 0.961524 0.000000 -0.274721
vn 0.961524 0.000000 -0.274721
vn 0.961524 0.000000 -0.274721
vn 0.961524 0.000000 -0.274721
vn 0.409864 -0.904598 -0.117104
vn 0.409864 -0.904598 -0.117104
vn 0.409864 -0.904598 -0.117104
vn 0.447388 -0.890822 -0.079252
vn 0.447388 -0.890822 -0.079252
vn 0.447388 -0.890822 -0.079252
vn 0.000000 -1.000000 0.000000
vn 0.000000 -1.000000 0.000000
vn 0.000000 -1.000000 0.000000
vn 0.000000 -1.000000 0.000000
vn 0.000000 -1.000000 0.000000
vn 0.000000 -1.000000 0.000000
vn -0.411605 -0.908441 -0.072913
vn -0.411605 -0.908441 -0.072913
vn -0.411605 -0.908441 -0.072913
vn -0.445155 -0.886375 -0.127187
vn -0.445155 -0.886375 -0.127187
vn -0.445155 -0.886375 -0.127187
vn -0.961524 0.000000 -0.274721
vn -0.961524 0.000000 -0.274721
vn -0.961524 0.000000 -0.274721
vn -0.961524 0.000000 -0.274721
vn -0.961524 0.000000 -0.274721
vn -0.961524 0.000000 -0.274721
vn -0.819284 0.523431 -0.234081
vn -0.819284 0.523431 -0.234081
vn -0.819284 0.523431 -0.234081
vn -0.846534 0.487933 -0.212843
vn -0.846534 0.487933 -0.212843
vn -0.846534 0.487933 -0.212843
vn -0.362879 0.927359 -0.091238
vn -0.362879 0.927359 -0.091238
vn -0.362879 0.927359 -0.091238
vn -0.397055 0.915433 -0.065798
vn -0.397055 0.915433 -0.065798
vn -0.397055 0.915433 -0.065798
vn 0.000000 0.000006 1.000000
vn 0.000000 0.000006 1.000000
vn 0.000000 0.000006 1.000000
vn 0.000005 0.000004 1.000000
vn 0.000005 0.000004 1.000000
vn 0.000005 0.000004 1.000000
vn 0.000008 0.000001 1.000000
vn 0.000008 0.000001 1.000000
vn 0.000008 0.000001 1.000000
vn 0.000008 0.000000 1.000000
vn 0.000008 0.000000 1.000000
vn 0.000008 0.000000 1.000000
vn 0.000005 -0.000003 1.000000
vn 0.000005 -0.000003 1.000000
vn 0.000005 -0.000003 1.000000
vn 0.000000 -0.000006 1.000000
vn 0.000000 -0.000006 1.000000
vn 0.000000 -0.000006 1.000000
vn -0.000005 -0.000003 1.000000
vn -0.000005 -0.000003 1.000000
vn -0.000005 -0.000003 1.000000
vn -0.000008 0.000000 1.000000
vn -0.000008 0.000000 1.000000
vn -0.000008 0.000000 1.000000
vn -0.000008 0.000001 1.000000
vn -0.000008 0.000001 1.000000
vn -0.000008 0.000001 1.000000
vn -0.000005 0.000004 1.000000
vn -0.000005 0.000004 1.000000
vn -0.000005 0.000004 1.000000
vn 0.000000 0.000000 -1.000000
vn 0.000000 0.000000 -1.000000
vn 0.000000 0.000000 -1.000000
vn 0.000000 0.000000 -1.000000
vn 0.000000 0.000000 -1.000000
vn 0.000000 0.000000 -1.000000
vn 0.000000 0.000000 -1.000000
vn 0.000000 0.000000 -1.000000
vn 0.000000 0.000000 -1.000000
vn 0.000000 0.000000 -1.000000
vn 0.000000 0.000000 -1.000000
vn 0.000000 0.000000 -1.000000
vn 0.000000 0.000000 -1.000000
vn 0.000000 0.000000 -1.000000
vn 0.000000 0.000000 -1.000000
vn 0.000000 0.000000 -1.000000
vn 0.000000 0.000000 -1.000000
vn 0.000000 0.000000 -1.000000
vn 0.000000 0.000000 -1.000000
vn 0.000000 0.000000 -1.000000
vn 0.000000 0.000000 -1.000000
vn 0.000000 0.000000 -1.000000
vn 0.000000 0.000000 -1.000000
vn 0.000000 0.000000 -1.000000
vn 0.000000 0.000000 -1.000000
vn 0.000000 0.000000 -1.000000
vn 0.000000 0.000000 -1.000000
vn 0.000000 0.000000 -1.000000
vn 0.000000 0.000000 -1.000000
vn 0.000000 0.000000 -1.000000
f 1/1/1 2/2/2 3/3/3
f 4/4/4 5/5/5 6/6/6
f 7/7/7 8/8/8 9/9/9
f 10/10/10 11/11/11 12/12/12
f 13/13/13 14/14/14 15/15/15
f 16/16/16 17/17/17 18/18/18
f 19/19/19 20/20/20 21/21/21
f 22/22/22 23/23/23 24/24/24
f 25/25/25 26/26/26 27/27/27
f 28/28/28 29/29/29 30/30/30
f 31/31/31 32/32/32 33/33/33
f 34/34/34 35/35/35 36/36/36
f 37/37/37 38/38/38 39/39/39
f 40/40/40 41/41/41 42/42/42
f 43/43/43 44/44/44 45/45/45
f 46/46/46 47/47/47 48/48/48
f 49/49/49 50/50/50 51/51/51
f 52/52/52 53/53/53 54/54/54
f 55/55/55 56/56/56 57/57/57
f 58/58/58 59/59/59 60/60/60
f 61/61/61 62/62/62 63/63/63
f 64/64/64 65/65/65 66/66/66
f 67/67/67 68/68/68 69/69/69
f 70/70/70 71/71/71 72/72/72
f 73/73/73 74/74/74 75/75/75
f 76/76/76 77/77/77 78/78/78
f 79/79/79 80/80/80 81/81/81
f 82/82/82 83/83/83 84/84/84
f 85/85/85 86/86/86 87/87/87
f 88/88/88 89/89/89 90/90/90
f 91/91/91 92/92/92 93/93/93
f 94/94/94 95/95/95 96/96/96
f 97/97/97 98/98/98 99/99/99
f 100/100/100 101/101/101 102/102/102
f 103/103/103 104/104/104 105/105/105
f 106/106/106 107/107/107 108/108/108
f 109/109/109 110/110/110 111/111/111
f 112/112/112 113/113/113 114/114/114
f 115/115/115 116/116/116 117/117/117
f 118/118/118 119/119/119 120/120/120
f 121/121/121 122/122/122 123/123/123
f 124/124/124 125/125/125 126/126/126
f 127/127/127 128/128/128 129/129/129
f 130/130/130 131/131/131 132/132/132
f 133/133/133 134/134/134 135/135/135
f 136/136/136 137/137/137 138/138/138
f 139/139/139 140/140/140 141/141/141
f 142/142/142 143/143/143 144/144/144
f 145/145/145 146/146/146 147/147/147
f 148/148/148 149/149/149 150/150/150
f 151/151/151 152/152/152 153/153/153
f 154/154/154 155/155/155 156/156/156
f 157/157/157 158/158/158 159/159/159
f 160/160/160 161/161/161 162/162/162
f 163/163/163 164/164/164 165/165/165
f 166/166/166 167/167/167 168/168/168
f 169/169/169 170/170/170 171/171/171
f 172/172/172 173/173/173 174/174/174
f 175/175/175 176/176/176 177/177/177
f 178/178/178 179/179/179 180/180/180
f 181/181/181 182/182/182 183/183/183
f 184/184/184 185/185/185 186/186/186
f 187/187/187 188/188/188 189/189/189
f 190/190/190 191/191/191 192/192/192
f 193/193/193 194/194/194 195/195/195
f 196/196/196 197/197/197 198/198/198
f 199/199/199 200/200/200 201/201/201
f 202/202/202 203/203/203 204/204/204
f 205/205/205 206/206/206 207/207/207
f 208/208/208 209/209/209 210/210/210
f 211/211/211 212/212/212 213/213/213
f 214/214/214 215/215/215 216/216/216
f 217/217/217 218/218/218 219/219/219
f 220/220/220 221/221/221 222/222/222
f 223/223/223 224/224/224 225/225/225
f 226/226/226 227/227/227 228/228/228
f 229/229/229 230/230/230 231/231/231
f 232/232/232 233/233/233 234/234/234
f 235/235/235 236/236/236 237/237/237
f 238/238/238 239/239/239 240/240/240
f 241/241/241 242/242/242 243/243/243
f 244/244/244 245/245/245 246/246/246
f 247/247/247 248/248/248 249/249/249
f 250/250/250 251/251/251 252/252/252
f 253/253/253 254/254/254 255/255/255
f 256/256/256 257/257/257 258/258/258
f 259/259/259 260/260/260 261/261/261
f 262/262/262 263/263/263 264/264/264
f 265/265/265 266/266/266 267/267/267
f 268/268/268 269/269/269 270/270/270
f 271/271/271 272/272/272 273/273/273
f 274/274/274 275/275/275 276/276/276
f 277/277/277 278/278/278 279/279/279
f 280/280/280 281/281/281 282/282/282
f 283/283/283 284/284/284 285/285/285
f 286/286/286 287/287/287 288/288/288
f 289/289/289 290/290/290 291/291/291
f 292/292/292 293/293/293 294/294/294
f 295/295/295 296/296/296 297/297/297
f 298/298/298 299/299/299 300/300/300
