# Torrent authored macroform LOD0 semantic component
# Imported production resource; exact geometry/authenticity false
o PortLowerSidePlane
usemtl torrent_hull_light
v -2.517143 0.710000 0.121429
v -1.149600 0.710000 -3.228500
v -1.873350 0.710000 -3.035500
v -2.517143 0.710000 0.121429
v -1.873350 0.710000 -3.035500
v -3.127850 0.710000 -1.346750
v -2.517143 0.710000 0.121429
v -3.127850 0.710000 -1.346750
v -3.562100 0.710000 0.197250
v -2.517143 0.710000 0.121429
v -3.562100 0.710000 0.197250
v -3.484900 0.710000 2.561500
v -2.517143 0.710000 0.121429
v -3.484900 0.710000 2.561500
v -2.741850 0.710000 3.092250
v -2.517143 0.710000 0.121429
v -2.741850 0.710000 3.092250
v -1.680350 0.710000 2.609750
v -2.517143 0.710000 0.121429
v -1.680350 0.710000 2.609750
v -1.149600 0.710000 -3.228500
v -2.517143 0.410000 0.121429
v -1.873350 0.410000 -3.035500
v -1.149600 0.410000 -3.228500
v -2.517143 0.410000 0.121429
v -3.127850 0.410000 -1.346750
v -1.873350 0.410000 -3.035500
v -2.517143 0.410000 0.121429
v -3.562100 0.410000 0.197250
v -3.127850 0.410000 -1.346750
v -2.517143 0.410000 0.121429
v -3.484900 0.410000 2.561500
v -3.562100 0.410000 0.197250
v -2.517143 0.410000 0.121429
v -2.741850 0.410000 3.092250
v -3.484900 0.410000 2.561500
v -2.517143 0.410000 0.121429
v -1.680350 0.410000 2.609750
v -2.741850 0.410000 3.092250
v -2.517143 0.410000 0.121429
v -1.149600 0.410000 -3.228500
v -1.680350 0.410000 2.609750
v -1.149600 0.710000 -3.228500
v -1.873350 0.710000 -3.035500
v -1.850000 0.650000 -3.150000
v -1.149600 0.710000 -3.228500
v -1.850000 0.650000 -3.150000
v -1.100000 0.650000 -3.350000
v -1.100000 0.650000 -3.350000
v -1.100000 0.470000 -3.350000
v -1.850000 0.470000 -3.150000
v -1.100000 0.650000 -3.350000
v -1.850000 0.470000 -3.150000
v -1.850000 0.650000 -3.150000
v -1.149600 0.410000 -3.228500
v -1.100000 0.470000 -3.350000
v -1.850000 0.470000 -3.150000
v -1.149600 0.410000 -3.228500
v -1.850000 0.470000 -3.150000
v -1.873350 0.410000 -3.035500
v -1.873350 0.710000 -3.035500
v -3.127850 0.710000 -1.346750
v -3.150000 0.650000 -1.400000
v -1.873350 0.710000 -3.035500
v -3.150000 0.650000 -1.400000
v -1.850000 0.650000 -3.150000
v -1.850000 0.650000 -3.150000
v -1.850000 0.470000 -3.150000
v -3.150000 0.470000 -1.400000
v -1.850000 0.650000 -3.150000
v -3.150000 0.470000 -1.400000
v -3.150000 0.650000 -1.400000
v -1.873350 0.410000 -3.035500
v -1.850000 0.470000 -3.150000
v -3.150000 0.470000 -1.400000
v -1.873350 0.410000 -3.035500
v -3.150000 0.470000 -1.400000
v -3.127850 0.410000 -1.346750
v -3.127850 0.710000 -1.346750
v -3.562100 0.710000 0.197250
v -3.600000 0.650000 0.200000
v -3.127850 0.710000 -1.346750
v -3.600000 0.650000 0.200000
v -3.150000 0.650000 -1.400000
v -3.150000 0.650000 -1.400000
v -3.150000 0.470000 -1.400000
v -3.600000 0.470000 0.200000
v -3.150000 0.650000 -1.400000
v -3.600000 0.470000 0.200000
v -3.600000 0.650000 0.200000
v -3.127850 0.410000 -1.346750
v -3.150000 0.470000 -1.400000
v -3.600000 0.470000 0.200000
v -3.127850 0.410000 -1.346750
v -3.600000 0.470000 0.200000
v -3.562100 0.410000 0.197250
v -3.562100 0.710000 0.197250
v -3.484900 0.710000 2.561500
v -3.520000 0.650000 2.650000
v -3.562100 0.710000 0.197250
v -3.520000 0.650000 2.650000
v -3.600000 0.650000 0.200000
v -3.600000 0.650000 0.200000
v -3.600000 0.470000 0.200000
v -3.520000 0.470000 2.650000
v -3.600000 0.650000 0.200000
v -3.520000 0.470000 2.650000
v -3.520000 0.650000 2.650000
v -3.562100 0.410000 0.197250
v -3.600000 0.470000 0.200000
v -3.520000 0.470000 2.650000
v -3.562100 0.410000 0.197250
v -3.520000 0.470000 2.650000
v -3.484900 0.410000 2.561500
v -3.484900 0.710000 2.561500
v -2.741850 0.710000 3.092250
v -2.750000 0.650000 3.200000
v -3.484900 0.710000 2.561500
v -2.750000 0.650000 3.200000
v -3.520000 0.650000 2.650000
v -3.520000 0.650000 2.650000
v -3.520000 0.470000 2.650000
v -2.750000 0.470000 3.200000
v -3.520000 0.650000 2.650000
v -2.750000 0.470000 3.200000
v -2.750000 0.650000 3.200000
v -3.484900 0.410000 2.561500
v -3.520000 0.470000 2.650000
v -2.750000 0.470000 3.200000
v -3.484900 0.410000 2.561500
v -2.750000 0.470000 3.200000
v -2.741850 0.410000 3.092250
v -2.741850 0.710000 3.092250
v -1.680350 0.710000 2.609750
v -1.650000 0.650000 2.700000
v -2.741850 0.710000 3.092250
v -1.650000 0.650000 2.700000
v -2.750000 0.650000 3.200000
v -2.750000 0.650000 3.200000
v -2.750000 0.470000 3.200000
v -1.650000 0.470000 2.700000
v -2.750000 0.650000 3.200000
v -1.650000 0.470000 2.700000
v -1.650000 0.650000 2.700000
v -2.741850 0.410000 3.092250
v -2.750000 0.470000 3.200000
v -1.650000 0.470000 2.700000
v -2.741850 0.410000 3.092250
v -1.650000 0.470000 2.700000
v -1.680350 0.410000 2.609750
v -1.680350 0.710000 2.609750
v -1.149600 0.710000 -3.228500
v -1.100000 0.650000 -3.350000
v -1.680350 0.710000 2.609750
v -1.100000 0.650000 -3.350000
v -1.650000 0.650000 2.700000
v -1.650000 0.650000 2.700000
v -1.650000 0.470000 2.700000
v -1.100000 0.470000 -3.350000
v -1.650000 0.650000 2.700000
v -1.100000 0.470000 -3.350000
v -1.100000 0.650000 -3.350000
v -1.680350 0.410000 2.609750
v -1.650000 0.470000 2.700000
v -1.100000 0.470000 -3.350000
v -1.680350 0.410000 2.609750
v -1.100000 0.470000 -3.350000
v -1.149600 0.410000 -3.228500
v -1.898472 0.716657 -1.283331
v -1.896134 0.725750 -1.285030
v -1.893320 0.725750 -1.273309
v -1.898472 0.716657 -1.283331
v -1.893320 0.725750 -1.273309
v -1.897877 0.714613 -1.274030
v -2.221137 0.716657 -1.334436
v -2.224578 0.714613 -1.325775
v -2.229134 0.725750 -1.326496
v -2.221137 0.716657 -1.334436
v -2.229134 0.725750 -1.326496
v -2.222836 0.725750 -1.336774
v -1.897877 0.714613 -1.274030
v -1.893320 0.725750 -1.273309
v -2.130866 0.725750 0.226496
v -1.897877 0.714613 -1.274030
v -2.130866 0.725750 0.226496
v -2.135422 0.714613 0.225775
v -2.224578 0.714613 -1.325775
v -2.462124 0.714613 0.174030
v -2.466680 0.725750 0.173308
v -2.224578 0.714613 -1.325775
v -2.466680 0.725750 0.173308
v -2.229134 0.725750 -1.326496
v -2.135422 0.714613 0.225775
v -2.130866 0.725750 0.226496
v -2.137164 0.725750 0.236774
v -2.135422 0.714613 0.225775
v -2.137164 0.725750 0.236774
v -2.138863 0.716657 0.234436
v -2.462124 0.714613 0.174030
v -2.461528 0.716657 0.183331
v -2.463866 0.725750 0.185030
v -2.462124 0.714613 0.174030
v -2.463866 0.725750 0.185030
v -2.466680 0.725750 0.173308
v -1.896134 0.725750 -1.285030
v -1.896134 0.764250 -1.285030
v -1.893320 0.764250 -1.273309
v -1.896134 0.725750 -1.285030
v -1.893320 0.764250 -1.273309
v -1.893320 0.725750 -1.273309
v -2.222836 0.725750 -1.336774
v -2.229134 0.725750 -1.326496
v -2.229134 0.764250 -1.326496
v -2.222836 0.725750 -1.336774
v -2.229134 0.764250 -1.326496
v -2.222836 0.764250 -1.336774
v -1.893320 0.725750 -1.273309
v -1.893320 0.764250 -1.273309
v -2.130866 0.764250 0.226496
v -1.893320 0.725750 -1.273309
v -2.130866 0.764250 0.226496
v -2.130866 0.725750 0.226496
v -2.229134 0.725750 -1.326496
v -2.466680 0.725750 0.173308
v -2.466680 0.764250 0.173308
v -2.229134 0.725750 -1.326496
v -2.466680 0.764250 0.173308
v -2.229134 0.764250 -1.326496
v -2.130866 0.725750 0.226496
v -2.130866 0.764250 0.226496
v -2.137164 0.764250 0.236774
v -2.130866 0.725750 0.226496
v -2.137164 0.764250 0.236774
v -2.137164 0.725750 0.236774
v -2.466680 0.725750 0.173308
v -2.463866 0.725750 0.185030
v -2.463866 0.764250 0.185030
v -2.466680 0.725750 0.173308
v -2.463866 0.764250 0.185030
v -2.466680 0.764250 0.173308
v -1.896134 0.764250 -1.285030
v -1.898472 0.773343 -1.283331
v -1.897877 0.775387 -1.274030
v -1.896134 0.764250 -1.285030
v -1.897877 0.775387 -1.274030
v -1.893320 0.764250 -1.273309
v -2.222836 0.764250 -1.336774
v -2.229134 0.764250 -1.326496
v -2.224578 0.775387 -1.325775
v -2.222836 0.764250 -1.336774
v -2.224578 0.775387 -1.325775
v -2.221137 0.773343 -1.334436
v -1.893320 0.764250 -1.273309
v -1.897877 0.775387 -1.274030
v -2.135422 0.775387 0.225775
v -1.893320 0.764250 -1.273309
v -2.135422 0.775387 0.225775
v -2.130866 0.764250 0.226496
v -2.229134 0.764250 -1.326496
v -2.466680 0.764250 0.173308
v -2.462124 0.775387 0.174030
v -2.229134 0.764250 -1.326496
v -2.462124 0.775387 0.174030
v -2.224578 0.775387 -1.325775
v -2.130866 0.764250 0.226496
v -2.135422 0.775387 0.225775
v -2.138863 0.773343 0.234436
v -2.130866 0.764250 0.226496
v -2.138863 0.773343 0.234436
v -2.137164 0.764250 0.236774
v -2.466680 0.764250 0.173308
v -2.463866 0.764250 0.185030
v -2.461528 0.773343 0.183331
v -2.466680 0.764250 0.173308
v -2.461528 0.773343 0.183331
v -2.462124 0.775387 0.174030
v -2.221137 0.773343 -1.334436
v -2.224578 0.775387 -1.325775
v -2.213578 0.780000 -1.324032
v -2.221137 0.773343 -1.334436
v -2.213578 0.780000 -1.324032
v -2.211836 0.775387 -1.335032
v -2.221137 0.716657 -1.334436
v -2.211836 0.714613 -1.335032
v -2.213578 0.710000 -1.324032
v -2.221137 0.716657 -1.334436
v -2.213578 0.710000 -1.324032
v -2.224578 0.714613 -1.325775
v -2.224578 0.775387 -1.325775
v -2.462124 0.775387 0.174030
v -2.451124 0.780000 0.175772
v -2.224578 0.775387 -1.325775
v -2.451124 0.780000 0.175772
v -2.213578 0.780000 -1.324032
v -2.224578 0.714613 -1.325775
v -2.213578 0.710000 -1.324032
v -2.451124 0.710000 0.175772
v -2.224578 0.714613 -1.325775
v -2.451124 0.710000 0.175772
v -2.462124 0.714613 0.174030
v -2.462124 0.775387 0.174030
v -2.461528 0.773343 0.183331
v -2.452866 0.775387 0.186772
v -2.462124 0.775387 0.174030
v -2.452866 0.775387 0.186772
v -2.451124 0.780000 0.175772
v -2.462124 0.714613 0.174030
v -2.451124 0.710000 0.175772
v -2.452866 0.714613 0.186772
v -2.462124 0.714613 0.174030
v -2.452866 0.714613 0.186772
v -2.461528 0.716657 0.183331
v -2.211836 0.775387 -1.335032
v -2.213578 0.780000 -1.324032
v -1.908876 0.780000 -1.275772
v -2.211836 0.775387 -1.335032
v -1.908876 0.780000 -1.275772
v -1.907134 0.775387 -1.286772
v -2.211836 0.714613 -1.335032
v -1.907134 0.714613 -1.286772
v -1.908876 0.710000 -1.275772
v -2.211836 0.714613 -1.335032
v -1.908876 0.710000 -1.275772
v -2.213578 0.710000 -1.324032
v -2.213578 0.780000 -1.324032
v -2.451124 0.780000 0.175772
v -2.146422 0.780000 0.224032
v -2.213578 0.780000 -1.324032
v -2.146422 0.780000 0.224032
v -1.908876 0.780000 -1.275772
v -2.213578 0.710000 -1.324032
v -1.908876 0.710000 -1.275772
v -2.146422 0.710000 0.224032
v -2.213578 0.710000 -1.324032
v -2.146422 0.710000 0.224032
v -2.451124 0.710000 0.175772
v -2.451124 0.780000 0.175772
v -2.452866 0.775387 0.186772
v -2.148164 0.775387 0.235032
v -2.451124 0.780000 0.175772
v -2.148164 0.775387 0.235032
v -2.146422 0.780000 0.224032
v -2.451124 0.710000 0.175772
v -2.146422 0.710000 0.224032
v -2.148164 0.714613 0.235032
v -2.451124 0.710000 0.175772
v -2.148164 0.714613 0.235032
v -2.452866 0.714613 0.186772
v -1.907134 0.775387 -1.286772
v -1.908876 0.780000 -1.275772
v -1.897877 0.775387 -1.274030
v -1.907134 0.775387 -1.286772
v -1.897877 0.775387 -1.274030
v -1.898472 0.773343 -1.283331
v -1.907134 0.714613 -1.286772
v -1.898472 0.716657 -1.283331
v -1.897877 0.714613 -1.274030
v -1.907134 0.714613 -1.286772
v -1.897877 0.714613 -1.274030
v -1.908876 0.710000 -1.275772
v -1.908876 0.780000 -1.275772
v -2.146422 0.780000 0.224032
v -2.135422 0.775387 0.225775
v -1.908876 0.780000 -1.275772
v -2.135422 0.775387 0.225775
v -1.897877 0.775387 -1.274030
v -1.908876 0.710000 -1.275772
v -1.897877 0.714613 -1.274030
v -2.135422 0.714613 0.225775
v -1.908876 0.710000 -1.275772
v -2.135422 0.714613 0.225775
v -2.146422 0.710000 0.224032
v -2.146422 0.780000 0.224032
v -2.148164 0.775387 0.235032
v -2.138863 0.773343 0.234436
v -2.146422 0.780000 0.224032
v -2.138863 0.773343 0.234436
v -2.135422 0.775387 0.225775
v -2.146422 0.710000 0.224032
v -2.135422 0.714613 0.225775
v -2.138863 0.716657 0.234436
v -2.146422 0.710000 0.224032
v -2.138863 0.716657 0.234436
v -2.148164 0.714613 0.235032
v -2.461528 0.716657 0.183331
v -2.452866 0.714613 0.186772
v -2.453588 0.725750 0.191328
v -2.461528 0.716657 0.183331
v -2.453588 0.725750 0.191328
v -2.463866 0.725750 0.185030
v -2.221137 0.716657 -1.334436
v -2.222836 0.725750 -1.336774
v -2.211114 0.725750 -1.339588
v -2.221137 0.716657 -1.334436
v -2.211114 0.725750 -1.339588
v -2.211836 0.714613 -1.335032
v -2.463866 0.725750 0.185030
v -2.453588 0.725750 0.191328
v -2.453588 0.764250 0.191328
v -2.463866 0.725750 0.185030
v -2.453588 0.764250 0.191328
v -2.463866 0.764250 0.185030
v -2.222836 0.725750 -1.336774
v -2.222836 0.764250 -1.336774
v -2.211114 0.764250 -1.339588
v -2.222836 0.725750 -1.336774
v -2.211114 0.764250 -1.339588
v -2.211114 0.725750 -1.339588
v -2.463866 0.764250 0.185030
v -2.453588 0.764250 0.191328
v -2.452866 0.775387 0.186772
v -2.463866 0.764250 0.185030
v -2.452866 0.775387 0.186772
v -2.461528 0.773343 0.183331
v -2.222836 0.764250 -1.336774
v -2.221137 0.773343 -1.334436
v -2.211836 0.775387 -1.335032
v -2.222836 0.764250 -1.336774
v -2.211836 0.775387 -1.335032
v -2.211114 0.764250 -1.339588
v -2.452866 0.714613 0.186772
v -2.148164 0.714613 0.235032
v -2.148886 0.725750 0.239588
v -2.452866 0.714613 0.186772
v -2.148886 0.725750 0.239588
v -2.453588 0.725750 0.191328
v -2.211836 0.714613 -1.335032
v -2.211114 0.725750 -1.339588
v -1.906412 0.725750 -1.291328
v -2.211836 0.714613 -1.335032
v -1.906412 0.725750 -1.291328
v -1.907134 0.714613 -1.286772
v -2.453588 0.725750 0.191328
v -2.148886 0.725750 0.239588
v -2.148886 0.764250 0.239588
v -2.453588 0.725750 0.191328
v -2.148886 0.764250 0.239588
v -2.453588 0.764250 0.191328
v -2.211114 0.725750 -1.339588
v -2.211114 0.764250 -1.339588
v -1.906412 0.764250 -1.291328
v -2.211114 0.725750 -1.339588
v -1.906412 0.764250 -1.291328
v -1.906412 0.725750 -1.291328
v -2.453588 0.764250 0.191328
v -2.148886 0.764250 0.239588
v -2.148164 0.775387 0.235032
v -2.453588 0.764250 0.191328
v -2.148164 0.775387 0.235032
v -2.452866 0.775387 0.186772
v -2.211114 0.764250 -1.339588
v -2.211836 0.775387 -1.335032
v -1.907134 0.775387 -1.286772
v -2.211114 0.764250 -1.339588
v -1.907134 0.775387 -1.286772
v -1.906412 0.764250 -1.291328
v -2.148164 0.714613 0.235032
v -2.138863 0.716657 0.234436
v -2.137164 0.725750 0.236774
v -2.148164 0.714613 0.235032
v -2.137164 0.725750 0.236774
v -2.148886 0.725750 0.239588
v -1.907134 0.714613 -1.286772
v -1.906412 0.725750 -1.291328
v -1.896134 0.725750 -1.285030
v -1.907134 0.714613 -1.286772
v -1.896134 0.725750 -1.285030
v -1.898472 0.716657 -1.283331
v -2.148886 0.725750 0.239588
v -2.137164 0.725750 0.236774
v -2.137164 0.764250 0.236774
v -2.148886 0.725750 0.239588
v -2.137164 0.764250 0.236774
v -2.148886 0.764250 0.239588
v -1.906412 0.725750 -1.291328
v -1.906412 0.764250 -1.291328
v -1.896134 0.764250 -1.285030
v -1.906412 0.725750 -1.291328
v -1.896134 0.764250 -1.285030
v -1.896134 0.725750 -1.285030
v -2.148886 0.764250 0.239588
v -2.137164 0.764250 0.236774
v -2.138863 0.773343 0.234436
v -2.148886 0.764250 0.239588
v -2.138863 0.773343 0.234436
v -2.148164 0.775387 0.235032
v -1.906412 0.764250 -1.291328
v -1.907134 0.775387 -1.286772
v -1.898472 0.773343 -1.283331
v -1.906412 0.764250 -1.291328
v -1.898472 0.773343 -1.283331
v -1.896134 0.764250 -1.285030
v -2.603441 0.716657 0.744430
v -2.601662 0.725750 0.742153
v -2.595726 0.725750 0.752644
v -2.603441 0.716657 0.744430
v -2.595726 0.725750 0.752644
v -2.600305 0.714613 0.753207
v -2.887991 0.716657 0.779369
v -2.888911 0.714613 0.788643
v -2.893490 0.725750 0.789205
v -2.887991 0.716657 0.779369
v -2.893490 0.725750 0.789205
v -2.890268 0.725750 0.777589
v -2.600305 0.714613 0.753207
v -2.595726 0.725750 0.752644
v -2.426510 0.725750 2.130795
v -2.600305 0.714613 0.753207
v -2.426510 0.725750 2.130795
v -2.431089 0.714613 2.131357
v -2.888911 0.714613 0.788643
v -2.719696 0.714613 2.166793
v -2.724274 0.725750 2.167356
v -2.888911 0.714613 0.788643
v -2.724274 0.725750 2.167356
v -2.893490 0.725750 0.789205
v -2.431089 0.714613 2.131357
v -2.426510 0.725750 2.130795
v -2.429732 0.725750 2.142411
v -2.431089 0.714613 2.131357
v -2.429732 0.725750 2.142411
v -2.432009 0.716657 2.140631
v -2.719696 0.714613 2.166793
v -2.716559 0.716657 2.175570
v -2.718338 0.725750 2.177847
v -2.719696 0.714613 2.166793
v -2.718338 0.725750 2.177847
v -2.724274 0.725750 2.167356
v -2.601662 0.725750 0.742153
v -2.601662 0.764250 0.742153
v -2.595726 0.764250 0.752644
v -2.601662 0.725750 0.742153
v -2.595726 0.764250 0.752644
v -2.595726 0.725750 0.752644
v -2.890268 0.725750 0.777589
v -2.893490 0.725750 0.789205
v -2.893490 0.764250 0.789205
v -2.890268 0.725750 0.777589
v -2.893490 0.764250 0.789205
v -2.890268 0.764250 0.777589
v -2.595726 0.725750 0.752644
v -2.595726 0.764250 0.752644
v -2.426510 0.764250 2.130795
v -2.595726 0.725750 0.752644
v -2.426510 0.764250 2.130795
v -2.426510 0.725750 2.130795
v -2.893490 0.725750 0.789205
v -2.724274 0.725750 2.167356
v -2.724274 0.764250 2.167356
v -2.893490 0.725750 0.789205
v -2.724274 0.764250 2.167356
v -2.893490 0.764250 0.789205
v -2.426510 0.725750 2.130795
v -2.426510 0.764250 2.130795
v -2.429732 0.764250 2.142411
v -2.426510 0.725750 2.130795
v -2.429732 0.764250 2.142411
v -2.429732 0.725750 2.142411
v -2.724274 0.725750 2.167356
v -2.718338 0.725750 2.177847
v -2.718338 0.764250 2.177847
v -2.724274 0.725750 2.167356
v -2.718338 0.764250 2.177847
v -2.724274 0.764250 2.167356
v -2.601662 0.764250 0.742153
v -2.603441 0.773343 0.744430
v -2.600305 0.775387 0.753207
v -2.601662 0.764250 0.742153
v -2.600305 0.775387 0.753207
v -2.595726 0.764250 0.752644
v -2.890268 0.764250 0.777589
v -2.893490 0.764250 0.789205
v -2.888911 0.775387 0.788643
v -2.890268 0.764250 0.777589
v -2.888911 0.775387 0.788643
v -2.887991 0.773343 0.779369
v -2.595726 0.764250 0.752644
v -2.600305 0.775387 0.753207
v -2.431089 0.775387 2.131357
v -2.595726 0.764250 0.752644
v -2.431089 0.775387 2.131357
v -2.426510 0.764250 2.130795
v -2.893490 0.764250 0.789205
v -2.724274 0.764250 2.167356
v -2.719696 0.775387 2.166793
v -2.893490 0.764250 0.789205
v -2.719696 0.775387 2.166793
v -2.888911 0.775387 0.788643
v -2.426510 0.764250 2.130795
v -2.431089 0.775387 2.131357
v -2.432009 0.773343 2.140631
v -2.426510 0.764250 2.130795
v -2.432009 0.773343 2.140631
v -2.429732 0.764250 2.142411
v -2.724274 0.764250 2.167356
v -2.718338 0.764250 2.177847
v -2.716559 0.773343 2.175570
v -2.724274 0.764250 2.167356
v -2.716559 0.773343 2.175570
v -2.719696 0.775387 2.166793
v -2.887991 0.773343 0.779369
v -2.888911 0.775387 0.788643
v -2.877857 0.780000 0.787286
v -2.887991 0.773343 0.779369
v -2.877857 0.780000 0.787286
v -2.879215 0.775387 0.776232
v -2.887991 0.716657 0.779369
v -2.879215 0.714613 0.776232
v -2.877857 0.710000 0.787286
v -2.887991 0.716657 0.779369
v -2.877857 0.710000 0.787286
v -2.888911 0.714613 0.788643
v -2.888911 0.775387 0.788643
v -2.719696 0.775387 2.166793
v -2.708642 0.780000 2.165436
v -2.888911 0.775387 0.788643
v -2.708642 0.780000 2.165436
v -2.877857 0.780000 0.787286
v -2.888911 0.714613 0.788643
v -2.877857 0.710000 0.787286
v -2.708642 0.710000 2.165436
v -2.888911 0.714613 0.788643
v -2.708642 0.710000 2.165436
v -2.719696 0.714613 2.166793
v -2.719696 0.775387 2.166793
v -2.716559 0.773343 2.175570
v -2.707284 0.775387 2.176490
v -2.719696 0.775387 2.166793
v -2.707284 0.775387 2.176490
v -2.708642 0.780000 2.165436
v -2.719696 0.714613 2.166793
v -2.708642 0.710000 2.165436
v -2.707284 0.714613 2.176490
v -2.719696 0.714613 2.166793
v -2.707284 0.714613 2.176490
v -2.716559 0.716657 2.175570
v -2.879215 0.775387 0.776232
v -2.877857 0.780000 0.787286
v -2.611359 0.780000 0.754564
v -2.879215 0.775387 0.776232
v -2.611359 0.780000 0.754564
v -2.612716 0.775387 0.743510
v -2.879215 0.714613 0.776232
v -2.612716 0.714613 0.743510
v -2.611359 0.710000 0.754564
v -2.879215 0.714613 0.776232
v -2.611359 0.710000 0.754564
v -2.877857 0.710000 0.787286
v -2.877857 0.780000 0.787286
v -2.708642 0.780000 2.165436
v -2.442143 0.780000 2.132714
v -2.877857 0.780000 0.787286
v -2.442143 0.780000 2.132714
v -2.611359 0.780000 0.754564
v -2.877857 0.710000 0.787286
v -2.611359 0.710000 0.754564
v -2.442143 0.710000 2.132714
v -2.877857 0.710000 0.787286
v -2.442143 0.710000 2.132714
v -2.708642 0.710000 2.165436
v -2.708642 0.780000 2.165436
v -2.707284 0.775387 2.176490
v -2.440786 0.775387 2.143768
v -2.708642 0.780000 2.165436
v -2.440786 0.775387 2.143768
v -2.442143 0.780000 2.132714
v -2.708642 0.710000 2.165436
v -2.442143 0.710000 2.132714
v -2.440786 0.714613 2.143768
v -2.708642 0.710000 2.165436
v -2.440786 0.714613 2.143768
v -2.707284 0.714613 2.176490
v -2.612716 0.775387 0.743510
v -2.611359 0.780000 0.754564
v -2.600305 0.775387 0.753207
v -2.612716 0.775387 0.743510
v -2.600305 0.775387 0.753207
v -2.603441 0.773343 0.744430
v -2.612716 0.714613 0.743510
v -2.603441 0.716657 0.744430
v -2.600305 0.714613 0.753207
v -2.612716 0.714613 0.743510
v -2.600305 0.714613 0.753207
v -2.611359 0.710000 0.754564
v -2.611359 0.780000 0.754564
v -2.442143 0.780000 2.132714
v -2.431089 0.775387 2.131357
v -2.611359 0.780000 0.754564
v -2.431089 0.775387 2.131357
v -2.600305 0.775387 0.753207
v -2.611359 0.710000 0.754564
v -2.600305 0.714613 0.753207
v -2.431089 0.714613 2.131357
v -2.611359 0.710000 0.754564
v -2.431089 0.714613 2.131357
v -2.442143 0.710000 2.132714
v -2.442143 0.780000 2.132714
v -2.440786 0.775387 2.143768
v -2.432009 0.773343 2.140631
v -2.442143 0.780000 2.132714
v -2.432009 0.773343 2.140631
v -2.431089 0.775387 2.131357
v -2.442143 0.710000 2.132714
v -2.431089 0.714613 2.131357
v -2.432009 0.716657 2.140631
v -2.442143 0.710000 2.132714
v -2.432009 0.716657 2.140631
v -2.440786 0.714613 2.143768
v -2.716559 0.716657 2.175570
v -2.707284 0.714613 2.176490
v -2.706722 0.725750 2.181069
v -2.716559 0.716657 2.175570
v -2.706722 0.725750 2.181069
v -2.718338 0.725750 2.177847
v -2.887991 0.716657 0.779369
v -2.890268 0.725750 0.777589
v -2.879777 0.725750 0.771653
v -2.887991 0.716657 0.779369
v -2.879777 0.725750 0.771653
v -2.879215 0.714613 0.776232
v -2.718338 0.725750 2.177847
v -2.706722 0.725750 2.181069
v -2.706722 0.764250 2.181069
v -2.718338 0.725750 2.177847
v -2.706722 0.764250 2.181069
v -2.718338 0.764250 2.177847
v -2.890268 0.725750 0.777589
v -2.890268 0.764250 0.777589
v -2.879777 0.764250 0.771653
v -2.890268 0.725750 0.777589
v -2.879777 0.764250 0.771653
v -2.879777 0.725750 0.771653
v -2.718338 0.764250 2.177847
v -2.706722 0.764250 2.181069
v -2.707284 0.775387 2.176490
v -2.718338 0.764250 2.177847
v -2.707284 0.775387 2.176490
v -2.716559 0.773343 2.175570
v -2.890268 0.764250 0.777589
v -2.887991 0.773343 0.779369
v -2.879215 0.775387 0.776232
v -2.890268 0.764250 0.777589
v -2.879215 0.775387 0.776232
v -2.879777 0.764250 0.771653
v -2.707284 0.714613 2.176490
v -2.440786 0.714613 2.143768
v -2.440223 0.725750 2.148347
v -2.707284 0.714613 2.176490
v -2.440223 0.725750 2.148347
v -2.706722 0.725750 2.181069
v -2.879215 0.714613 0.776232
v -2.879777 0.725750 0.771653
v -2.613278 0.725750 0.738931
v -2.879215 0.714613 0.776232
v -2.613278 0.725750 0.738931
v -2.612716 0.714613 0.743510
v -2.706722 0.725750 2.181069
v -2.440223 0.725750 2.148347
v -2.440223 0.764250 2.148347
v -2.706722 0.725750 2.181069
v -2.440223 0.764250 2.148347
v -2.706722 0.764250 2.181069
v -2.879777 0.725750 0.771653
v -2.879777 0.764250 0.771653
v -2.613278 0.764250 0.738931
v -2.879777 0.725750 0.771653
v -2.613278 0.764250 0.738931
v -2.613278 0.725750 0.738931
v -2.706722 0.764250 2.181069
v -2.440223 0.764250 2.148347
v -2.440786 0.775387 2.143768
v -2.706722 0.764250 2.181069
v -2.440786 0.775387 2.143768
v -2.707284 0.775387 2.176490
v -2.879777 0.764250 0.771653
v -2.879215 0.775387 0.776232
v -2.612716 0.775387 0.743510
v -2.879777 0.764250 0.771653
v -2.612716 0.775387 0.743510
v -2.613278 0.764250 0.738931
v -2.440786 0.714613 2.143768
v -2.432009 0.716657 2.140631
v -2.429732 0.725750 2.142411
v -2.440786 0.714613 2.143768
v -2.429732 0.725750 2.142411
v -2.440223 0.725750 2.148347
v -2.612716 0.714613 0.743510
v -2.613278 0.725750 0.738931
v -2.601662 0.725750 0.742153
v -2.612716 0.714613 0.743510
v -2.601662 0.725750 0.742153
v -2.603441 0.716657 0.744430
v -2.440223 0.725750 2.148347
v -2.429732 0.725750 2.142411
v -2.429732 0.764250 2.142411
v -2.440223 0.725750 2.148347
v -2.429732 0.764250 2.142411
v -2.440223 0.764250 2.148347
v -2.613278 0.725750 0.738931
v -2.613278 0.764250 0.738931
v -2.601662 0.764250 0.742153
v -2.613278 0.725750 0.738931
v -2.601662 0.764250 0.742153
v -2.601662 0.725750 0.742153
v -2.440223 0.764250 2.148347
v -2.429732 0.764250 2.142411
v -2.432009 0.773343 2.140631
v -2.440223 0.764250 2.148347
v -2.432009 0.773343 2.140631
v -2.440786 0.775387 2.143768
v -2.613278 0.764250 0.738931
v -2.612716 0.775387 0.743510
v -2.603441 0.773343 0.744430
v -2.613278 0.764250 0.738931
v -2.603441 0.773343 0.744430
v -2.601662 0.764250 0.742153
vt 0.290632 0.575442
vt 0.488812 0.653180
vt 0.383928 0.648702
vt 0.290632 0.575442
vt 0.383928 0.648702
vt 0.202130 0.609512
vt 0.290632 0.575442
vt 0.202130 0.609512
vt 0.139200 0.573682
vt 0.290632 0.575442
vt 0.139200 0.573682
vt 0.150388 0.518817
vt 0.290632 0.575442
vt 0.150388 0.518817
vt 0.258068 0.506500
vt 0.290632 0.575442
vt 0.258068 0.506500
vt 0.411897 0.517697
vt 0.290632 0.575442
vt 0.411897 0.517697
vt 0.488812 0.653180
vt 0.290632 0.424558
vt 0.383928 0.351298
vt 0.488812 0.346820
vt 0.290632 0.424558
vt 0.202130 0.390488
vt 0.383928 0.351298
vt 0.290632 0.424558
vt 0.139200 0.426318
vt 0.202130 0.390488
vt 0.290632 0.424558
vt 0.150388 0.481183
vt 0.139200 0.426318
vt 0.290632 0.424558
vt 0.258068 0.493500
vt 0.150388 0.481183
vt 0.290632 0.424558
vt 0.411897 0.482303
vt 0.258068 0.493500
vt 0.290632 0.424558
vt 0.488812 0.346820
vt 0.411897 0.482303
vt 0.488812 0.346820
vt 0.383928 0.351298
vt 0.387312 0.348641
vt 0.488812 0.346820
vt 0.387312 0.348641
vt 0.496000 0.344000
vt 0.496000 0.086409
vt 0.496000 0.176000
vt 0.346525 0.176000
vt 0.496000 0.086409
vt 0.346525 0.176000
vt 0.346525 0.086409
vt 0.488812 0.653180
vt 0.496000 0.656000
vt 0.387312 0.651359
vt 0.488812 0.653180
vt 0.387312 0.651359
vt 0.383928 0.648702
vt 0.383928 0.351298
vt 0.202130 0.390488
vt 0.198920 0.389252
vt 0.383928 0.351298
vt 0.198920 0.389252
vt 0.387312 0.348641
vt 0.484205 0.716161
vt 0.484205 0.791040
vt 0.380998 0.791040
vt 0.484205 0.716161
vt 0.380998 0.791040
vt 0.380998 0.716161
vt 0.383928 0.648702
vt 0.387312 0.651359
vt 0.198920 0.610748
vt 0.383928 0.648702
vt 0.198920 0.610748
vt 0.202130 0.609512
vt 0.257342 0.851201
vt 0.348400 0.851201
vt 0.348562 0.876161
vt 0.257342 0.851201
vt 0.348562 0.876161
vt 0.254202 0.876161
vt 0.380998 0.716161
vt 0.380998 0.791040
vt 0.286638 0.791040
vt 0.380998 0.716161
vt 0.286638 0.791040
vt 0.286638 0.716161
vt 0.257342 0.976000
vt 0.254202 0.951040
vt 0.348562 0.951040
vt 0.257342 0.976000
vt 0.348562 0.951040
vt 0.348400 0.976000
vt 0.348400 0.851201
vt 0.487832 0.851201
vt 0.493051 0.876161
vt 0.348400 0.851201
vt 0.493051 0.876161
vt 0.348562 0.876161
vt 0.286638 0.716161
vt 0.286638 0.791040
vt 0.142149 0.791040
vt 0.286638 0.716161
vt 0.142149 0.791040
vt 0.142149 0.716161
vt 0.348400 0.976000
vt 0.348562 0.951040
vt 0.493051 0.951040
vt 0.348400 0.976000
vt 0.493051 0.951040
vt 0.487832 0.976000
vt 0.150388 0.481183
vt 0.258068 0.493500
vt 0.256887 0.496000
vt 0.150388 0.481183
vt 0.256887 0.496000
vt 0.145301 0.483237
vt 0.496000 0.246409
vt 0.496000 0.336000
vt 0.349082 0.336000
vt 0.496000 0.246409
vt 0.349082 0.336000
vt 0.349082 0.246409
vt 0.150388 0.518817
vt 0.145301 0.516763
vt 0.256887 0.504000
vt 0.150388 0.518817
vt 0.256887 0.504000
vt 0.258068 0.506500
vt 0.258068 0.493500
vt 0.411897 0.482303
vt 0.416296 0.484397
vt 0.258068 0.493500
vt 0.416296 0.484397
vt 0.256887 0.496000
vt 0.349082 0.246409
vt 0.349082 0.336000
vt 0.139200 0.336000
vt 0.349082 0.246409
vt 0.139200 0.336000
vt 0.139200 0.246409
vt 0.258068 0.506500
vt 0.256887 0.504000
vt 0.416296 0.515603
vt 0.258068 0.506500
vt 0.416296 0.515603
vt 0.411897 0.517697
vt 0.144523 0.691201
vt 0.488835 0.691201
vt 0.496000 0.716161
vt 0.144523 0.691201
vt 0.496000 0.716161
vt 0.139200 0.716161
vt 0.496000 0.876161
vt 0.496000 0.951040
vt 0.139200 0.951040
vt 0.496000 0.876161
vt 0.139200 0.951040
vt 0.139200 0.876161
vt 0.144523 0.816000
vt 0.139200 0.791040
vt 0.496000 0.791040
vt 0.144523 0.816000
vt 0.496000 0.791040
vt 0.488835 0.816000
vt 0.261082 0.848432
vt 0.260982 0.844649
vt 0.261673 0.844649
vt 0.261082 0.848432
vt 0.261673 0.844649
vt 0.261631 0.849282
vt 0.377132 0.688432
vt 0.376621 0.689282
vt 0.376663 0.684649
vt 0.377132 0.688432
vt 0.376663 0.684649
vt 0.377270 0.684649
vt 0.261631 0.849282
vt 0.261673 0.844649
vt 0.350125 0.844649
vt 0.261631 0.849282
vt 0.350125 0.844649
vt 0.350082 0.849282
vt 0.376621 0.689282
vt 0.288170 0.689282
vt 0.288212 0.684649
vt 0.376621 0.689282
vt 0.288212 0.684649
vt 0.376663 0.684649
vt 0.350082 0.849282
vt 0.350125 0.844649
vt 0.350731 0.844649
vt 0.350082 0.849282
vt 0.350731 0.844649
vt 0.350593 0.848432
vt 0.288170 0.689282
vt 0.287621 0.688432
vt 0.287521 0.684649
vt 0.288170 0.689282
vt 0.287521 0.684649
vt 0.288212 0.684649
vt 0.260982 0.844649
vt 0.260982 0.828633
vt 0.261673 0.828633
vt 0.260982 0.844649
vt 0.261673 0.828633
vt 0.261673 0.844649
vt 0.377270 0.684649
vt 0.376663 0.684649
vt 0.376663 0.668633
vt 0.377270 0.684649
vt 0.376663 0.668633
vt 0.377270 0.668633
vt 0.261673 0.844649
vt 0.261673 0.828633
vt 0.350125 0.828633
vt 0.261673 0.844649
vt 0.350125 0.828633
vt 0.350125 0.844649
vt 0.376663 0.684649
vt 0.288212 0.684649
vt 0.288212 0.668633
vt 0.376663 0.684649
vt 0.288212 0.668633
vt 0.376663 0.668633
vt 0.350125 0.844649
vt 0.350125 0.828633
vt 0.350731 0.828633
vt 0.350125 0.844649
vt 0.350731 0.828633
vt 0.350731 0.844649
vt 0.288212 0.684649
vt 0.287521 0.684649
vt 0.287521 0.668633
vt 0.288212 0.684649
vt 0.287521 0.668633
vt 0.288212 0.668633
vt 0.260982 0.828633
vt 0.261082 0.824850
vt 0.261631 0.824000
vt 0.260982 0.828633
vt 0.261631 0.824000
vt 0.261673 0.828633
vt 0.377270 0.668633
vt 0.376663 0.668633
vt 0.376621 0.664000
vt 0.377270 0.668633
vt 0.376621 0.664000
vt 0.377132 0.664850
vt 0.261673 0.828633
vt 0.261631 0.824000
vt 0.350082 0.824000
vt 0.261673 0.828633
vt 0.350082 0.824000
vt 0.350125 0.828633
vt 0.376663 0.668633
vt 0.288212 0.668633
vt 0.288170 0.664000
vt 0.376663 0.668633
vt 0.288170 0.664000
vt 0.376621 0.664000
vt 0.350125 0.828633
vt 0.350082 0.824000
vt 0.350593 0.824850
vt 0.350125 0.828633
vt 0.350593 0.824850
vt 0.350731 0.828633
vt 0.288212 0.668633
vt 0.287521 0.668633
vt 0.287621 0.664850
vt 0.288212 0.668633
vt 0.287621 0.664850
vt 0.288170 0.664000
vt 0.333528 0.609227
vt 0.333030 0.609026
vt 0.334624 0.608985
vt 0.333528 0.609227
vt 0.334624 0.608985
vt 0.334876 0.609240
vt 0.333528 0.390773
vt 0.334876 0.390760
vt 0.334624 0.391015
vt 0.333528 0.390773
vt 0.334624 0.391015
vt 0.333030 0.390974
vt 0.333030 0.609026
vt 0.298605 0.574221
vt 0.300199 0.574181
vt 0.333030 0.609026
vt 0.300199 0.574181
vt 0.334624 0.608985
vt 0.333030 0.390974
vt 0.334624 0.391015
vt 0.300199 0.425819
vt 0.333030 0.390974
vt 0.300199 0.425819
vt 0.298605 0.425779
vt 0.298605 0.574221
vt 0.298692 0.574005
vt 0.299947 0.573925
vt 0.298605 0.574221
vt 0.299947 0.573925
vt 0.300199 0.574181
vt 0.298605 0.425779
vt 0.300199 0.425819
vt 0.299947 0.426075
vt 0.298605 0.425779
vt 0.299947 0.426075
vt 0.298692 0.425995
vt 0.334876 0.609240
vt 0.334624 0.608985
vt 0.378780 0.607865
vt 0.334876 0.609240
vt 0.378780 0.607865
vt 0.379033 0.608121
vt 0.334876 0.390760
vt 0.379033 0.391879
vt 0.378780 0.392135
vt 0.334876 0.390760
vt 0.378780 0.392135
vt 0.334624 0.391015
vt 0.334624 0.608985
vt 0.300199 0.574181
vt 0.344356 0.573061
vt 0.334624 0.608985
vt 0.344356 0.573061
vt 0.378780 0.607865
vt 0.334624 0.391015
vt 0.378780 0.392135
vt 0.344356 0.426939
vt 0.334624 0.391015
vt 0.344356 0.426939
vt 0.300199 0.425819
vt 0.300199 0.574181
vt 0.299947 0.573925
vt 0.344103 0.572805
vt 0.300199 0.574181
vt 0.344103 0.572805
vt 0.344356 0.573061
vt 0.300199 0.425819
vt 0.344356 0.426939
vt 0.344103 0.427195
vt 0.300199 0.425819
vt 0.344103 0.427195
vt 0.299947 0.426075
vt 0.379033 0.608121
vt 0.378780 0.607865
vt 0.380374 0.607825
vt 0.379033 0.608121
vt 0.380374 0.607825
vt 0.380288 0.608041
vt 0.379033 0.391879
vt 0.380288 0.391959
vt 0.380374 0.392175
vt 0.379033 0.391879
vt 0.380374 0.392175
vt 0.378780 0.392135
vt 0.378780 0.607865
vt 0.344356 0.573061
vt 0.345950 0.573020
vt 0.378780 0.607865
vt 0.345950 0.573020
vt 0.380374 0.607825
vt 0.378780 0.392135
vt 0.380374 0.392175
vt 0.345950 0.426980
vt 0.378780 0.392135
vt 0.345950 0.426980
vt 0.344356 0.426939
vt 0.344356 0.573061
vt 0.344103 0.572805
vt 0.345451 0.572819
vt 0.344356 0.573061
vt 0.345451 0.572819
vt 0.345950 0.573020
vt 0.344356 0.426939
vt 0.345950 0.426980
vt 0.345451 0.427181
vt 0.344356 0.426939
vt 0.345451 0.427181
vt 0.344103 0.427195
vt 0.294041 0.213232
vt 0.292389 0.214249
vt 0.292526 0.208706
vt 0.294041 0.213232
vt 0.292526 0.208706
vt 0.294487 0.208706
vt 0.272558 0.053232
vt 0.272219 0.048706
vt 0.274555 0.048706
vt 0.272558 0.053232
vt 0.274555 0.048706
vt 0.274411 0.054249
vt 0.294487 0.208706
vt 0.292526 0.208706
vt 0.292526 0.189543
vt 0.294487 0.208706
vt 0.292526 0.189543
vt 0.294487 0.189543
vt 0.272219 0.048706
vt 0.272219 0.029543
vt 0.274555 0.029543
vt 0.272219 0.048706
vt 0.274555 0.029543
vt 0.274555 0.048706
vt 0.294487 0.189543
vt 0.292526 0.189543
vt 0.292389 0.184000
vt 0.294487 0.189543
vt 0.292389 0.184000
vt 0.294041 0.185017
vt 0.272219 0.029543
vt 0.272558 0.025017
vt 0.274411 0.024000
vt 0.272219 0.029543
vt 0.274411 0.024000
vt 0.274555 0.029543
vt 0.292389 0.214249
vt 0.234251 0.214249
vt 0.234388 0.208706
vt 0.292389 0.214249
vt 0.234388 0.208706
vt 0.292526 0.208706
vt 0.274411 0.054249
vt 0.274555 0.048706
vt 0.335282 0.048706
vt 0.274411 0.054249
vt 0.335282 0.048706
vt 0.335138 0.054249
vt 0.292526 0.208706
vt 0.234388 0.208706
vt 0.234388 0.189543
vt 0.292526 0.208706
vt 0.234388 0.189543
vt 0.292526 0.189543
vt 0.274555 0.048706
vt 0.274555 0.029543
vt 0.335282 0.029543
vt 0.274555 0.048706
vt 0.335282 0.029543
vt 0.335282 0.048706
vt 0.292526 0.189543
vt 0.234388 0.189543
vt 0.234251 0.184000
vt 0.292526 0.189543
vt 0.234251 0.184000
vt 0.292389 0.184000
vt 0.274555 0.029543
vt 0.274411 0.024000
vt 0.335138 0.024000
vt 0.274555 0.029543
vt 0.335138 0.024000
vt 0.335282 0.029543
vt 0.234251 0.214249
vt 0.232476 0.213232
vt 0.232152 0.208706
vt 0.234251 0.214249
vt 0.232152 0.208706
vt 0.234388 0.208706
vt 0.335138 0.054249
vt 0.335282 0.048706
vt 0.337331 0.048706
vt 0.335138 0.054249
vt 0.337331 0.048706
vt 0.336865 0.053232
vt 0.234388 0.208706
vt 0.232152 0.208706
vt 0.232152 0.189543
vt 0.234388 0.208706
vt 0.232152 0.189543
vt 0.234388 0.189543
vt 0.335282 0.048706
vt 0.335282 0.029543
vt 0.337331 0.029543
vt 0.335282 0.048706
vt 0.337331 0.029543
vt 0.337331 0.048706
vt 0.234388 0.189543
vt 0.232152 0.189543
vt 0.232476 0.185017
vt 0.234388 0.189543
vt 0.232476 0.185017
vt 0.234251 0.184000
vt 0.335282 0.029543
vt 0.335138 0.024000
vt 0.336865 0.025017
vt 0.335282 0.029543
vt 0.336865 0.025017
vt 0.337331 0.029543
vt 0.380670 0.848432
vt 0.380536 0.844649
vt 0.381154 0.844649
vt 0.380670 0.848432
vt 0.381154 0.844649
vt 0.381187 0.849282
vt 0.252470 0.688432
vt 0.251923 0.689282
vt 0.251889 0.684649
vt 0.252470 0.688432
vt 0.251889 0.684649
vt 0.252575 0.684649
vt 0.381187 0.849282
vt 0.381154 0.844649
vt 0.462431 0.844649
vt 0.381187 0.849282
vt 0.462431 0.844649
vt 0.462464 0.849282
vt 0.251923 0.689282
vt 0.170646 0.689282
vt 0.170613 0.684649
vt 0.251923 0.689282
vt 0.170613 0.684649
vt 0.251889 0.684649
vt 0.462464 0.849282
vt 0.462431 0.844649
vt 0.463116 0.844649
vt 0.462464 0.849282
vt 0.463116 0.844649
vt 0.463011 0.848432
vt 0.170646 0.689282
vt 0.170128 0.688432
vt 0.169994 0.684649
vt 0.170646 0.689282
vt 0.169994 0.684649
vt 0.170613 0.684649
vt 0.380536 0.844649
vt 0.380536 0.828633
vt 0.381154 0.828633
vt 0.380536 0.844649
vt 0.381154 0.828633
vt 0.381154 0.844649
vt 0.252575 0.684649
vt 0.251889 0.684649
vt 0.251889 0.668633
vt 0.252575 0.684649
vt 0.251889 0.668633
vt 0.252575 0.668633
vt 0.381154 0.844649
vt 0.381154 0.828633
vt 0.462431 0.828633
vt 0.381154 0.844649
vt 0.462431 0.828633
vt 0.462431 0.844649
vt 0.251889 0.684649
vt 0.170613 0.684649
vt 0.170613 0.668633
vt 0.251889 0.684649
vt 0.170613 0.668633
vt 0.251889 0.668633
vt 0.462431 0.844649
vt 0.462431 0.828633
vt 0.463116 0.828633
vt 0.462431 0.844649
vt 0.463116 0.828633
vt 0.463116 0.844649
vt 0.170613 0.684649
vt 0.169994 0.684649
vt 0.169994 0.668633
vt 0.170613 0.684649
vt 0.169994 0.668633
vt 0.170613 0.668633
vt 0.380536 0.828633
vt 0.380670 0.824850
vt 0.381187 0.824000
vt 0.380536 0.828633
vt 0.381187 0.824000
vt 0.381154 0.828633
vt 0.252575 0.668633
vt 0.251889 0.668633
vt 0.251923 0.664000
vt 0.252575 0.668633
vt 0.251923 0.664000
vt 0.252470 0.664850
vt 0.381154 0.828633
vt 0.381187 0.824000
vt 0.462464 0.824000
vt 0.381154 0.828633
vt 0.462464 0.824000
vt 0.462431 0.828633
vt 0.251889 0.668633
vt 0.170613 0.668633
vt 0.170646 0.664000
vt 0.251889 0.668633
vt 0.170646 0.664000
vt 0.251923 0.664000
vt 0.462431 0.828633
vt 0.462464 0.824000
vt 0.463011 0.824850
vt 0.462431 0.828633
vt 0.463011 0.824850
vt 0.463116 0.828633
vt 0.170613 0.668633
vt 0.169994 0.668633
vt 0.170128 0.664850
vt 0.170613 0.668633
vt 0.170128 0.664850
vt 0.170646 0.664000
vt 0.236890 0.560173
vt 0.236756 0.559958
vt 0.238358 0.559990
vt 0.236890 0.560173
vt 0.238358 0.559990
vt 0.238162 0.560246
vt 0.236890 0.439827
vt 0.238162 0.439754
vt 0.238358 0.440010
vt 0.236890 0.439827
vt 0.238358 0.440010
vt 0.236756 0.440042
vt 0.236756 0.559958
vt 0.261279 0.527977
vt 0.262881 0.528008
vt 0.236756 0.559958
vt 0.262881 0.528008
vt 0.238358 0.559990
vt 0.236756 0.440042
vt 0.238358 0.440010
vt 0.262881 0.471992
vt 0.236756 0.440042
vt 0.262881 0.471992
vt 0.261279 0.472023
vt 0.261279 0.527977
vt 0.261733 0.527773
vt 0.263077 0.527752
vt 0.261279 0.527977
vt 0.263077 0.527752
vt 0.262881 0.528008
vt 0.261279 0.472023
vt 0.262881 0.471992
vt 0.263077 0.472248
vt 0.261279 0.472023
vt 0.263077 0.472248
vt 0.261733 0.472227
vt 0.238162 0.560246
vt 0.238358 0.559990
vt 0.276979 0.560749
vt 0.238162 0.560246
vt 0.276979 0.560749
vt 0.276782 0.561006
vt 0.238162 0.439754
vt 0.276782 0.438994
vt 0.276979 0.439251
vt 0.238162 0.439754
vt 0.276979 0.439251
vt 0.238358 0.440010
vt 0.238358 0.559990
vt 0.262881 0.528008
vt 0.301501 0.528768
vt 0.238358 0.559990
vt 0.301501 0.528768
vt 0.276979 0.560749
vt 0.238358 0.440010
vt 0.276979 0.439251
vt 0.301501 0.471232
vt 0.238358 0.440010
vt 0.301501 0.471232
vt 0.262881 0.471992
vt 0.262881 0.528008
vt 0.263077 0.527752
vt 0.301697 0.528511
vt 0.262881 0.528008
vt 0.301697 0.528511
vt 0.301501 0.528768
vt 0.262881 0.471992
vt 0.301501 0.471232
vt 0.301697 0.471489
vt 0.262881 0.471992
vt 0.301697 0.471489
vt 0.263077 0.472248
vt 0.276782 0.561006
vt 0.276979 0.560749
vt 0.278580 0.560781
vt 0.276782 0.561006
vt 0.278580 0.560781
vt 0.278126 0.560984
vt 0.276782 0.438994
vt 0.278126 0.439016
vt 0.278580 0.439219
vt 0.276782 0.438994
vt 0.278580 0.439219
vt 0.276979 0.439251
vt 0.276979 0.560749
vt 0.301501 0.528768
vt 0.303103 0.528799
vt 0.276979 0.560749
vt 0.303103 0.528799
vt 0.278580 0.560781
vt 0.276979 0.439251
vt 0.278580 0.439219
vt 0.303103 0.471201
vt 0.276979 0.439251
vt 0.303103 0.471201
vt 0.301501 0.471232
vt 0.301501 0.528768
vt 0.301697 0.528511
vt 0.302969 0.528584
vt 0.301501 0.528768
vt 0.302969 0.528584
vt 0.303103 0.528799
vt 0.301501 0.471232
vt 0.303103 0.471201
vt 0.302969 0.471416
vt 0.301501 0.471232
vt 0.302969 0.471416
vt 0.301697 0.471489
vt 0.342702 0.213232
vt 0.340932 0.214249
vt 0.340825 0.208706
vt 0.342702 0.213232
vt 0.340825 0.208706
vt 0.343041 0.208706
vt 0.139654 0.053232
vt 0.139200 0.048706
vt 0.141291 0.048706
vt 0.139654 0.053232
vt 0.141291 0.048706
vt 0.141403 0.054249
vt 0.343041 0.208706
vt 0.340825 0.208706
vt 0.340825 0.189543
vt 0.343041 0.208706
vt 0.340825 0.189543
vt 0.343041 0.189543
vt 0.139200 0.048706
vt 0.139200 0.029543
vt 0.141291 0.029543
vt 0.139200 0.048706
vt 0.141291 0.029543
vt 0.141291 0.048706
vt 0.343041 0.189543
vt 0.340825 0.189543
vt 0.340932 0.184000
vt 0.343041 0.189543
vt 0.340932 0.184000
vt 0.342702 0.185017
vt 0.139200 0.029543
vt 0.139654 0.025017
vt 0.141403 0.024000
vt 0.139200 0.029543
vt 0.141403 0.024000
vt 0.141291 0.029543
vt 0.340932 0.214249
vt 0.290084 0.214249
vt 0.289976 0.208706
vt 0.340932 0.214249
vt 0.289976 0.208706
vt 0.340825 0.208706
vt 0.141403 0.054249
vt 0.141291 0.048706
vt 0.194404 0.048706
vt 0.141403 0.054249
vt 0.194404 0.048706
vt 0.194516 0.054249
vt 0.340825 0.208706
vt 0.289976 0.208706
vt 0.289976 0.189543
vt 0.340825 0.208706
vt 0.289976 0.189543
vt 0.340825 0.189543
vt 0.141291 0.048706
vt 0.141291 0.029543
vt 0.194404 0.029543
vt 0.141291 0.048706
vt 0.194404 0.029543
vt 0.194404 0.048706
vt 0.340825 0.189543
vt 0.289976 0.189543
vt 0.290084 0.184000
vt 0.340825 0.189543
vt 0.290084 0.184000
vt 0.340932 0.184000
vt 0.141291 0.029543
vt 0.141403 0.024000
vt 0.194516 0.024000
vt 0.141291 0.029543
vt 0.194516 0.024000
vt 0.194404 0.029543
vt 0.290084 0.214249
vt 0.288409 0.213232
vt 0.287975 0.208706
vt 0.290084 0.214249
vt 0.287975 0.208706
vt 0.289976 0.208706
vt 0.194516 0.054249
vt 0.194404 0.048706
vt 0.196719 0.048706
vt 0.194516 0.054249
vt 0.196719 0.048706
vt 0.196365 0.053232
vt 0.289976 0.208706
vt 0.287975 0.208706
vt 0.287975 0.189543
vt 0.289976 0.208706
vt 0.287975 0.189543
vt 0.289976 0.189543
vt 0.194404 0.048706
vt 0.194404 0.029543
vt 0.196719 0.029543
vt 0.194404 0.048706
vt 0.196719 0.029543
vt 0.196719 0.048706
vt 0.289976 0.189543
vt 0.287975 0.189543
vt 0.288409 0.185017
vt 0.289976 0.189543
vt 0.288409 0.185017
vt 0.290084 0.184000
vt 0.194404 0.029543
vt 0.194516 0.024000
vt 0.196365 0.025017
vt 0.194404 0.029543
vt 0.196365 0.025017
vt 0.196719 0.029543
vn 0.000000 1.000000 0.000000
vn 0.000000 1.000000 0.000000
vn 0.000000 1.000000 0.000000
vn 0.000000 1.000000 0.000000
vn 0.000000 1.000000 0.000000
vn 0.000000 1.000000 0.000000
vn 0.000000 1.000000 0.000000
vn 0.000000 1.000000 0.000000
vn 0.000000 1.000000 0.000000
vn 0.000000 1.000000 0.000000
vn 0.000000 1.000000 0.000000
vn 0.000000 1.000000 0.000000
vn 0.000000 1.000000 0.000000
vn 0.000000 1.000000 0.000000
vn 0.000000 1.000000 0.000000
vn 0.000000 1.000000 0.000000
vn 0.000000 1.000000 0.000000
vn 0.000000 1.000000 0.000000
vn 0.000000 1.000000 0.000000
vn 0.000000 1.000000 0.000000
vn 0.000000 1.000000 0.000000
vn 0.000000 -1.000000 0.000000
vn 0.000000 -1.000000 0.000000
vn 0.000000 -1.000000 0.000000
vn 0.000000 -1.000000 0.000000
vn 0.000000 -1.000000 0.000000
vn 0.000000 -1.000000 0.000000
vn 0.000000 -1.000000 0.000000
vn 0.000000 -1.000000 0.000000
vn 0.000000 -1.000000 0.000000
vn 0.000000 -1.000000 0.000000
vn 0.000000 -1.000000 0.000000
vn 0.000000 -1.000000 0.000000
vn 0.000000 -1.000000 0.000000
vn 0.000000 -1.000000 0.000000
vn 0.000000 -1.000000 0.000000
vn 0.000000 -1.000000 0.000000
vn 0.000000 -1.000000 0.000000
vn 0.000000 -1.000000 0.000000
vn 0.000000 -1.000000 0.000000
vn 0.000000 -1.000000 0.000000
vn 0.000000 -1.000000 0.000000
vn 0.128188 -0.867461 0.480706
vn 0.128188 -0.867461 0.480706
vn 0.128188 -0.867461 0.480706
vn 0.128188 -0.867461 0.480706
vn 0.128188 -0.867461 0.480706
vn 0.128188 -0.867461 0.480706
vn -0.257662 0.000000 -0.966235
vn -0.257662 0.000000 -0.966235
vn -0.257662 0.000000 -0.966235
vn -0.257662 0.000000 -0.966235
vn -0.257662 0.000000 -0.966235
vn -0.257662 0.000000 -0.966235
vn 0.128188 0.867461 0.480706
vn 0.128188 0.867461 0.480706
vn 0.128188 0.867461 0.480706
vn 0.128188 0.867461 0.480706
vn 0.128188 0.867461 0.480706
vn 0.128188 0.867461 0.480706
vn 0.619038 -0.636651 0.459857
vn 0.619038 -0.636651 0.459857
vn 0.619038 -0.636651 0.459857
vn 0.619038 -0.636651 0.459857
vn 0.619038 -0.636651 0.459857
vn 0.619038 -0.636651 0.459857
vn -0.802744 0.000000 -0.596324
vn -0.802744 0.000000 -0.596324
vn -0.802744 0.000000 -0.596324
vn -0.802744 0.000000 -0.596324
vn -0.802744 0.000000 -0.596324
vn -0.802744 0.000000 -0.596324
vn 0.619038 0.636651 0.459857
vn 0.619038 0.636651 0.459857
vn 0.619038 0.636651 0.459857
vn 0.619038 0.636651 0.459857
vn 0.619038 0.636651 0.459857
vn 0.619038 0.636651 0.459857
vn 0.827044 -0.511754 0.232606
vn 0.827044 -0.511754 0.232606
vn 0.827044 -0.511754 0.232606
vn 0.827044 -0.511755 0.232606
vn 0.827044 -0.511755 0.232606
vn 0.827044 -0.511755 0.232606
vn -0.962651 0.000000 -0.270745
vn -0.962651 0.000000 -0.270745
vn -0.962651 0.000000 -0.270745
vn -0.962651 0.000000 -0.270745
vn -0.962651 0.000000 -0.270745
vn -0.962651 0.000000 -0.270745
vn 0.827044 0.511755 0.232606
vn 0.827044 0.511755 0.232606
vn 0.827044 0.511755 0.232606
vn 0.827044 0.511754 0.232606
vn 0.827044 0.511754 0.232606
vn 0.827044 0.511754 0.232606
vn 0.844563 -0.534746 -0.027578
vn 0.844563 -0.534746 -0.027578
vn 0.844563 -0.534746 -0.027578
vn 0.844563 -0.534746 -0.027578
vn 0.844563 -0.534746 -0.027578
vn 0.844563 -0.534746 -0.027578
vn -0.999467 0.000000 0.032636
vn -0.999467 0.000000 0.032636
vn -0.999467 0.000000 0.032636
vn -0.999467 0.000000 0.032636
vn -0.999467 0.000000 0.032636
vn -0.999467 0.000000 0.032636
vn 0.844563 0.534746 -0.027578
vn 0.844563 0.534746 -0.027578
vn 0.844563 0.534746 -0.027578
vn 0.844563 0.534746 -0.027578
vn 0.844563 0.534746 -0.027578
vn 0.844563 0.534746 -0.027578
vn 0.316505 -0.838738 -0.443107
vn 0.316505 -0.838738 -0.443107
vn 0.316505 -0.838738 -0.443107
vn 0.316505 -0.838738 -0.443107
vn 0.316505 -0.838738 -0.443107
vn 0.316505 -0.838738 -0.443107
vn -0.581238 0.000000 0.813733
vn -0.581238 0.000000 0.813733
vn -0.581238 0.000000 0.813733
vn -0.581238 0.000000 0.813733
vn -0.581238 0.000000 0.813733
vn -0.581238 0.000000 0.813733
vn 0.316505 0.838738 -0.443107
vn 0.316505 0.838738 -0.443107
vn 0.316505 0.838738 -0.443107
vn 0.316505 0.838738 -0.443107
vn 0.316505 0.838738 -0.443107
vn 0.316505 0.838738 -0.443107
vn -0.221435 -0.844775 -0.487157
vn -0.221435 -0.844775 -0.487157
vn -0.221435 -0.844775 -0.487157
vn -0.221435 -0.844775 -0.487158
vn -0.221435 -0.844775 -0.487158
vn -0.221435 -0.844775 -0.487158
vn 0.413803 0.000000 0.910366
vn 0.413803 0.000000 0.910366
vn 0.413803 0.000000 0.910366
vn 0.413803 0.000000 0.910366
vn 0.413803 0.000000 0.910366
vn 0.413803 0.000000 0.910366
vn -0.221435 0.844775 -0.487158
vn -0.221435 0.844775 -0.487158
vn -0.221435 0.844775 -0.487158
vn -0.221435 0.844775 -0.487157
vn -0.221435 0.844775 -0.487157
vn -0.221435 0.844775 -0.487157
vn -0.838837 -0.539016 -0.076258
vn -0.838837 -0.539016 -0.076258
vn -0.838837 -0.539016 -0.076258
vn -0.838837 -0.539016 -0.076258
vn -0.838837 -0.539016 -0.076258
vn -0.838837 -0.539016 -0.076258
vn 0.995893 0.000000 0.090536
vn 0.995893 0.000000 0.090536
vn 0.995893 0.000000 0.090536
vn 0.995893 0.000000 0.090536
vn 0.995893 0.000000 0.090536
vn 0.995893 0.000000 0.090536
vn -0.838837 0.539016 -0.076258
vn -0.838837 0.539016 -0.076258
vn -0.838837 0.539016 -0.076258
vn -0.838837 0.539016 -0.076258
vn -0.838837 0.539016 -0.076258
vn -0.838837 0.539016 -0.076258
vn 0.932979 -0.281745 -0.223986
vn 0.932979 -0.281745 -0.223986
vn 0.932979 -0.281745 -0.223986
vn 0.919614 -0.367182 -0.139601
vn 0.919614 -0.367182 -0.139601
vn 0.919614 -0.367182 -0.139601
vn -0.831464 -0.367188 -0.416943
vn -0.831464 -0.367188 -0.416943
vn -0.831464 -0.367188 -0.416943
vn -0.818098 -0.281746 -0.501334
vn -0.818098 -0.281746 -0.501334
vn -0.818098 -0.281746 -0.501334
vn 0.912504 -0.382685 0.144526
vn 0.912504 -0.382685 0.144526
vn 0.912504 -0.382685 0.144526
vn 0.912501 -0.382694 0.144526
vn 0.912501 -0.382694 0.144526
vn 0.912501 -0.382694 0.144526
vn -0.912501 -0.382693 -0.144526
vn -0.912501 -0.382693 -0.144526
vn -0.912501 -0.382693 -0.144526
vn -0.912502 -0.382692 -0.144526
vn -0.912502 -0.382692 -0.144526
vn -0.912502 -0.382692 -0.144526
vn 0.796318 -0.357415 0.487987
vn 0.796318 -0.357415 0.487987
vn 0.796318 -0.357415 0.487987
vn 0.871916 -0.268223 0.409657
vn 0.871916 -0.268223 0.409657
vn 0.871916 -0.268223 0.409657
vn -0.955840 -0.268200 0.120159
vn -0.955840 -0.268200 0.120159
vn -0.955840 -0.268200 0.120159
vn -0.908137 -0.357414 0.218041
vn -0.908137 -0.357414 0.218041
vn -0.908137 -0.357414 0.218041
vn 0.972370 0.000000 -0.233443
vn 0.972370 0.000000 -0.233443
vn 0.972370 0.000000 -0.233443
vn 0.972370 0.000000 -0.233443
vn 0.972370 0.000000 -0.233443
vn 0.972370 0.000000 -0.233443
vn -0.852639 0.000000 -0.522501
vn -0.852639 0.000000 -0.522501
vn -0.852639 0.000000 -0.522501
vn -0.852639 0.000000 -0.522501
vn -0.852639 0.000000 -0.522501
vn -0.852639 0.000000 -0.522501
vn 0.987688 0.000000 0.156434
vn 0.987688 0.000000 0.156434
vn 0.987688 0.000000 0.156434
vn 0.987688 0.000000 0.156434
vn 0.987688 0.000000 0.156434
vn 0.987688 0.000000 0.156434
vn -0.987688 0.000000 -0.156434
vn -0.987688 0.000000 -0.156434
vn -0.987688 0.000000 -0.156434
vn -0.987688 0.000000 -0.156434
vn -0.987688 0.000000 -0.156434
vn -0.987688 0.000000 -0.156434
vn 0.852639 0.000000 0.522501
vn 0.852639 0.000000 0.522501
vn 0.852639 0.000000 0.522501
vn 0.852639 0.000000 0.522501
vn 0.852639 0.000000 0.522501
vn 0.852639 0.000000 0.522501
vn -0.972366 0.000000 0.233462
vn -0.972366 0.000000 0.233462
vn -0.972366 0.000000 0.233462
vn -0.972366 0.000000 0.233462
vn -0.972366 0.000000 0.233462
vn -0.972366 0.000000 0.233462
vn 0.955830 0.268226 -0.120178
vn 0.955830 0.268226 -0.120178
vn 0.955830 0.268226 -0.120178
vn 0.908144 0.357407 -0.218024
vn 0.908144 0.357407 -0.218024
vn 0.908144 0.357407 -0.218024
vn -0.796319 0.357412 -0.487988
vn -0.796319 0.357412 -0.487988
vn -0.796319 0.357412 -0.487988
vn -0.871913 0.268226 -0.409662
vn -0.871913 0.268226 -0.409662
vn -0.871913 0.268226 -0.409662
vn 0.912504 0.382685 0.144526
vn 0.912504 0.382685 0.144526
vn 0.912504 0.382685 0.144526
vn 0.912501 0.382694 0.144526
vn 0.912501 0.382694 0.144526
vn 0.912501 0.382694 0.144526
vn -0.912501 0.382694 -0.144526
vn -0.912501 0.382694 -0.144526
vn -0.912501 0.382694 -0.144526
vn -0.912501 0.382692 -0.144526
vn -0.912501 0.382692 -0.144526
vn -0.912501 0.382692 -0.144526
vn 0.831465 0.367190 0.416938
vn 0.831465 0.367190 0.416938
vn 0.831465 0.367190 0.416938
vn 0.818098 0.281743 0.501334
vn 0.818098 0.281743 0.501334
vn 0.818098 0.281743 0.501334
vn -0.932981 0.281723 0.224006
vn -0.932981 0.281723 0.224006
vn -0.932981 0.281723 0.224006
vn -0.919611 0.367192 0.139589
vn -0.919611 0.367192 0.139589
vn -0.919611 0.367192 0.139589
vn -0.318586 0.886452 -0.335717
vn -0.318586 0.886452 -0.335717
vn -0.318586 0.886452 -0.335717
vn -0.220837 0.886452 -0.406737
vn -0.220837 0.886452 -0.406737
vn -0.220837 0.886452 -0.406737
vn -0.220837 -0.886452 -0.406737
vn -0.220837 -0.886452 -0.406737
vn -0.220837 -0.886452 -0.406737
vn -0.318586 -0.886452 -0.335717
vn -0.318586 -0.886452 -0.335717
vn -0.318586 -0.886452 -0.335717
vn -0.377978 0.923877 -0.059866
vn -0.377978 0.923877 -0.059866
vn -0.377978 0.923877 -0.059866
vn -0.377977 0.923877 -0.059866
vn -0.377977 0.923877 -0.059866
vn -0.377977 0.923877 -0.059866
vn -0.377977 -0.923877 -0.059866
vn -0.377977 -0.923877 -0.059866
vn -0.377977 -0.923877 -0.059866
vn -0.377978 -0.923877 -0.059866
vn -0.377978 -0.923877 -0.059866
vn -0.377978 -0.923877 -0.059866
vn -0.306881 0.925263 0.222961
vn -0.306881 0.925263 0.222961
vn -0.306881 0.925263 0.222961
vn -0.408925 0.862852 0.297099
vn -0.408925 0.862852 0.297099
vn -0.408925 0.862852 0.297099
vn -0.408925 -0.862852 0.297099
vn -0.408925 -0.862852 0.297099
vn -0.408925 -0.862852 0.297099
vn -0.306881 -0.925263 0.222961
vn -0.306881 -0.925263 0.222961
vn -0.306881 -0.925263 0.222961
vn 0.059865 0.923880 -0.377971
vn 0.059865 0.923880 -0.377971
vn 0.059865 0.923880 -0.377971
vn 0.059865 0.923880 -0.377971
vn 0.059865 0.923880 -0.377971
vn 0.059865 0.923880 -0.377971
vn 0.059865 -0.923880 -0.377971
vn 0.059865 -0.923880 -0.377971
vn 0.059865 -0.923880 -0.377971
vn 0.059865 -0.923880 -0.377971
vn 0.059865 -0.923880 -0.377971
vn 0.059865 -0.923880 -0.377971
vn 0.000000 1.000000 0.000000
vn 0.000000 1.000000 0.000000
vn 0.000000 1.000000 0.000000
vn 0.000000 1.000000 0.000000
vn 0.000000 1.000000 0.000000
vn 0.000000 1.000000 0.000000
vn 0.000000 -1.000000 0.000000
vn 0.000000 -1.000000 0.000000
vn 0.000000 -1.000000 0.000000
vn 0.000000 -1.000000 0.000000
vn 0.000000 -1.000000 0.000000
vn 0.000000 -1.000000 0.000000
vn -0.059865 0.923878 0.377975
vn -0.059865 0.923878 0.377975
vn -0.059865 0.923878 0.377975
vn -0.059865 0.923880 0.377971
vn -0.059865 0.923880 0.377971
vn -0.059865 0.923880 0.377971
vn -0.059865 -0.923880 0.377971
vn -0.059865 -0.923880 0.377971
vn -0.059865 -0.923880 0.377971
vn -0.059865 -0.923878 0.377975
vn -0.059865 -0.923878 0.377975
vn -0.059865 -0.923878 0.377975
vn 0.408918 0.862856 -0.297094
vn 0.408918 0.862856 -0.297094
vn 0.408918 0.862856 -0.297094
vn 0.306890 0.925259 -0.222967
vn 0.306890 0.925259 -0.222967
vn 0.306890 0.925259 -0.222967
vn 0.306890 -0.925259 -0.222967
vn 0.306890 -0.925259 -0.222967
vn 0.306890 -0.925259 -0.222967
vn 0.408918 -0.862856 -0.297094
vn 0.408918 -0.862856 -0.297094
vn 0.408918 -0.862856 -0.297094
vn 0.377979 0.923877 0.059866
vn 0.377979 0.923877 0.059866
vn 0.377979 0.923877 0.059866
vn 0.377975 0.923878 0.059865
vn 0.377975 0.923878 0.059865
vn 0.377975 0.923878 0.059865
vn 0.377975 -0.923878 0.059865
vn 0.377975 -0.923878 0.059865
vn 0.377975 -0.923878 0.059865
vn 0.377979 -0.923877 0.059866
vn 0.377979 -0.923877 0.059866
vn 0.377979 -0.923877 0.059866
vn 0.220837 0.886452 0.406737
vn 0.220837 0.886452 0.406737
vn 0.220837 0.886452 0.406737
vn 0.318590 0.886451 0.335714
vn 0.318590 0.886451 0.335714
vn 0.318590 0.886451 0.335714
vn 0.318590 -0.886451 0.335714
vn 0.318590 -0.886451 0.335714
vn 0.318590 -0.886451 0.335714
vn 0.220837 -0.886452 0.406737
vn 0.220837 -0.886452 0.406737
vn 0.220837 -0.886452 0.406737
vn -0.416943 -0.367184 0.831465
vn -0.416943 -0.367184 0.831465
vn -0.416943 -0.367184 0.831465
vn -0.501341 -0.281733 0.818098
vn -0.501341 -0.281733 0.818098
vn -0.501341 -0.281733 0.818098
vn -0.223979 -0.281752 -0.932979
vn -0.223979 -0.281752 -0.932979
vn -0.223979 -0.281752 -0.932979
vn -0.139608 -0.367175 -0.919615
vn -0.139608 -0.367175 -0.919615
vn -0.139608 -0.367175 -0.919615
vn -0.522506 0.000000 0.852636
vn -0.522506 0.000000 0.852636
vn -0.522506 0.000000 0.852636
vn -0.522506 0.000000 0.852636
vn -0.522506 0.000000 0.852636
vn -0.522506 0.000000 0.852636
vn -0.233436 0.000000 -0.972372
vn -0.233436 0.000000 -0.972372
vn -0.233436 0.000000 -0.972372
vn -0.233436 0.000000 -0.972372
vn -0.233436 0.000000 -0.972372
vn -0.233436 0.000000 -0.972372
vn -0.487994 0.357409 0.796317
vn -0.487994 0.357409 0.796317
vn -0.487994 0.357409 0.796317
vn -0.409662 0.268216 0.871916
vn -0.409662 0.268216 0.871916
vn -0.409662 0.268216 0.871916
vn -0.120190 0.268238 -0.955826
vn -0.120190 0.268238 -0.955826
vn -0.120190 0.268238 -0.955826
vn -0.218018 0.357404 -0.908147
vn -0.218018 0.357404 -0.908147
vn -0.218018 0.357404 -0.908147
vn -0.144527 -0.382674 0.912509
vn -0.144527 -0.382674 0.912509
vn -0.144527 -0.382674 0.912509
vn -0.144526 -0.382685 0.912504
vn -0.144526 -0.382685 0.912504
vn -0.144526 -0.382685 0.912504
vn 0.144527 -0.382674 -0.912509
vn 0.144527 -0.382674 -0.912509
vn 0.144527 -0.382674 -0.912509
vn 0.144527 -0.382677 -0.912508
vn 0.144527 -0.382677 -0.912508
vn 0.144527 -0.382677 -0.912508
vn -0.156434 0.000000 0.987688
vn -0.156434 0.000000 0.987688
vn -0.156434 0.000000 0.987688
vn -0.156434 0.000000 0.987688
vn -0.156434 0.000000 0.987688
vn -0.156434 0.000000 0.987688
vn 0.156434 0.000000 -0.987688
vn 0.156434 0.000000 -0.987688
vn 0.156434 0.000000 -0.987688
vn 0.156434 0.000000 -0.987688
vn 0.156434 0.000000 -0.987688
vn 0.156434 0.000000 -0.987688
vn -0.144527 0.382674 0.912509
vn -0.144527 0.382674 0.912509
vn -0.144527 0.382674 0.912509
vn -0.144527 0.382685 0.912504
vn -0.144527 0.382685 0.912504
vn -0.144527 0.382685 0.912504
vn 0.144527 0.382674 -0.912509
vn 0.144527 0.382674 -0.912509
vn 0.144527 0.382674 -0.912509
vn 0.144527 0.382677 -0.912508
vn 0.144527 0.382677 -0.912508
vn 0.144527 0.382677 -0.912508
vn 0.120188 -0.268232 0.955827
vn 0.120188 -0.268232 0.955827
vn 0.120188 -0.268232 0.955827
vn 0.218022 -0.357403 0.908146
vn 0.218022 -0.357403 0.908146
vn 0.218022 -0.357403 0.908146
vn 0.487987 -0.357402 -0.796324
vn 0.487987 -0.357402 -0.796324
vn 0.487987 -0.357402 -0.796324
vn 0.409678 -0.268234 -0.871903
vn 0.409678 -0.268234 -0.871903
vn 0.409678 -0.268234 -0.871903
vn 0.233441 0.000000 0.972371
vn 0.233441 0.000000 0.972371
vn 0.233441 0.000000 0.972371
vn 0.233441 0.000000 0.972371
vn 0.233441 0.000000 0.972371
vn 0.233441 0.000000 0.972371
vn 0.522498 0.000000 -0.852641
vn 0.522498 0.000000 -0.852641
vn 0.522498 0.000000 -0.852641
vn 0.522498 0.000000 -0.852641
vn 0.522498 0.000000 -0.852641
vn 0.522498 0.000000 -0.852641
vn 0.223984 0.281747 0.932979
vn 0.223984 0.281747 0.932979
vn 0.223984 0.281747 0.932979
vn 0.139608 0.367175 0.919615
vn 0.139608 0.367175 0.919615
vn 0.139608 0.367175 0.919615
vn 0.416957 0.367175 -0.831462
vn 0.416957 0.367175 -0.831462
vn 0.416957 0.367175 -0.831462
vn 0.501331 0.281749 -0.818098
vn 0.501331 0.281749 -0.818098
vn 0.501331 0.281749 -0.818098
vn 0.835099 -0.281742 -0.472474
vn 0.835099 -0.281742 -0.472474
vn 0.835099 -0.281742 -0.472474
vn 0.845511 -0.367174 -0.387679
vn 0.845511 -0.367174 -0.387679
vn 0.845511 -0.367174 -0.387679
vn -0.914183 -0.367173 -0.171621
vn -0.914183 -0.367173 -0.171621
vn -0.914183 -0.367173 -0.171621
vn -0.924593 -0.281738 -0.256419
vn -0.924593 -0.281738 -0.256419
vn -0.924593 -0.281738 -0.256419
vn 0.916996 -0.382676 -0.112593
vn 0.916996 -0.382676 -0.112593
vn 0.916996 -0.382676 -0.112593
vn 0.916996 -0.382676 -0.112593
vn 0.916996 -0.382676 -0.112593
vn 0.916996 -0.382676 -0.112593
vn -0.916996 -0.382676 0.112593
vn -0.916996 -0.382676 0.112593
vn -0.916996 -0.382676 0.112593
vn -0.916996 -0.382676 0.112593
vn -0.916996 -0.382676 0.112593
vn -0.916996 -0.382676 0.112593
vn 0.899983 -0.357399 0.249591
vn 0.899983 -0.357399 0.249591
vn 0.899983 -0.357399 0.249591
vn 0.951053 -0.268222 0.153476
vn 0.951053 -0.268222 0.153476
vn 0.951053 -0.268222 0.153476
vn -0.885673 -0.268230 0.378993
vn -0.885673 -0.268230 0.378993
vn -0.885673 -0.268230 0.378993
vn -0.812873 -0.357401 0.459894
vn -0.812873 -0.357401 0.459894
vn -0.812873 -0.357401 0.459894
vn 0.870357 0.000000 -0.492422
vn 0.870357 0.000000 -0.492422
vn 0.870357 0.000000 -0.492422
vn 0.870357 0.000000 -0.492422
vn 0.870357 0.000000 -0.492422
vn 0.870357 0.000000 -0.492422
vn -0.963629 0.000000 -0.267244
vn -0.963629 0.000000 -0.267244
vn -0.963629 0.000000 -0.267244
vn -0.963629 0.000000 -0.267244
vn -0.963629 0.000000 -0.267244
vn -0.963629 0.000000 -0.267244
vn 0.992546 0.000000 -0.121869
vn 0.992546 0.000000 -0.121869
vn 0.992546 0.000000 -0.121869
vn 0.992546 0.000000 -0.121869
vn 0.992546 0.000000 -0.121869
vn 0.992546 0.000000 -0.121869
vn -0.992546 0.000000 0.121869
vn -0.992546 0.000000 0.121869
vn -0.992546 0.000000 0.121869
vn -0.992546 0.000000 0.121869
vn -0.992546 0.000000 0.121869
vn -0.992546 0.000000 0.121869
vn 0.963629 0.000000 0.267242
vn 0.963629 0.000000 0.267242
vn 0.963629 0.000000 0.267242
vn 0.963629 0.000000 0.267242
vn 0.963629 0.000000 0.267242
vn 0.963629 0.000000 0.267242
vn -0.870359 0.000000 0.492418
vn -0.870359 0.000000 0.492418
vn -0.870359 0.000000 0.492418
vn -0.870359 0.000000 0.492418
vn -0.870359 0.000000 0.492418
vn -0.870359 0.000000 0.492418
vn 0.885675 0.268225 -0.378993
vn 0.885675 0.268225 -0.378993
vn 0.885675 0.268225 -0.378993
vn 0.812871 0.357401 -0.459898
vn 0.812871 0.357401 -0.459898
vn 0.812871 0.357401 -0.459898
vn -0.899983 0.357399 -0.249593
vn -0.899983 0.357399 -0.249593
vn -0.899983 0.357399 -0.249593
vn -0.951054 0.268220 -0.153475
vn -0.951054 0.268220 -0.153475
vn -0.951054 0.268220 -0.153475
vn 0.916996 0.382676 -0.112593
vn 0.916996 0.382676 -0.112593
vn 0.916996 0.382676 -0.112593
vn 0.916996 0.382676 -0.112593
vn 0.916996 0.382676 -0.112593
vn 0.916996 0.382676 -0.112593
vn -0.916996 0.382676 0.112593
vn -0.916996 0.382676 0.112593
vn -0.916996 0.382676 0.112593
vn -0.916996 0.382676 0.112593
vn -0.916996 0.382676 0.112593
vn -0.916996 0.382676 0.112593
vn 0.914183 0.367173 0.171621
vn 0.914183 0.367173 0.171621
vn 0.914183 0.367173 0.171621
vn 0.924593 0.281741 0.256416
vn 0.924593 0.281741 0.256416
vn 0.924593 0.281741 0.256416
vn -0.835100 0.281747 0.472469
vn -0.835100 0.281747 0.472469
vn -0.835100 0.281747 0.472469
vn -0.845511 0.367174 0.387679
vn -0.845511 0.367174 0.387679
vn -0.845511 0.367174 0.387679
vn -0.398779 0.886451 -0.234903
vn -0.398779 0.886451 -0.234903
vn -0.398779 0.886451 -0.234903
vn -0.324398 0.886451 -0.330107
vn -0.324398 0.886451 -0.330107
vn -0.324398 0.886451 -0.330107
vn -0.324398 -0.886451 -0.330107
vn -0.324398 -0.886451 -0.330107
vn -0.324398 -0.886451 -0.330107
vn -0.398779 -0.886451 -0.234903
vn -0.398779 -0.886451 -0.234903
vn -0.398779 -0.886451 -0.234903
vn -0.379831 0.923880 0.046637
vn -0.379831 0.923880 0.046637
vn -0.379831 0.923880 0.046637
vn -0.379830 0.923880 0.046637
vn -0.379830 0.923880 0.046637
vn -0.379830 0.923880 0.046637
vn -0.379830 -0.923880 0.046637
vn -0.379830 -0.923880 0.046637
vn -0.379830 -0.923880 0.046637
vn -0.379831 -0.923880 0.046637
vn -0.379831 -0.923880 0.046637
vn -0.379831 -0.923880 0.046637
vn -0.233545 0.925258 0.298922
vn -0.233545 0.925258 0.298922
vn -0.233545 0.925258 0.298922
vn -0.311190 0.862854 0.398301
vn -0.311190 0.862854 0.398301
vn -0.311190 0.862854 0.398301
vn -0.311190 -0.862854 0.398301
vn -0.311190 -0.862854 0.398301
vn -0.311190 -0.862854 0.398301
vn -0.233545 -0.925258 0.298922
vn -0.233545 -0.925258 0.298922
vn -0.233545 -0.925258 0.298922
vn -0.046638 0.923879 -0.379833
vn -0.046638 0.923879 -0.379833
vn -0.046638 0.923879 -0.379833
vn -0.046638 0.923878 -0.379834
vn -0.046638 0.923878 -0.379834
vn -0.046638 0.923878 -0.379834
vn -0.046638 -0.923878 -0.379834
vn -0.046638 -0.923878 -0.379834
vn -0.046638 -0.923878 -0.379834
vn -0.046638 -0.923879 -0.379833
vn -0.046638 -0.923879 -0.379833
vn -0.046638 -0.923879 -0.379833
vn 0.000000 1.000000 0.000000
vn 0.000000 1.000000 0.000000
vn 0.000000 1.000000 0.000000
vn 0.000000 1.000000 0.000000
vn 0.000000 1.000000 0.000000
vn 0.000000 1.000000 0.000000
vn 0.000000 -1.000000 0.000000
vn 0.000000 -1.000000 0.000000
vn 0.000000 -1.000000 0.000000
vn 0.000000 -1.000000 0.000000
vn 0.000000 -1.000000 0.000000
vn 0.000000 -1.000000 0.000000
vn 0.046638 0.923877 0.379837
vn 0.046638 0.923877 0.379837
vn 0.046638 0.923877 0.379837
vn 0.046637 0.923880 0.379830
vn 0.046637 0.923880 0.379830
vn 0.046637 0.923880 0.379830
vn 0.046637 -0.923880 0.379830
vn 0.046637 -0.923880 0.379830
vn 0.046637 -0.923880 0.379830
vn 0.046638 -0.923877 0.379837
vn 0.046638 -0.923877 0.379837
vn 0.046638 -0.923877 0.379837
vn 0.311185 0.862857 -0.398298
vn 0.311185 0.862857 -0.398298
vn 0.311185 0.862857 -0.398298
vn 0.233544 0.925259 -0.298921
vn 0.233544 0.925259 -0.298921
vn 0.233544 0.925259 -0.298921
vn 0.233544 -0.925259 -0.298921
vn 0.233544 -0.925259 -0.298921
vn 0.233544 -0.925259 -0.298921
vn 0.311185 -0.862857 -0.398298
vn 0.311185 -0.862857 -0.398298
vn 0.311185 -0.862857 -0.398298
vn 0.379829 0.923880 -0.046637
vn 0.379829 0.923880 -0.046637
vn 0.379829 0.923880 -0.046637
vn 0.379830 0.923880 -0.046637
vn 0.379830 0.923880 -0.046637
vn 0.379830 0.923880 -0.046637
vn 0.379830 -0.923880 -0.046637
vn 0.379830 -0.923880 -0.046637
vn 0.379830 -0.923880 -0.046637
vn 0.379829 -0.923880 -0.046637
vn 0.379829 -0.923880 -0.046637
vn 0.379829 -0.923880 -0.046637
vn 0.324403 0.886451 0.330103
vn 0.324403 0.886451 0.330103
vn 0.324403 0.886451 0.330103
vn 0.398780 0.886451 0.234903
vn 0.398780 0.886451 0.234903
vn 0.398780 0.886451 0.234903
vn 0.398780 -0.886451 0.234903
vn 0.398780 -0.886451 0.234903
vn 0.398780 -0.886451 0.234903
vn 0.324403 -0.886451 0.330103
vn 0.324403 -0.886451 0.330103
vn 0.324403 -0.886451 0.330103
vn -0.171621 -0.367173 0.914183
vn -0.171621 -0.367173 0.914183
vn -0.171621 -0.367173 0.914183
vn -0.256402 -0.281756 0.924593
vn -0.256402 -0.281756 0.924593
vn -0.256402 -0.281756 0.924593
vn -0.472477 -0.281747 -0.835095
vn -0.472477 -0.281747 -0.835095
vn -0.472477 -0.281747 -0.835095
vn -0.387684 -0.367177 -0.845507
vn -0.387684 -0.367177 -0.845507
vn -0.387684 -0.367177 -0.845507
vn -0.267229 0.000000 0.963633
vn -0.267229 0.000000 0.963633
vn -0.267229 0.000000 0.963633
vn -0.267229 0.000000 0.963633
vn -0.267229 0.000000 0.963633
vn -0.267229 0.000000 0.963633
vn -0.492426 0.000000 -0.870354
vn -0.492426 0.000000 -0.870354
vn -0.492426 0.000000 -0.870354
vn -0.492426 0.000000 -0.870354
vn -0.492426 0.000000 -0.870354
vn -0.492426 0.000000 -0.870354
vn -0.249578 0.357401 0.899986
vn -0.249578 0.357401 0.899986
vn -0.249578 0.357401 0.899986
vn -0.153479 0.268242 0.951047
vn -0.153479 0.268242 0.951047
vn -0.153479 0.268242 0.951047
vn -0.378999 0.268233 -0.885670
vn -0.378999 0.268233 -0.885670
vn -0.378999 0.268233 -0.885670
vn -0.459901 0.357404 -0.812867
vn -0.459901 0.357404 -0.812867
vn -0.459901 0.357404 -0.812867
vn 0.112592 -0.382676 0.916996
vn 0.112592 -0.382676 0.916996
vn 0.112592 -0.382676 0.916996
vn 0.112592 -0.382676 0.916996
vn 0.112592 -0.382676 0.916996
vn 0.112592 -0.382676 0.916996
vn -0.112593 -0.382681 -0.916994
vn -0.112593 -0.382681 -0.916994
vn -0.112593 -0.382681 -0.916994
vn -0.112593 -0.382681 -0.916994
vn -0.112593 -0.382681 -0.916994
vn -0.112593 -0.382681 -0.916994
vn 0.121869 0.000000 0.992546
vn 0.121869 0.000000 0.992546
vn 0.121869 0.000000 0.992546
vn 0.121869 0.000000 0.992546
vn 0.121869 0.000000 0.992546
vn 0.121869 0.000000 0.992546
vn -0.121869 0.000000 -0.992546
vn -0.121869 0.000000 -0.992546
vn -0.121869 0.000000 -0.992546
vn -0.121869 0.000000 -0.992546
vn -0.121869 0.000000 -0.992546
vn -0.121869 0.000000 -0.992546
vn 0.112592 0.382677 0.916996
vn 0.112592 0.382677 0.916996
vn 0.112592 0.382677 0.916996
vn 0.112592 0.382676 0.916996
vn 0.112592 0.382676 0.916996
vn 0.112592 0.382676 0.916996
vn -0.112593 0.382681 -0.916994
vn -0.112593 0.382681 -0.916994
vn -0.112593 0.382681 -0.916994
vn -0.112593 0.382681 -0.916994
vn -0.112593 0.382681 -0.916994
vn -0.112593 0.382681 -0.916994
vn 0.379016 -0.268246 0.885659
vn 0.379016 -0.268246 0.885659
vn 0.379016 -0.268246 0.885659
vn 0.459902 -0.357400 0.812869
vn 0.459902 -0.357400 0.812869
vn 0.459902 -0.357400 0.812869
vn 0.249587 -0.357404 -0.899983
vn 0.249587 -0.357404 -0.899983
vn 0.249587 -0.357404 -0.899983
vn 0.153471 -0.268230 -0.951052
vn 0.153471 -0.268230 -0.951052
vn 0.153471 -0.268230 -0.951052
vn 0.492426 0.000000 0.870354
vn 0.492426 0.000000 0.870354
vn 0.492426 0.000000 0.870354
vn 0.492426 0.000000 0.870354
vn 0.492426 0.000000 0.870354
vn 0.492426 0.000000 0.870354
vn 0.267238 0.000000 -0.963631
vn 0.267238 0.000000 -0.963631
vn 0.267238 0.000000 -0.963631
vn 0.267238 0.000000 -0.963631
vn 0.267238 0.000000 -0.963631
vn 0.267238 0.000000 -0.963631
vn 0.472476 0.281757 0.835093
vn 0.472476 0.281757 0.835093
vn 0.472476 0.281757 0.835093
vn 0.387699 0.367172 0.845503
vn 0.387699 0.367172 0.845503
vn 0.387699 0.367172 0.845503
vn 0.171616 0.367178 -0.914182
vn 0.171616 0.367178 -0.914182
vn 0.171616 0.367178 -0.914182
vn 0.256412 0.281746 -0.924593
vn 0.256412 0.281746 -0.924593
vn 0.256412 0.281746 -0.924593
f 1/1/1 2/2/2 3/3/3
f 4/4/4 5/5/5 6/6/6
f 7/7/7 8/8/8 9/9/9
f 10/10/10 11/11/11 12/12/12
f 13/13/13 14/14/14 15/15/15
f 16/16/16 17/17/17 18/18/18
f 19/19/19 20/20/20 21/21/21
f 22/22/22 23/23/23 24/24/24
f 25/25/25 26/26/26 27/27/27
f 28/28/28 29/29/29 30/30/30
f 31/31/31 32/32/32 33/33/33
f 34/34/34 35/35/35 36/36/36
f 37/37/37 38/38/38 39/39/39
f 40/40/40 41/41/41 42/42/42
f 43/43/43 44/44/44 45/45/45
f 46/46/46 47/47/47 48/48/48
f 49/49/49 50/50/50 51/51/51
f 52/52/52 53/53/53 54/54/54
f 55/55/55 56/56/56 57/57/57
f 58/58/58 59/59/59 60/60/60
f 61/61/61 62/62/62 63/63/63
f 64/64/64 65/65/65 66/66/66
f 67/67/67 68/68/68 69/69/69
f 70/70/70 71/71/71 72/72/72
f 73/73/73 74/74/74 75/75/75
f 76/76/76 77/77/77 78/78/78
f 79/79/79 80/80/80 81/81/81
f 82/82/82 83/83/83 84/84/84
f 85/85/85 86/86/86 87/87/87
f 88/88/88 89/89/89 90/90/90
f 91/91/91 92/92/92 93/93/93
f 94/94/94 95/95/95 96/96/96
f 97/97/97 98/98/98 99/99/99
f 100/100/100 101/101/101 102/102/102
f 103/103/103 104/104/104 105/105/105
f 106/106/106 107/107/107 108/108/108
f 109/109/109 110/110/110 111/111/111
f 112/112/112 113/113/113 114/114/114
f 115/115/115 116/116/116 117/117/117
f 118/118/118 119/119/119 120/120/120
f 121/121/121 122/122/122 123/123/123
f 124/124/124 125/125/125 126/126/126
f 127/127/127 128/128/128 129/129/129
f 130/130/130 131/131/131 132/132/132
f 133/133/133 134/134/134 135/135/135
f 136/136/136 137/137/137 138/138/138
f 139/139/139 140/140/140 141/141/141
f 142/142/142 143/143/143 144/144/144
f 145/145/145 146/146/146 147/147/147
f 148/148/148 149/149/149 150/150/150
f 151/151/151 152/152/152 153/153/153
f 154/154/154 155/155/155 156/156/156
f 157/157/157 158/158/158 159/159/159
f 160/160/160 161/161/161 162/162/162
f 163/163/163 164/164/164 165/165/165
f 166/166/166 167/167/167 168/168/168
f 169/169/169 170/170/170 171/171/171
f 172/172/172 173/173/173 174/174/174
f 175/175/175 176/176/176 177/177/177
f 178/178/178 179/179/179 180/180/180
f 181/181/181 182/182/182 183/183/183
f 184/184/184 185/185/185 186/186/186
f 187/187/187 188/188/188 189/189/189
f 190/190/190 191/191/191 192/192/192
f 193/193/193 194/194/194 195/195/195
f 196/196/196 197/197/197 198/198/198
f 199/199/199 200/200/200 201/201/201
f 202/202/202 203/203/203 204/204/204
f 205/205/205 206/206/206 207/207/207
f 208/208/208 209/209/209 210/210/210
f 211/211/211 212/212/212 213/213/213
f 214/214/214 215/215/215 216/216/216
f 217/217/217 218/218/218 219/219/219
f 220/220/220 221/221/221 222/222/222
f 223/223/223 224/224/224 225/225/225
f 226/226/226 227/227/227 228/228/228
f 229/229/229 230/230/230 231/231/231
f 232/232/232 233/233/233 234/234/234
f 235/235/235 236/236/236 237/237/237
f 238/238/238 239/239/239 240/240/240
f 241/241/241 242/242/242 243/243/243
f 244/244/244 245/245/245 246/246/246
f 247/247/247 248/248/248 249/249/249
f 250/250/250 251/251/251 252/252/252
f 253/253/253 254/254/254 255/255/255
f 256/256/256 257/257/257 258/258/258
f 259/259/259 260/260/260 261/261/261
f 262/262/262 263/263/263 264/264/264
f 265/265/265 266/266/266 267/267/267
f 268/268/268 269/269/269 270/270/270
f 271/271/271 272/272/272 273/273/273
f 274/274/274 275/275/275 276/276/276
f 277/277/277 278/278/278 279/279/279
f 280/280/280 281/281/281 282/282/282
f 283/283/283 284/284/284 285/285/285
f 286/286/286 287/287/287 288/288/288
f 289/289/289 290/290/290 291/291/291
f 292/292/292 293/293/293 294/294/294
f 295/295/295 296/296/296 297/297/297
f 298/298/298 299/299/299 300/300/300
f 301/301/301 302/302/302 303/303/303
f 304/304/304 305/305/305 306/306/306
f 307/307/307 308/308/308 309/309/309
f 310/310/310 311/311/311 312/312/312
f 313/313/313 314/314/314 315/315/315
f 316/316/316 317/317/317 318/318/318
f 319/319/319 320/320/320 321/321/321
f 322/322/322 323/323/323 324/324/324
f 325/325/325 326/326/326 327/327/327
f 328/328/328 329/329/329 330/330/330
f 331/331/331 332/332/332 333/333/333
f 334/334/334 335/335/335 336/336/336
f 337/337/337 338/338/338 339/339/339
f 340/340/340 341/341/341 342/342/342
f 343/343/343 344/344/344 345/345/345
f 346/346/346 347/347/347 348/348/348
f 349/349/349 350/350/350 351/351/351
f 352/352/352 353/353/353 354/354/354
f 355/355/355 356/356/356 357/357/357
f 358/358/358 359/359/359 360/360/360
f 361/361/361 362/362/362 363/363/363
f 364/364/364 365/365/365 366/366/366
f 367/367/367 368/368/368 369/369/369
f 370/370/370 371/371/371 372/372/372
f 373/373/373 374/374/374 375/375/375
f 376/376/376 377/377/377 378/378/378
f 379/379/379 380/380/380 381/381/381
f 382/382/382 383/383/383 384/384/384
f 385/385/385 386/386/386 387/387/387
f 388/388/388 389/389/389 390/390/390
f 391/391/391 392/392/392 393/393/393
f 394/394/394 395/395/395 396/396/396
f 397/397/397 398/398/398 399/399/399
f 400/400/400 401/401/401 402/402/402
f 403/403/403 404/404/404 405/405/405
f 406/406/406 407/407/407 408/408/408
f 409/409/409 410/410/410 411/411/411
f 412/412/412 413/413/413 414/414/414
f 415/415/415 416/416/416 417/417/417
f 418/418/418 419/419/419 420/420/420
f 421/421/421 422/422/422 423/423/423
f 424/424/424 425/425/425 426/426/426
f 427/427/427 428/428/428 429/429/429
f 430/430/430 431/431/431 432/432/432
f 433/433/433 434/434/434 435/435/435
f 436/436/436 437/437/437 438/438/438
f 439/439/439 440/440/440 441/441/441
f 442/442/442 443/443/443 444/444/444
f 445/445/445 446/446/446 447/447/447
f 448/448/448 449/449/449 450/450/450
f 451/451/451 452/452/452 453/453/453
f 454/454/454 455/455/455 456/456/456
f 457/457/457 458/458/458 459/459/459
f 460/460/460 461/461/461 462/462/462
f 463/463/463 464/464/464 465/465/465
f 466/466/466 467/467/467 468/468/468
f 469/469/469 470/470/470 471/471/471
f 472/472/472 473/473/473 474/474/474
f 475/475/475 476/476/476 477/477/477
f 478/478/478 479/479/479 480/480/480
f 481/481/481 482/482/482 483/483/483
f 484/484/484 485/485/485 486/486/486
f 487/487/487 488/488/488 489/489/489
f 490/490/490 491/491/491 492/492/492
f 493/493/493 494/494/494 495/495/495
f 496/496/496 497/497/497 498/498/498
f 499/499/499 500/500/500 501/501/501
f 502/502/502 503/503/503 504/504/504
f 505/505/505 506/506/506 507/507/507
f 508/508/508 509/509/509 510/510/510
f 511/511/511 512/512/512 513/513/513
f 514/514/514 515/515/515 516/516/516
f 517/517/517 518/518/518 519/519/519
f 520/520/520 521/521/521 522/522/522
f 523/523/523 524/524/524 525/525/525
f 526/526/526 527/527/527 528/528/528
f 529/529/529 530/530/530 531/531/531
f 532/532/532 533/533/533 534/534/534
f 535/535/535 536/536/536 537/537/537
f 538/538/538 539/539/539 540/540/540
f 541/541/541 542/542/542 543/543/543
f 544/544/544 545/545/545 546/546/546
f 547/547/547 548/548/548 549/549/549
f 550/550/550 551/551/551 552/552/552
f 553/553/553 554/554/554 555/555/555
f 556/556/556 557/557/557 558/558/558
f 559/559/559 560/560/560 561/561/561
f 562/562/562 563/563/563 564/564/564
f 565/565/565 566/566/566 567/567/567
f 568/568/568 569/569/569 570/570/570
f 571/571/571 572/572/572 573/573/573
f 574/574/574 575/575/575 576/576/576
f 577/577/577 578/578/578 579/579/579
f 580/580/580 581/581/581 582/582/582
f 583/583/583 584/584/584 585/585/585
f 586/586/586 587/587/587 588/588/588
f 589/589/589 590/590/590 591/591/591
f 592/592/592 593/593/593 594/594/594
f 595/595/595 596/596/596 597/597/597
f 598/598/598 599/599/599 600/600/600
f 601/601/601 602/602/602 603/603/603
f 604/604/604 605/605/605 606/606/606
f 607/607/607 608/608/608 609/609/609
f 610/610/610 611/611/611 612/612/612
f 613/613/613 614/614/614 615/615/615
f 616/616/616 617/617/617 618/618/618
f 619/619/619 620/620/620 621/621/621
f 622/622/622 623/623/623 624/624/624
f 625/625/625 626/626/626 627/627/627
f 628/628/628 629/629/629 630/630/630
f 631/631/631 632/632/632 633/633/633
f 634/634/634 635/635/635 636/636/636
f 637/637/637 638/638/638 639/639/639
f 640/640/640 641/641/641 642/642/642
f 643/643/643 644/644/644 645/645/645
f 646/646/646 647/647/647 648/648/648
f 649/649/649 650/650/650 651/651/651
f 652/652/652 653/653/653 654/654/654
f 655/655/655 656/656/656 657/657/657
f 658/658/658 659/659/659 660/660/660
f 661/661/661 662/662/662 663/663/663
f 664/664/664 665/665/665 666/666/666
f 667/667/667 668/668/668 669/669/669
f 670/670/670 671/671/671 672/672/672
f 673/673/673 674/674/674 675/675/675
f 676/676/676 677/677/677 678/678/678
f 679/679/679 680/680/680 681/681/681
f 682/682/682 683/683/683 684/684/684
f 685/685/685 686/686/686 687/687/687
f 688/688/688 689/689/689 690/690/690
f 691/691/691 692/692/692 693/693/693
f 694/694/694 695/695/695 696/696/696
f 697/697/697 698/698/698 699/699/699
f 700/700/700 701/701/701 702/702/702
f 703/703/703 704/704/704 705/705/705
f 706/706/706 707/707/707 708/708/708
f 709/709/709 710/710/710 711/711/711
f 712/712/712 713/713/713 714/714/714
f 715/715/715 716/716/716 717/717/717
f 718/718/718 719/719/719 720/720/720
f 721/721/721 722/722/722 723/723/723
f 724/724/724 725/725/725 726/726/726
f 727/727/727 728/728/728 729/729/729
f 730/730/730 731/731/731 732/732/732
f 733/733/733 734/734/734 735/735/735
f 736/736/736 737/737/737 738/738/738
f 739/739/739 740/740/740 741/741/741
f 742/742/742 743/743/743 744/744/744
f 745/745/745 746/746/746 747/747/747
f 748/748/748 749/749/749 750/750/750
f 751/751/751 752/752/752 753/753/753
f 754/754/754 755/755/755 756/756/756
f 757/757/757 758/758/758 759/759/759
f 760/760/760 761/761/761 762/762/762
f 763/763/763 764/764/764 765/765/765
f 766/766/766 767/767/767 768/768/768
f 769/769/769 770/770/770 771/771/771
f 772/772/772 773/773/773 774/774/774
f 775/775/775 776/776/776 777/777/777
f 778/778/778 779/779/779 780/780/780
f 781/781/781 782/782/782 783/783/783
f 784/784/784 785/785/785 786/786/786
f 787/787/787 788/788/788 789/789/789
f 790/790/790 791/791/791 792/792/792
f 793/793/793 794/794/794 795/795/795
f 796/796/796 797/797/797 798/798/798
f 799/799/799 800/800/800 801/801/801
f 802/802/802 803/803/803 804/804/804
f 805/805/805 806/806/806 807/807/807
f 808/808/808 809/809/809 810/810/810
f 811/811/811 812/812/812 813/813/813
f 814/814/814 815/815/815 816/816/816
