# Torrent authored macroform LOD0 semantic component
# Imported production resource; exact geometry/authenticity false
o PortUpperSidePlane
usemtl torrent_hull_ivory
v -2.301666 1.030000 0.383333
v -1.286808 1.030000 -2.447333
v -1.865808 1.030000 -2.254333
v -2.301666 1.030000 0.383333
v -1.865808 1.030000 -2.254333
v -3.380858 1.030000 -0.517333
v -2.301666 1.030000 0.383333
v -3.380858 1.030000 -0.517333
v -3.322958 1.030000 2.281167
v -2.301666 1.030000 0.383333
v -3.322958 1.030000 2.281167
v -2.444808 1.030000 2.860167
v -2.301666 1.030000 0.383333
v -2.444808 1.030000 2.860167
v -1.508758 1.030000 2.377667
v -2.301666 1.030000 0.383333
v -1.508758 1.030000 2.377667
v -1.286808 1.030000 -2.447333
v -2.301666 0.790000 0.383333
v -1.865808 0.790000 -2.254333
v -1.286808 0.790000 -2.447333
v -2.301666 0.790000 0.383333
v -3.380858 0.790000 -0.517333
v -1.865808 0.790000 -2.254333
v -2.301666 0.790000 0.383333
v -3.322958 0.790000 2.281167
v -3.380858 0.790000 -0.517333
v -2.301666 0.790000 0.383333
v -2.444808 0.790000 2.860167
v -3.322958 0.790000 2.281167
v -2.301666 0.790000 0.383333
v -1.508758 0.790000 2.377667
v -2.444808 0.790000 2.860167
v -2.301666 0.790000 0.383333
v -1.286808 0.790000 -2.447333
v -1.508758 0.790000 2.377667
v -1.286808 1.030000 -2.447333
v -1.865808 1.030000 -2.254333
v -1.850000 0.982000 -2.350000
v -1.286808 1.030000 -2.447333
v -1.850000 0.982000 -2.350000
v -1.250000 0.982000 -2.550000
v -1.250000 0.982000 -2.550000
v -1.250000 0.838000 -2.550000
v -1.850000 0.838000 -2.350000
v -1.250000 0.982000 -2.550000
v -1.850000 0.838000 -2.350000
v -1.850000 0.982000 -2.350000
v -1.286808 0.790000 -2.447333
v -1.250000 0.838000 -2.550000
v -1.850000 0.838000 -2.350000
v -1.286808 0.790000 -2.447333
v -1.850000 0.838000 -2.350000
v -1.865808 0.790000 -2.254333
v -1.865808 1.030000 -2.254333
v -3.380858 1.030000 -0.517333
v -3.420000 0.982000 -0.550000
v -1.865808 1.030000 -2.254333
v -3.420000 0.982000 -0.550000
v -1.850000 0.982000 -2.350000
v -1.850000 0.982000 -2.350000
v -1.850000 0.838000 -2.350000
v -3.420000 0.838000 -0.550000
v -1.850000 0.982000 -2.350000
v -3.420000 0.838000 -0.550000
v -3.420000 0.982000 -0.550000
v -1.865808 0.790000 -2.254333
v -1.850000 0.838000 -2.350000
v -3.420000 0.838000 -0.550000
v -1.865808 0.790000 -2.254333
v -3.420000 0.838000 -0.550000
v -3.380858 0.790000 -0.517333
v -3.380858 1.030000 -0.517333
v -3.322958 1.030000 2.281167
v -3.360000 0.982000 2.350000
v -3.380858 1.030000 -0.517333
v -3.360000 0.982000 2.350000
v -3.420000 0.982000 -0.550000
v -3.420000 0.982000 -0.550000
v -3.420000 0.838000 -0.550000
v -3.360000 0.838000 2.350000
v -3.420000 0.982000 -0.550000
v -3.360000 0.838000 2.350000
v -3.360000 0.982000 2.350000
v -3.380858 0.790000 -0.517333
v -3.420000 0.838000 -0.550000
v -3.360000 0.838000 2.350000
v -3.380858 0.790000 -0.517333
v -3.360000 0.838000 2.350000
v -3.322958 0.790000 2.281167
v -3.322958 1.030000 2.281167
v -2.444808 1.030000 2.860167
v -2.450000 0.982000 2.950000
v -3.322958 1.030000 2.281167
v -2.450000 0.982000 2.950000
v -3.360000 0.982000 2.350000
v -3.360000 0.982000 2.350000
v -3.360000 0.838000 2.350000
v -2.450000 0.838000 2.950000
v -3.360000 0.982000 2.350000
v -2.450000 0.838000 2.950000
v -2.450000 0.982000 2.950000
v -3.322958 0.790000 2.281167
v -3.360000 0.838000 2.350000
v -2.450000 0.838000 2.950000
v -3.322958 0.790000 2.281167
v -2.450000 0.838000 2.950000
v -2.444808 0.790000 2.860167
v -2.444808 1.030000 2.860167
v -1.508758 1.030000 2.377667
v -1.480000 0.982000 2.450000
v -2.444808 1.030000 2.860167
v -1.480000 0.982000 2.450000
v -2.450000 0.982000 2.950000
v -2.450000 0.982000 2.950000
v -2.450000 0.838000 2.950000
v -1.480000 0.838000 2.450000
v -2.450000 0.982000 2.950000
v -1.480000 0.838000 2.450000
v -1.480000 0.982000 2.450000
v -2.444808 0.790000 2.860167
v -2.450000 0.838000 2.950000
v -1.480000 0.838000 2.450000
v -2.444808 0.790000 2.860167
v -1.480000 0.838000 2.450000
v -1.508758 0.790000 2.377667
v -1.508758 1.030000 2.377667
v -1.286808 1.030000 -2.447333
v -1.250000 0.982000 -2.550000
v -1.508758 1.030000 2.377667
v -1.250000 0.982000 -2.550000
v -1.480000 0.982000 2.450000
v -1.480000 0.982000 2.450000
v -1.480000 0.838000 2.450000
v -1.250000 0.838000 -2.550000
v -1.480000 0.982000 2.450000
v -1.250000 0.838000 -2.550000
v -1.250000 0.982000 -2.550000
v -1.508758 0.790000 2.377667
v -1.480000 0.838000 2.450000
v -1.250000 0.838000 -2.550000
v -1.508758 0.790000 2.377667
v -1.250000 0.838000 -2.550000
v -1.286808 0.790000 -2.447333
v -1.854898 1.036657 -1.179624
v -1.852560 1.045750 -1.181323
v -1.849746 1.045750 -1.169601
v -1.854898 1.036657 -1.179624
v -1.849746 1.045750 -1.169601
v -1.854302 1.034613 -1.170323
v -2.177562 1.036657 -1.230729
v -2.181003 1.034613 -1.222067
v -2.185560 1.045750 -1.222789
v -2.177562 1.036657 -1.230729
v -2.185560 1.045750 -1.222789
v -2.179261 1.045750 -1.233067
v -1.854302 1.034613 -1.170323
v -1.849746 1.045750 -1.169601
v -2.054440 1.045750 0.122789
v -1.854302 1.034613 -1.170323
v -2.054440 1.045750 0.122789
v -2.058996 1.034613 0.122067
v -2.181003 1.034613 -1.222067
v -2.385698 1.034613 0.070323
v -2.390254 1.045750 0.069601
v -2.181003 1.034613 -1.222067
v -2.390254 1.045750 0.069601
v -2.185560 1.045750 -1.222789
v -2.058996 1.034613 0.122067
v -2.054440 1.045750 0.122789
v -2.060739 1.045750 0.133067
v -2.058996 1.034613 0.122067
v -2.060739 1.045750 0.133067
v -2.062437 1.036657 0.130729
v -2.385698 1.034613 0.070323
v -2.385102 1.036657 0.079624
v -2.387440 1.045750 0.081323
v -2.385698 1.034613 0.070323
v -2.387440 1.045750 0.081323
v -2.390254 1.045750 0.069601
v -1.852560 1.045750 -1.181323
v -1.852560 1.084250 -1.181323
v -1.849746 1.084250 -1.169601
v -1.852560 1.045750 -1.181323
v -1.849746 1.084250 -1.169601
v -1.849746 1.045750 -1.169601
v -2.179261 1.045750 -1.233067
v -2.185560 1.045750 -1.222789
v -2.185560 1.084250 -1.222789
v -2.179261 1.045750 -1.233067
v -2.185560 1.084250 -1.222789
v -2.179261 1.084250 -1.233067
v -1.849746 1.045750 -1.169601
v -1.849746 1.084250 -1.169601
v -2.054440 1.084250 0.122789
v -1.849746 1.045750 -1.169601
v -2.054440 1.084250 0.122789
v -2.054440 1.045750 0.122789
v -2.185560 1.045750 -1.222789
v -2.390254 1.045750 0.069601
v -2.390254 1.084250 0.069601
v -2.185560 1.045750 -1.222789
v -2.390254 1.084250 0.069601
v -2.185560 1.084250 -1.222789
v -2.054440 1.045750 0.122789
v -2.054440 1.084250 0.122789
v -2.060739 1.084250 0.133067
v -2.054440 1.045750 0.122789
v -2.060739 1.084250 0.133067
v -2.060739 1.045750 0.133067
v -2.390254 1.045750 0.069601
v -2.387440 1.045750 0.081323
v -2.387440 1.084250 0.081323
v -2.390254 1.045750 0.069601
v -2.387440 1.084250 0.081323
v -2.390254 1.084250 0.069601
v -1.852560 1.084250 -1.181323
v -1.854898 1.093343 -1.179624
v -1.854302 1.095387 -1.170323
v -1.852560 1.084250 -1.181323
v -1.854302 1.095387 -1.170323
v -1.849746 1.084250 -1.169601
v -2.179261 1.084250 -1.233067
v -2.185560 1.084250 -1.222789
v -2.181003 1.095387 -1.222067
v -2.179261 1.084250 -1.233067
v -2.181003 1.095387 -1.222067
v -2.177562 1.093343 -1.230729
v -1.849746 1.084250 -1.169601
v -1.854302 1.095387 -1.170323
v -2.058996 1.095387 0.122067
v -1.849746 1.084250 -1.169601
v -2.058996 1.095387 0.122067
v -2.054440 1.084250 0.122789
v -2.185560 1.084250 -1.222789
v -2.390254 1.084250 0.069601
v -2.385698 1.095387 0.070323
v -2.185560 1.084250 -1.222789
v -2.385698 1.095387 0.070323
v -2.181003 1.095387 -1.222067
v -2.054440 1.084250 0.122789
v -2.058996 1.095387 0.122067
v -2.062437 1.093343 0.130729
v -2.054440 1.084250 0.122789
v -2.062437 1.093343 0.130729
v -2.060739 1.084250 0.133067
v -2.390254 1.084250 0.069601
v -2.387440 1.084250 0.081323
v -2.385102 1.093343 0.079624
v -2.390254 1.084250 0.069601
v -2.385102 1.093343 0.079624
v -2.385698 1.095387 0.070323
v -2.177562 1.093343 -1.230729
v -2.181003 1.095387 -1.222067
v -2.170004 1.100000 -1.220325
v -2.177562 1.093343 -1.230729
v -2.170004 1.100000 -1.220325
v -2.168261 1.095387 -1.231325
v -2.177562 1.036657 -1.230729
v -2.168261 1.034613 -1.231325
v -2.170004 1.030000 -1.220325
v -2.177562 1.036657 -1.230729
v -2.170004 1.030000 -1.220325
v -2.181003 1.034613 -1.222067
v -2.181003 1.095387 -1.222067
v -2.385698 1.095387 0.070323
v -2.374698 1.100000 0.072065
v -2.181003 1.095387 -1.222067
v -2.374698 1.100000 0.072065
v -2.170004 1.100000 -1.220325
v -2.181003 1.034613 -1.222067
v -2.170004 1.030000 -1.220325
v -2.374698 1.030000 0.072065
v -2.181003 1.034613 -1.222067
v -2.374698 1.030000 0.072065
v -2.385698 1.034613 0.070323
v -2.385698 1.095387 0.070323
v -2.385102 1.093343 0.079624
v -2.376440 1.095387 0.083065
v -2.385698 1.095387 0.070323
v -2.376440 1.095387 0.083065
v -2.374698 1.100000 0.072065
v -2.385698 1.034613 0.070323
v -2.374698 1.030000 0.072065
v -2.376440 1.034613 0.083065
v -2.385698 1.034613 0.070323
v -2.376440 1.034613 0.083065
v -2.385102 1.036657 0.079624
v -2.168261 1.095387 -1.231325
v -2.170004 1.100000 -1.220325
v -1.865302 1.100000 -1.172065
v -2.168261 1.095387 -1.231325
v -1.865302 1.100000 -1.172065
v -1.863559 1.095387 -1.183065
v -2.168261 1.034613 -1.231325
v -1.863559 1.034613 -1.183065
v -1.865302 1.030000 -1.172065
v -2.168261 1.034613 -1.231325
v -1.865302 1.030000 -1.172065
v -2.170004 1.030000 -1.220325
v -2.170004 1.100000 -1.220325
v -2.374698 1.100000 0.072065
v -2.069996 1.100000 0.120325
v -2.170004 1.100000 -1.220325
v -2.069996 1.100000 0.120325
v -1.865302 1.100000 -1.172065
v -2.170004 1.030000 -1.220325
v -1.865302 1.030000 -1.172065
v -2.069996 1.030000 0.120325
v -2.170004 1.030000 -1.220325
v -2.069996 1.030000 0.120325
v -2.374698 1.030000 0.072065
v -2.374698 1.100000 0.072065
v -2.376440 1.095387 0.083065
v -2.071738 1.095387 0.131325
v -2.374698 1.100000 0.072065
v -2.071738 1.095387 0.131325
v -2.069996 1.100000 0.120325
v -2.374698 1.030000 0.072065
v -2.069996 1.030000 0.120325
v -2.071738 1.034613 0.131325
v -2.374698 1.030000 0.072065
v -2.071738 1.034613 0.131325
v -2.376440 1.034613 0.083065
v -1.863559 1.095387 -1.183065
v -1.865302 1.100000 -1.172065
v -1.854302 1.095387 -1.170323
v -1.863559 1.095387 -1.183065
v -1.854302 1.095387 -1.170323
v -1.854898 1.093343 -1.179624
v -1.863559 1.034613 -1.183065
v -1.854898 1.036657 -1.179624
v -1.854302 1.034613 -1.170323
v -1.863559 1.034613 -1.183065
v -1.854302 1.034613 -1.170323
v -1.865302 1.030000 -1.172065
v -1.865302 1.100000 -1.172065
v -2.069996 1.100000 0.120325
v -2.058996 1.095387 0.122067
v -1.865302 1.100000 -1.172065
v -2.058996 1.095387 0.122067
v -1.854302 1.095387 -1.170323
v -1.865302 1.030000 -1.172065
v -1.854302 1.034613 -1.170323
v -2.058996 1.034613 0.122067
v -1.865302 1.030000 -1.172065
v -2.058996 1.034613 0.122067
v -2.069996 1.030000 0.120325
v -2.069996 1.100000 0.120325
v -2.071738 1.095387 0.131325
v -2.062437 1.093343 0.130729
v -2.069996 1.100000 0.120325
v -2.062437 1.093343 0.130729
v -2.058996 1.095387 0.122067
v -2.069996 1.030000 0.120325
v -2.058996 1.034613 0.122067
v -2.062437 1.036657 0.130729
v -2.069996 1.030000 0.120325
v -2.062437 1.036657 0.130729
v -2.071738 1.034613 0.131325
v -2.385102 1.036657 0.079624
v -2.376440 1.034613 0.083065
v -2.377162 1.045750 0.087621
v -2.385102 1.036657 0.079624
v -2.377162 1.045750 0.087621
v -2.387440 1.045750 0.081323
v -2.177562 1.036657 -1.230729
v -2.179261 1.045750 -1.233067
v -2.167540 1.045750 -1.235881
v -2.177562 1.036657 -1.230729
v -2.167540 1.045750 -1.235881
v -2.168261 1.034613 -1.231325
v -2.387440 1.045750 0.081323
v -2.377162 1.045750 0.087621
v -2.377162 1.084250 0.087621
v -2.387440 1.045750 0.081323
v -2.377162 1.084250 0.087621
v -2.387440 1.084250 0.081323
v -2.179261 1.045750 -1.233067
v -2.179261 1.084250 -1.233067
v -2.167540 1.084250 -1.235881
v -2.179261 1.045750 -1.233067
v -2.167540 1.084250 -1.235881
v -2.167540 1.045750 -1.235881
v -2.387440 1.084250 0.081323
v -2.377162 1.084250 0.087621
v -2.376440 1.095387 0.083065
v -2.387440 1.084250 0.081323
v -2.376440 1.095387 0.083065
v -2.385102 1.093343 0.079624
v -2.179261 1.084250 -1.233067
v -2.177562 1.093343 -1.230729
v -2.168261 1.095387 -1.231325
v -2.179261 1.084250 -1.233067
v -2.168261 1.095387 -1.231325
v -2.167540 1.084250 -1.235881
v -2.376440 1.034613 0.083065
v -2.071738 1.034613 0.131325
v -2.072460 1.045750 0.135881
v -2.376440 1.034613 0.083065
v -2.072460 1.045750 0.135881
v -2.377162 1.045750 0.087621
v -2.168261 1.034613 -1.231325
v -2.167540 1.045750 -1.235881
v -1.862838 1.045750 -1.187621
v -2.168261 1.034613 -1.231325
v -1.862838 1.045750 -1.187621
v -1.863559 1.034613 -1.183065
v -2.377162 1.045750 0.087621
v -2.072460 1.045750 0.135881
v -2.072460 1.084250 0.135881
v -2.377162 1.045750 0.087621
v -2.072460 1.084250 0.135881
v -2.377162 1.084250 0.087621
v -2.167540 1.045750 -1.235881
v -2.167540 1.084250 -1.235881
v -1.862838 1.084250 -1.187621
v -2.167540 1.045750 -1.235881
v -1.862838 1.084250 -1.187621
v -1.862838 1.045750 -1.187621
v -2.377162 1.084250 0.087621
v -2.072460 1.084250 0.135881
v -2.071738 1.095387 0.131325
v -2.377162 1.084250 0.087621
v -2.071738 1.095387 0.131325
v -2.376440 1.095387 0.083065
v -2.167540 1.084250 -1.235881
v -2.168261 1.095387 -1.231325
v -1.863559 1.095387 -1.183065
v -2.167540 1.084250 -1.235881
v -1.863559 1.095387 -1.183065
v -1.862838 1.084250 -1.187621
v -2.071738 1.034613 0.131325
v -2.062437 1.036657 0.130729
v -2.060739 1.045750 0.133067
v -2.071738 1.034613 0.131325
v -2.060739 1.045750 0.133067
v -2.072460 1.045750 0.135881
v -1.863559 1.034613 -1.183065
v -1.862838 1.045750 -1.187621
v -1.852560 1.045750 -1.181323
v -1.863559 1.034613 -1.183065
v -1.852560 1.045750 -1.181323
v -1.854898 1.036657 -1.179624
v -2.072460 1.045750 0.135881
v -2.060739 1.045750 0.133067
v -2.060739 1.084250 0.133067
v -2.072460 1.045750 0.135881
v -2.060739 1.084250 0.133067
v -2.072460 1.084250 0.135881
v -1.862838 1.045750 -1.187621
v -1.862838 1.084250 -1.187621
v -1.852560 1.084250 -1.181323
v -1.862838 1.045750 -1.187621
v -1.852560 1.084250 -1.181323
v -1.852560 1.045750 -1.181323
v -2.072460 1.084250 0.135881
v -2.060739 1.084250 0.133067
v -2.062437 1.093343 0.130729
v -2.072460 1.084250 0.135881
v -2.062437 1.093343 0.130729
v -2.071738 1.095387 0.131325
v -1.862838 1.084250 -1.187621
v -1.863559 1.095387 -1.183065
v -1.854898 1.093343 -1.179624
v -1.862838 1.084250 -1.187621
v -1.854898 1.093343 -1.179624
v -1.852560 1.084250 -1.181323
v -2.508817 1.036657 0.863536
v -2.507037 1.045750 0.861258
v -2.501101 1.045750 0.871750
v -2.508817 1.036657 0.863536
v -2.501101 1.045750 0.871750
v -2.505680 1.034613 0.872312
v -2.793366 1.036657 0.898474
v -2.794287 1.034613 0.907749
v -2.798865 1.045750 0.908311
v -2.793366 1.036657 0.898474
v -2.798865 1.045750 0.908311
v -2.795644 1.045750 0.896695
v -2.505680 1.034613 0.872312
v -2.501101 1.045750 0.871750
v -2.361135 1.045750 2.011689
v -2.505680 1.034613 0.872312
v -2.361135 1.045750 2.011689
v -2.365713 1.034613 2.012251
v -2.794287 1.034613 0.907749
v -2.654320 1.034613 2.047688
v -2.658898 1.045750 2.048250
v -2.794287 1.034613 0.907749
v -2.658898 1.045750 2.048250
v -2.798865 1.045750 0.908311
v -2.365713 1.034613 2.012251
v -2.361135 1.045750 2.011689
v -2.364356 1.045750 2.023305
v -2.365713 1.034613 2.012251
v -2.364356 1.045750 2.023305
v -2.366633 1.036657 2.021526
v -2.654320 1.034613 2.047688
v -2.651183 1.036657 2.056464
v -2.652962 1.045750 2.058742
v -2.654320 1.034613 2.047688
v -2.652962 1.045750 2.058742
v -2.658898 1.045750 2.048250
v -2.507037 1.045750 0.861258
v -2.507037 1.084250 0.861258
v -2.501101 1.084250 0.871750
v -2.507037 1.045750 0.861258
v -2.501101 1.084250 0.871750
v -2.501101 1.045750 0.871750
v -2.795644 1.045750 0.896695
v -2.798865 1.045750 0.908311
v -2.798865 1.084250 0.908311
v -2.795644 1.045750 0.896695
v -2.798865 1.084250 0.908311
v -2.795644 1.084250 0.896695
v -2.501101 1.045750 0.871750
v -2.501101 1.084250 0.871750
v -2.361135 1.084250 2.011689
v -2.501101 1.045750 0.871750
v -2.361135 1.084250 2.011689
v -2.361135 1.045750 2.011689
v -2.798865 1.045750 0.908311
v -2.658898 1.045750 2.048250
v -2.658898 1.084250 2.048250
v -2.798865 1.045750 0.908311
v -2.658898 1.084250 2.048250
v -2.798865 1.084250 0.908311
v -2.361135 1.045750 2.011689
v -2.361135 1.084250 2.011689
v -2.364356 1.084250 2.023305
v -2.361135 1.045750 2.011689
v -2.364356 1.084250 2.023305
v -2.364356 1.045750 2.023305
v -2.658898 1.045750 2.048250
v -2.652962 1.045750 2.058742
v -2.652962 1.084250 2.058742
v -2.658898 1.045750 2.048250
v -2.652962 1.084250 2.058742
v -2.658898 1.084250 2.048250
v -2.507037 1.084250 0.861258
v -2.508817 1.093343 0.863536
v -2.505680 1.095387 0.872312
v -2.507037 1.084250 0.861258
v -2.505680 1.095387 0.872312
v -2.501101 1.084250 0.871750
v -2.795644 1.084250 0.896695
v -2.798865 1.084250 0.908311
v -2.794287 1.095387 0.907749
v -2.795644 1.084250 0.896695
v -2.794287 1.095387 0.907749
v -2.793366 1.093343 0.898474
v -2.501101 1.084250 0.871750
v -2.505680 1.095387 0.872312
v -2.365713 1.095387 2.012251
v -2.501101 1.084250 0.871750
v -2.365713 1.095387 2.012251
v -2.361135 1.084250 2.011689
v -2.798865 1.084250 0.908311
v -2.658898 1.084250 2.048250
v -2.654320 1.095387 2.047688
v -2.798865 1.084250 0.908311
v -2.654320 1.095387 2.047688
v -2.794287 1.095387 0.907749
v -2.361135 1.084250 2.011689
v -2.365713 1.095387 2.012251
v -2.366633 1.093343 2.021526
v -2.361135 1.084250 2.011689
v -2.366633 1.093343 2.021526
v -2.364356 1.084250 2.023305
v -2.658898 1.084250 2.048250
v -2.652962 1.084250 2.058742
v -2.651183 1.093343 2.056464
v -2.658898 1.084250 2.048250
v -2.651183 1.093343 2.056464
v -2.654320 1.095387 2.047688
v -2.793366 1.093343 0.898474
v -2.794287 1.095387 0.907749
v -2.783233 1.100000 0.906391
v -2.793366 1.093343 0.898474
v -2.783233 1.100000 0.906391
v -2.784590 1.095387 0.895337
v -2.793366 1.036657 0.898474
v -2.784590 1.034613 0.895337
v -2.783233 1.030000 0.906391
v -2.793366 1.036657 0.898474
v -2.783233 1.030000 0.906391
v -2.794287 1.034613 0.907749
v -2.794287 1.095387 0.907749
v -2.654320 1.095387 2.047688
v -2.643266 1.100000 2.046330
v -2.794287 1.095387 0.907749
v -2.643266 1.100000 2.046330
v -2.783233 1.100000 0.906391
v -2.794287 1.034613 0.907749
v -2.783233 1.030000 0.906391
v -2.643266 1.030000 2.046330
v -2.794287 1.034613 0.907749
v -2.643266 1.030000 2.046330
v -2.654320 1.034613 2.047688
v -2.654320 1.095387 2.047688
v -2.651183 1.093343 2.056464
v -2.641908 1.095387 2.057384
v -2.654320 1.095387 2.047688
v -2.641908 1.095387 2.057384
v -2.643266 1.100000 2.046330
v -2.654320 1.034613 2.047688
v -2.643266 1.030000 2.046330
v -2.641908 1.034613 2.057384
v -2.654320 1.034613 2.047688
v -2.641908 1.034613 2.057384
v -2.651183 1.036657 2.056464
v -2.784590 1.095387 0.895337
v -2.783233 1.100000 0.906391
v -2.516734 1.100000 0.873670
v -2.784590 1.095387 0.895337
v -2.516734 1.100000 0.873670
v -2.518091 1.095387 0.862616
v -2.784590 1.034613 0.895337
v -2.518091 1.034613 0.862616
v -2.516734 1.030000 0.873670
v -2.784590 1.034613 0.895337
v -2.516734 1.030000 0.873670
v -2.783233 1.030000 0.906391
v -2.783233 1.100000 0.906391
v -2.643266 1.100000 2.046330
v -2.376767 1.100000 2.013609
v -2.783233 1.100000 0.906391
v -2.376767 1.100000 2.013609
v -2.516734 1.100000 0.873670
v -2.783233 1.030000 0.906391
v -2.516734 1.030000 0.873670
v -2.376767 1.030000 2.013609
v -2.783233 1.030000 0.906391
v -2.376767 1.030000 2.013609
v -2.643266 1.030000 2.046330
v -2.643266 1.100000 2.046330
v -2.641908 1.095387 2.057384
v -2.375410 1.095387 2.024662
v -2.643266 1.100000 2.046330
v -2.375410 1.095387 2.024662
v -2.376767 1.100000 2.013609
v -2.643266 1.030000 2.046330
v -2.376767 1.030000 2.013609
v -2.375410 1.034613 2.024662
v -2.643266 1.030000 2.046330
v -2.375410 1.034613 2.024662
v -2.641908 1.034613 2.057384
v -2.518091 1.095387 0.862616
v -2.516734 1.100000 0.873670
v -2.505680 1.095387 0.872312
v -2.518091 1.095387 0.862616
v -2.505680 1.095387 0.872312
v -2.508817 1.093343 0.863536
v -2.518091 1.034613 0.862616
v -2.508817 1.036657 0.863536
v -2.505680 1.034613 0.872312
v -2.518091 1.034613 0.862616
v -2.505680 1.034613 0.872312
v -2.516734 1.030000 0.873670
v -2.516734 1.100000 0.873670
v -2.376767 1.100000 2.013609
v -2.365713 1.095387 2.012251
v -2.516734 1.100000 0.873670
v -2.365713 1.095387 2.012251
v -2.505680 1.095387 0.872312
v -2.516734 1.030000 0.873670
v -2.505680 1.034613 0.872312
v -2.365713 1.034613 2.012251
v -2.516734 1.030000 0.873670
v -2.365713 1.034613 2.012251
v -2.376767 1.030000 2.013609
v -2.376767 1.100000 2.013609
v -2.375410 1.095387 2.024662
v -2.366633 1.093343 2.021526
v -2.376767 1.100000 2.013609
v -2.366633 1.093343 2.021526
v -2.365713 1.095387 2.012251
v -2.376767 1.030000 2.013609
v -2.365713 1.034613 2.012251
v -2.366633 1.036657 2.021526
v -2.376767 1.030000 2.013609
v -2.366633 1.036657 2.021526
v -2.375410 1.034613 2.024662
v -2.651183 1.036657 2.056464
v -2.641908 1.034613 2.057384
v -2.641346 1.045750 2.061963
v -2.651183 1.036657 2.056464
v -2.641346 1.045750 2.061963
v -2.652962 1.045750 2.058742
v -2.793366 1.036657 0.898474
v -2.795644 1.045750 0.896695
v -2.785152 1.045750 0.890759
v -2.793366 1.036657 0.898474
v -2.785152 1.045750 0.890759
v -2.784590 1.034613 0.895337
v -2.652962 1.045750 2.058742
v -2.641346 1.045750 2.061963
v -2.641346 1.084250 2.061963
v -2.652962 1.045750 2.058742
v -2.641346 1.084250 2.061963
v -2.652962 1.084250 2.058742
v -2.795644 1.045750 0.896695
v -2.795644 1.084250 0.896695
v -2.785152 1.084250 0.890759
v -2.795644 1.045750 0.896695
v -2.785152 1.084250 0.890759
v -2.785152 1.045750 0.890759
v -2.652962 1.084250 2.058742
v -2.641346 1.084250 2.061963
v -2.641908 1.095387 2.057384
v -2.652962 1.084250 2.058742
v -2.641908 1.095387 2.057384
v -2.651183 1.093343 2.056464
v -2.795644 1.084250 0.896695
v -2.793366 1.093343 0.898474
v -2.784590 1.095387 0.895337
v -2.795644 1.084250 0.896695
v -2.784590 1.095387 0.895337
v -2.785152 1.084250 0.890759
v -2.641908 1.034613 2.057384
v -2.375410 1.034613 2.024662
v -2.374848 1.045750 2.029241
v -2.641908 1.034613 2.057384
v -2.374848 1.045750 2.029241
v -2.641346 1.045750 2.061963
v -2.784590 1.034613 0.895337
v -2.785152 1.045750 0.890759
v -2.518654 1.045750 0.858037
v -2.784590 1.034613 0.895337
v -2.518654 1.045750 0.858037
v -2.518091 1.034613 0.862616
v -2.641346 1.045750 2.061963
v -2.374848 1.045750 2.029241
v -2.374848 1.084250 2.029241
v -2.641346 1.045750 2.061963
v -2.374848 1.084250 2.029241
v -2.641346 1.084250 2.061963
v -2.785152 1.045750 0.890759
v -2.785152 1.084250 0.890759
v -2.518654 1.084250 0.858037
v -2.785152 1.045750 0.890759
v -2.518654 1.084250 0.858037
v -2.518654 1.045750 0.858037
v -2.641346 1.084250 2.061963
v -2.374848 1.084250 2.029241
v -2.375410 1.095387 2.024662
v -2.641346 1.084250 2.061963
v -2.375410 1.095387 2.024662
v -2.641908 1.095387 2.057384
v -2.785152 1.084250 0.890759
v -2.784590 1.095387 0.895337
v -2.518091 1.095387 0.862616
v -2.785152 1.084250 0.890759
v -2.518091 1.095387 0.862616
v -2.518654 1.084250 0.858037
v -2.375410 1.034613 2.024662
v -2.366633 1.036657 2.021526
v -2.364356 1.045750 2.023305
v -2.375410 1.034613 2.024662
v -2.364356 1.045750 2.023305
v -2.374848 1.045750 2.029241
v -2.518091 1.034613 0.862616
v -2.518654 1.045750 0.858037
v -2.507037 1.045750 0.861258
v -2.518091 1.034613 0.862616
v -2.507037 1.045750 0.861258
v -2.508817 1.036657 0.863536
v -2.374848 1.045750 2.029241
v -2.364356 1.045750 2.023305
v -2.364356 1.084250 2.023305
v -2.374848 1.045750 2.029241
v -2.364356 1.084250 2.023305
v -2.374848 1.084250 2.029241
v -2.518654 1.045750 0.858037
v -2.518654 1.084250 0.858037
v -2.507037 1.084250 0.861258
v -2.518654 1.045750 0.858037
v -2.507037 1.084250 0.861258
v -2.507037 1.045750 0.861258
v -2.374848 1.084250 2.029241
v -2.364356 1.084250 2.023305
v -2.366633 1.093343 2.021526
v -2.374848 1.084250 2.029241
v -2.366633 1.093343 2.021526
v -2.375410 1.095387 2.024662
v -2.518654 1.084250 0.858037
v -2.518091 1.095387 0.862616
v -2.508817 1.093343 0.863536
v -2.518654 1.084250 0.858037
v -2.508817 1.093343 0.863536
v -2.507037 1.084250 0.861258
vt 0.687881 0.574933
vt 0.854748 0.653163
vt 0.759546 0.647829
vt 0.687881 0.574933
vt 0.759546 0.647829
vt 0.510436 0.599824
vt 0.687881 0.574933
vt 0.510436 0.599824
vt 0.519956 0.522484
vt 0.687881 0.574933
vt 0.519956 0.522484
vt 0.664345 0.506483
vt 0.687881 0.574933
vt 0.664345 0.506483
vt 0.818254 0.519817
vt 0.687881 0.574933
vt 0.818254 0.519817
vt 0.854748 0.653163
vt 0.687881 0.425067
vt 0.759546 0.352171
vt 0.854748 0.346837
vt 0.687881 0.425067
vt 0.510436 0.400176
vt 0.759546 0.352171
vt 0.687881 0.425067
vt 0.519956 0.477516
vt 0.510436 0.400176
vt 0.687881 0.425067
vt 0.664345 0.493517
vt 0.519956 0.477516
vt 0.687881 0.425067
vt 0.818254 0.480183
vt 0.664345 0.493517
vt 0.687881 0.425067
vt 0.854748 0.346837
vt 0.818254 0.480183
vt 0.854748 0.346837
vt 0.759546 0.352171
vt 0.762146 0.349527
vt 0.854748 0.346837
vt 0.762146 0.349527
vt 0.860800 0.344000
vt 0.860800 0.090961
vt 0.860800 0.176000
vt 0.722295 0.176000
vt 0.860800 0.090961
vt 0.722295 0.176000
vt 0.722295 0.090961
vt 0.854748 0.653163
vt 0.860800 0.656000
vt 0.762146 0.650473
vt 0.854748 0.653163
vt 0.762146 0.650473
vt 0.759546 0.647829
vt 0.759546 0.352171
vt 0.510436 0.400176
vt 0.504000 0.399273
vt 0.759546 0.352171
vt 0.504000 0.399273
vt 0.762146 0.349527
vt 0.846528 0.720436
vt 0.846528 0.792109
vt 0.718080 0.792109
vt 0.846528 0.720436
vt 0.718080 0.792109
vt 0.718080 0.720436
vt 0.759546 0.647829
vt 0.762146 0.650473
vt 0.504000 0.600727
vt 0.759546 0.647829
vt 0.504000 0.600727
vt 0.510436 0.599824
vt 0.649051 0.856545
vt 0.848752 0.856545
vt 0.853664 0.880436
vt 0.649051 0.856545
vt 0.853664 0.880436
vt 0.646720 0.880436
vt 0.718080 0.720436
vt 0.718080 0.792109
vt 0.511136 0.792109
vt 0.718080 0.720436
vt 0.511136 0.792109
vt 0.511136 0.720436
vt 0.649051 0.976000
vt 0.646720 0.952109
vt 0.853664 0.952109
vt 0.649051 0.976000
vt 0.853664 0.952109
vt 0.848752 0.976000
vt 0.519956 0.477516
vt 0.664345 0.493517
vt 0.663491 0.496000
vt 0.519956 0.477516
vt 0.663491 0.496000
vt 0.513865 0.479418
vt 0.860800 0.250961
vt 0.860800 0.336000
vt 0.688094 0.336000
vt 0.860800 0.250961
vt 0.688094 0.336000
vt 0.688094 0.250961
vt 0.519956 0.522484
vt 0.513865 0.520582
vt 0.663491 0.504000
vt 0.519956 0.522484
vt 0.663491 0.504000
vt 0.664345 0.506483
vt 0.664345 0.493517
vt 0.818254 0.480183
vt 0.822982 0.482182
vt 0.664345 0.493517
vt 0.822982 0.482182
vt 0.663491 0.496000
vt 0.688094 0.250961
vt 0.688094 0.336000
vt 0.504000 0.336000
vt 0.688094 0.250961
vt 0.504000 0.336000
vt 0.504000 0.250961
vt 0.664345 0.506483
vt 0.663491 0.504000
vt 0.822982 0.517818
vt 0.664345 0.506483
vt 0.822982 0.517818
vt 0.818254 0.519817
vt 0.509162 0.696545
vt 0.853474 0.696545
vt 0.860800 0.720436
vt 0.509162 0.696545
vt 0.860800 0.720436
vt 0.504000 0.720436
vt 0.860800 0.880436
vt 0.860800 0.952109
vt 0.504000 0.952109
vt 0.860800 0.880436
vt 0.504000 0.952109
vt 0.504000 0.880436
vt 0.509162 0.816000
vt 0.504000 0.792109
vt 0.860800 0.792109
vt 0.509162 0.816000
vt 0.860800 0.792109
vt 0.853474 0.816000
vt 0.601790 0.853232
vt 0.601669 0.848706
vt 0.602505 0.848706
vt 0.601790 0.853232
vt 0.602505 0.848706
vt 0.602454 0.854249
vt 0.766657 0.693232
vt 0.766039 0.694249
vt 0.766090 0.688706
vt 0.766657 0.693232
vt 0.766090 0.688706
vt 0.766824 0.688706
vt 0.602454 0.854249
vt 0.602505 0.848706
vt 0.694730 0.848706
vt 0.602454 0.854249
vt 0.694730 0.848706
vt 0.694679 0.854249
vt 0.766039 0.694249
vt 0.673814 0.694249
vt 0.673865 0.688706
vt 0.766039 0.694249
vt 0.673865 0.688706
vt 0.766090 0.688706
vt 0.694679 0.854249
vt 0.694730 0.848706
vt 0.695464 0.848706
vt 0.694679 0.854249
vt 0.695464 0.848706
vt 0.695297 0.853232
vt 0.673814 0.694249
vt 0.673150 0.693232
vt 0.673029 0.688706
vt 0.673814 0.694249
vt 0.673029 0.688706
vt 0.673865 0.688706
vt 0.601669 0.848706
vt 0.601669 0.829543
vt 0.602505 0.829543
vt 0.601669 0.848706
vt 0.602505 0.829543
vt 0.602505 0.848706
vt 0.766824 0.688706
vt 0.766090 0.688706
vt 0.766090 0.669543
vt 0.766824 0.688706
vt 0.766090 0.669543
vt 0.766824 0.669543
vt 0.602505 0.848706
vt 0.602505 0.829543
vt 0.694730 0.829543
vt 0.602505 0.848706
vt 0.694730 0.829543
vt 0.694730 0.848706
vt 0.766090 0.688706
vt 0.673865 0.688706
vt 0.673865 0.669543
vt 0.766090 0.688706
vt 0.673865 0.669543
vt 0.766090 0.669543
vt 0.694730 0.848706
vt 0.694730 0.829543
vt 0.695464 0.829543
vt 0.694730 0.848706
vt 0.695464 0.829543
vt 0.695464 0.848706
vt 0.673865 0.688706
vt 0.673029 0.688706
vt 0.673029 0.669543
vt 0.673865 0.688706
vt 0.673029 0.669543
vt 0.673865 0.669543
vt 0.601669 0.829543
vt 0.601790 0.825017
vt 0.602454 0.824000
vt 0.601669 0.829543
vt 0.602454 0.824000
vt 0.602505 0.829543
vt 0.766824 0.669543
vt 0.766090 0.669543
vt 0.766039 0.664000
vt 0.766824 0.669543
vt 0.766039 0.664000
vt 0.766657 0.665017
vt 0.602505 0.829543
vt 0.602454 0.824000
vt 0.694679 0.824000
vt 0.602505 0.829543
vt 0.694679 0.824000
vt 0.694730 0.829543
vt 0.766090 0.669543
vt 0.673865 0.669543
vt 0.673814 0.664000
vt 0.766090 0.669543
vt 0.673814 0.664000
vt 0.766039 0.664000
vt 0.694730 0.829543
vt 0.694679 0.824000
vt 0.695297 0.825017
vt 0.694730 0.829543
vt 0.695297 0.825017
vt 0.695464 0.829543
vt 0.673865 0.669543
vt 0.673029 0.669543
vt 0.673150 0.665017
vt 0.673865 0.669543
vt 0.673150 0.665017
vt 0.673814 0.664000
vt 0.708287 0.619540
vt 0.707721 0.619301
vt 0.709529 0.619253
vt 0.708287 0.619540
vt 0.709529 0.619253
vt 0.709816 0.619557
vt 0.708287 0.380460
vt 0.709816 0.380443
vt 0.709529 0.380747
vt 0.708287 0.380460
vt 0.709529 0.380747
vt 0.707721 0.380699
vt 0.707721 0.619301
vt 0.674064 0.583584
vt 0.675873 0.583536
vt 0.707721 0.619301
vt 0.675873 0.583536
vt 0.709529 0.619253
vt 0.707721 0.380699
vt 0.709529 0.380747
vt 0.675873 0.416464
vt 0.707721 0.380699
vt 0.675873 0.416464
vt 0.674064 0.416416
vt 0.674064 0.583584
vt 0.674162 0.583327
vt 0.675586 0.583232
vt 0.674064 0.583584
vt 0.675586 0.583232
vt 0.675873 0.583536
vt 0.674064 0.416416
vt 0.675873 0.416464
vt 0.675586 0.416768
vt 0.674064 0.416416
vt 0.675586 0.416768
vt 0.674162 0.416673
vt 0.709816 0.619557
vt 0.709529 0.619253
vt 0.759630 0.617919
vt 0.709816 0.619557
vt 0.759630 0.617919
vt 0.759916 0.618223
vt 0.709816 0.380443
vt 0.759916 0.381777
vt 0.759630 0.382081
vt 0.709816 0.380443
vt 0.759630 0.382081
vt 0.709529 0.380747
vt 0.709529 0.619253
vt 0.675873 0.583536
vt 0.725973 0.582202
vt 0.709529 0.619253
vt 0.725973 0.582202
vt 0.759630 0.617919
vt 0.709529 0.380747
vt 0.759630 0.382081
vt 0.725973 0.417798
vt 0.709529 0.380747
vt 0.725973 0.417798
vt 0.675873 0.416464
vt 0.675873 0.583536
vt 0.675586 0.583232
vt 0.725686 0.581898
vt 0.675873 0.583536
vt 0.725686 0.581898
vt 0.725973 0.582202
vt 0.675873 0.416464
vt 0.725973 0.417798
vt 0.725686 0.418102
vt 0.675873 0.416464
vt 0.725686 0.418102
vt 0.675586 0.416768
vt 0.759916 0.618223
vt 0.759630 0.617919
vt 0.761438 0.617871
vt 0.759916 0.618223
vt 0.761438 0.617871
vt 0.761340 0.618128
vt 0.759916 0.381777
vt 0.761340 0.381872
vt 0.761438 0.382129
vt 0.759916 0.381777
vt 0.761438 0.382129
vt 0.759630 0.382081
vt 0.759630 0.617919
vt 0.725973 0.582202
vt 0.727782 0.582154
vt 0.759630 0.617919
vt 0.727782 0.582154
vt 0.761438 0.617871
vt 0.759630 0.382081
vt 0.761438 0.382129
vt 0.727782 0.417846
vt 0.759630 0.382081
vt 0.727782 0.417846
vt 0.725973 0.417798
vt 0.725973 0.582202
vt 0.725686 0.581898
vt 0.727216 0.581914
vt 0.725973 0.582202
vt 0.727216 0.581914
vt 0.727782 0.582154
vt 0.725973 0.417798
vt 0.727782 0.417846
vt 0.727216 0.418086
vt 0.725973 0.417798
vt 0.727216 0.418086
vt 0.725686 0.418102
vt 0.675777 0.218683
vt 0.674133 0.219890
vt 0.674270 0.213313
vt 0.675777 0.218683
vt 0.674270 0.213313
vt 0.676221 0.213313
vt 0.646679 0.058683
vt 0.646287 0.053313
vt 0.648993 0.053313
vt 0.646679 0.058683
vt 0.648993 0.053313
vt 0.648826 0.059890
vt 0.676221 0.213313
vt 0.674270 0.213313
vt 0.674270 0.190577
vt 0.676221 0.213313
vt 0.674270 0.190577
vt 0.676221 0.190577
vt 0.646287 0.053313
vt 0.646287 0.030577
vt 0.648993 0.030577
vt 0.646287 0.053313
vt 0.648993 0.030577
vt 0.648993 0.053313
vt 0.676221 0.190577
vt 0.674270 0.190577
vt 0.674133 0.184000
vt 0.676221 0.190577
vt 0.674133 0.184000
vt 0.675777 0.185207
vt 0.646287 0.030577
vt 0.646679 0.025207
vt 0.648826 0.024000
vt 0.646287 0.030577
vt 0.648826 0.024000
vt 0.648993 0.030577
vt 0.674133 0.219890
vt 0.616304 0.219890
vt 0.616441 0.213313
vt 0.674133 0.219890
vt 0.616441 0.213313
vt 0.674270 0.213313
vt 0.648826 0.059890
vt 0.648993 0.053313
vt 0.719331 0.053313
vt 0.648826 0.059890
vt 0.719331 0.053313
vt 0.719165 0.059890
vt 0.674270 0.213313
vt 0.616441 0.213313
vt 0.616441 0.190577
vt 0.674270 0.213313
vt 0.616441 0.190577
vt 0.674270 0.190577
vt 0.648993 0.053313
vt 0.648993 0.030577
vt 0.719331 0.030577
vt 0.648993 0.053313
vt 0.719331 0.030577
vt 0.719331 0.053313
vt 0.674270 0.190577
vt 0.616441 0.190577
vt 0.616304 0.184000
vt 0.674270 0.190577
vt 0.616304 0.184000
vt 0.674133 0.184000
vt 0.648993 0.030577
vt 0.648826 0.024000
vt 0.719165 0.024000
vt 0.648993 0.030577
vt 0.719165 0.024000
vt 0.719331 0.030577
vt 0.616304 0.219890
vt 0.614539 0.218683
vt 0.614217 0.213313
vt 0.616304 0.219890
vt 0.614217 0.213313
vt 0.616441 0.213313
vt 0.719165 0.059890
vt 0.719331 0.053313
vt 0.721704 0.053313
vt 0.719165 0.059890
vt 0.721704 0.053313
vt 0.721164 0.058683
vt 0.616441 0.213313
vt 0.614217 0.213313
vt 0.614217 0.190577
vt 0.616441 0.213313
vt 0.614217 0.190577
vt 0.616441 0.190577
vt 0.719331 0.053313
vt 0.719331 0.030577
vt 0.721704 0.030577
vt 0.719331 0.053313
vt 0.721704 0.030577
vt 0.721704 0.053313
vt 0.616441 0.190577
vt 0.614217 0.190577
vt 0.614539 0.185207
vt 0.616441 0.190577
vt 0.614539 0.185207
vt 0.616304 0.184000
vt 0.719331 0.030577
vt 0.719165 0.024000
vt 0.721164 0.025207
vt 0.719331 0.030577
vt 0.721164 0.025207
vt 0.721704 0.030577
vt 0.747590 0.853232
vt 0.747427 0.848706
vt 0.748176 0.848706
vt 0.747590 0.853232
vt 0.748176 0.848706
vt 0.748216 0.854249
vt 0.614717 0.693232
vt 0.614055 0.694249
vt 0.614015 0.688706
vt 0.614717 0.693232
vt 0.614015 0.688706
vt 0.614844 0.688706
vt 0.748216 0.854249
vt 0.748176 0.848706
vt 0.829522 0.848706
vt 0.748216 0.854249
vt 0.829522 0.848706
vt 0.829562 0.854249
vt 0.614055 0.694249
vt 0.532709 0.694249
vt 0.532669 0.688706
vt 0.614055 0.694249
vt 0.532669 0.688706
vt 0.614015 0.688706
vt 0.829562 0.854249
vt 0.829522 0.848706
vt 0.830351 0.848706
vt 0.829562 0.854249
vt 0.830351 0.848706
vt 0.830224 0.853232
vt 0.532709 0.694249
vt 0.532083 0.693232
vt 0.531920 0.688706
vt 0.532709 0.694249
vt 0.531920 0.688706
vt 0.532669 0.688706
vt 0.747427 0.848706
vt 0.747427 0.829543
vt 0.748176 0.829543
vt 0.747427 0.848706
vt 0.748176 0.829543
vt 0.748176 0.848706
vt 0.614844 0.688706
vt 0.614015 0.688706
vt 0.614015 0.669543
vt 0.614844 0.688706
vt 0.614015 0.669543
vt 0.614844 0.669543
vt 0.748176 0.848706
vt 0.748176 0.829543
vt 0.829522 0.829543
vt 0.748176 0.848706
vt 0.829522 0.829543
vt 0.829522 0.848706
vt 0.614015 0.688706
vt 0.532669 0.688706
vt 0.532669 0.669543
vt 0.614015 0.688706
vt 0.532669 0.669543
vt 0.614015 0.669543
vt 0.829522 0.848706
vt 0.829522 0.829543
vt 0.830351 0.829543
vt 0.829522 0.848706
vt 0.830351 0.829543
vt 0.830351 0.848706
vt 0.532669 0.688706
vt 0.531920 0.688706
vt 0.531920 0.669543
vt 0.532669 0.688706
vt 0.531920 0.669543
vt 0.532669 0.669543
vt 0.747427 0.829543
vt 0.747590 0.825017
vt 0.748216 0.824000
vt 0.747427 0.829543
vt 0.748216 0.824000
vt 0.748176 0.829543
vt 0.614844 0.669543
vt 0.614015 0.669543
vt 0.614055 0.664000
vt 0.614844 0.669543
vt 0.614055 0.664000
vt 0.614717 0.665017
vt 0.748176 0.829543
vt 0.748216 0.824000
vt 0.829562 0.824000
vt 0.748176 0.829543
vt 0.829562 0.824000
vt 0.829522 0.829543
vt 0.614015 0.669543
vt 0.532669 0.669543
vt 0.532709 0.664000
vt 0.614015 0.669543
vt 0.532709 0.664000
vt 0.614055 0.664000
vt 0.829522 0.829543
vt 0.829562 0.824000
vt 0.830224 0.825017
vt 0.829522 0.829543
vt 0.830224 0.825017
vt 0.830351 0.829543
vt 0.532669 0.669543
vt 0.531920 0.669543
vt 0.532083 0.665017
vt 0.532669 0.669543
vt 0.532083 0.665017
vt 0.532709 0.664000
vt 0.607034 0.560697
vt 0.606882 0.560440
vt 0.608700 0.560478
vt 0.607034 0.560697
vt 0.608700 0.560478
vt 0.608477 0.560783
vt 0.607034 0.439303
vt 0.608477 0.439217
vt 0.608700 0.439522
vt 0.607034 0.439303
vt 0.608700 0.439522
vt 0.606882 0.439560
vt 0.606882 0.560440
vt 0.629896 0.528937
vt 0.631714 0.528974
vt 0.606882 0.560440
vt 0.631714 0.528974
vt 0.608700 0.560478
vt 0.606882 0.439560
vt 0.608700 0.439522
vt 0.631714 0.471026
vt 0.606882 0.439560
vt 0.631714 0.471026
vt 0.629896 0.471063
vt 0.629896 0.528937
vt 0.630412 0.528694
vt 0.631937 0.528669
vt 0.629896 0.528937
vt 0.631937 0.528669
vt 0.631714 0.528974
vt 0.629896 0.471063
vt 0.631714 0.471026
vt 0.631937 0.471331
vt 0.629896 0.471063
vt 0.631937 0.471331
vt 0.630412 0.471306
vt 0.608477 0.560783
vt 0.608700 0.560478
vt 0.652519 0.561382
vt 0.608477 0.560783
vt 0.652519 0.561382
vt 0.652295 0.561688
vt 0.608477 0.439217
vt 0.652295 0.438312
vt 0.652519 0.438618
vt 0.608477 0.439217
vt 0.652519 0.438618
vt 0.608700 0.439522
vt 0.608700 0.560478
vt 0.631714 0.528974
vt 0.675532 0.529878
vt 0.608700 0.560478
vt 0.675532 0.529878
vt 0.652519 0.561382
vt 0.608700 0.439522
vt 0.652519 0.438618
vt 0.675532 0.470122
vt 0.608700 0.439522
vt 0.675532 0.470122
vt 0.631714 0.471026
vt 0.631714 0.528974
vt 0.631937 0.528669
vt 0.675756 0.529573
vt 0.631714 0.528974
vt 0.675756 0.529573
vt 0.675532 0.529878
vt 0.631714 0.471026
vt 0.675532 0.470122
vt 0.675756 0.470427
vt 0.631714 0.471026
vt 0.675756 0.470427
vt 0.631937 0.471331
vt 0.652295 0.561688
vt 0.652519 0.561382
vt 0.654336 0.561420
vt 0.652295 0.561688
vt 0.654336 0.561420
vt 0.653820 0.561662
vt 0.652295 0.438312
vt 0.653820 0.438338
vt 0.654336 0.438580
vt 0.652295 0.438312
vt 0.654336 0.438580
vt 0.652519 0.438618
vt 0.652519 0.561382
vt 0.675532 0.529878
vt 0.677350 0.529916
vt 0.652519 0.561382
vt 0.677350 0.529916
vt 0.654336 0.561420
vt 0.652519 0.438618
vt 0.654336 0.438580
vt 0.677350 0.470084
vt 0.652519 0.438618
vt 0.677350 0.470084
vt 0.675532 0.470122
vt 0.675532 0.529878
vt 0.675756 0.529573
vt 0.677199 0.529660
vt 0.675532 0.529878
vt 0.677199 0.529660
vt 0.677350 0.529916
vt 0.675532 0.470122
vt 0.677350 0.470084
vt 0.677199 0.470340
vt 0.675532 0.470122
vt 0.677199 0.470340
vt 0.675756 0.470427
vt 0.726276 0.218683
vt 0.724515 0.219890
vt 0.724409 0.213313
vt 0.726276 0.218683
vt 0.724409 0.213313
vt 0.726613 0.213313
vt 0.504526 0.058683
vt 0.504000 0.053313
vt 0.506422 0.053313
vt 0.504526 0.058683
vt 0.506422 0.053313
vt 0.506552 0.059890
vt 0.726613 0.213313
vt 0.724409 0.213313
vt 0.724409 0.190577
vt 0.726613 0.213313
vt 0.724409 0.190577
vt 0.726613 0.190577
vt 0.504000 0.053313
vt 0.504000 0.030577
vt 0.506422 0.030577
vt 0.504000 0.053313
vt 0.506422 0.030577
vt 0.506422 0.053313
vt 0.726613 0.190577
vt 0.724409 0.190577
vt 0.724515 0.184000
vt 0.726613 0.190577
vt 0.724515 0.184000
vt 0.726276 0.185207
vt 0.504000 0.030577
vt 0.504526 0.025207
vt 0.506552 0.024000
vt 0.504000 0.030577
vt 0.506552 0.024000
vt 0.506422 0.030577
vt 0.724515 0.219890
vt 0.673937 0.219890
vt 0.673831 0.213313
vt 0.724515 0.219890
vt 0.673831 0.213313
vt 0.724409 0.213313
vt 0.506552 0.059890
vt 0.506422 0.053313
vt 0.567941 0.053313
vt 0.506552 0.059890
vt 0.567941 0.053313
vt 0.568071 0.059890
vt 0.724409 0.213313
vt 0.673831 0.213313
vt 0.673831 0.190577
vt 0.724409 0.213313
vt 0.673831 0.190577
vt 0.724409 0.190577
vt 0.506422 0.053313
vt 0.506422 0.030577
vt 0.567941 0.030577
vt 0.506422 0.053313
vt 0.567941 0.030577
vt 0.567941 0.053313
vt 0.724409 0.190577
vt 0.673831 0.190577
vt 0.673937 0.184000
vt 0.724409 0.190577
vt 0.673937 0.184000
vt 0.724515 0.184000
vt 0.506422 0.030577
vt 0.506552 0.024000
vt 0.568071 0.024000
vt 0.506422 0.030577
vt 0.568071 0.024000
vt 0.567941 0.030577
vt 0.673937 0.219890
vt 0.672272 0.218683
vt 0.671840 0.213313
vt 0.673937 0.219890
vt 0.671840 0.213313
vt 0.673831 0.213313
vt 0.568071 0.059890
vt 0.567941 0.053313
vt 0.570623 0.053313
vt 0.568071 0.059890
vt 0.570623 0.053313
vt 0.570212 0.058683
vt 0.673831 0.213313
vt 0.671840 0.213313
vt 0.671840 0.190577
vt 0.673831 0.213313
vt 0.671840 0.190577
vt 0.673831 0.190577
vt 0.567941 0.053313
vt 0.567941 0.030577
vt 0.570623 0.030577
vt 0.567941 0.053313
vt 0.570623 0.030577
vt 0.570623 0.053313
vt 0.673831 0.190577
vt 0.671840 0.190577
vt 0.672272 0.185207
vt 0.673831 0.190577
vt 0.672272 0.185207
vt 0.673937 0.184000
vt 0.567941 0.030577
vt 0.568071 0.024000
vt 0.570212 0.025207
vt 0.567941 0.030577
vt 0.570212 0.025207
vt 0.570623 0.030577
vn 0.000000 1.000000 0.000000
vn 0.000000 1.000000 0.000000
vn 0.000000 1.000000 0.000000
vn 0.000000 1.000000 0.000000
vn 0.000000 1.000000 0.000000
vn 0.000000 1.000000 0.000000
vn 0.000000 1.000000 0.000000
vn 0.000000 1.000000 0.000000
vn 0.000000 1.000000 0.000000
vn 0.000000 1.000000 0.000000
vn 0.000000 1.000000 0.000000
vn 0.000000 1.000000 0.000000
vn 0.000000 1.000000 0.000000
vn 0.000000 1.000000 0.000000
vn 0.000000 1.000000 0.000000
vn 0.000000 1.000000 0.000000
vn 0.000000 1.000000 0.000000
vn 0.000000 1.000000 0.000000
vn 0.000000 -1.000000 0.000000
vn 0.000000 -1.000000 0.000000
vn 0.000000 -1.000000 0.000000
vn 0.000000 -1.000000 0.000000
vn 0.000000 -1.000000 0.000000
vn 0.000000 -1.000000 0.000000
vn 0.000000 -1.000000 0.000000
vn 0.000000 -1.000000 0.000000
vn 0.000000 -1.000000 0.000000
vn 0.000000 -1.000000 0.000000
vn 0.000000 -1.000000 0.000000
vn 0.000000 -1.000000 0.000000
vn 0.000000 -1.000000 0.000000
vn 0.000000 -1.000000 0.000000
vn 0.000000 -1.000000 0.000000
vn 0.000000 -1.000000 0.000000
vn 0.000000 -1.000000 0.000000
vn 0.000000 -1.000000 0.000000
vn 0.154450 -0.872613 0.463348
vn 0.154450 -0.872613 0.463348
vn 0.154450 -0.872613 0.463348
vn 0.154450 -0.872613 0.463349
vn 0.154450 -0.872613 0.463349
vn 0.154450 -0.872613 0.463349
vn -0.316228 0.000000 -0.948683
vn -0.316228 0.000000 -0.948683
vn -0.316228 0.000000 -0.948683
vn -0.316228 0.000000 -0.948683
vn -0.316228 0.000000 -0.948683
vn -0.316228 0.000000 -0.948683
vn 0.154450 0.872613 0.463349
vn 0.154450 0.872613 0.463349
vn 0.154450 0.872613 0.463349
vn 0.154450 0.872613 0.463348
vn 0.154450 0.872613 0.463348
vn 0.154450 0.872613 0.463348
vn 0.516660 -0.727999 0.450643
vn 0.516660 -0.727999 0.450643
vn 0.516660 -0.727999 0.450643
vn 0.516661 -0.727999 0.450643
vn 0.516661 -0.727999 0.450643
vn 0.516661 -0.727999 0.450643
vn -0.753613 0.000000 -0.657318
vn -0.753613 0.000000 -0.657318
vn -0.753613 0.000000 -0.657318
vn -0.753613 0.000000 -0.657318
vn -0.753613 0.000000 -0.657318
vn -0.753613 0.000000 -0.657318
vn 0.516661 0.727999 0.450643
vn 0.516661 0.727999 0.450643
vn 0.516661 0.727999 0.450643
vn 0.516660 0.727999 0.450643
vn 0.516660 0.727999 0.450643
vn 0.516660 0.727999 0.450643
vn 0.780245 -0.625266 -0.016143
vn 0.780245 -0.625266 -0.016143
vn 0.780245 -0.625266 -0.016143
vn 0.780245 -0.625266 -0.016143
vn 0.780245 -0.625266 -0.016143
vn 0.780245 -0.625266 -0.016143
vn -0.999786 0.000000 0.020685
vn -0.999786 0.000000 0.020685
vn -0.999786 0.000000 0.020685
vn -0.999786 0.000000 0.020685
vn -0.999786 0.000000 0.020685
vn -0.999786 0.000000 0.020685
vn 0.780245 0.625266 -0.016143
vn 0.780245 0.625266 -0.016143
vn 0.780245 0.625266 -0.016143
vn 0.780245 0.625266 -0.016143
vn 0.780245 0.625266 -0.016143
vn 0.780245 0.625266 -0.016143
vn 0.288880 -0.851226 -0.438135
vn 0.288880 -0.851226 -0.438135
vn 0.288880 -0.851226 -0.438135
vn 0.288880 -0.851227 -0.438134
vn 0.288880 -0.851227 -0.438134
vn 0.288880 -0.851227 -0.438134
vn -0.550459 0.000000 0.834862
vn -0.550459 0.000000 0.834862
vn -0.550459 0.000000 0.834862
vn -0.550459 0.000000 0.834862
vn -0.550459 0.000000 0.834862
vn -0.550459 0.000000 0.834862
vn 0.288880 0.851227 -0.438134
vn 0.288880 0.851227 -0.438134
vn 0.288880 0.851227 -0.438134
vn 0.288880 0.851226 -0.438135
vn 0.288880 0.851226 -0.438135
vn 0.288880 0.851226 -0.438135
vn -0.241315 -0.850059 -0.468152
vn -0.241315 -0.850059 -0.468152
vn -0.241315 -0.850059 -0.468152
vn -0.241315 -0.850059 -0.468152
vn -0.241315 -0.850059 -0.468152
vn -0.241315 -0.850059 -0.468152
vn 0.458176 0.000000 0.888861
vn 0.458176 0.000000 0.888861
vn 0.458176 0.000000 0.888861
vn 0.458176 0.000000 0.888861
vn 0.458176 0.000000 0.888861
vn 0.458176 0.000000 0.888861
vn -0.241315 0.850059 -0.468152
vn -0.241315 0.850059 -0.468152
vn -0.241315 0.850059 -0.468152
vn -0.241315 0.850059 -0.468152
vn -0.241315 0.850059 -0.468152
vn -0.241315 0.850059 -0.468152
vn -0.830757 -0.555322 -0.038215
vn -0.830757 -0.555322 -0.038215
vn -0.830757 -0.555322 -0.038215
vn -0.830758 -0.555321 -0.038215
vn -0.830758 -0.555321 -0.038215
vn -0.830758 -0.555321 -0.038215
vn 0.998944 0.000000 0.045951
vn 0.998944 0.000000 0.045951
vn 0.998944 0.000000 0.045951
vn 0.998944 0.000000 0.045951
vn 0.998944 0.000000 0.045951
vn 0.998944 0.000000 0.045951
vn -0.830758 0.555321 -0.038215
vn -0.830758 0.555321 -0.038215
vn -0.830758 0.555321 -0.038215
vn -0.830757 0.555322 -0.038215
vn -0.830757 0.555322 -0.038215
vn -0.830757 0.555322 -0.038215
vn 0.932980 -0.281744 -0.223984
vn 0.932980 -0.281744 -0.223984
vn 0.932980 -0.281744 -0.223984
vn 0.919613 -0.367184 -0.139597
vn 0.919613 -0.367184 -0.139597
vn 0.919613 -0.367184 -0.139597
vn -0.831464 -0.367194 -0.416936
vn -0.831464 -0.367194 -0.416936
vn -0.831464 -0.367194 -0.416936
vn -0.818098 -0.281746 -0.501334
vn -0.818098 -0.281746 -0.501334
vn -0.818098 -0.281746 -0.501334
vn 0.912504 -0.382687 0.144526
vn 0.912504 -0.382687 0.144526
vn 0.912504 -0.382687 0.144526
vn 0.912501 -0.382694 0.144526
vn 0.912501 -0.382694 0.144526
vn 0.912501 -0.382694 0.144526
vn -0.912501 -0.382694 -0.144526
vn -0.912501 -0.382694 -0.144526
vn -0.912501 -0.382694 -0.144526
vn -0.912500 -0.382695 -0.144526
vn -0.912500 -0.382695 -0.144526
vn -0.912500 -0.382695 -0.144526
vn 0.796318 -0.357416 0.487987
vn 0.796318 -0.357416 0.487987
vn 0.796318 -0.357416 0.487987
vn 0.871917 -0.268222 0.409655
vn 0.871917 -0.268222 0.409655
vn 0.871917 -0.268222 0.409655
vn -0.955822 -0.268251 0.120192
vn -0.955822 -0.268251 0.120192
vn -0.955822 -0.268251 0.120192
vn -0.908140 -0.357419 0.218023
vn -0.908140 -0.357419 0.218023
vn -0.908140 -0.357419 0.218023
vn 0.972371 0.000000 -0.233441
vn 0.972371 0.000000 -0.233441
vn 0.972371 0.000000 -0.233441
vn 0.972371 0.000000 -0.233441
vn 0.972371 0.000000 -0.233441
vn 0.972371 0.000000 -0.233441
vn -0.852639 0.000000 -0.522501
vn -0.852639 0.000000 -0.522501
vn -0.852639 0.000000 -0.522501
vn -0.852639 0.000000 -0.522501
vn -0.852639 0.000000 -0.522501
vn -0.852639 0.000000 -0.522501
vn 0.987688 0.000000 0.156434
vn 0.987688 0.000000 0.156434
vn 0.987688 0.000000 0.156434
vn 0.987688 0.000000 0.156434
vn 0.987688 0.000000 0.156434
vn 0.987688 0.000000 0.156434
vn -0.987688 0.000000 -0.156434
vn -0.987688 0.000000 -0.156434
vn -0.987688 0.000000 -0.156434
vn -0.987688 0.000000 -0.156434
vn -0.987688 0.000000 -0.156434
vn -0.987688 0.000000 -0.156434
vn 0.852639 0.000000 0.522501
vn 0.852639 0.000000 0.522501
vn 0.852639 0.000000 0.522501
vn 0.852639 0.000000 0.522501
vn 0.852639 0.000000 0.522501
vn 0.852639 0.000000 0.522501
vn -0.972370 0.000000 0.233443
vn -0.972370 0.000000 0.233443
vn -0.972370 0.000000 0.233443
vn -0.972370 0.000000 0.233443
vn -0.972370 0.000000 0.233443
vn -0.972370 0.000000 0.233443
vn 0.955831 0.268226 -0.120175
vn 0.955831 0.268226 -0.120175
vn 0.955831 0.268226 -0.120175
vn 0.908144 0.357409 -0.218022
vn 0.908144 0.357409 -0.218022
vn 0.908144 0.357409 -0.218022
vn -0.796317 0.357418 -0.487987
vn -0.796317 0.357418 -0.487987
vn -0.796317 0.357418 -0.487987
vn -0.871916 0.268225 -0.409656
vn -0.871916 0.268225 -0.409656
vn -0.871916 0.268225 -0.409656
vn 0.912504 0.382687 0.144526
vn 0.912504 0.382687 0.144526
vn 0.912504 0.382687 0.144526
vn 0.912501 0.382694 0.144526
vn 0.912501 0.382694 0.144526
vn 0.912501 0.382694 0.144526
vn -0.912501 0.382694 -0.144526
vn -0.912501 0.382694 -0.144526
vn -0.912501 0.382694 -0.144526
vn -0.912500 0.382695 -0.144526
vn -0.912500 0.382695 -0.144526
vn -0.912500 0.382695 -0.144526
vn 0.831465 0.367192 0.416936
vn 0.831465 0.367192 0.416936
vn 0.831465 0.367192 0.416936
vn 0.818098 0.281743 0.501334
vn 0.818098 0.281743 0.501334
vn 0.818098 0.281743 0.501334
vn -0.932973 0.281766 0.223985
vn -0.932973 0.281766 0.223985
vn -0.932973 0.281766 0.223985
vn -0.919608 0.367192 0.139610
vn -0.919608 0.367192 0.139610
vn -0.919608 0.367192 0.139610
vn -0.318591 0.886453 -0.335709
vn -0.318591 0.886453 -0.335709
vn -0.318591 0.886453 -0.335709
vn -0.220826 0.886453 -0.406739
vn -0.220826 0.886453 -0.406739
vn -0.220826 0.886453 -0.406739
vn -0.220826 -0.886453 -0.406739
vn -0.220826 -0.886453 -0.406739
vn -0.220826 -0.886453 -0.406739
vn -0.318591 -0.886453 -0.335709
vn -0.318591 -0.886453 -0.335709
vn -0.318591 -0.886453 -0.335709
vn -0.377974 0.923879 -0.059865
vn -0.377974 0.923879 -0.059865
vn -0.377974 0.923879 -0.059865
vn -0.377974 0.923879 -0.059865
vn -0.377974 0.923879 -0.059865
vn -0.377974 0.923879 -0.059865
vn -0.377974 -0.923879 -0.059865
vn -0.377974 -0.923879 -0.059865
vn -0.377974 -0.923879 -0.059865
vn -0.377974 -0.923879 -0.059865
vn -0.377974 -0.923879 -0.059865
vn -0.377974 -0.923879 -0.059865
vn -0.306885 0.925262 0.222962
vn -0.306885 0.925262 0.222962
vn -0.306885 0.925262 0.222962
vn -0.408919 0.862856 0.297093
vn -0.408919 0.862856 0.297093
vn -0.408919 0.862856 0.297093
vn -0.408919 -0.862856 0.297093
vn -0.408919 -0.862856 0.297093
vn -0.408919 -0.862856 0.297093
vn -0.306885 -0.925262 0.222962
vn -0.306885 -0.925262 0.222962
vn -0.306885 -0.925262 0.222962
vn 0.059865 0.923879 -0.377973
vn 0.059865 0.923879 -0.377973
vn 0.059865 0.923879 -0.377973
vn 0.059864 0.923882 -0.377967
vn 0.059864 0.923882 -0.377967
vn 0.059864 0.923882 -0.377967
vn 0.059864 -0.923882 -0.377967
vn 0.059864 -0.923882 -0.377967
vn 0.059864 -0.923882 -0.377967
vn 0.059865 -0.923879 -0.377973
vn 0.059865 -0.923879 -0.377973
vn 0.059865 -0.923879 -0.377973
vn 0.000000 1.000000 0.000000
vn 0.000000 1.000000 0.000000
vn 0.000000 1.000000 0.000000
vn 0.000000 1.000000 0.000000
vn 0.000000 1.000000 0.000000
vn 0.000000 1.000000 0.000000
vn 0.000000 -1.000000 0.000000
vn 0.000000 -1.000000 0.000000
vn 0.000000 -1.000000 0.000000
vn 0.000000 -1.000000 0.000000
vn 0.000000 -1.000000 0.000000
vn 0.000000 -1.000000 0.000000
vn -0.059864 0.923881 0.377968
vn -0.059864 0.923881 0.377968
vn -0.059864 0.923881 0.377968
vn -0.059865 0.923880 0.377970
vn -0.059865 0.923880 0.377970
vn -0.059865 0.923880 0.377970
vn -0.059865 -0.923880 0.377970
vn -0.059865 -0.923880 0.377970
vn -0.059865 -0.923880 0.377970
vn -0.059864 -0.923881 0.377968
vn -0.059864 -0.923881 0.377968
vn -0.059864 -0.923881 0.377968
vn 0.408914 0.862859 -0.297091
vn 0.408914 0.862859 -0.297091
vn 0.408914 0.862859 -0.297091
vn 0.306879 0.925265 -0.222959
vn 0.306879 0.925265 -0.222959
vn 0.306879 0.925265 -0.222959
vn 0.306879 -0.925265 -0.222959
vn 0.306879 -0.925265 -0.222959
vn 0.306879 -0.925265 -0.222959
vn 0.408914 -0.862859 -0.297091
vn 0.408914 -0.862859 -0.297091
vn 0.408914 -0.862859 -0.297091
vn 0.377974 0.923879 0.059865
vn 0.377974 0.923879 0.059865
vn 0.377974 0.923879 0.059865
vn 0.377971 0.923880 0.059865
vn 0.377971 0.923880 0.059865
vn 0.377971 0.923880 0.059865
vn 0.377971 -0.923880 0.059865
vn 0.377971 -0.923880 0.059865
vn 0.377971 -0.923880 0.059865
vn 0.377974 -0.923879 0.059865
vn 0.377974 -0.923879 0.059865
vn 0.377974 -0.923879 0.059865
vn 0.220829 0.886454 0.406736
vn 0.220829 0.886454 0.406736
vn 0.220829 0.886454 0.406736
vn 0.318590 0.886454 0.335709
vn 0.318590 0.886454 0.335709
vn 0.318590 0.886454 0.335709
vn 0.318590 -0.886454 0.335709
vn 0.318590 -0.886454 0.335709
vn 0.318590 -0.886454 0.335709
vn 0.220829 -0.886454 0.406736
vn 0.220829 -0.886454 0.406736
vn 0.220829 -0.886454 0.406736
vn -0.416955 -0.367177 0.831463
vn -0.416955 -0.367177 0.831463
vn -0.416955 -0.367177 0.831463
vn -0.501325 -0.281756 0.818099
vn -0.501325 -0.281756 0.818099
vn -0.501325 -0.281756 0.818099
vn -0.223984 -0.281753 -0.932977
vn -0.223984 -0.281753 -0.932977
vn -0.223984 -0.281753 -0.932977
vn -0.139597 -0.367192 -0.919610
vn -0.139597 -0.367192 -0.919610
vn -0.139597 -0.367192 -0.919610
vn -0.522494 0.000000 0.852643
vn -0.522494 0.000000 0.852643
vn -0.522494 0.000000 0.852643
vn -0.522494 0.000000 0.852643
vn -0.522494 0.000000 0.852643
vn -0.522494 0.000000 0.852643
vn -0.233441 0.000000 -0.972371
vn -0.233441 0.000000 -0.972371
vn -0.233441 0.000000 -0.972371
vn -0.233441 0.000000 -0.972371
vn -0.233441 0.000000 -0.972371
vn -0.233441 0.000000 -0.972371
vn -0.487983 0.357405 0.796326
vn -0.487983 0.357405 0.796326
vn -0.487983 0.357405 0.796326
vn -0.409677 0.268239 0.871902
vn -0.409677 0.268239 0.871902
vn -0.409677 0.268239 0.871902
vn -0.120175 0.268236 -0.955828
vn -0.120175 0.268236 -0.955828
vn -0.120175 0.268236 -0.955828
vn -0.218021 0.357418 -0.908141
vn -0.218021 0.357418 -0.908141
vn -0.218021 0.357418 -0.908141
vn -0.144526 -0.382687 0.912504
vn -0.144526 -0.382687 0.912504
vn -0.144526 -0.382687 0.912504
vn -0.144527 -0.382679 0.912507
vn -0.144527 -0.382679 0.912507
vn -0.144527 -0.382679 0.912507
vn 0.144526 -0.382695 -0.912500
vn 0.144526 -0.382695 -0.912500
vn 0.144526 -0.382695 -0.912500
vn 0.144527 -0.382679 -0.912507
vn 0.144527 -0.382679 -0.912507
vn 0.144527 -0.382679 -0.912507
vn -0.156435 0.000000 0.987688
vn -0.156435 0.000000 0.987688
vn -0.156435 0.000000 0.987688
vn -0.156435 0.000000 0.987688
vn -0.156435 0.000000 0.987688
vn -0.156435 0.000000 0.987688
vn 0.156435 0.000000 -0.987688
vn 0.156435 0.000000 -0.987688
vn 0.156435 0.000000 -0.987688
vn 0.156435 0.000000 -0.987688
vn 0.156435 0.000000 -0.987688
vn 0.156435 0.000000 -0.987688
vn -0.144527 0.382687 0.912503
vn -0.144527 0.382687 0.912503
vn -0.144527 0.382687 0.912503
vn -0.144527 0.382679 0.912507
vn -0.144527 0.382679 0.912507
vn -0.144527 0.382679 0.912507
vn 0.144526 0.382695 -0.912500
vn 0.144526 0.382695 -0.912500
vn 0.144526 0.382695 -0.912500
vn 0.144527 0.382679 -0.912507
vn 0.144527 0.382679 -0.912507
vn 0.144527 0.382679 -0.912507
vn 0.120180 -0.268231 0.955829
vn 0.120180 -0.268231 0.955829
vn 0.120180 -0.268231 0.955829
vn 0.218022 -0.357409 0.908144
vn 0.218022 -0.357409 0.908144
vn 0.218022 -0.357409 0.908144
vn 0.487980 -0.357405 -0.796327
vn 0.487980 -0.357405 -0.796327
vn 0.487980 -0.357405 -0.796327
vn 0.409666 -0.268232 -0.871909
vn 0.409666 -0.268232 -0.871909
vn 0.409666 -0.268232 -0.871909
vn 0.233441 0.000000 0.972371
vn 0.233441 0.000000 0.972371
vn 0.233441 0.000000 0.972371
vn 0.233441 0.000000 0.972371
vn 0.233441 0.000000 0.972371
vn 0.233441 0.000000 0.972371
vn 0.522491 0.000000 -0.852645
vn 0.522491 0.000000 -0.852645
vn 0.522491 0.000000 -0.852645
vn 0.522491 0.000000 -0.852645
vn 0.522491 0.000000 -0.852645
vn 0.522491 0.000000 -0.852645
vn 0.223984 0.281747 0.932979
vn 0.223984 0.281747 0.932979
vn 0.223984 0.281747 0.932979
vn 0.139601 0.367183 0.919613
vn 0.139601 0.367183 0.919613
vn 0.139601 0.367183 0.919613
vn 0.416945 0.367178 -0.831467
vn 0.416945 0.367178 -0.831467
vn 0.416945 0.367178 -0.831467
vn 0.501324 0.281748 -0.818103
vn 0.501324 0.281748 -0.818103
vn 0.501324 0.281748 -0.818103
vn 0.835099 -0.281739 -0.472474
vn 0.835099 -0.281739 -0.472474
vn 0.835099 -0.281739 -0.472474
vn 0.845512 -0.367176 -0.387675
vn 0.845512 -0.367176 -0.387675
vn 0.845512 -0.367176 -0.387675
vn -0.914183 -0.367175 -0.171618
vn -0.914183 -0.367175 -0.171618
vn -0.914183 -0.367175 -0.171618
vn -0.924594 -0.281737 -0.256419
vn -0.924594 -0.281737 -0.256419
vn -0.924594 -0.281737 -0.256419
vn 0.916995 -0.382678 -0.112593
vn 0.916995 -0.382678 -0.112593
vn 0.916995 -0.382678 -0.112593
vn 0.916995 -0.382678 -0.112593
vn 0.916995 -0.382678 -0.112593
vn 0.916995 -0.382678 -0.112593
vn -0.916995 -0.382678 0.112593
vn -0.916995 -0.382678 0.112593
vn -0.916995 -0.382678 0.112593
vn -0.916995 -0.382678 0.112593
vn -0.916995 -0.382678 0.112593
vn -0.916995 -0.382678 0.112593
vn 0.899983 -0.357401 0.249591
vn 0.899983 -0.357401 0.249591
vn 0.899983 -0.357401 0.249591
vn 0.951054 -0.268222 0.153474
vn 0.951054 -0.268222 0.153474
vn 0.951054 -0.268222 0.153474
vn -0.885674 -0.268230 0.378992
vn -0.885674 -0.268230 0.378992
vn -0.885674 -0.268230 0.378992
vn -0.812872 -0.357403 0.459894
vn -0.812872 -0.357403 0.459894
vn -0.812872 -0.357403 0.459894
vn 0.870357 0.000000 -0.492422
vn 0.870357 0.000000 -0.492422
vn 0.870357 0.000000 -0.492422
vn 0.870357 0.000000 -0.492422
vn 0.870357 0.000000 -0.492422
vn 0.870357 0.000000 -0.492422
vn -0.963629 0.000000 -0.267244
vn -0.963629 0.000000 -0.267244
vn -0.963629 0.000000 -0.267244
vn -0.963629 0.000000 -0.267244
vn -0.963629 0.000000 -0.267244
vn -0.963629 0.000000 -0.267244
vn 0.992546 0.000000 -0.121869
vn 0.992546 0.000000 -0.121869
vn 0.992546 0.000000 -0.121869
vn 0.992546 0.000000 -0.121869
vn 0.992546 0.000000 -0.121869
vn 0.992546 0.000000 -0.121869
vn -0.992546 0.000000 0.121869
vn -0.992546 0.000000 0.121869
vn -0.992546 0.000000 0.121869
vn -0.992546 0.000000 0.121869
vn -0.992546 0.000000 0.121869
vn -0.992546 0.000000 0.121869
vn 0.963629 0.000000 0.267242
vn 0.963629 0.000000 0.267242
vn 0.963629 0.000000 0.267242
vn 0.963629 0.000000 0.267242
vn 0.963629 0.000000 0.267242
vn 0.963629 0.000000 0.267242
vn -0.870359 0.000000 0.492418
vn -0.870359 0.000000 0.492418
vn -0.870359 0.000000 0.492418
vn -0.870359 0.000000 0.492418
vn -0.870359 0.000000 0.492418
vn -0.870359 0.000000 0.492418
vn 0.885677 0.268222 -0.378989
vn 0.885677 0.268222 -0.378989
vn 0.885677 0.268222 -0.378989
vn 0.812870 0.357402 -0.459898
vn 0.812870 0.357402 -0.459898
vn 0.812870 0.357402 -0.459898
vn -0.899982 0.357401 -0.249593
vn -0.899982 0.357401 -0.249593
vn -0.899982 0.357401 -0.249593
vn -0.951055 0.268219 -0.153472
vn -0.951055 0.268219 -0.153472
vn -0.951055 0.268219 -0.153472
vn 0.916995 0.382678 -0.112593
vn 0.916995 0.382678 -0.112593
vn 0.916995 0.382678 -0.112593
vn 0.916995 0.382678 -0.112593
vn 0.916995 0.382678 -0.112593
vn 0.916995 0.382678 -0.112593
vn -0.916995 0.382678 0.112593
vn -0.916995 0.382678 0.112593
vn -0.916995 0.382678 0.112593
vn -0.916995 0.382678 0.112593
vn -0.916995 0.382678 0.112593
vn -0.916995 0.382678 0.112593
vn 0.914182 0.367175 0.171619
vn 0.914182 0.367175 0.171619
vn 0.914182 0.367175 0.171619
vn 0.924593 0.281741 0.256416
vn 0.924593 0.281741 0.256416
vn 0.924593 0.281741 0.256416
vn -0.835100 0.281747 0.472469
vn -0.835100 0.281747 0.472469
vn -0.835100 0.281747 0.472469
vn -0.845511 0.367176 0.387677
vn -0.845511 0.367176 0.387677
vn -0.845511 0.367176 0.387677
vn -0.398775 0.886455 -0.234896
vn -0.398775 0.886455 -0.234896
vn -0.398775 0.886455 -0.234896
vn -0.324390 0.886455 -0.330105
vn -0.324390 0.886455 -0.330105
vn -0.324390 0.886455 -0.330105
vn -0.324390 -0.886455 -0.330105
vn -0.324390 -0.886455 -0.330105
vn -0.324390 -0.886455 -0.330105
vn -0.398775 -0.886455 -0.234896
vn -0.398775 -0.886455 -0.234896
vn -0.398775 -0.886455 -0.234896
vn -0.379826 0.923882 0.046637
vn -0.379826 0.923882 0.046637
vn -0.379826 0.923882 0.046637
vn -0.379826 0.923882 0.046637
vn -0.379826 0.923882 0.046637
vn -0.379826 0.923882 0.046637
vn -0.379826 -0.923882 0.046637
vn -0.379826 -0.923882 0.046637
vn -0.379826 -0.923882 0.046637
vn -0.379826 -0.923882 0.046637
vn -0.379826 -0.923882 0.046637
vn -0.379826 -0.923882 0.046637
vn -0.233534 0.925264 0.298913
vn -0.233534 0.925264 0.298913
vn -0.233534 0.925264 0.298913
vn -0.311180 0.862860 0.398296
vn -0.311180 0.862860 0.398296
vn -0.311180 0.862860 0.398296
vn -0.311180 -0.862860 0.398296
vn -0.311180 -0.862860 0.398296
vn -0.311180 -0.862860 0.398296
vn -0.233534 -0.925264 0.298913
vn -0.233534 -0.925264 0.298913
vn -0.233534 -0.925264 0.298913
vn -0.046637 0.923880 -0.379829
vn -0.046637 0.923880 -0.379829
vn -0.046637 0.923880 -0.379829
vn -0.046637 0.923880 -0.379829
vn -0.046637 0.923880 -0.379829
vn -0.046637 0.923880 -0.379829
vn -0.046637 -0.923880 -0.379829
vn -0.046637 -0.923880 -0.379829
vn -0.046637 -0.923880 -0.379829
vn -0.046637 -0.923880 -0.379829
vn -0.046637 -0.923880 -0.379829
vn -0.046637 -0.923880 -0.379829
vn 0.000000 1.000000 0.000000
vn 0.000000 1.000000 0.000000
vn 0.000000 1.000000 0.000000
vn 0.000000 1.000000 0.000000
vn 0.000000 1.000000 0.000000
vn 0.000000 1.000000 0.000000
vn 0.000000 -1.000000 0.000000
vn 0.000000 -1.000000 0.000000
vn 0.000000 -1.000000 0.000000
vn 0.000000 -1.000000 0.000000
vn 0.000000 -1.000000 0.000000
vn 0.000000 -1.000000 0.000000
vn 0.046637 0.923882 0.379825
vn 0.046637 0.923882 0.379825
vn 0.046637 0.923882 0.379825
vn 0.046637 0.923879 0.379832
vn 0.046637 0.923879 0.379832
vn 0.046637 0.923879 0.379832
vn 0.046637 -0.923879 0.379832
vn 0.046637 -0.923879 0.379832
vn 0.046637 -0.923879 0.379832
vn 0.046637 -0.923882 0.379825
vn 0.046637 -0.923882 0.379825
vn 0.046637 -0.923882 0.379825
vn 0.311181 0.862858 -0.398300
vn 0.311181 0.862858 -0.398300
vn 0.311181 0.862858 -0.398300
vn 0.233530 0.925266 -0.298910
vn 0.233530 0.925266 -0.298910
vn 0.233530 0.925266 -0.298910
vn 0.233530 -0.925266 -0.298910
vn 0.233530 -0.925266 -0.298910
vn 0.233530 -0.925266 -0.298910
vn 0.311181 -0.862858 -0.398300
vn 0.311181 -0.862858 -0.398300
vn 0.311181 -0.862858 -0.398300
vn 0.379826 0.923882 -0.046637
vn 0.379826 0.923882 -0.046637
vn 0.379826 0.923882 -0.046637
vn 0.379826 0.923882 -0.046637
vn 0.379826 0.923882 -0.046637
vn 0.379826 0.923882 -0.046637
vn 0.379826 -0.923882 -0.046637
vn 0.379826 -0.923882 -0.046637
vn 0.379826 -0.923882 -0.046637
vn 0.379826 -0.923882 -0.046637
vn 0.379826 -0.923882 -0.046637
vn 0.379826 -0.923882 -0.046637
vn 0.324390 0.886453 0.330108
vn 0.324390 0.886453 0.330108
vn 0.324390 0.886453 0.330108
vn 0.398776 0.886454 0.234898
vn 0.398776 0.886454 0.234898
vn 0.398776 0.886454 0.234898
vn 0.398776 -0.886454 0.234898
vn 0.398776 -0.886454 0.234898
vn 0.398776 -0.886454 0.234898
vn 0.324390 -0.886453 0.330108
vn 0.324390 -0.886453 0.330108
vn 0.324390 -0.886453 0.330108
vn -0.171615 -0.367175 0.914183
vn -0.171615 -0.367175 0.914183
vn -0.171615 -0.367175 0.914183
vn -0.256397 -0.281755 0.924594
vn -0.256397 -0.281755 0.924594
vn -0.256397 -0.281755 0.924594
vn -0.472482 -0.281743 -0.835094
vn -0.472482 -0.281743 -0.835094
vn -0.472482 -0.281743 -0.835094
vn -0.387678 -0.367183 -0.845507
vn -0.387678 -0.367183 -0.845507
vn -0.387678 -0.367183 -0.845507
vn -0.267224 0.000000 0.963635
vn -0.267224 0.000000 0.963635
vn -0.267224 0.000000 0.963635
vn -0.267224 0.000000 0.963635
vn -0.267224 0.000000 0.963635
vn -0.267224 0.000000 0.963635
vn -0.492430 0.000000 -0.870352
vn -0.492430 0.000000 -0.870352
vn -0.492430 0.000000 -0.870352
vn -0.492430 0.000000 -0.870352
vn -0.492430 0.000000 -0.870352
vn -0.492430 0.000000 -0.870352
vn -0.249573 0.357403 0.899987
vn -0.249573 0.357403 0.899987
vn -0.249573 0.357403 0.899987
vn -0.153474 0.268242 0.951048
vn -0.153474 0.268242 0.951048
vn -0.153474 0.268242 0.951048
vn -0.378991 0.268226 -0.885675
vn -0.378991 0.268226 -0.885675
vn -0.378991 0.268226 -0.885675
vn -0.459904 0.357409 -0.812864
vn -0.459904 0.357409 -0.812864
vn -0.459904 0.357409 -0.812864
vn 0.112592 -0.382695 0.916988
vn 0.112592 -0.382695 0.916988
vn 0.112592 -0.382695 0.916988
vn 0.112592 -0.382678 0.916995
vn 0.112592 -0.382678 0.916995
vn 0.112592 -0.382678 0.916995
vn -0.112592 -0.382687 -0.916992
vn -0.112592 -0.382687 -0.916992
vn -0.112592 -0.382687 -0.916992
vn -0.112592 -0.382686 -0.916992
vn -0.112592 -0.382686 -0.916992
vn -0.112592 -0.382686 -0.916992
vn 0.121869 0.000000 0.992546
vn 0.121869 0.000000 0.992546
vn 0.121869 0.000000 0.992546
vn 0.121869 0.000000 0.992546
vn 0.121869 0.000000 0.992546
vn 0.121869 0.000000 0.992546
vn -0.121869 0.000000 -0.992546
vn -0.121869 0.000000 -0.992546
vn -0.121869 0.000000 -0.992546
vn -0.121869 0.000000 -0.992546
vn -0.121869 0.000000 -0.992546
vn -0.121869 0.000000 -0.992546
vn 0.112592 0.382695 0.916988
vn 0.112592 0.382695 0.916988
vn 0.112592 0.382695 0.916988
vn 0.112593 0.382678 0.916995
vn 0.112593 0.382678 0.916995
vn 0.112593 0.382678 0.916995
vn -0.112592 0.382687 -0.916992
vn -0.112592 0.382687 -0.916992
vn -0.112592 0.382687 -0.916992
vn -0.112592 0.382686 -0.916992
vn -0.112592 0.382686 -0.916992
vn -0.112592 0.382686 -0.916992
vn 0.378993 -0.268243 0.885669
vn 0.378993 -0.268243 0.885669
vn 0.378993 -0.268243 0.885669
vn 0.459899 -0.357417 0.812863
vn 0.459899 -0.357417 0.812863
vn 0.459899 -0.357417 0.812863
vn 0.249586 -0.357410 -0.899981
vn 0.249586 -0.357410 -0.899981
vn 0.249586 -0.357410 -0.899981
vn 0.153458 -0.268222 -0.951056
vn 0.153458 -0.268222 -0.951056
vn 0.153458 -0.268222 -0.951056
vn 0.492426 0.000000 0.870354
vn 0.492426 0.000000 0.870354
vn 0.492426 0.000000 0.870354
vn 0.492426 0.000000 0.870354
vn 0.492426 0.000000 0.870354
vn 0.492426 0.000000 0.870354
vn 0.267237 0.000000 -0.963631
vn 0.267237 0.000000 -0.963631
vn 0.267237 0.000000 -0.963631
vn 0.267237 0.000000 -0.963631
vn 0.267237 0.000000 -0.963631
vn 0.267237 0.000000 -0.963631
vn 0.472476 0.281757 0.835093
vn 0.472476 0.281757 0.835093
vn 0.472476 0.281757 0.835093
vn 0.387678 0.367191 0.845504
vn 0.387678 0.367191 0.845504
vn 0.387678 0.367191 0.845504
vn 0.171605 0.367185 -0.914181
vn 0.171605 0.367185 -0.914181
vn 0.171605 0.367185 -0.914181
vn 0.256412 0.281740 -0.924595
vn 0.256412 0.281740 -0.924595
vn 0.256412 0.281740 -0.924595
f 1/1/1 2/2/2 3/3/3
f 4/4/4 5/5/5 6/6/6
f 7/7/7 8/8/8 9/9/9
f 10/10/10 11/11/11 12/12/12
f 13/13/13 14/14/14 15/15/15
f 16/16/16 17/17/17 18/18/18
f 19/19/19 20/20/20 21/21/21
f 22/22/22 23/23/23 24/24/24
f 25/25/25 26/26/26 27/27/27
f 28/28/28 29/29/29 30/30/30
f 31/31/31 32/32/32 33/33/33
f 34/34/34 35/35/35 36/36/36
f 37/37/37 38/38/38 39/39/39
f 40/40/40 41/41/41 42/42/42
f 43/43/43 44/44/44 45/45/45
f 46/46/46 47/47/47 48/48/48
f 49/49/49 50/50/50 51/51/51
f 52/52/52 53/53/53 54/54/54
f 55/55/55 56/56/56 57/57/57
f 58/58/58 59/59/59 60/60/60
f 61/61/61 62/62/62 63/63/63
f 64/64/64 65/65/65 66/66/66
f 67/67/67 68/68/68 69/69/69
f 70/70/70 71/71/71 72/72/72
f 73/73/73 74/74/74 75/75/75
f 76/76/76 77/77/77 78/78/78
f 79/79/79 80/80/80 81/81/81
f 82/82/82 83/83/83 84/84/84
f 85/85/85 86/86/86 87/87/87
f 88/88/88 89/89/89 90/90/90
f 91/91/91 92/92/92 93/93/93
f 94/94/94 95/95/95 96/96/96
f 97/97/97 98/98/98 99/99/99
f 100/100/100 101/101/101 102/102/102
f 103/103/103 104/104/104 105/105/105
f 106/106/106 107/107/107 108/108/108
f 109/109/109 110/110/110 111/111/111
f 112/112/112 113/113/113 114/114/114
f 115/115/115 116/116/116 117/117/117
f 118/118/118 119/119/119 120/120/120
f 121/121/121 122/122/122 123/123/123
f 124/124/124 125/125/125 126/126/126
f 127/127/127 128/128/128 129/129/129
f 130/130/130 131/131/131 132/132/132
f 133/133/133 134/134/134 135/135/135
f 136/136/136 137/137/137 138/138/138
f 139/139/139 140/140/140 141/141/141
f 142/142/142 143/143/143 144/144/144
f 145/145/145 146/146/146 147/147/147
f 148/148/148 149/149/149 150/150/150
f 151/151/151 152/152/152 153/153/153
f 154/154/154 155/155/155 156/156/156
f 157/157/157 158/158/158 159/159/159
f 160/160/160 161/161/161 162/162/162
f 163/163/163 164/164/164 165/165/165
f 166/166/166 167/167/167 168/168/168
f 169/169/169 170/170/170 171/171/171
f 172/172/172 173/173/173 174/174/174
f 175/175/175 176/176/176 177/177/177
f 178/178/178 179/179/179 180/180/180
f 181/181/181 182/182/182 183/183/183
f 184/184/184 185/185/185 186/186/186
f 187/187/187 188/188/188 189/189/189
f 190/190/190 191/191/191 192/192/192
f 193/193/193 194/194/194 195/195/195
f 196/196/196 197/197/197 198/198/198
f 199/199/199 200/200/200 201/201/201
f 202/202/202 203/203/203 204/204/204
f 205/205/205 206/206/206 207/207/207
f 208/208/208 209/209/209 210/210/210
f 211/211/211 212/212/212 213/213/213
f 214/214/214 215/215/215 216/216/216
f 217/217/217 218/218/218 219/219/219
f 220/220/220 221/221/221 222/222/222
f 223/223/223 224/224/224 225/225/225
f 226/226/226 227/227/227 228/228/228
f 229/229/229 230/230/230 231/231/231
f 232/232/232 233/233/233 234/234/234
f 235/235/235 236/236/236 237/237/237
f 238/238/238 239/239/239 240/240/240
f 241/241/241 242/242/242 243/243/243
f 244/244/244 245/245/245 246/246/246
f 247/247/247 248/248/248 249/249/249
f 250/250/250 251/251/251 252/252/252
f 253/253/253 254/254/254 255/255/255
f 256/256/256 257/257/257 258/258/258
f 259/259/259 260/260/260 261/261/261
f 262/262/262 263/263/263 264/264/264
f 265/265/265 266/266/266 267/267/267
f 268/268/268 269/269/269 270/270/270
f 271/271/271 272/272/272 273/273/273
f 274/274/274 275/275/275 276/276/276
f 277/277/277 278/278/278 279/279/279
f 280/280/280 281/281/281 282/282/282
f 283/283/283 284/284/284 285/285/285
f 286/286/286 287/287/287 288/288/288
f 289/289/289 290/290/290 291/291/291
f 292/292/292 293/293/293 294/294/294
f 295/295/295 296/296/296 297/297/297
f 298/298/298 299/299/299 300/300/300
f 301/301/301 302/302/302 303/303/303
f 304/304/304 305/305/305 306/306/306
f 307/307/307 308/308/308 309/309/309
f 310/310/310 311/311/311 312/312/312
f 313/313/313 314/314/314 315/315/315
f 316/316/316 317/317/317 318/318/318
f 319/319/319 320/320/320 321/321/321
f 322/322/322 323/323/323 324/324/324
f 325/325/325 326/326/326 327/327/327
f 328/328/328 329/329/329 330/330/330
f 331/331/331 332/332/332 333/333/333
f 334/334/334 335/335/335 336/336/336
f 337/337/337 338/338/338 339/339/339
f 340/340/340 341/341/341 342/342/342
f 343/343/343 344/344/344 345/345/345
f 346/346/346 347/347/347 348/348/348
f 349/349/349 350/350/350 351/351/351
f 352/352/352 353/353/353 354/354/354
f 355/355/355 356/356/356 357/357/357
f 358/358/358 359/359/359 360/360/360
f 361/361/361 362/362/362 363/363/363
f 364/364/364 365/365/365 366/366/366
f 367/367/367 368/368/368 369/369/369
f 370/370/370 371/371/371 372/372/372
f 373/373/373 374/374/374 375/375/375
f 376/376/376 377/377/377 378/378/378
f 379/379/379 380/380/380 381/381/381
f 382/382/382 383/383/383 384/384/384
f 385/385/385 386/386/386 387/387/387
f 388/388/388 389/389/389 390/390/390
f 391/391/391 392/392/392 393/393/393
f 394/394/394 395/395/395 396/396/396
f 397/397/397 398/398/398 399/399/399
f 400/400/400 401/401/401 402/402/402
f 403/403/403 404/404/404 405/405/405
f 406/406/406 407/407/407 408/408/408
f 409/409/409 410/410/410 411/411/411
f 412/412/412 413/413/413 414/414/414
f 415/415/415 416/416/416 417/417/417
f 418/418/418 419/419/419 420/420/420
f 421/421/421 422/422/422 423/423/423
f 424/424/424 425/425/425 426/426/426
f 427/427/427 428/428/428 429/429/429
f 430/430/430 431/431/431 432/432/432
f 433/433/433 434/434/434 435/435/435
f 436/436/436 437/437/437 438/438/438
f 439/439/439 440/440/440 441/441/441
f 442/442/442 443/443/443 444/444/444
f 445/445/445 446/446/446 447/447/447
f 448/448/448 449/449/449 450/450/450
f 451/451/451 452/452/452 453/453/453
f 454/454/454 455/455/455 456/456/456
f 457/457/457 458/458/458 459/459/459
f 460/460/460 461/461/461 462/462/462
f 463/463/463 464/464/464 465/465/465
f 466/466/466 467/467/467 468/468/468
f 469/469/469 470/470/470 471/471/471
f 472/472/472 473/473/473 474/474/474
f 475/475/475 476/476/476 477/477/477
f 478/478/478 479/479/479 480/480/480
f 481/481/481 482/482/482 483/483/483
f 484/484/484 485/485/485 486/486/486
f 487/487/487 488/488/488 489/489/489
f 490/490/490 491/491/491 492/492/492
f 493/493/493 494/494/494 495/495/495
f 496/496/496 497/497/497 498/498/498
f 499/499/499 500/500/500 501/501/501
f 502/502/502 503/503/503 504/504/504
f 505/505/505 506/506/506 507/507/507
f 508/508/508 509/509/509 510/510/510
f 511/511/511 512/512/512 513/513/513
f 514/514/514 515/515/515 516/516/516
f 517/517/517 518/518/518 519/519/519
f 520/520/520 521/521/521 522/522/522
f 523/523/523 524/524/524 525/525/525
f 526/526/526 527/527/527 528/528/528
f 529/529/529 530/530/530 531/531/531
f 532/532/532 533/533/533 534/534/534
f 535/535/535 536/536/536 537/537/537
f 538/538/538 539/539/539 540/540/540
f 541/541/541 542/542/542 543/543/543
f 544/544/544 545/545/545 546/546/546
f 547/547/547 548/548/548 549/549/549
f 550/550/550 551/551/551 552/552/552
f 553/553/553 554/554/554 555/555/555
f 556/556/556 557/557/557 558/558/558
f 559/559/559 560/560/560 561/561/561
f 562/562/562 563/563/563 564/564/564
f 565/565/565 566/566/566 567/567/567
f 568/568/568 569/569/569 570/570/570
f 571/571/571 572/572/572 573/573/573
f 574/574/574 575/575/575 576/576/576
f 577/577/577 578/578/578 579/579/579
f 580/580/580 581/581/581 582/582/582
f 583/583/583 584/584/584 585/585/585
f 586/586/586 587/587/587 588/588/588
f 589/589/589 590/590/590 591/591/591
f 592/592/592 593/593/593 594/594/594
f 595/595/595 596/596/596 597/597/597
f 598/598/598 599/599/599 600/600/600
f 601/601/601 602/602/602 603/603/603
f 604/604/604 605/605/605 606/606/606
f 607/607/607 608/608/608 609/609/609
f 610/610/610 611/611/611 612/612/612
f 613/613/613 614/614/614 615/615/615
f 616/616/616 617/617/617 618/618/618
f 619/619/619 620/620/620 621/621/621
f 622/622/622 623/623/623 624/624/624
f 625/625/625 626/626/626 627/627/627
f 628/628/628 629/629/629 630/630/630
f 631/631/631 632/632/632 633/633/633
f 634/634/634 635/635/635 636/636/636
f 637/637/637 638/638/638 639/639/639
f 640/640/640 641/641/641 642/642/642
f 643/643/643 644/644/644 645/645/645
f 646/646/646 647/647/647 648/648/648
f 649/649/649 650/650/650 651/651/651
f 652/652/652 653/653/653 654/654/654
f 655/655/655 656/656/656 657/657/657
f 658/658/658 659/659/659 660/660/660
f 661/661/661 662/662/662 663/663/663
f 664/664/664 665/665/665 666/666/666
f 667/667/667 668/668/668 669/669/669
f 670/670/670 671/671/671 672/672/672
f 673/673/673 674/674/674 675/675/675
f 676/676/676 677/677/677 678/678/678
f 679/679/679 680/680/680 681/681/681
f 682/682/682 683/683/683 684/684/684
f 685/685/685 686/686/686 687/687/687
f 688/688/688 689/689/689 690/690/690
f 691/691/691 692/692/692 693/693/693
f 694/694/694 695/695/695 696/696/696
f 697/697/697 698/698/698 699/699/699
f 700/700/700 701/701/701 702/702/702
f 703/703/703 704/704/704 705/705/705
f 706/706/706 707/707/707 708/708/708
f 709/709/709 710/710/710 711/711/711
f 712/712/712 713/713/713 714/714/714
f 715/715/715 716/716/716 717/717/717
f 718/718/718 719/719/719 720/720/720
f 721/721/721 722/722/722 723/723/723
f 724/724/724 725/725/725 726/726/726
f 727/727/727 728/728/728 729/729/729
f 730/730/730 731/731/731 732/732/732
f 733/733/733 734/734/734 735/735/735
f 736/736/736 737/737/737 738/738/738
f 739/739/739 740/740/740 741/741/741
f 742/742/742 743/743/743 744/744/744
f 745/745/745 746/746/746 747/747/747
f 748/748/748 749/749/749 750/750/750
f 751/751/751 752/752/752 753/753/753
f 754/754/754 755/755/755 756/756/756
f 757/757/757 758/758/758 759/759/759
f 760/760/760 761/761/761 762/762/762
f 763/763/763 764/764/764 765/765/765
f 766/766/766 767/767/767 768/768/768
f 769/769/769 770/770/770 771/771/771
f 772/772/772 773/773/773 774/774/774
f 775/775/775 776/776/776 777/777/777
f 778/778/778 779/779/779 780/780/780
f 781/781/781 782/782/782 783/783/783
f 784/784/784 785/785/785 786/786/786
f 787/787/787 788/788/788 789/789/789
f 790/790/790 791/791/791 792/792/792
